<svg xmlns="http://www.w3.org/2000/svg" viewBox="0 0 53.36 50.4"><g id="Layer_2" data-name="Layer 2"><g id="Guides_For_Artboard" data-name="Guides For Artboard"><path d="M12.67,0A3.68,3.68,0,1,1,9,3.68,3.67,3.67,0,0,1,12.67,0ZM5.19,37.47h8.27a3.23,3.23,0,0,1,3.21,3.22v3.38H19V40.69a3.22,3.22,0,0,1,3.21-3.22h8.26a3.23,3.23,0,0,1,3.22,3.22v3.38h2.52V40.69a3.23,3.23,0,0,1,3.22-3.22h8.26a3.22,3.22,0,0,1,3.21,3.22v3.38h2.49v1.84H50.87V50.4H36.18V45.91H33.66V50.4H19V45.91h-2.3V50.4H2V45.91H0V44.07H2V40.69a3.22,3.22,0,0,1,3.21-3.22Zm38.44-6.3a4,4,0,0,1,4,4,4,4,0,0,1-.26,1.42H39.87a4.21,4.21,0,0,1-.26-1.42,4,4,0,0,1,4-4Zm-17.22,0a4,4,0,0,1,4,4,4,4,0,0,1-.26,1.42H22.66a4,4,0,0,1-.26-1.42,4,4,0,0,1,4-4Zm-17,0a4,4,0,0,1,4,4,4.2,4.2,0,0,1-.25,1.42H5.67a4,4,0,0,1-.26-1.42,4,4,0,0,1,4-4Zm34.08-12.7v2.37H41.57l2.17,7.63H41l-2.17-7.63H30.7l-2.17,7.63H25.74l2.17-7.63h-2.3V18.47Zm-18-16.28a2.74,2.74,0,0,0-1.93.8h0a2.7,2.7,0,0,0-.8,1.93v5.28l-.85.11v-.9h-3.8L15.49,7.81H9.3A2.31,2.31,0,0,0,7,10.11V17.3H9.34V12h.4V28.31h2.63v-8h.55v8h2.57V10.56L18.14,12h3.8v-.63l.85-.18v3.92a2.71,2.71,0,0,0,.8,1.93h0a2.76,2.76,0,0,0,1.93.8h17.6a2.72,2.72,0,0,0,1.93-.81h0a2.76,2.76,0,0,0,.8-1.94V4.93a2.73,2.73,0,0,0-2.73-2.74Zm17.6,2.17a.56.56,0,0,1,.39.17.53.53,0,0,1,.17.4V15.12a.53.53,0,0,1-.17.4h0a.56.56,0,0,1-.39.17H25.52a.57.57,0,0,1-.4-.17h0a.56.56,0,0,1-.16-.4V10.75L33.7,8.94l0-.15L25,9.93v-5a.56.56,0,0,1,.16-.4h0a.6.6,0,0,1,.4-.17Z" style="fill:#fff;fill-rule:evenodd"/></g></g></svg>