<svg xmlns="http://www.w3.org/2000/svg" viewBox="0 0 54.31 52.58"><g id="Layer_2" data-name="Layer 2"><g id="Guides_For_Artboard" data-name="Guides For Artboard"><path d="M9.53,14.27H21.24a4.77,4.77,0,0,0,3.37-1.4,5.14,5.14,0,0,0,.92-1.29c2-.31,3.2-1.19,3.23-3.39L26,9.11V5.23A4.78,4.78,0,0,0,21.24.46H9.53A4.78,4.78,0,0,0,4.76,5.23V9.49a4.78,4.78,0,0,0,4.77,4.78Zm11.7-9a2,2,0,1,1-2,2A2,2,0,0,1,21.23,5.28Zm-5.78,0a2,2,0,1,1-2,2A2,2,0,0,1,15.45,5.28Zm-5.81,0a2,2,0,1,1-2,2A2,2,0,0,1,9.64,5.28Z" style="fill:#fff"/><path d="M40.2,48.83c-2.81-4.52-10.34-4.47-13.1.1-2.72-4.56-10.18-4.6-13-.18C10.59,43.33.24,44.65,0,52.58H54.31C54.07,44.56,43.63,43.35,40.2,48.83Z" style="fill:#fff"/><path d="M20.65,33.92a5.5,5.5,0,1,0,3.88,1.61A5.49,5.49,0,0,0,20.65,33.92Z" style="fill:#fff"/><rect x="30.54" y="27.08" width="17.02" height="5.03" style="fill:#fff"/><path d="M7.71,44.92a5.5,5.5,0,1,0-3.88-1.61A5.5,5.5,0,0,0,7.71,44.92Z" style="fill:#fff"/><path d="M29.91,35.53a5.49,5.49,0,1,0,3.89-1.61A5.47,5.47,0,0,0,29.91,35.53Z" style="fill:#fff"/><path d="M43,35.53a5.5,5.5,0,1,0,3.89-1.61A5.51,5.51,0,0,0,43,35.53Z" style="fill:#fff"/><path d="M39,11.06a5.53,5.53,0,1,0-5.53-5.53A5.54,5.54,0,0,0,39,11.06Z" style="fill:#fff"/><path d="M27.38,26.25h23.1V24h-3V15.22A3.48,3.48,0,0,0,44,11.75h-10a3.48,3.48,0,0,0-3.47,3.47V24H27.38ZM42.54,18.1h1.3V24h-1.3ZM34,18.1h1.3V24H34Z" style="fill:#fff"/></g></g></svg>