<svg xmlns="http://www.w3.org/2000/svg" viewBox="0 0 51.49 48.7"><g id="Layer_2" data-name="Layer 2"><g id="Layer_1-2" data-name="Layer 1"><path d="M9.36,23.14a14.33,14.33,0,0,0,3.29,6.07A9.64,9.64,0,0,0,18.07,32l.19,0,.19,0A10.26,10.26,0,0,0,24,29a14.06,14.06,0,0,0,3.1-5.94,3.44,3.44,0,0,0,1.42-1.75A8.66,8.66,0,0,0,29,18v-.52l-.44-.3-.15-.1C29,9.42,27.93,5,18.7,6.22c-3.14.42-6.54-.5-8.48.92C7.78,9.45,7.6,12.9,8.27,17a4,4,0,0,0-.44.27l-.44.3V18a8.61,8.61,0,0,0,.51,3.36A3.33,3.33,0,0,0,9.36,23.14ZM10.73,19c0-.09.06-.19.09-.31h0l0-.21c.15-.59.31-1.37.46-2l.19-.51c2.15,1.64,6,1.82,9.31-1.1h0l-.59,1.6.6.12.67-1.08-.08.76.63.08.4-1.24c.78.45,1.64,1,2.42.72a9.25,9.25,0,0,1,.58,1.91l.17.88.29,0,.13.46A7.91,7.91,0,0,1,27,19a5.31,5.31,0,0,1-.33,1.61,1.3,1.3,0,0,1-.72.83l-.51.18-.14.52a12.56,12.56,0,0,1-2.74,5.52A8.18,8.18,0,0,1,18.22,30,7.57,7.57,0,0,1,14.1,27.8a12.71,12.71,0,0,1-2.92-5.65L11,21.61l-.54-.17a1.28,1.28,0,0,1-.74-.81A5.43,5.43,0,0,1,9.42,19C9.91,18.92,10.46,18.77,10.73,19Z" style="fill:#fff"/><path d="M50.49,1a3.39,3.39,0,0,0-2.41-1h-30a3.37,3.37,0,0,0-2.4,1h0a3.39,3.39,0,0,0-1,2.4V4.64h1.69V3.41a1.72,1.72,0,0,1,1.72-1.72h30a1.73,1.73,0,0,1,1.22.5,1.76,1.76,0,0,1,.51,1.22V22.16a1.72,1.72,0,0,1-.51,1.22h0a1.71,1.71,0,0,1-1.22.5H37l2.53-2-1-1.33-7.7,6.06.07-.47-1.67-.25-.39,2.57-.32,2.1,1.67-1.31,4.7-3.69H48.08a3.44,3.44,0,0,0,2.41-1h0a3.39,3.39,0,0,0,1-2.41V3.41A3.39,3.39,0,0,0,50.49,1Z" style="fill:#fff"/><path d="M31.49,32.09l-.33-.31h-.45L25.44,32v2.17L30.31,34a15.8,15.8,0,0,1,3.08,5.76,21.22,21.22,0,0,1,1.06,6.78H2.23a30.92,30.92,0,0,1,.88-6.1,13.25,13.25,0,0,1,3.3-6.25l4.42,0V32L6,32H5.58l-.31.27A15,15,0,0,0,1,39.87a34.27,34.27,0,0,0-1,7.72L0,48.7H36.45l.1-1a22,22,0,0,0-1.1-8.65A16.89,16.89,0,0,0,31.49,32.09Z" style="fill:#fff"/><rect x="39.46" y="14.2" width="7.03" height="1.28" style="fill:#fff"/><path d="M18.65,46.26l3.06-1.49L19.54,35.3l.71-1.17-.05-1.2a22.91,22.91,0,0,0-3.1,0l-.05,1.2.7,1.17-2.16,9.47Z" style="fill:#fff"/><rect x="35.97" y="9.86" width="2.85" height="1.28" style="fill:#fff"/><rect x="40.1" y="9.86" width="1.42" height="1.28" style="fill:#fff"/><rect x="32.03" y="9.86" width="2.85" height="1.28" style="fill:#fff"/><rect x="32.03" y="14.2" width="6.31" height="1.28" style="fill:#fff"/><rect x="32.03" y="5.84" width="14.46" height="1.28" style="fill:#fff"/><rect x="42.95" y="9.86" width="3.54" height="1.28" style="fill:#fff"/></g></g></svg>