<svg xmlns="http://www.w3.org/2000/svg" viewBox="0 0 56.13 36.89"><g id="Layer_2" data-name="Layer 2"><g id="Layer_1-2" data-name="Layer 1"><path d="M17.61,20.7A8.78,8.78,0,0,1,14.87,22l-.14,0-.14,0a7.41,7.41,0,0,1-3.45-1.42,6.68,6.68,0,0,1-3,1.73,33.43,33.43,0,0,0,6.31,12.9,39.18,39.18,0,0,0,6-12.64,7,7,0,0,1-2.82-1.89ZM49.55,10.43l.33.2.33.23v.4a7.37,7.37,0,0,1-.43,2.89,2.89,2.89,0,0,1-1.24,1.52,15,15,0,0,1-1.45,3.65,5.91,5.91,0,0,1-3,2.63,13.3,13.3,0,0,1-3.62.3A11.39,11.39,0,0,1,37,21.83a6,6,0,0,1-2.74-2.7A16.1,16.1,0,0,1,33,15.71a2.9,2.9,0,0,1-1.29-1.51,7.41,7.41,0,0,1-.44-2.94v-.4l.34-.23.25-.16c-.37-4.63-.23-6.35,1.49-8.31C36.67-.6,44.38-.5,47.78,2c2.32,2.19,2.48,4.64,1.77,8.43ZM41,32.26,46.38,24l5.48-.18c2.83,2.67,4.65,9,4.2,13.09H.52C0,34.42-.36,27.62,3.05,24.14c1-1,2.83-1.25,4.51-1.68a6.37,6.37,0,0,1-5.12-1.28,6,6,0,0,0,2.85-3.06A6.46,6.46,0,0,1,0,18.68C2.58,17.31,4.14,16.55,5.14,8.4c.36-3,1.59-5.5,2.7-6.41C10.93-.54,17.28-.65,20.4,1.64,22.29,3,24.05,8.9,24.13,13.5h0c.39,5.78-.24,6.54,2.49,9.66a20.24,20.24,0,0,1-2.3.1,4,4,0,0,1,2,1.51,10,10,0,0,1,1.11,2.52A9.91,9.91,0,0,1,29.86,24l5,0L41,32.26ZM45.61,8.78c-2.18.43-3.47.8-6-.64-1-.56-2.43.58-3.61.46A8.86,8.86,0,0,0,35.18,11l-.13.7-.71-.07a1,1,0,0,0-.4.05l-.19.08a5.41,5.41,0,0,0,.32,1.89,1.29,1.29,0,0,0,.74.79l.41.13.11.41a16.2,16.2,0,0,0,1.27,3.45c1.32,2.09,6.79,2.05,8.2.13a14.78,14.78,0,0,0,1.37-3.6l.11-.39.38-.14a1.31,1.31,0,0,0,.72-.81,5.32,5.32,0,0,0,.32-1.86l-.17-.07a1,1,0,0,0-.4-.06l-.68,0L46.32,11a8.84,8.84,0,0,0-.71-2.18Zm-25.27,1.8a10.56,10.56,0,0,1-.16,3.49,8.28,8.28,0,0,1-5.54,6.53c-2.83-.47-4.66-2.75-5.43-5.42a11.05,11.05,0,0,1-.41-3.61c0-.34.06-.67.11-1C9.13,10.63,19.9,10.67,20.34,10.58Z" style="fill:#fff;fill-rule:evenodd"/></g></g></svg>