<svg xmlns="http://www.w3.org/2000/svg" viewBox="0 0 54.04 39.6"><g id="Layer_2" data-name="Layer 2"><g id="Layer_1-2" data-name="Layer 1"><path d="M7.89,0A5.11,5.11,0,1,1,2.77,5.11,5.11,5.11,0,0,1,7.89,0Zm42.9,25.69V29H48.08l3,10.61H47.22L44.2,29H33l-3,10.61H26.07l3-10.61h-3.2v-3.3Zm-25-22.64a3.83,3.83,0,0,0-2.69,1.11h0A3.79,3.79,0,0,0,22,6.85v7.36l-1.17.15V13.1H15.5l-3.68-2.24H3.2A3.21,3.21,0,0,0,0,14.07v10H3.25V16.73h.56V39.38H7.47V28.24h.77V39.38h3.58V14.68l3.68,2h5.29v-.89L22,15.58V21a3.79,3.79,0,0,0,1.12,2.69h0a3.79,3.79,0,0,0,2.69,1.12H50.24a3.79,3.79,0,0,0,2.68-1.12h0A3.79,3.79,0,0,0,54,21V6.85a3.79,3.79,0,0,0-3.8-3.8Zm24.47,3a.79.79,0,0,1,.55.23.75.75,0,0,1,.23.55V21a.77.77,0,0,1-.23.56h0a.77.77,0,0,1-.55.23H25.77a.79.79,0,0,1-.56-.23h0A.79.79,0,0,1,25,21V15l12.16-2.52,0-.21L25,13.81v-7a.77.77,0,0,1,.23-.55h0a.79.79,0,0,1,.56-.23Z" style="fill:#fff;fill-rule:evenodd"/></g></g></svg>