<svg xmlns="http://www.w3.org/2000/svg" viewBox="0 0 52.1 44.73"><g id="Layer_2" data-name="Layer 2"><g id="Guides_For_Artboard" data-name="Guides For Artboard"><path d="M29.88,1.83h3.23l-.26,4.63h9.59l-.26-4.63h3.23l.26,4.63H52.1V29.09H47l.21,3.68h2.38v2H47.27l.57,10H44.61l-.57-10H31.25l-.57,10H27.45l.57-10H25.71v-2h2.42l.21-3.68H23.39V24.34L26.6,22v3.89H48.89V9.67H26.6v6.68l-3.21.91V6.46h6.23l.26-4.63ZM32.69,20v-.85h-1.4V16.79h1.25V16H31.29v-1.8h1.39v-.86H29.83V20ZM47.5,16.46v-.58H46.29l1.12-2.13a1.09,1.09,0,0,0,.09-.47,1.86,1.86,0,0,0-.22-1,1.05,1.05,0,0,0-.92-.32c-.75,0-1.12.29-1.12.87v.78h.89v-.77c0-.12.07-.19.21-.19s.2.1.2.31a2,2,0,0,1-.19.91l-1.11,2v.6Zm-6,3.52V15.33a.68.68,0,0,0-.3-.58,1.18,1.18,0,0,0-.65-.2,1.23,1.23,0,0,0-1,.37,1.16,1.16,0,0,0-.84-.37,1.23,1.23,0,0,0-.82.23v-.19H36.57V20h1.32V15.64a.2.2,0,0,1,.23-.23.21.21,0,0,1,.23.24V20h1.32V15.66a.21.21,0,0,1,.23-.24c.16,0,.23.09.23.25V20Zm3.4-3V15.64c0-.73-.51-1.09-1.53-1.09s-1.57.38-1.57,1.14v3.23c0,.76.52,1.14,1.57,1.14s1.53-.36,1.53-1.09V17.65H43.53V19c0,.18-.08.27-.23.27s-.23-.09-.23-.27v-3.3c0-.17.08-.26.23-.26s.23.09.23.26V17Zm-8.59,0v-.76H32.92v.76Zm0,1.5v-.75H32.92v.75Zm7.67,14.34-.21-3.68H31.57l-.21,3.68ZM26.33,18.22l-.2-.24L22,19.06,18.42,13.4H15.77l-2.93,3.87L9.92,13.4H6.81L0,25.18l1.33,1.27,5.74-5.14.32,6.75L6.75,44.73h4.08l.9-14.21h1.85l.73,14.21h4.36l-1-16.67V28h-7l7.08-1.34.33-6.15,3.12,3.27.31.33,6-4.42-.28-.33,2.46-1.71L29.22,17l-2.89,1.23ZM12.82,0A6.16,6.16,0,1,0,19,6.15,6.15,6.15,0,0,0,12.82,0Z" style="fill:#fff;fill-rule:evenodd"/></g></g></svg>