<svg xmlns="http://www.w3.org/2000/svg" viewBox="0 0 96.8 93.04"><defs><style>.a{isolation:isolate;}.b{fill:#ed6326;mix-blend-mode:multiply;}.c{fill:#fbfbfb;}</style></defs><g class="a"><path class="b" d="M6.44,0H90.37c3.55,0,6.43,2.16,6.43,4.83V70.05c0,2.67-2.88,4.83-6.43,4.83H37.45L21.93,93,20.39,74.88H6.44C2.88,74.88,0,72.72,0,70.05V4.83C0,2.16,2.88,0,6.44,0Z"/><path class="c" d="M80.09,58.43V16.87a3.58,3.58,0,0,0-.21-1.12,3.5,3.5,0,0,0-3.3-2.32H21.41a3.49,3.49,0,0,0-3.3,2.32,3.4,3.4,0,0,0-.21,1.33V58.17a3.45,3.45,0,0,0,.21,1.34,3.51,3.51,0,0,0,3.3,2.32H76.58a3.52,3.52,0,0,0,3.3-2.32,3.85,3.85,0,0,0,.2-.94v-.09A.11.11,0,0,1,80.09,58.43Zm-3.51-4.69L65,44.11l-7.78-6.48L65,31.14l11.55-9.62Zm0-36.8-13.8,11.5-8.86,7.39A6.84,6.84,0,0,1,49,38a6.76,6.76,0,0,1-4.84-2.07l-9-7.46L21.42,16.94H76.58ZM21.42,21.52,33,31.14l7.79,6.49L33,44.11,21.42,53.73ZM49,58.31H21.42L35.2,46.81l8.32-6.93a10.14,10.14,0,0,0,10.95,0l8.31,6.92,13.8,11.5Z"/></g></svg>