<svg xmlns="http://www.w3.org/2000/svg" viewBox="0 0 32.9 32.9"><defs><style>.a{fill:#fd6120;}.b{fill:#de3f18;}.c{fill:#d1ecfb;}.d{fill:#fff;}.e{fill:#0e303f;}.f{fill:#2c5871;}</style></defs><path class="a" d="M0,16.5A16.45,16.45,0,1,1,16.5,32.9h0A16.37,16.37,0,0,1,0,16.5Z"/><path class="b" d="M22.6,31.7a16.79,16.79,0,0,0,8.8-8.4L17.5,9.3a1.38,1.38,0,0,1-.3-.4,6.08,6.08,0,0,0-8.6,8.6c.1.1.3.2.4.4H9Z"/><path class="c" d="M24.7,25.3h0a1.57,1.57,0,0,1-2.2,0l-4.7-4.8a1.57,1.57,0,0,1,0-2.2h0a1.57,1.57,0,0,1,2.2,0h0l4.7,4.8a1.57,1.57,0,0,1,0,2.2Z"/><path class="d" d="M24,25.2a.75.75,0,0,1-.9,0l-4.7-4.8a.75.75,0,0,1,0-.9.61.61,0,0,1,.8,0h0l4.7,4.8c.3.3.4.7.1.9Z"/><path class="e" d="M17.1,17.6h0a6,6,0,0,1-8.6,0,6.22,6.22,0,0,1-1.8-4.3,6.06,6.06,0,0,1,6.1-6.1A5.82,5.82,0,0,1,17.1,9a6,6,0,0,1,0,8.6Z"/><path class="f" d="M12.8,19.1a5.7,5.7,0,0,1,0-11.4h0v.8h0a5.1,5.1,0,0,0-5.6,4.4,5.1,5.1,0,0,0,4.4,5.6h1.2Z"/><path class="a" d="M9.6,10.2A4.53,4.53,0,0,0,16,16.6h0a4.22,4.22,0,0,0,1.3-3.2,4.48,4.48,0,0,0-4.5-4.5,4,4,0,0,0-3.2,1.3Z"/><path class="b" d="M16,10.2a4.22,4.22,0,0,0-3.2-1.3,3.4,3.4,0,0,0-1,.1,4.55,4.55,0,0,0,1.8,8.7,3.4,3.4,0,0,0,1-.1,3,3,0,0,0,1.3-.9h0a4.22,4.22,0,0,0,1.3-3.2A3.91,3.91,0,0,0,16,10.2Z"/><path class="e" d="M18.4,19a.78.78,0,0,1-1.1,0l-1-1a.78.78,0,0,1,0-1.1h0a.78.78,0,0,1,1.1,0h0l1,1a.78.78,0,0,1,0,1.1Z"/></svg>