<svg xmlns="http://www.w3.org/2000/svg" viewBox="0 0 32.9 32.9"><g id="Layer_4" data-name="Layer 4"><path d="M0,16.46A16.45,16.45,0,1,1,16.46,32.9h0A16.44,16.44,0,0,1,0,16.47Z" style="fill:#4daec5"/><path d="M22.62,31.68a16.44,16.44,0,0,0,8.75-8.36L17.43,9.37c-.11-.12-.22-.25-.34-.37a6.07,6.07,0,1,0-8.62,8.55l.38.35h0Z" style="fill:#0b6395;opacity:0.25"/><path d="M24.68,25.22h0a1.56,1.56,0,0,1-2.19,0l-4.74-4.76a1.55,1.55,0,0,1,0-2.19h0a1.55,1.55,0,0,1,2.19,0h0L24.68,23a1.57,1.57,0,0,1,0,2.2Z" style="fill:#d1ecfb"/><path d="M24,25.19a.61.61,0,0,1-.85,0l-4.74-4.76a.61.61,0,0,1,0-.85.6.6,0,0,1,.85,0h0L24,24.34a.6.6,0,0,1,0,.83Z" style="fill:#fff"/><path d="M17.08,17.58h0a6.08,6.08,0,1,1,0-8.57,6.07,6.07,0,0,1,0,8.57Z" style="fill:#0e303f"/><path d="M12.78,19a5.73,5.73,0,0,1,0-11.46h0v.76h0a5,5,0,1,0-1.18,9.93,4.66,4.66,0,0,0,1.18,0Z" style="fill:#2c5871"/><path d="M9.59,10.09A4.53,4.53,0,0,0,16,16.48h0a4.46,4.46,0,0,0,1.33-3.18,4.53,4.53,0,0,0-7.72-3.21Z" style="fill:#4daec5"/><path d="M16,10.1a4.43,4.43,0,0,0-3.2-1.33,4.2,4.2,0,0,0-1,.11,4.52,4.52,0,0,0,1.85,8.64,4.79,4.79,0,0,0,1-.11A4.46,4.46,0,0,0,16,16.48h0a4.46,4.46,0,0,0,1.33-3.18A4.53,4.53,0,0,0,16,10.1Z" style="fill:#0b6395;opacity:0.25"/><path d="M18.35,18.9a.78.78,0,0,1-1.1,0l-1-1a.76.76,0,0,1,0-1.07l0,0h0a.77.77,0,0,1,1.09,0h0l1,1a.77.77,0,0,1,0,1.09h0Z" style="fill:#0e303f"/></g></svg>