<?xml version="1.0" standalone="no"?>
<!DOCTYPE svg PUBLIC "-//W3C//DTD SVG 20010904//EN"
 "http://www.w3.org/TR/2001/REC-SVG-20010904/DTD/svg10.dtd">
<svg version="1.0" xmlns="http://www.w3.org/2000/svg"
 width="528.000000pt" height="528.000000pt" viewBox="0 0 528.000000 528.000000"
 preserveAspectRatio="xMidYMid meet">
<metadata>
Created by potrace 1.11, written by Peter Selinger 2001-2013
</metadata>
<g transform="translate(0.000000,528.000000) scale(0.100000,-0.100000)"
fill="#000000" stroke="none">
<path d="M315 5262 c-130 -44 -210 -115 -262 -234 -24 -55 -28 -75 -28 -163 0
-93 3 -105 34 -170 41 -84 108 -153 188 -193 l58 -30 1 -173 c1 -96 4 -197 8
-226 25 -201 191 -385 396 -438 56 -15 134 -18 590 -20 477 -2 529 -3 565 -19
46 -21 125 -82 125 -98 0 -5 8 -22 19 -36 29 -41 34 -98 36 -357 1 -232 1
-241 -20 -270 -29 -39 -105 -175 -99 -175 2 0 -2 -12 -10 -27 -7 -16 -19 -54
-26 -85 l-13 -58 -41 -1 c-52 -1 -921 -1 -958 0 -17 1 -28 7 -28 15 0 20 -55
100 -94 140 -34 33 -121 84 -158 92 -151 33 -285 -2 -385 -102 -191 -190 -133
-511 112 -626 187 -87 416 -6 513 184 l23 43 502 -1 c551 -2 518 -1 515 -11
-4 -16 13 -82 37 -144 51 -130 141 -250 245 -328 l35 -26 -1 -415 c0 -228 -4
-433 -8 -454 -23 -121 -118 -228 -238 -268 -19 -6 -128 -12 -264 -13 l-231 -2
-31 68 c-75 160 -237 260 -413 255 -72 -3 -95 -8 -159 -38 -170 -79 -280 -259
-265 -435 5 -55 12 -98 15 -98 1 0 3 -9 5 -20 8 -41 68 -138 113 -181 88 -85
193 -126 314 -123 178 4 328 106 401 272 12 26 28 47 36 48 9 0 122 1 251 3
208 3 243 5 300 24 182 59 330 205 389 383 31 95 33 121 33 517 l0 364 21 -7
c76 -23 291 -23 350 0 11 5 17 2 17 -6 0 -8 2 -183 4 -389 1 -206 5 -386 9
-399 44 -164 104 -262 217 -352 60 -48 105 -72 176 -97 85 -29 114 -32 361
-34 l222 -1 35 -71 c49 -100 112 -163 208 -210 74 -36 97 -40 208 -40 81 0
105 5 162 28 38 16 68 32 68 36 0 5 8 11 19 15 36 11 112 100 146 170 83 172
55 369 -73 505 -222 236 -610 175 -744 -118 l-29 -63 -237 3 c-231 3 -238 4
-293 29 -67 32 -128 89 -159 149 -12 25 -27 54 -33 65 -8 13 -12 162 -12 454
l-1 433 86 87 c48 47 103 111 122 141 42 68 94 191 103 248 l7 42 71 1 c388 3
926 0 940 -6 9 -4 17 -13 17 -21 0 -45 96 -152 170 -189 99 -49 177 -60 275
-38 304 70 403 451 174 672 -70 67 -201 116 -280 105 -16 -2 -42 -6 -59 -8
-33 -5 -131 -48 -155 -68 -53 -46 -75 -70 -103 -116 -18 -29 -32 -57 -32 -62
0 -6 -181 -10 -508 -10 l-508 0 -18 73 c-20 79 -59 172 -84 200 -8 9 -12 17
-8 17 4 0 -6 18 -23 39 l-32 40 1 262 c1 234 3 267 21 314 32 87 124 165 209
179 19 3 263 6 541 6 475 1 511 3 573 21 196 59 345 222 382 419 4 19 7 120 8
224 l1 189 46 21 c103 47 173 121 216 227 21 53 24 72 20 157 -2 53 -6 104 -8
112 -31 100 -122 204 -216 248 -77 35 -83 36 -193 36 -129 0 -194 -29 -292
-128 -112 -112 -139 -301 -67 -461 18 -39 35 -60 85 -110 54 -53 62 -58 112
-80 23 -10 42 -24 43 -29 2 -21 0 -351 -1 -356 -1 -3 -2 -9 -1 -13 2 -14 -49
-111 -72 -136 -29 -31 -83 -65 -128 -80 -27 -8 -188 -12 -570 -14 l-534 -2
-73 -27 c-123 -45 -239 -140 -288 -236 -11 -20 -21 -39 -24 -42 -7 -6 -36
-102 -45 -147 -3 -18 -7 -104 -7 -192 0 -143 -2 -159 -17 -154 -9 4 -20 9 -26
14 -13 9 -112 40 -144 44 -13 2 -27 8 -30 13 -7 11 -7 950 0 955 2 2 33 17 69
35 272 131 340 502 130 713 -40 40 -106 92 -120 95 -3 0 -21 8 -40 16 -19 9
-58 20 -86 25 -289 53 -554 -182 -531 -471 7 -80 9 -96 20 -113 5 -7 5 -13 2
-13 -9 0 50 -104 78 -136 50 -60 143 -125 197 -139 l26 -6 -1 -479 c0 -263 -3
-481 -6 -485 -4 -3 -19 -8 -35 -11 -16 -3 -61 -16 -100 -30 -39 -13 -73 -24
-76 -24 -2 0 -5 71 -5 158 -1 173 -12 248 -51 332 -75 162 -217 268 -407 306
-11 2 -247 4 -524 5 -478 0 -507 1 -557 20 -54 20 -116 71 -146 120 -31 50
-41 113 -42 287 l-1 174 60 30 c248 122 305 453 113 651 -106 108 -279 154
-413 109z m190 -256 c18 -8 47 -33 64 -56 25 -35 29 -49 27 -94 -5 -94 -63
-150 -158 -150 -64 -1 -97 17 -136 74 -22 33 -31 117 -14 134 4 4 7 11 7 15 0
14 42 59 70 74 37 20 95 21 140 3z m4397 -2 c61 -32 89 -75 90 -142 0 -73 -40
-130 -109 -153 -130 -43 -250 92 -192 216 38 80 136 118 211 79z m-2177 -284
c73 -33 113 -102 110 -190 -6 -179 -231 -256 -349 -119 -88 103 -58 245 66
312 44 23 119 22 173 -3z m-2168 -2240 c90 -54 91 -175 3 -237 -27 -19 -92
-23 -128 -8 -43 19 -80 73 -83 121 -7 107 116 181 208 124z m4301 0 c36 -22
71 -87 67 -124 -6 -47 -37 -97 -74 -115 -122 -60 -249 61 -188 180 38 75 126
101 195 59z m-3756 -1841 c128 -65 154 -225 54 -325 -24 -25 -59 -47 -84 -54
-86 -26 -198 23 -237 106 -18 39 -27 131 -13 140 4 3 8 14 8 25 0 27 78 103
120 115 42 13 121 10 152 -7z m3243 -6 c64 -33 103 -91 109 -166 16 -192 -230
-289 -353 -140 -93 113 -36 282 106 318 54 14 94 10 138 -12z"/>
</g>
</svg>
