<svg xmlns="http://www.w3.org/2000/svg" viewBox="0 0 144.16 65.29"><defs><style>.a{isolation:isolate;}.b{fill:#cecece;}.b,.r{mix-blend-mode:multiply;}.c{fill:#295a6e;}.d{fill:#ffcb48;}.e{fill:#3b2b5b;}.f{fill:#ff97a6;}.g{fill:#7f65c1;}.h{fill:#ffe5b0;}.i{fill:#30193b;}.j{fill:#ff5e4d;}.k{fill:#f43e31;}.l{fill:#c95d77;}.m{fill:#6e57b5;}.n{fill:#92b9dd;}.o{fill:#aacbe8;}.p{fill:#ffd892;}.q{fill:#ffa645;}.r{fill:#9155bc;opacity:0.23;}.s{fill:#d3e7f2;}.t{fill:#d5eaf5;}.u{fill:#ff7b71;}</style></defs><g class="a"><path class="b" d="M81,56.2c1.6-.29,2.53-.63,2.53-1,0-1-7.39-1.87-16.49-1.87s-16.49.83-16.49,1.87c0,.4,1.12.77,3,1.07C22.7,56.63,0,57.83,0,59.26c0,1,10.48,1.84,26.85,2.41-5.76.26-9.86.95-9.86,1.75,0,1,6.75,1.87,15.08,1.87s15.08-.84,15.08-1.87c0-.53-1.76-1-4.58-1.34,9,.17,19,.27,29.51.27,39.81,0,72.08-1.38,72.08-3.09S116.58,56.39,81,56.2Z"/><path class="c" d="M40.48,1.81H93.7a9.13,9.13,0,0,1,9.13,9.13v29.4a0,0,0,0,1,0,0H31.35a0,0,0,0,1,0,0V10.95a9.13,9.13,0,0,1,9.13-9.13Z" transform="translate(-0.17 0.55) rotate(-0.47)"/><rect class="d" x="33.8" y="4.52" width="66.58" height="33.12" transform="translate(-0.17 0.55) rotate(-0.47)"/><path class="e" d="M94.61,48.57,40,49a8.44,8.44,0,0,1-8.51-8.38h0L103,40.06h0A8.44,8.44,0,0,1,94.61,48.57Z"/><path class="c" d="M76.84,54.51H75.07L74,48.74l-13.38.11-.94,5.8H57.89a.67.67,0,0,0-.67.68.66.66,0,0,0,.68.66l18.95-.15a.68.68,0,0,0,.67-.68A.66.66,0,0,0,76.84,54.51Z"/><path class="c" d="M68.9,44.56a1.58,1.58,0,0,1-1.61,1.55,1.56,1.56,0,0,1-1.62-1.52,1.62,1.62,0,0,1,3.23,0Z"/><path class="e" d="M127.83,58.94c-.15-.76.83-.57,1.4-.77-.17.12-.33.28-.06.34a2,2,0,0,0,1.5-.35,1.8,1.8,0,0,1,.15.7C130.82,59.12,127.92,59.43,127.83,58.94Z"/><path class="f" d="M129.17,58.51c-.27-.06-.11-.22.06-.34l.71-.24a.4.4,0,0,0,.21-.25l.18,0s-.11.25.23.36c.06,0,.08.1.11.16A2,2,0,0,1,129.17,58.51Z"/><path class="e" d="M137.56,58.85c.13-.75-.85-.55-1.42-.74.17.11.34.27.07.34a2,2,0,0,1-1.51-.33,1.82,1.82,0,0,0-.13.71C134.57,59.09,137.47,59.35,137.56,58.85Z"/><path class="f" d="M136.21,58.45c.27-.07.1-.23-.07-.34-.35-.12-.65-.2-.71-.23a.43.43,0,0,1-.22-.24l-.18,0s.11.25-.22.36c-.06,0-.08.1-.11.16A2,2,0,0,0,136.21,58.45Z"/><path class="g" d="M133.85,25.34a7.64,7.64,0,0,1,3.52,2.33c2.59,3.26,2.79,9.73,3,13.5.28,4.15-4,12.62-4.35,16.09-.05.51-1.14.84-1.36.26-.72-1.88,1.94-15.08,1.94-15.08l-3.48-9.13L130.8,57.57s-1,.72-1.17.09c-.89-4.17-1.95-21.23-2.21-23.34-.69-5.41.85-6.19,1.14-7.38C129.38,27,132.67,26.42,133.85,25.34Z"/><path class="f" d="M127.63,28.52s.44.65.23.9-.56,1.64-.69,1.58-.26-.43-.22-.95a5,5,0,0,1,.22-.75c.07-.13-.08-.66,0-.92C127.27,28.28,127.48,28.3,127.63,28.52Z"/><path class="h" d="M127.56,21.49l-3.54,3,3.63,3.64s-.4,1-1,1.11c-1.77.21-4.5-3.78-4.22-4.92s3.43-4.69,5.91-5.05Z"/><path class="f" d="M127.66,29.49a6.51,6.51,0,0,0-.07,1.1c0,.12.1,0,.1,0s.41-1.24.2-1.54S127.66,29.49,127.66,29.49Z"/><polygon class="e" points="132.91 55.99 132.91 55.99 132.91 55.99 132.91 55.99"/><path class="g" d="M9.23,59.34c0-.19.65-.39,1.09-.53-.13.08-.26.2-.05.25a1.61,1.61,0,0,0,1.15-.24,1.16,1.16,0,0,1,.1.51C11.52,59.51,9.14,59.69,9.23,59.34Z"/><path class="f" d="M10.27,59.06c-.21-.05-.08-.17.05-.25l.55-.16a.29.29,0,0,0,.16-.17l.14,0s-.09.18.17.26c0,0,.06.07.08.11A1.61,1.61,0,0,1,10.27,59.06Z"/><path class="g" d="M24.06,59.4c0-.2-.69-.39-1.15-.52.14.08.28.2.06.26a1.74,1.74,0,0,1-1.22-.21,1.25,1.25,0,0,0-.08.53C21.67,59.65,24.05,59.78,24.06,59.4Z"/><path class="f" d="M23,59.14c.22-.06.08-.18-.06-.26l-.58-.15a.33.33,0,0,1-.18-.18l-.14,0s.09.18-.17.28c-.05,0-.06.07-.09.12A1.74,1.74,0,0,0,23,59.14Z"/><path class="e" d="M5.84,36a11.14,11.14,0,0,1,3.43-8.47c1.27.75,6.1-.4,6.15-.43s3.24,2.88,4.32,9.53c.41,2.48,3,21.93,3,21.93l-.83.13L12.53,34.42s-1.11,10.76-1.19,23.87c0,.49-.83.32-1.11-.08S5.87,38.5,5.84,36Z"/><path class="i" d="M12.77,27.65l2.65-.56s3.24,2.88,4.32,9.53c.41,2.48,3,21.93,3,21.93l-.4.06S20,44.54,18.34,40.11C17.16,36.92,12.77,27.65,12.77,27.65Z"/><path class="e" d="M13.43,22.74s2.11-4.45-.81-5.36a2.87,2.87,0,0,0-1.06-2.09c-.4-.24-2.63-.63-2.57,1.35,0,0-1.59,0-1.14,1.88A2.08,2.08,0,0,0,4.61,19c-1.59,2,0,4.64,0,4.64Z"/><path class="g" d="M11.56,15.29a2.33,2.33,0,0,0-.87-.18,2.28,2.28,0,0,0-.86.14,1.17,1.17,0,0,0-.63.55,1.85,1.85,0,0,0-.15.84.06.06,0,0,1-.06.05,1.37,1.37,0,0,0-.59.16,1,1,0,0,0-.43.42,1.29,1.29,0,0,0-.13.61c0,.1,0,.21,0,.31l.06.31a.08.08,0,0,1-.06.08.07.07,0,0,1-.06,0,2,2,0,0,0-1.94-.47,2.88,2.88,0,0,0-1.51,1.41l-.12.24a2.5,2.5,0,0,0-.09.25,2.47,2.47,0,0,0-.13.52,3.83,3.83,0,0,0,0,1.07,5.7,5.7,0,0,0,.67,2,5.88,5.88,0,0,1-.47-1,4.77,4.77,0,0,1-.27-1,4,4,0,0,1,0-1.09A3,3,0,0,1,4,20a2,2,0,0,1,.09-.26l.12-.25.06-.13.08-.11L4.53,19a4.71,4.71,0,0,1,.36-.42,2.41,2.41,0,0,1,.93-.6,1.8,1.8,0,0,1,1.1,0,2.53,2.53,0,0,1,1,.53l-.11.06-.06-.32c0-.11,0-.22,0-.34a1.47,1.47,0,0,1,.15-.65,1.11,1.11,0,0,1,.48-.48A1.47,1.47,0,0,1,9,16.59l-.05.05a1.91,1.91,0,0,1,.18-.88,1.29,1.29,0,0,1,.69-.57,2.08,2.08,0,0,1,.89-.11A2.18,2.18,0,0,1,11.56,15.29Z"/><path class="j" d="M15.42,27.09a10.36,10.36,0,0,1-6.51.79c.13-.88-.16-1.21-.48-2.82-.21-1-1.06-2.24.12-3.24a11.71,11.71,0,0,1,1.86-.57c1.85-.41,3.31-.74,4.06-.33.28.15.72,1.84,1,3.27A9.4,9.4,0,0,1,15.42,27.09Z"/><path class="k" d="M17.5,27.72a20.24,20.24,0,0,0-2.27-3.49c-1.2-.9-1.43-.54-1.43-.54a6.28,6.28,0,0,0,.28-2.62c-.2-1.33,4.19,3.08,4.38,6Z"/><path class="k" d="M17,29.1c-.12,1-.43,3.83-.43,3.83,0,1.71,1.83,1.42,2.25.61.79-1.52,0-5.71-.48-6.93S17.08,28.34,17,29.1Z"/><path class="f" d="M10.79,20.35A7.72,7.72,0,0,0,11,21.59a.33.33,0,0,0,.55-.08,3.38,3.38,0,0,0-.2-1.28Z"/><path class="l" d="M10.6,19.46s.24,1.41.29,1.65a.33.33,0,0,0,.62-.06,5.44,5.44,0,0,0-.46-1.67Z"/><path class="f" d="M11.91,19.58a3.94,3.94,0,0,0-.47-1.12c-.33-.5-1.21,0-1.42.09a1.7,1.7,0,0,0-.59.54c-.18.27,0,.6.08.86a1.76,1.76,0,0,0,.64.79,1.38,1.38,0,0,0,1,0C11.85,20.39,12,20.12,11.91,19.58Z"/><path class="j" d="M2.82,26.23l5.6-2.84c.14-.33,0-.54,1-1.49s-6,.93-7,3.41Z"/><path class="j" d="M4.41,25.26c.85.48,3.28,2.28,3.28,2.28,1.41,1,0,2.25-.88,2.11-1.67-.26-3.4-2.59-4.26-3.68S3.74,24.89,4.41,25.26Z"/><path class="f" d="M8.15,29a2.42,2.42,0,0,0-1,.76A2.07,2.07,0,0,0,6.9,30.9c.11.09.17-.08.17-.08s0,.18.13.15.18-.38.34-.62.28-.25.31-.36,0,.36.08.35.29-.61.28-.81S8.28,29.05,8.15,29Z"/><path class="f" d="M18.11,34a.21.21,0,0,1,.13.17,4.11,4.11,0,0,1,.1.91s0,.67-.28.85c0,0-.1,0-.06-.17,0,0-.17.41-.31.41s-.13-.21-.13-.21a.12.12,0,0,1-.17,0,2.14,2.14,0,0,1,.08-1.06s-.13.3-.21.22.15-.67.32-.78a2.78,2.78,0,0,0,.18-.3C17.79,33.89,18,33.9,18.11,34Z"/><path class="e" d="M9.05,20.78a3.44,3.44,0,0,0,1.76-2.94C10.62,16.13,8.59,18.29,9.05,20.78Z"/><path class="k" d="M15.42,27.09a11.39,11.39,0,0,1-2,.7l-.51.12a12,12,0,0,0,.78-4,5.47,5.47,0,0,0-1.1-3.13l.28,0a2.75,2.75,0,0,1,1.58.15c.28.15.72,1.84,1,3.27A9.4,9.4,0,0,1,15.42,27.09Z"/><path class="j" d="M36.54,38.61l-.6,21.82c0,1,0,2.1-.08,3.15,0,.27.89.53.9.18l.6-21.82.09-3.15c0-.27-.9-.53-.91-.18Z"/><path class="j" d="M27,38.36l-.6,21.82-.09,3.15c0,.27.89.53.9.18l.6-21.82.09-3.15c0-.27-.89-.53-.9-.18Z"/><path class="j" d="M28,43.62l8.88.23c.59,0,.33-.83-.15-.84l-8.88-.23c-.59,0-.33.83.15.84Z"/><path class="j" d="M27.84,48.52l8.87.24c.59,0,.33-.83-.15-.85l-8.87-.23c-.6,0-.34.83.15.84Z"/><path class="j" d="M27.58,58.33l8.87.24c.6,0,.33-.83-.15-.84l-8.87-.24c-.6,0-.34.83.15.84Z"/><path class="j" d="M27.63,53.44l8.87.23a.43.43,0,1,0,0-.86l-8.88-.23a.43.43,0,1,0,0,.86Z"/><path class="e" d="M31.54,57.46c0-.68-.88-.53-1.46-.69.17.1.35.26.08.34a2,2,0,0,1-1.54-.27,1.8,1.8,0,0,0-.1.72C28.53,57.82,31.53,58,31.54,57.46Z"/><path class="f" d="M30.16,57.11c.27-.08.09-.24-.08-.34-.36-.11-.67-.18-.73-.21a.4.4,0,0,1-.23-.23l-.18,0-.32.54A2,2,0,0,0,30.16,57.11Z"/><path class="e" d="M34.86,57.51c0-.71-.88-.53-1.46-.69.18.1.35.25.08.34A2,2,0,0,1,32,56.89a1.81,1.81,0,0,0-.11.72C31.85,57.87,34.86,58,34.86,57.51Z"/><path class="f" d="M33.48,57.16c.27-.09.1-.24-.08-.34l-.73-.21a.44.44,0,0,1-.23-.23l-.18,0s-.29.48-.31.55A2,2,0,0,0,33.48,57.16Z"/><path class="g" d="M30.23,22.63c0,.09-3.17,2.91-3.76,5.89a36.29,36.29,0,0,0-.06,8.77c.61,7.52,1.95,17,2.21,18.78a.34.34,0,0,0,.35.28h0a.6.6,0,0,0,.53-.53l2.08-24.7.93,9.1-.57,16.2h.84s4.46-17.39,4.48-21c.07-9.54-.28-9.8-1-11C35.5,24.72,31.7,23.3,30.23,22.63Z"/><path class="m" d="M35,39.2c.08,4.35-2.64,17.22-2.64,17.22h.44s4.46-17.39,4.48-21c.07-9.54-.28-9.8-1-11-.43.2-2-.22-3.39-.7-.6-.21,1.23,3,1.94,7C35.36,33.73,35,37.49,35,39.2Z"/><path class="n" d="M37.66,20.57a15.25,15.25,0,0,0,.23,5.06c.22,1.13,2.14,2,3.45,2.07,3.22.28,4.12-.7,4.12-.7A4,4,0,0,0,44,25.14c-.93-.46-4.54.17-4.54.17s.39-6.12-.47-6.88a4,4,0,0,0-.91-.58Z"/><path class="f" d="M35.78,15.5a5.38,5.38,0,0,0-.36,1.2c0,.17.43.54.73.39s.4-1.22.4-1.22Z"/><path class="f" d="M44.55,26.74a.18.18,0,0,0,.1.16l.88.41s.48.22.71.08c0,0,0-.08-.12-.11,0,0,.41,0,.46-.11s-.13-.19-.13-.19a.1.1,0,0,0,0-.14,2,2,0,0,0-1-.32s.3,0,.26-.1-.63-.12-.78,0a1.92,1.92,0,0,1-.33.05C44.62,26.45,44.56,26.61,44.55,26.74Z"/><path class="f" d="M38.36,15.55a5,5,0,0,0,0-1.29.73.73,0,0,0-.77-.74,5.19,5.19,0,0,0-1.59.25c-.31.2-.32.65-.33,1A2.43,2.43,0,0,0,36,16a1.56,1.56,0,0,0,1,.48C37.91,16.42,38.17,16.19,38.36,15.55Z"/><path class="f" d="M31.28,7.65a.1.1,0,0,1-.1,0,5.82,5.82,0,0,1-.69-1.18c-.12-.52.56-.95.71-1s.28-.15.27,0-.3.62-.25.8S32.08,7.43,31.28,7.65Z"/><path class="f" d="M31.34,6.62c.05-.09,0-.74.23-.72s.05,1.4,0,1.41A3.49,3.49,0,0,1,31.34,6.62Z"/><path class="e" d="M38.65,11.64a.42.42,0,0,0,0-.1h0v0s0,0-.05,0a.21.21,0,0,0-.1-.13h0c-.05-.07-.16,0-.16.07,0,.95-1.51.56-2.08,1a1,1,0,0,0-.37.58,1.07,1.07,0,0,0-.82.9,3.37,3.37,0,0,0,1.07,2.25l.12.14.06.06a1.37,1.37,0,0,0,1.6,1.11,1.17,1.17,0,0,0,.93-.62c.12-.3-.06-.71-.16-1.07s-.08-.57-.18-.83c0,0,0,0,0,0s0,.37,0,.42l0,.22c-.21.69-1,.54-1.34.4h0l-.29-.15a1.16,1.16,0,0,1-.51-.54c-.12-.37-.2-.77.23-1.05l.12-.06c.58-.21,1.29-.06,1.84-.4l.07-.05C39.09,13.25,38.94,12.33,38.65,11.64Z"/><path class="o" d="M38.85,18.31a20.28,20.28,0,0,0-4.72-2.14c-1.62-.35-4.81-2.53-4.86-2.58s3.91-5.05,3.05-5.71c-2-1.52-3.36,1.21-4.09,2.65-.48.92-1.27,2.8-.56,3.83a8.47,8.47,0,0,0,3.43,2.8,43.4,43.4,0,0,0-.87,5.47,20.24,20.24,0,0,0,2.64,1.17,13,13,0,0,0,3.58.91C37,23.13,39.45,18.63,38.85,18.31Z"/><path class="n" d="M38.85,18.31l-1.18-.64c-.11-.07-.35-.19-.35-.19a8.3,8.3,0,0,1-1.11,2.73,15.32,15.32,0,0,1-3.34,3.59l.45.15a11.44,11.44,0,0,0,3.13.76C37,23.13,39.45,18.63,38.85,18.31Z"/><path class="g" d="M38.26,11.39a.65.65,0,0,1-.11.38.75.75,0,0,1-.33.25,3.53,3.53,0,0,1-.78.18,2.77,2.77,0,0,0-.74.2.84.84,0,0,0-.39.57.11.11,0,0,1-.07.08,1,1,0,0,0-.67.53,1.21,1.21,0,0,0,0,.88,3.44,3.44,0,0,0,.37.86,4.21,4.21,0,0,0,.56.77h0l.17.21-.2-.19h0a4.48,4.48,0,0,1-.63-.74A3.78,3.78,0,0,1,35,14.5a2,2,0,0,1-.09-.49A1.12,1.12,0,0,1,35,13.5a1.19,1.19,0,0,1,.79-.63l-.07.07a1,1,0,0,1,.5-.68,2.12,2.12,0,0,1,.8-.19,3.87,3.87,0,0,0,.77-.13.67.67,0,0,0,.32-.2A.69.69,0,0,0,38.26,11.39Z"/><path class="m" d="M133.85,25.34a7.64,7.64,0,0,1,3.52,2.33c2.59,3.26,2.79,9.73,3,13.5.28,4.15-4,12.62-4.35,16.09,0,.31-.46.56-.83.56s4.54-12.15,3.77-16.19c-2.1-11-8.34-14.79-6.9-15.36A7,7,0,0,0,133.85,25.34Z"/><path class="h" d="M127.74,24.5c.14,1.1.54,3.08.33,3.5,3.75,0,6.91-1,7.54-1.86-.12-1.21-.24-3.93-.51-5.18l-.57-2.6a3.3,3.3,0,0,0-2-.15c-4.46.61-5.35,1.62-5.35,1.62S127.51,22.83,127.74,24.5Z"/><path class="f" d="M129.59,17.34a7.82,7.82,0,0,0,.35,1.64.44.44,0,0,0,.72-.2c.12-.44-.47-1.63-.47-1.63Z"/><path class="l" d="M129.77,18.43a1,1,0,0,0,.84-.2,5.35,5.35,0,0,0-.28-.77l-.74-.17C129.62,17.51,129.72,18.18,129.77,18.43Z"/><path class="p" d="M138,25.46s-2.39-3.4-3.05-4a7.49,7.49,0,0,0-2-1.45s-.89-1.38.41-1.78c1.71-.54,4.86,3.23,5.54,6.33Z"/><path class="f" d="M130.8,16.89a4.21,4.21,0,0,0-.35-1.22c-.28-.56-1.19-.2-1.4-.1a1.76,1.76,0,0,0-.63.48c-.2.25-.09.62,0,.9a2.05,2.05,0,0,0,.56.91,1.28,1.28,0,0,0,1,.12C130.67,17.73,130.82,17.47,130.8,16.89Z"/><path class="q" d="M130.25,14.47s-.7-1.42-3.38-.38c-1.58.62-1.66,2.5,1,2.21s2.38-.63,2.38-.63-.11,1.32.78,1.15c.4-.07.48-1.84.12-2.3S130.41,14.23,130.25,14.47Z"/><path class="p" d="M132.1,27.59l.59-.14a5.9,5.9,0,0,0,2.92-1.31c-.12-1.21-.24-3.93-.51-5.18l-.57-2.6a3,3,0,0,0-1.68-.2l-.36.05s.26,1.64.36,3.64A21.16,21.16,0,0,1,132.1,27.59Z"/><path class="f" d="M139.6,32.11c.08,0,.13.08.17.16a5,5,0,0,1,.26,1s.06.74-.17,1c0,0-.11,0-.1-.17,0,0-.11.47-.26.49s-.18-.2-.18-.2a.14.14,0,0,1-.19,0,2.31,2.31,0,0,1-.08-1.16s-.1.34-.2.27.06-.75.22-.9a1.91,1.91,0,0,0,.15-.35C139.24,32.1,139.45,32.08,139.6,32.11Z"/><path class="p" d="M137.59,27.05c0,1.05.17,4.21.17,4.21.25,1.86,2.2,1.24,2.53.29.6-1.77-1.11-6.75-1.82-8S137.57,26.21,137.59,27.05Z"/><path class="r" d="M104,39.53,103.7,1.76A1.8,1.8,0,0,0,101.87,0L66.73.28V55.81l9.92-.08a.69.69,0,1,0,0-1.37H74.78l-1.16-5.93,28.65-.23a1.8,1.8,0,0,0,1.8-1.79Z"/><path class="s" d="M41,13.89l.12-.06c0,.05,0,.09.08.1a8.83,8.83,0,0,0,2-.26,14.22,14.22,0,0,1,2.26,0c1.58.1,3.14.25,4.71.5.94.16,2.11.24,2.76-.6a2.43,2.43,0,0,0,.41-1.29c.08-.66.14-1.33.17-2a17.54,17.54,0,0,0,.05-2.05,1.27,1.27,0,0,0-.42-1,3.68,3.68,0,0,0-1.41-.55,10.56,10.56,0,0,0-1.67-.27,17.82,17.82,0,0,0-3.72.18c-.65.09-1.32.16-2,.3a1.26,1.26,0,0,0-.94.67,3,3,0,0,0-.18,1.25,8.73,8.73,0,0,1-.14,1.84,4.07,4.07,0,0,1-2.26,3C40.72,13.76,40.84,14,41,13.89Z"/><path class="j" d="M50.06,10.55a.51.51,0,0,0,.83.12.55.55,0,0,0,.16-.44.08.08,0,0,0,0-.11.62.62,0,0,0-.79-.34A.56.56,0,0,0,50.06,10.55Zm.38-.58h.16a.1.1,0,0,0,.08.1c.28.07.15.42,0,.51a.28.28,0,0,1-.41-.2A.31.31,0,0,1,50.44,10Z"/><path class="j" d="M48.18,10.89a.7.7,0,0,0,1-.23A.59.59,0,0,0,49,10a.1.1,0,0,0,0-.12.7.7,0,0,0-1,.08A.69.69,0,0,0,48.18,10.89Zm.06-.86a.42.42,0,0,1,.34-.12c0,.07,0,.18.08.17.35-.05.42.39.19.58a.45.45,0,0,1-.6,0A.45.45,0,0,1,48.24,10Z"/><path class="j" d="M46.5,10.78a.57.57,0,0,0,.74-.26.43.43,0,0,0-.05-.46.1.1,0,0,0,0-.17.89.89,0,0,0-.82.16A.48.48,0,0,0,46.5,10.78Zm.16-.68.15,0a.09.09,0,0,0,.08.05c.24,0,.2.31,0,.41a.33.33,0,0,1-.46-.06A.25.25,0,0,1,46.66,10.1Z"/><path class="g" d="M59.78,27.22c-.38,0-2.27,3.15-2.63,5.5a46.84,46.84,0,0,0-.41,5L72,37.61a27,27,0,0,0-1.66-6.07,18.32,18.32,0,0,0-4.94-5.68C64.45,25.63,61.28,27.12,59.78,27.22Z"/><path class="f" d="M47.4,26.64a.18.18,0,0,1-.1.17,3.73,3.73,0,0,1-.84.45,2,2,0,0,1-1.07-.08c0-.12.13-.19.13-.19a.11.11,0,0,1-.05-.15,2.21,2.21,0,0,1,.93-.37s-.3,0-.27-.08.63-.15.79-.06a1.6,1.6,0,0,0,.32,0C47.32,26.35,47.38,26.51,47.4,26.64Z"/><path class="m" d="M65.76,37.66l6.25,0a27,27,0,0,0-1.66-6.07,18.32,18.32,0,0,0-4.94-5.68,9.15,9.15,0,0,0-3.13.72c-.4.13,1.74,2.56,2.52,4.83A19.5,19.5,0,0,1,65.76,37.66Z"/><path class="t" d="M57.7,20.2c.56-.74,2.15-1.29,6-1.43.38,0,1.89,2.69,1.89,2.69a13.85,13.85,0,0,0-.18,4.4c-1.11.75-5.38,1.87-6,1.67a16.31,16.31,0,0,1-.92-3.44C58.1,22,57.7,20.2,57.7,20.2Z"/><path class="t" d="M58.3,21.49s-1.4,2-3.21,4.45c-.57.76-1.53,1.5-3.73,1.81-3.2.45-4.28-1-4.28-1A2.15,2.15,0,0,1,48,25c.91-.51,5.63-.31,5.63-.31S56,21.79,56.85,21c.37-.37,1.36-1.23,1.36-1.23Z"/><path class="f" d="M61.4,17.52a11.82,11.82,0,0,1,.38,1.64c-.05.18-.29.44-.52.1a5.7,5.7,0,0,1-.3-1.67Z"/><path class="l" d="M61.68,18.59a.5.5,0,0,1-.59.15c-.05-.27-.08-.58-.1-.81l.39-.45C61.44,17.69,61.62,18.34,61.68,18.59Z"/><path class="j" d="M60.16,14.86A1.38,1.38,0,0,0,58,14.63s-.52.34,0,1.45.22,1.87-.32,1.71c0,0,.06.59,1.28.2a2.26,2.26,0,0,0,1.4-1.78l1.38,1.45a1.52,1.52,0,0,0,.66-2.44c-.22-.35-.8-1-1.43-.82A1.3,1.3,0,0,0,60.16,14.86Z"/><path class="f" d="M59.46,17.88a4.63,4.63,0,0,1-.39-1.19.75.75,0,0,1,.56-.9,4.9,4.9,0,0,1,1.52-.17c.34.12.45.53.55.84a2.44,2.44,0,0,1,0,1.2,1.5,1.5,0,0,1-.82.71C60.09,18.58,59.79,18.43,59.46,17.88Z"/><path class="j" d="M62.11,16.85s-1.76-.37-2.32-1.23,1.27-.43,1.27-.43Z"/><path class="j" d="M61.79,14.93s-.62-2.18.79-3a1.76,1.76,0,0,1,2.76,1.24s3.15-1,4.23,1.54a2.4,2.4,0,0,1-1.13,3.42s.86.16.11,1.75c-.66,1.41.41,1.47.64,1.63a.06.06,0,0,1,0,.1c-.33.17-3.2.71-4-.91a2.62,2.62,0,0,1,0-2.37,1.07,1.07,0,0,0-.52-1.21c-.19-.11-.69-.3-.85-.67s0-.89.27-1.64-1.23-.91-1.7.12S61.79,14.93,61.79,14.93Z"/><path class="o" d="M67.84,26.76s-2-4.09-2.76-4.75c-1.44-1.28-1.9-1.09-1.9-1.09a8.35,8.35,0,0,0,.14-1.79c0-1.8,5.31,3.25,5.66,6.76Z"/><path class="u" d="M69.57,14.69a2.94,2.94,0,0,0-.72-1,2.63,2.63,0,0,0-1.07-.56A3.83,3.83,0,0,0,66.57,13a5.28,5.28,0,0,0-1.2.2.07.07,0,0,1-.1-.05,2.3,2.3,0,0,0-.86-1.28,1.65,1.65,0,0,0-1.5-.05,1.7,1.7,0,0,0-.64.44,1.88,1.88,0,0,0-.39.67,3.5,3.5,0,0,0-.08,1.58h0a.1.1,0,0,1-.08.11l0,0a1.4,1.4,0,0,0-.37-.14.85.85,0,0,0-.39,0,2.15,2.15,0,0,0-.38.15.82.82,0,0,0-.3.24h0a.07.07,0,0,1-.11,0h0a1.72,1.72,0,0,0-.44-.41,1.34,1.34,0,0,0-.53-.24,1.51,1.51,0,0,0-.3,0,1,1,0,0,0-.28.08,1.65,1.65,0,0,0-.26.14l-.23.2h0a.58.58,0,0,0-.2.35,1.29,1.29,0,0,0,0,.44,5,5,0,0,0,.3.87,2,2,0,0,1,.13.92.7.7,0,0,1-.17.43.4.4,0,0,1-.43.1.41.41,0,0,0,.42-.12.78.78,0,0,0,.14-.42,2,2,0,0,0-.16-.89,4.75,4.75,0,0,1-.33-.87,1.54,1.54,0,0,1,0-.48.69.69,0,0,1,.24-.43h0a2.52,2.52,0,0,1,.25-.21,1,1,0,0,1,.28-.16,1,1,0,0,1,.65-.09,1.37,1.37,0,0,1,.61.25,2.18,2.18,0,0,1,.47.44h-.13a1.06,1.06,0,0,1,.36-.31,2.05,2.05,0,0,1,.41-.16.9.9,0,0,1,.46,0,1.65,1.65,0,0,1,.44.16l-.14.09a3.78,3.78,0,0,1,.08-1.67,1.87,1.87,0,0,1,1.14-1.21,2.12,2.12,0,0,1,.83-.17,1.54,1.54,0,0,1,.83.24,2.33,2.33,0,0,1,.91,1.38l-.09-.05a5.23,5.23,0,0,1,1.24-.18,4,4,0,0,1,1.24.15,2.64,2.64,0,0,1,1.08.61A2.88,2.88,0,0,1,69.57,14.69Z"/><path class="o" d="M62.34,18.84l.32,0,1-.05c.38,0,1.89,2.69,1.89,2.69a13.85,13.85,0,0,0-.18,4.4,11.34,11.34,0,0,1-2.63,1l-.5.14a21.77,21.77,0,0,0,.9-5A7.28,7.28,0,0,0,62.34,18.84Z"/><path class="f" d="M68.83,34.29a.29.29,0,0,1,.16.2,4.88,4.88,0,0,1,.16,1.11s0,.82-.3,1c0,0-.13,0-.09-.2,0,0-.19.5-.36.51s-.17-.25-.17-.25a.14.14,0,0,1-.2,0,2.66,2.66,0,0,1,0-1.3s-.15.36-.25.28.16-.82.36-1a2.75,2.75,0,0,0,.21-.37C68.43,34.24,68.67,34.25,68.83,34.29Z"/><path class="o" d="M67.27,28.45c-.11,1.17-.36,4.67-.36,4.67,0,2.08,2.27,1.65,2.75.65.9-1.87-.24-6.93-.86-8.39S67.36,27.53,67.27,28.45Z"/><path class="e" d="M84.14,26c0,.09,2.67,2.74,3.24,4.92A36.27,36.27,0,0,1,88,37.48l-6.15.05L81.06,34l-2,3.53-6.08,0s2.78-7.47,5.57-10.81A24,24,0,0,1,84.14,26Z"/><path class="k" d="M83.17,19.63s1.47,2,3.37,4.35c.59.73,1.58,1.43,3.79,1.67,3.21.34,4-1.27,4-1.27a2.84,2.84,0,0,0-1.2-1.75c-.93-.48-5.11,0-5.11,0s-2.51-3.06-3.35-3.84c-.39-.35-.85-.72-.85-.72Z"/><path class="f" d="M93.76,24.27a.18.18,0,0,0,.06.19,3.8,3.8,0,0,0,.73.62c.24.12,1,.24,1.06.14s-.08-.21-.08-.21a.1.1,0,0,0,.07-.13,1.93,1.93,0,0,0-.83-.56s.29.07.28,0-.58-.27-.75-.22A2.09,2.09,0,0,1,94,24C93.9,24,93.81,24.15,93.76,24.27Z"/><path class="j" d="M76.25,28.09a43.18,43.18,0,0,1,.51-5.17c.57-1.84,1.06-1.91,1.06-1.91s1.06-2-.45-1.89c-1,.07-1.51.81-2,1.79-1,2.18-1.28,6.25-.23,8.44Z"/><path class="j" d="M77.21,28.63c.46,1.11,1.42,4.59,1.42,4.59.34,2.05-1.94,2-2.59,1.13-1.22-1.69-1.77-6.85-1.42-8.4S76.44,26.78,77.21,28.63Z"/><path class="f" d="M77.05,34.67c-.07,0-.09.11-.11.19a4.59,4.59,0,0,0,0,.94s.14.68.41.82c0,0,.1,0,0-.18,0,0,.23.39.38.37s.1-.23.1-.23a.11.11,0,0,0,.16,0,2.09,2.09,0,0,0-.24-1.07s.18.28.25.19-.25-.65-.44-.74a1.75,1.75,0,0,1-.23-.28C77.37,34.56,77.18,34.6,77.05,34.67Z"/><path class="i" d="M84.14,26c0,.09,2.67,2.74,3.24,4.92A36.27,36.27,0,0,1,88,37.48l-3,0a18.92,18.92,0,0,0-.87-5.29c-.76-2.53-3.93-5.53-3.28-5.61S83.58,26,84.14,26Z"/><path class="j" d="M83.92,18.19c-.76-.52-4.88-.2-7.23,1.11-.33.18-.39,2.56-.39,2.56A19.84,19.84,0,0,1,78,27.4c.47.73,2.86,1.23,7.11-.21,0,0,.61-3.93,0-6A24.78,24.78,0,0,0,83.92,18.19Z"/><path class="f" d="M80.17,16.86a8,8,0,0,0,.25,1.66.44.44,0,0,0,.73-.16c.15-.42-.37-1.65-.37-1.65Z"/><path class="l" d="M80.28,18a1,1,0,0,0,.86-.14c-.06-.27-.16-.57-.23-.79l-.74-.22C80.19,17,80.25,17.71,80.28,18Z"/><path class="f" d="M82.05,16.56a4.32,4.32,0,0,0-.12-1.25.75.75,0,0,0-.86-.6,4.84,4.84,0,0,0-1.46.45c-.27.23-.21.66-.18,1a2.38,2.38,0,0,0,.44,1.12,1.48,1.48,0,0,0,1,.33C81.75,17.46,82,17.2,82.05,16.56Z"/><path class="e" d="M78.91,15.64a1.62,1.62,0,0,1-.15-1.9,2,2,0,0,1,2.67-.5,3.15,3.15,0,0,0,2-.11,1,1,0,0,1,.17,2c-1.24.81-1.73.08-2.71-.2-.5-.14-1.32.19-1.32.79s.14,1.06,0,1.05C79.59,16.75,78.75,16.17,78.91,15.64Z"/><path class="g" d="M79.59,16.75a2.22,2.22,0,0,1-.52-.45,1.14,1.14,0,0,1-.18-.3.59.59,0,0,1,0-.37v0a1.93,1.93,0,0,1-.41-.82,1.54,1.54,0,0,1,.1-.92,1.76,1.76,0,0,1,.57-.73,1.71,1.71,0,0,1,.87-.32,2.54,2.54,0,0,1,.91.09,2.16,2.16,0,0,1,.43.14,2.23,2.23,0,0,0,.4.16,1.54,1.54,0,0,0,.43.06,3.13,3.13,0,0,0,.43,0c.29,0,.58-.14.87-.17-.29.06-.56.18-.85.25a2.14,2.14,0,0,1-.91,0,2,2,0,0,1-.43-.15,2.77,2.77,0,0,0-.41-.12,2.45,2.45,0,0,0-.85-.07,1.64,1.64,0,0,0-.78.29,1.73,1.73,0,0,0-.52.65,1.58,1.58,0,0,0,.23,1.6h0s0,0,0,.05a.72.72,0,0,0,.16.6A2.19,2.19,0,0,0,79.59,16.75Z"/><path class="k" d="M83.92,18.19A3.9,3.9,0,0,0,82.07,18l-.5,0a8.54,8.54,0,0,1,1.17,4.41A22.68,22.68,0,0,1,81.62,28l.61-.09a18.7,18.7,0,0,0,2.91-.75s.61-3.93,0-6A24.78,24.78,0,0,0,83.92,18.19Z"/><path class="j" d="M110.05,14.6A2.44,2.44,0,0,1,113,13.13a2.37,2.37,0,0,1,1.51,2,5.35,5.35,0,0,1,3.92,1.54,3.6,3.6,0,0,1,.62,3.14s1.06,0,2.11,1.63c.74,1.13-.84,4-3,3.35-3.36-.94-2.88-4.13-8.31-4.15,0,0-2.5-2.05-1.77-4.22S110.05,14.6,110.05,14.6Z"/><path class="e" d="M107,27.48a26.84,26.84,0,0,0-1.85,4.93c-1.23,6.16.26,22.12.68,25.38.06.44,1-.08,1-.63.16-3.44,4.31-21.85,4.31-21.85l12.38,23,1-.18s-3-9.85-4.66-15.23c-1.12-3.57-2.53-9.7-6.37-14.29C112.52,28.4,108.59,27.35,107,27.48Z"/><path class="e" d="M104.11,58.93c0-.15.73-.49,1.21-.66-.14.1-.28.24,0,.3a1.71,1.71,0,0,0,1.3-.31,1.55,1.55,0,0,1,.12.62C106.7,59.11,104.14,59.38,104.11,58.93Z"/><path class="f" d="M105.27,58.57c-.23-.06-.09-.2,0-.3l.62-.21a.36.36,0,0,0,.18-.22l.16,0,.29.46A1.71,1.71,0,0,1,105.27,58.57Z"/><path class="e" d="M126.45,59.15c0-.23-.75-.46-1.24-.61.15.1.29.23.06.3a1.71,1.71,0,0,1-1.3-.24,1.49,1.49,0,0,0-.09.62C123.88,59.45,126.42,59.59,126.45,59.15Z"/><path class="f" d="M125.27,58.84c.23-.07.09-.2-.06-.3-.31-.09-.56-.15-.62-.18a.37.37,0,0,1-.2-.2l-.15,0s-.25.41-.27.47A1.71,1.71,0,0,0,125.27,58.84Z"/><path class="i" d="M124,58.08l.57-.11s-3-9.85-4.66-15.22c-1.12-3.58-2.37-10-6.2-14.63-.4-.09-2.53.3-3.4.15s3.93,7.34,7.78,15.31A148.18,148.18,0,0,1,124,58.08Z"/><path class="t" d="M107.29,19.94c.75-.58,2.94-1.17,6.83-.26a4.1,4.1,0,0,1,1.13.45,8,8,0,0,0,.18,3.11,18.59,18.59,0,0,0-1.54,5c-1.31.45-6.33-.1-6.94-.48a13.54,13.54,0,0,1-.35-3.9A21.93,21.93,0,0,1,107.29,19.94Z"/><path class="o" d="M113.4,19.52a5.63,5.63,0,0,1,1.85.61,8,8,0,0,0,.18,3.11,19.4,19.4,0,0,0-1.57,5.1,19.25,19.25,0,0,1-3.69-.07,11,11,0,0,0,2.8-4A13.35,13.35,0,0,0,113.4,19.52Z"/><path class="t" d="M108,21.13s.16.51-1.61,2.79c-.55.71-1.63,2.9-4.47,3.11s-4.61.26-5.64-.71a1.5,1.5,0,0,1,.49-2.11c.87-.46,6.59.67,6.59.67a48.79,48.79,0,0,1,3.16-4.23c.36-.35.8-.71.8-.71Z"/><path class="f" d="M112.13,18.07a10.1,10.1,0,0,1,0,1.61c-.1.16-.42.34-.56,0a5,5,0,0,1,.14-1.62Z"/><path class="l" d="M112.14,19.13a.57.57,0,0,1-.65,0c0-.26.07-.55.11-.77l.53-.32C112.13,18.24,112.14,18.89,112.14,19.13Z"/><path class="f" d="M110.58,18.46a4.27,4.27,0,0,1-.48-1.1.7.7,0,0,1,.44-.9,4.73,4.73,0,0,1,1.43-.32c.33.08.48.46.6.74a2.25,2.25,0,0,1,.16,1.14,1.39,1.39,0,0,1-.7.75C111.25,19.06,111,19,110.58,18.46Z"/><path class="f" d="M121.85,35.76a2.5,2.5,0,0,1,1.28.18c.24.15.77.78.72.9s-.18,0-.18,0,.07.16,0,.2-.34-.26-.59-.39-.36-.09-.45-.17.2.3.1.35-.55-.4-.63-.58S121.77,35.86,121.85,35.76Z"/><path class="f" d="M96.43,25a.13.13,0,0,1-.13.12,3.27,3.27,0,0,1-.88.12c-.25,0-.88-.29-.9-.41s.17-.13.17-.13a.09.09,0,0,1,0-.14,2,2,0,0,1,.92,0s-.26-.08-.2-.16.59.07.7.2a1.71,1.71,0,0,0,.27.13C96.46,24.74,96.46,24.9,96.43,25Z"/><path class="o" d="M117.21,28a51.74,51.74,0,0,0-2-5c-1-1.59-1.37-1.3-1.37-1.3l-.08-1.9a3.11,3.11,0,0,1,2.17.74c1.28,1.48,3.48,8.57,3.67,8.8Z"/><path class="o" d="M120.2,30.18c.71.94,2.47,4,2.47,4,.82,1.87-1.35,2.4-2.19,1.71-1.56-1.31-3.23-5.37-3.39-8.25-.06-1.12,1.19-1.22,1.91.14C119.58,28.89,119.84,29.7,120.2,30.18Z"/><path class="u" d="M108.07,16.38l.12-.34a3.45,3.45,0,0,1,.14-.34l.18-.32a2.1,2.1,0,0,1,.22-.3,1.78,1.78,0,0,1,.59-.46,1.28,1.28,0,0,1,.75-.09l-.08,0a3,3,0,0,1,.4-.69,2.38,2.38,0,0,1,2.12-.92l.2,0,.19,0a1.12,1.12,0,0,1,.39.13,2.57,2.57,0,0,1,.63.5,3.39,3.39,0,0,1,.46.66,1.52,1.52,0,0,1,.19.79l-.08-.09a5,5,0,0,1,1.09.1,6.36,6.36,0,0,1,1.06.28,4.49,4.49,0,0,1,1,.51,4,4,0,0,1,.8.73,4.49,4.49,0,0,0-.83-.68,5.11,5.11,0,0,0-1-.45,5.43,5.43,0,0,0-1-.25,7.71,7.71,0,0,0-1.07-.08s-.08,0-.08-.08h0a1.36,1.36,0,0,0-.19-.69,2.59,2.59,0,0,0-.43-.61,2.14,2.14,0,0,0-.59-.46,1,1,0,0,0-.34-.12,2.2,2.2,0,0,0-.37-.06,2.14,2.14,0,0,0-1.42.33,2.49,2.49,0,0,0-.56.51,2.65,2.65,0,0,0-.4.64.06.06,0,0,1-.08,0,1.19,1.19,0,0,0-.67.06,1.57,1.57,0,0,0-.57.42,3,3,0,0,0-.23.27l-.19.31-.16.33Z"/><path class="t" d="M105.32,16.12a3.09,3.09,0,0,1,.51.84,5.44,5.44,0,0,0-1.51-.44A6.73,6.73,0,0,0,105.32,16.12Z"/><path class="t" d="M99.86,10.39c.07,0,.1-.09,0-.1a10.75,10.75,0,0,0-2.3-.34c.34,0,.65,0,1,0a11.73,11.73,0,0,1,4.28,1,7.25,7.25,0,0,1,3.41,2.55c.52.94.09,1.64-.77,2.17a2.7,2.7,0,0,0-1.08-.76c-.17-.06-.24.18-.12.28a6.23,6.23,0,0,1,.82.69,10,10,0,0,1-1.68.6,6.09,6.09,0,0,0-1,.08.08.08,0,0,0,0,.14,25.42,25.42,0,0,1-3.82.43,18.44,18.44,0,0,1-4.91-.59c-1.27-.33-3.23-.94-3.21-2.57a2.38,2.38,0,0,1,.77-1.67A3.12,3.12,0,0,0,90.71,14c0,.14.19.13.21,0a3.57,3.57,0,0,1,1.81-2.69,10.33,10.33,0,0,1,1.73-.67A10.74,10.74,0,0,1,99.86,10.39Z"/><path class="t" d="M106.22,17.15l-.26.19c0-.13-.08-.26-.13-.38Z"/><path class="t" d="M106.3,17.25a.18.18,0,0,1-.26.2,5.31,5.31,0,0,0-2.32-.76l.6-.17a5.44,5.44,0,0,1,1.51.44c0,.12.09.25.13.38l.26-.19-.39-.19a3.09,3.09,0,0,0-.51-.84l.35-.2A4,4,0,0,1,106.3,17.25Z"/><path class="t" d="M105.46,15.65c.07.09.15.18.21.27l-.35.2a2,2,0,0,0-.24-.26Z"/><path class="t" d="M104.38,14.89a2.7,2.7,0,0,1,1.08.76l-.38.21a6.23,6.23,0,0,0-.82-.69C104.14,15.07,104.21,14.83,104.38,14.89Z"/><path class="t" d="M105.32,16.12a6.73,6.73,0,0,1-1,.4,4.69,4.69,0,0,0-.92-.06,10,10,0,0,0,1.68-.6A2,2,0,0,1,105.32,16.12Z"/><path class="t" d="M103.4,16.46l-1,.22a.08.08,0,0,1,0-.14A6.09,6.09,0,0,1,103.4,16.46Z"/><path class="t" d="M103.4,16.46a4.69,4.69,0,0,1,.92.06l-.6.17a5.82,5.82,0,0,0-1.25,0,.06.06,0,0,1-.06,0Z"/><path class="t" d="M97.59,10a10.75,10.75,0,0,1,2.3.34c.07,0,0,.11,0,.1a10.74,10.74,0,0,0-5.4.2,10.33,10.33,0,0,0-1.73.67A10.12,10.12,0,0,1,97.57,10h0Z"/><path class="t" d="M106.69,14.76a2.3,2.3,0,0,1-1,1.16c-.06-.09-.14-.18-.21-.27.86-.53,1.29-1.23.77-2.17a7.25,7.25,0,0,0-3.41-2.55,11.73,11.73,0,0,0-4.28-1c-.3,0-.61,0-1,0h0a10,10,0,0,0-3,.33,11.48,11.48,0,0,0-2.08.77,7.15,7.15,0,0,1,1.64-.81,11.68,11.68,0,0,1,5.56-.56,11.89,11.89,0,0,1,4.78,1.74C105.56,12.1,107.23,13.27,106.69,14.76Z"/><path class="t" d="M97.57,10a10.12,10.12,0,0,0-4.84,1.31,5.31,5.31,0,0,0-1.49,1,4.2,4.2,0,0,1,1.26-1.22h0a11.48,11.48,0,0,1,2.08-.77A10,10,0,0,1,97.57,10Z"/><path class="t" d="M92.73,11.26A3.57,3.57,0,0,0,90.92,14c0,.13-.21.14-.21,0a3.12,3.12,0,0,1,.53-1.67A5.31,5.31,0,0,1,92.73,11.26Z"/><path class="t" d="M103.72,16.69l-.89.22a19,19,0,0,1-5.87.47c-2-.16-8.2-1-6.53-4.43a4.34,4.34,0,0,1,2.07-1.89,4.2,4.2,0,0,0-1.26,1.22A2.38,2.38,0,0,0,90.47,14c0,1.63,1.94,2.24,3.21,2.57a18.44,18.44,0,0,0,4.91.59,25.42,25.42,0,0,0,3.82-.43.06.06,0,0,0,.06,0A5.82,5.82,0,0,1,103.72,16.69Z"/></g></svg>