<svg xmlns="http://www.w3.org/2000/svg" viewBox="0 0 578 138"><defs><style>.a{fill:#f5bb17;}.b{fill:#666;}.c{fill:#4eafc6;}.d{fill:#fff;}.e{fill:#e9523b;}.f{fill:#b3b3b3;}.g{fill:#ccc;}</style></defs><rect class="a" x="393" y="53" width="84" height="8"/><rect class="a" x="1" y="129" width="576" height="8"/><polygon class="b" points="485 129 513 129 515 109 483 109 485 129"/><rect class="b" x="481" y="105" width="36" height="4"/><path class="c" d="M495,89a8,8,0,0,1-8-8h0a4,4,0,0,0-8,0h0a16,16,0,0,0,16,16Z"/><path class="c" d="M495,93a12,12,0,0,1-12-12h0Z"/><path class="c" d="M495,105V59a4,4,0,0,1,8,0v46Z"/><path class="c" d="M499,59v0Z"/><path class="c" d="M503,81a8,8,0,0,0,8-8h0a4,4,0,0,1,8,0h0a16,16,0,0,1-16,16Z"/><path class="c" d="M503,85a12,12,0,0,0,12-12h0Z"/><path d="M495,98a17,17,0,0,1-17-17,5,5,0,0,1,10,0,7,7,0,0,0,7,7,1,1,0,0,1,0,2,9,9,0,0,1-9-9,3,3,0,0,0-6,0,15,15,0,0,0,15,15,1,1,0,0,1,0,2Z"/><path d="M495,94h-.14a1,1,0,0,1,0-2H495a1,1,0,0,1,0,2Z"/><path d="M490.54,93.15a1,1,0,0,1-.37-.08l-.28-.11a1,1,0,0,1,.78-1.84l.24.1a1,1,0,0,1,.56,1.3A1,1,0,0,1,490.54,93.15Zm-3.93-2.56a1,1,0,0,1-.69-.29l-.22-.21a1,1,0,1,1,1.43-1.4l.18.18a1,1,0,0,1,0,1.41A1,1,0,0,1,486.61,90.59ZM484,86.72a1,1,0,0,1-.92-.61l-.11-.28a1,1,0,1,1,1.85-.74l.1.24a1,1,0,0,1-.53,1.31A1.09,1.09,0,0,1,484,86.72Z"/><path d="M483,82.13a1,1,0,0,1-1-1V81a1,1,0,0,1,2,0v.1a1,1,0,0,1-1,1Z"/><path d="M503,106a1,1,0,0,1-1-1V59a3,3,0,0,0-6,0v46a1,1,0,0,1-2,0V59a5,5,0,0,1,10,0v46A1,1,0,0,1,503,106Z"/><path d="M499,60.13a1,1,0,0,1-1-1V59a1,1,0,0,1,2,0v.13A1,1,0,0,1,499,60.13Z"/><path d="M499,101.94a1,1,0,0,1-1-1v-.25a1,1,0,0,1,2,0v.25A1,1,0,0,1,499,101.94Zm0-4.18a1,1,0,0,1-1-1v-.25a1,1,0,1,1,2,0v.25A1,1,0,0,1,499,97.76Zm0-4.18a1,1,0,0,1-1-1v-.25a1,1,0,0,1,2,0v.25A1,1,0,0,1,499,93.58Zm0-4.18a1,1,0,0,1-1-1v-.25a1,1,0,1,1,2,0v.25A1,1,0,0,1,499,89.4Zm0-4.19a1,1,0,0,1-1-1V84a1,1,0,0,1,2,0v.24A1,1,0,0,1,499,85.21ZM499,81a1,1,0,0,1-1-1v-.24a1,1,0,1,1,2,0V80A1,1,0,0,1,499,81Zm0-4.18a1,1,0,0,1-1-1v-.24a1,1,0,0,1,2,0v.24A1,1,0,0,1,499,76.85Zm0-4.18a1,1,0,0,1-1-1v-.25a1,1,0,1,1,2,0v.25A1,1,0,0,1,499,72.67Zm0-4.18a1,1,0,0,1-1-1v-.25a1,1,0,0,1,2,0v.25A1,1,0,0,1,499,68.49Zm0-4.18a1,1,0,0,1-1-1v-.25a1,1,0,1,1,2,0v.25A1,1,0,0,1,499,64.31Z"/><path d="M499,106a1,1,0,0,1-1-1v-.12a1,1,0,0,1,2,0V105A1,1,0,0,1,499,106Z"/><path d="M503,90a1,1,0,0,1,0-2,15,15,0,0,0,15-15,3,3,0,0,0-6,0,9,9,0,0,1-9,9,1,1,0,0,1,0-2,7,7,0,0,0,7-7,5,5,0,0,1,10,0A17,17,0,0,1,503,90Z"/><path d="M503,86a1,1,0,0,1,0-2h.12a1,1,0,0,1,0,2Z"/><path d="M507.46,85.15a1,1,0,0,1-.93-.63,1,1,0,0,1,.56-1.3l.24-.1a1,1,0,0,1,.78,1.84l-.28.11A1,1,0,0,1,507.46,85.15Zm3.93-2.56a1,1,0,0,1-.72-.31,1,1,0,0,1,0-1.41l.18-.18a1,1,0,1,1,1.43,1.4l-.22.21A1,1,0,0,1,511.39,82.59ZM514,78.72a1.09,1.09,0,0,1-.39-.08,1,1,0,0,1-.53-1.31l.1-.24a1,1,0,1,1,1.85.74l-.11.28A1,1,0,0,1,514,78.72Z"/><path d="M515,74.13h0a1,1,0,0,1-1-1V73a1,1,0,0,1,2,0v.15A1,1,0,0,1,515,74.13Z"/><path d="M517,110H481a1,1,0,0,1-1-1v-4a1,1,0,0,1,1-1h36a1,1,0,0,1,1,1v4A1,1,0,0,1,517,110Zm-35-2h34v-2H482Z"/><path class="d" d="M509.33,126h-.11a1,1,0,0,1-.88-1.1l1.33-12a1,1,0,0,1,1.11-.88,1,1,0,0,1,.88,1.1l-1.33,12A1,1,0,0,1,509.33,126Z"/><path d="M513,130h-.1a1,1,0,0,1-.9-1.1l2-20a1,1,0,0,1,2,.2l-2,20A1,1,0,0,1,513,130Z"/><path d="M485,130a1,1,0,0,1-1-.9l-2-20a1,1,0,0,1,2-.2l2,20a1,1,0,0,1-.9,1.1Z"/><path class="b" d="M357,5H221a4,4,0,0,0-4,4V89H361V9A4,4,0,0,0,357,5Z"/><rect class="c" x="221" y="9" width="136" height="76"/><path class="d" d="M285,1H229l-4,8V81h64V5A4,4,0,0,0,285,1Z"/><path class="d" d="M293,1h56l4,8V81H289V5A4,4,0,0,1,293,1Z"/><rect class="b" x="233" y="41" width="8" height="4"/><rect class="e" x="253" y="41" width="4" height="4"/><rect class="a" x="277" y="41" width="8" height="4"/><rect class="e" x="233" y="5" width="52" height="4"/><rect class="f" x="293" y="5" width="52" height="4"/><rect class="c" x="233" y="13" width="52" height="24"/><rect class="c" x="293" y="53" width="16" height="16"/><rect class="e" x="293" y="33" width="16" height="16"/><rect class="a" x="293" y="13" width="16" height="16"/><path d="M317,130H261a1,1,0,0,1-1-1v-4a1,1,0,0,1,1-1h56a1,1,0,0,1,1,1v4A1,1,0,0,1,317,130Zm-55-2h54v-2H262Z"/><path d="M273,126h-.1a1,1,0,0,1-.9-1.1l2-20a1,1,0,0,1,2,.2l-2,20A1,1,0,0,1,273,126Z"/><path d="M305,126a1,1,0,0,1-1-.9l-2-20a1,1,0,0,1,2-.2l2,20a1,1,0,0,1-.9,1.1Z"/><path d="M357,106H221a1,1,0,0,1,0-2H357a1,1,0,0,1,0,2Z"/><path d="M221,106a5,5,0,0,1-5-5,1,1,0,0,1,2,0,3,3,0,0,0,3,3,1,1,0,0,1,0,2Z"/><path d="M357,106a1,1,0,0,1,0-2,3,3,0,0,0,3-3,1,1,0,0,1,2,0A5,5,0,0,1,357,106Z"/><path d="M361,102a1,1,0,0,1-1-1V89a1,1,0,0,1,2,0v12A1,1,0,0,1,361,102Z"/><path d="M361,90H217a1,1,0,0,1,0-2H361a1,1,0,0,1,0,2Z"/><path d="M217,102a1,1,0,0,1-1-1V89a1,1,0,0,1,2,0v12A1,1,0,0,1,217,102Z"/><path d="M289,100a3,3,0,1,1,3-3A3,3,0,0,1,289,100Zm0-4a1,1,0,1,0,1,1A1,1,0,0,0,289,96Z"/><path d="M225,82a.93.93,0,0,1-.45-.11,1,1,0,0,1-.44-1.34l4-8a1,1,0,1,1,1.78.9l-4,8A1,1,0,0,1,225,82Z"/><path d="M229,74a1,1,0,0,1-1-1V1a1,1,0,0,1,2,0V73A1,1,0,0,1,229,74Z"/><path d="M225,10a.93.93,0,0,1-.45-.11,1,1,0,0,1-.44-1.34l4-8a1,1,0,0,1,1.78.9l-4,8A1,1,0,0,1,225,10Z"/><path d="M225,82a1,1,0,0,1-1-1V9a1,1,0,0,1,2,0V81A1,1,0,0,1,225,82Z"/><path d="M285,2H229a1,1,0,0,1,0-2h56a1,1,0,0,1,0,2Z"/><path d="M285,74H229a1,1,0,0,1,0-2h56a1,1,0,0,1,0,2Z"/><path d="M289,82H225a1,1,0,0,1,0-2h64a1,1,0,0,1,0,2Z"/><path d="M289,78a1,1,0,0,1-1-1,3,3,0,0,0-3-3,1,1,0,0,1,0-2,5,5,0,0,1,5,5A1,1,0,0,1,289,78Z"/><path d="M289,6a1,1,0,0,1-1-1,3,3,0,0,0-3-3,1,1,0,0,1,0-2,5,5,0,0,1,5,5A1,1,0,0,1,289,6Z"/><path d="M353,82a1,1,0,0,1-.89-.55l-4-8a1,1,0,0,1,1.78-.9l4,8a1,1,0,0,1-.44,1.34A.93.93,0,0,1,353,82Z"/><path d="M349,74a1,1,0,0,1-1-1V1a1,1,0,0,1,2,0V73A1,1,0,0,1,349,74Z"/><path d="M353,10a1,1,0,0,1-.89-.55l-4-8a1,1,0,1,1,1.78-.9l4,8a1,1,0,0,1-.44,1.34A.93.93,0,0,1,353,10Z"/><path d="M353,82a1,1,0,0,1-1-1V9a1,1,0,0,1,2,0V81A1,1,0,0,1,353,82Z"/><path d="M349,2H293a1,1,0,0,1,0-2h56a1,1,0,0,1,0,2Z"/><path d="M349,74H293a1,1,0,0,1,0-2h56a1,1,0,0,1,0,2Z"/><path d="M353,82H289a1,1,0,0,1,0-2h64a1,1,0,0,1,0,2Z"/><path d="M289,78a1,1,0,0,1-1-1,5,5,0,0,1,5-5,1,1,0,0,1,0,2,3,3,0,0,0-3,3A1,1,0,0,1,289,78Z"/><path d="M289,6a1,1,0,0,1-1-1,5,5,0,0,1,5-5,1,1,0,0,1,0,2,3,3,0,0,0-3,3A1,1,0,0,1,289,6Z"/><path d="M289,82a1,1,0,0,1-1-1V5a1,1,0,0,1,2,0V81A1,1,0,0,1,289,82Z"/><path d="M217,90a1,1,0,0,1-1-1V9a5,5,0,0,1,5-5h5a1,1,0,0,1,0,2h-5a3,3,0,0,0-3,3V89A1,1,0,0,1,217,90Z"/><path d="M221,86a1,1,0,0,1-1-1V9a1,1,0,0,1,2,0V85A1,1,0,0,1,221,86Z"/><path d="M225,10h-4a1,1,0,0,1,0-2h4a1,1,0,0,1,0,2Z"/><path d="M289,86H221a1,1,0,0,1,0-2h68a1,1,0,0,1,0,2Z"/><path d="M361,90a1,1,0,0,1-1-1V9a3,3,0,0,0-3-3h-5a1,1,0,0,1,0-2h5a5,5,0,0,1,5,5V89A1,1,0,0,1,361,90Z"/><path d="M357,86a1,1,0,0,1-1-1V9a1,1,0,0,1,2,0V85A1,1,0,0,1,357,86Z"/><path d="M357,10h-4a1,1,0,0,1,0-2h4a1,1,0,0,1,0,2Z"/><path d="M357,86H289a1,1,0,0,1,0-2h68a1,1,0,0,1,0,2Z"/><path d="M285,10H233a1,1,0,0,1-1-1V5a1,1,0,0,1,1-1h52a1,1,0,0,1,1,1V9A1,1,0,0,1,285,10ZM234,8h50V6H234Z"/><path d="M285,38H233a1,1,0,0,1-1-1V13a1,1,0,0,1,1-1h52a1,1,0,0,1,1,1V37A1,1,0,0,1,285,38Zm-51-2h50V14H234Z"/><polygon class="d" points="255.5 21 255.5 29 263.5 25 255.5 21"/><path d="M255.5,30a1,1,0,0,1-.53-.15,1,1,0,0,1-.47-.85V21a1,1,0,0,1,1.45-.89l8,4a1,1,0,0,1,.55.89,1,1,0,0,1-.55.89l-8,4A.91.91,0,0,1,255.5,30Zm1-7.38v4.76L261.26,25Z"/><path d="M241,46h-8a1,1,0,0,1-1-1V41a1,1,0,0,1,1-1h8a1,1,0,0,1,1,1v4A1,1,0,0,1,241,46Zm-7-2h6V42h-6Z"/><path d="M249,46h-4a1,1,0,0,1-1-1V41a1,1,0,0,1,1-1h4a1,1,0,0,1,1,1v4A1,1,0,0,1,249,46Zm-3-2h2V42h-2Z"/><path d="M257,46h-4a1,1,0,0,1-1-1V41a1,1,0,0,1,1-1h4a1,1,0,0,1,1,1v4A1,1,0,0,1,257,46Zm-3-2h2V42h-2Z"/><path d="M285,46h-8a1,1,0,0,1-1-1V41a1,1,0,0,1,1-1h8a1,1,0,0,1,1,1v4A1,1,0,0,1,285,46Zm-7-2h6V42h-6Z"/><path d="M309,30H293a1,1,0,0,1-1-1V13a1,1,0,0,1,1-1h16a1,1,0,0,1,1,1V29A1,1,0,0,1,309,30Zm-15-2h14V14H294Z"/><path d="M309,50H293a1,1,0,0,1-1-1V33a1,1,0,0,1,1-1h16a1,1,0,0,1,1,1V49A1,1,0,0,1,309,50Zm-15-2h14V34H294Z"/><path d="M309,70H293a1,1,0,0,1-1-1V53a1,1,0,0,1,1-1h16a1,1,0,0,1,1,1V69A1,1,0,0,1,309,70Zm-15-2h14V54H294Z"/><path d="M345,10H293a1,1,0,0,1-1-1V5a1,1,0,0,1,1-1h52a1,1,0,0,1,1,1V9A1,1,0,0,1,345,10ZM294,8h50V6H294Z"/><path d="M345,14H313a1,1,0,0,1,0-2h32a1,1,0,0,1,0,2Z"/><path d="M329,18H313a1,1,0,0,1,0-2h16a1,1,0,0,1,0,2Z"/><path d="M337,18h-4a1,1,0,0,1,0-2h4a1,1,0,0,1,0,2Z"/><path d="M341,22H313a1,1,0,0,1,0-2h28a1,1,0,0,1,0,2Z"/><path d="M345,26H329a1,1,0,0,1,0-2h16a1,1,0,0,1,0,2Z"/><path d="M325,26h-4a1,1,0,0,1,0-2h4a1,1,0,0,1,0,2Z"/><path d="M317,26h-4a1,1,0,0,1,0-2h4a1,1,0,0,1,0,2Z"/><path d="M341,34H313a1,1,0,0,1,0-2h28a1,1,0,0,1,0,2Z"/><path d="M329,38H313a1,1,0,0,1,0-2h16a1,1,0,0,1,0,2Z"/><path d="M345,38H333a1,1,0,0,1,0-2h12a1,1,0,0,1,0,2Z"/><path d="M341,42H325a1,1,0,0,1,0-2h16a1,1,0,0,1,0,2Z"/><path d="M321,42h-8a1,1,0,0,1,0-2h8a1,1,0,0,1,0,2Z"/><path d="M317,46h-4a1,1,0,0,1,0-2h4a1,1,0,0,1,0,2Z"/><path d="M333,46H321a1,1,0,0,1,0-2h12a1,1,0,0,1,0,2Z"/><path d="M325,54H313a1,1,0,0,1,0-2h12a1,1,0,0,1,0,2Z"/><path d="M333,54h-4a1,1,0,0,1,0-2h4a1,1,0,0,1,0,2Z"/><path d="M345,54h-8a1,1,0,0,1,0-2h8a1,1,0,0,1,0,2Z"/><path d="M341,58H313a1,1,0,0,1,0-2h28a1,1,0,0,1,0,2Z"/><path d="M317,62h-4a1,1,0,0,1,0-2h4a1,1,0,0,1,0,2Z"/><path d="M333,62H321a1,1,0,0,1,0-2h12a1,1,0,0,1,0,2Z"/><path d="M337,66H313a1,1,0,0,1,0-2h24a1,1,0,0,1,0,2Z"/><path d="M253,50H233a1,1,0,0,1,0-2h20a1,1,0,0,1,0,2Z"/><path d="M265,50h-8a1,1,0,0,1,0-2h8a1,1,0,0,1,0,2Z"/><path d="M285,50H269a1,1,0,0,1,0-2h16a1,1,0,0,1,0,2Z"/><path d="M281,54H249a1,1,0,0,1,0-2h32a1,1,0,0,1,0,2Z"/><path d="M245,54h-4a1,1,0,0,1,0-2h4a1,1,0,0,1,0,2Z"/><path d="M237,54h-4a1,1,0,0,1,0-2h4a1,1,0,0,1,0,2Z"/><path d="M257,58H233a1,1,0,0,1,0-2h24a1,1,0,0,1,0,2Z"/><path d="M269,58h-8a1,1,0,0,1,0-2h8a1,1,0,0,1,0,2Z"/><path d="M281,58h-8a1,1,0,0,1,0-2h8a1,1,0,0,1,0,2Z"/><path d="M284,62H265a1,1,0,0,1,0-2h19a1,1,0,0,1,0,2Z"/><path d="M261,62h-4a1,1,0,0,1,0-2h4a1,1,0,0,1,0,2Z"/><path d="M253,62h-8a1,1,0,0,1,0-2h8a1,1,0,0,1,0,2Z"/><path d="M241,62h-8a1,1,0,0,1,0-2h8a1,1,0,0,1,0,2Z"/><path d="M237,66h-4a1,1,0,0,1,0-2h4a1,1,0,0,1,0,2Z"/><path d="M269,66H241a1,1,0,0,1,0-2h28a1,1,0,0,1,0,2Z"/><path d="M277,66h-4a1,1,0,0,1,0-2h4a1,1,0,0,1,0,2Z"/><path d="M281,70H265a1,1,0,0,1,0-2h16a1,1,0,0,1,0,2Z"/><path d="M261,70h-8a1,1,0,0,1,0-2h8a1,1,0,0,1,0,2Z"/><path d="M249,70h-4a1,1,0,0,1,0-2h4a1,1,0,0,1,0,2Z"/><path d="M241,70h-8a1,1,0,0,1,0-2h8a1,1,0,0,1,0,2Z"/><path d="M325,70H313a1,1,0,0,1,0-2h12a1,1,0,0,1,0,2Z"/><path d="M345,70H329a1,1,0,0,1,0-2h16a1,1,0,0,1,0,2Z"/><path d="M321,50h-8a1,1,0,0,1,0-2h8a1,1,0,0,1,0,2Z"/><path d="M341,50H325a1,1,0,0,1,0-2h16a1,1,0,0,1,0,2Z"/><path d="M333,30H313a1,1,0,0,1,0-2h20a1,1,0,0,1,0,2Z"/><path d="M341,30h-4a1,1,0,0,1,0-2h4a1,1,0,0,1,0,2Z"/><path d="M577,138H1a1,1,0,0,1-1-1v-8a1,1,0,0,1,1-1H577a1,1,0,0,1,1,1v8A1,1,0,0,1,577,138ZM2,136H576v-6H2Z"/><rect class="e" x="401" y="13" width="4.04" height="40"/><path d="M405,54h-4a1,1,0,0,1-1-1V13a1,1,0,0,1,1-1h4a1,1,0,0,1,1,1V53A1,1,0,0,1,405,54Zm-3-2h2V14h-2Z"/><polygon class="c" points="468.96 52.22 465.04 53 457.19 5.78 461.12 4.99 468.96 52.22"/><rect class="f" x="441.04" y="5" width="8" height="48"/><rect class="e" x="429.04" y="9" width="12" height="36"/><rect class="c" x="417.04" y="5" width="8" height="44"/><rect class="f" x="405.04" y="13" width="12" height="36"/><rect class="a" x="449.04" y="1" width="4" height="52"/><rect class="a" x="409.04" y="21" width="4" height="16"/><path d="M417,54H405a1,1,0,0,1-1-1V9a1,1,0,0,1,1-1h12a1,1,0,0,1,1,1V53A1,1,0,0,1,417,54Zm-11-2h10V10H406Z"/><path d="M429,54h-4a1,1,0,0,1-1-1V5a1,1,0,0,1,1-1h4a1,1,0,0,1,1,1V53A1,1,0,0,1,429,54Zm-3-2h2V6h-2Z"/><path d="M441,54H429a1,1,0,0,1-1-1V1a1,1,0,0,1,1-1h12a1,1,0,0,1,1,1V53A1,1,0,0,1,441,54Zm-11-2h10V2H430Z"/><path d="M449,54h-8a1,1,0,0,1-1-1V5a1,1,0,0,1,1-1h8a1,1,0,0,1,1,1V53A1,1,0,0,1,449,54Zm-7-2h6V6h-6Z"/><path d="M453,54h-4a1,1,0,0,1-1-1V1a1,1,0,0,1,1-1h4a1,1,0,0,1,1,1V53A1,1,0,0,1,453,54Zm-3-2h2V2h-2Z"/><path d="M465,54a1,1,0,0,1-.57-.18,1,1,0,0,1-.42-.66L456.21,5.94A1,1,0,0,1,457,4.8L460.92,4a1,1,0,0,1,.76.16,1,1,0,0,1,.42.66L470,52.05a1,1,0,0,1-.79,1.15l-3.93.78Zm-6.7-47.43,7.52,45.25,2-.39L460.3,6.18Z"/><path d="M417,50H405a1,1,0,0,1,0-2h12a1,1,0,0,1,0,2Z"/><path d="M417,14H405a1,1,0,0,1,0-2h12a1,1,0,0,1,0,2Z"/><path d="M413,38h-4a1,1,0,0,1-1-1V21a1,1,0,0,1,1-1h4a1,1,0,0,1,1,1V37A1,1,0,0,1,413,38Zm-3-2h2V22h-2Z"/><path d="M413,18h-4a1,1,0,0,1,0-2h4a1,1,0,0,1,0,2Z"/><path d="M433,17.88a1,1,0,0,1-1-1V13.12a1,1,0,0,1,2,0v3.76A1,1,0,0,1,433,17.88Z"/><path d="M441,10H429a1,1,0,0,1,0-2h12a1,1,0,0,1,0,2Z"/><path d="M441,46H429a1,1,0,0,1,0-2h12a1,1,0,0,1,0,2Z"/><path d="M433,28a1,1,0,0,1-1-1V25.23a1,1,0,0,1,2,0V27A1,1,0,0,1,433,28Z"/><path d="M433,34a1,1,0,0,1-1-1V31a1,1,0,0,1,2,0v2A1,1,0,0,1,433,34Z"/><path d="M425,54h-8a1,1,0,0,1-1-1V1a1,1,0,0,1,1-1h8a1,1,0,0,1,1,1V53A1,1,0,0,1,425,54Zm-7-2h6V2h-6Z"/><path d="M425,50h-8a1,1,0,0,1,0-2h8a1,1,0,0,1,0,2Z"/><path d="M425,6h-8a1,1,0,0,1,0-2h8a1,1,0,0,1,0,2Z"/><rect class="b" x="453.04" y="1" width="4" height="52"/><path d="M457,54h-4a1,1,0,0,1-1-1V1a1,1,0,0,1,1-1h4a1,1,0,0,1,1,1V53A1,1,0,0,1,457,54Zm-3-2h2V2h-2Z"/><rect class="b" x="161" y="105" width="24" height="4"/><path d="M185,110H161a1,1,0,0,1-1-1v-4a1,1,0,0,1,1-1h24a1,1,0,0,1,1,1v4A1,1,0,0,1,185,110Zm-23-2h22v-2H162Z"/><polygon class="c" points="154.42 81.92 160.98 76.06 166.27 75.03 168.18 73.57 169.12 71.63 166.15 65.41 164.19 62.05 161.28 60.65 159.14 62.6 155.59 63.47 154.93 66.61 155.91 70.54 152.87 79.02 154.42 81.92"/><polygon class="c" points="170.36 45.77 167.51 42.73 169.83 41.92 174.65 41.86 174.56 40.4 170.94 38.65 166.31 37.81 158.68 40.94 152.74 45.67 153.1 49 152.62 52.72 152.37 56.63 154.15 59.45 155.12 59.92 154.82 57.04 156.5 54.6 159.88 55.04 162.46 53.34 168.5 50.85 174 51.66 176.99 49.65 170.36 45.77"/><polygon class="c" points="178.31 47.83 178.29 44.23 177.29 41.35 180.17 40.35 185.74 42.45 187.22 45.56 183.87 47.53 178.31 47.83"/><path class="c" d="M200.39,59.2l-2.21.93-3.13-1.52L193.34,56,190.69,54l-2.92-.15-1.72,2-5,1.33L180.59,60l1,1.21,3.38,0,4.72,3.42.66,3.58L186,67.39l-.7-2-6.09-1.29-3.34,2L174.47,69l.52,3.85,2.9,1.4.75,2.31-1.38,5.23v4.78l3.32.29,3.49-5.23,3.85-2.78,2.71-3.11L194,74.29l2.41,1.17,2.81-.34a25,25,0,0,0,1.72-8.1A21.46,21.46,0,0,0,200.39,59.2Z"/><path d="M154.42,82.92a.55.55,0,0,1-.18,0,1,1,0,0,1-.71-.51L152,79.49a1,1,0,0,1-.06-.81l2.93-8.19-.9-3.64a1,1,0,0,1,0-.45l.66-3.14a1,1,0,0,1,.74-.76l3.3-.81,2-1.78a1,1,0,0,1,1.11-.16l2.9,1.41a1,1,0,0,1,.43.39l2,3.35,3,6.3a1,1,0,0,1,0,.87L169.08,74a1.12,1.12,0,0,1-.29.36l-1.91,1.47a1.07,1.07,0,0,1-.42.19l-5,1-6.36,5.68A1,1,0,0,1,154.42,82.92Zm-.46-4,.74,1.39,5.62-5a1,1,0,0,1,.47-.23l5.06-1,1.53-1.18.63-1.29-2.76-5.8-1.77-3-2-1-1.64,1.5a1,1,0,0,1-.44.23l-2.93.72-.48,2.3.92,3.71a1.1,1.1,0,0,1,0,.57Z"/><path d="M155.12,60.92a1.13,1.13,0,0,1-.44-.1l-1-.47a1,1,0,0,1-.41-.37l-1.78-2.81a1,1,0,0,1-.15-.6l.25-3.92.47-3.65-.35-3.22a1,1,0,0,1,2-.22l.36,3.34a.88.88,0,0,1,0,.23l-.47,3.72-.23,3.52.43.68a1,1,0,0,1,.17-.58L155.68,54a1,1,0,0,1,.95-.42l3,.39,2.27-1.49a.56.56,0,0,1,.17-.09l6-2.5a1,1,0,0,1,.53-.06l5.12.75,1.35-.91-5.25-3.07a1,1,0,0,1-.23-.18l-2.85-3a1,1,0,0,1,.4-1.63l2.33-.81a1.06,1.06,0,0,1,.31,0l3.43,0-2.62-1.27-4.5-.81a1,1,0,0,1-.81-1.17,1,1,0,0,1,1.16-.8l4.64.83a1.14,1.14,0,0,1,.26.09L175,39.5a1,1,0,0,1,.56.84l.09,1.46a1,1,0,0,1-.27.74,1,1,0,0,1-.72.32l-4.65.06-.72.24L171,45l6.51,3.8a1,1,0,0,1,.49.84,1,1,0,0,1-.44.86l-3,2a1,1,0,0,1-.71.15l-5.23-.76-5.69,2.35-2.5,1.65a1,1,0,0,1-.68.16L157,55.67l-1.13,1.64.26,2.5a1,1,0,0,1-.42.93A1,1,0,0,1,155.12,60.92Z"/><path d="M178.31,48.83a1,1,0,0,1-1-1l0-3.43-.94-2.72A1,1,0,0,1,177,40.4l2.87-1a1,1,0,0,1,.68,0l5.57,2.11a1,1,0,0,1,.55.5l1.48,3.11a1,1,0,0,1-.39,1.3l-3.36,2a.88.88,0,0,1-.45.14l-5.56.29Zm.26-6.86.66,1.93a.87.87,0,0,1,.06.32v2.55l4.27-.22,2.35-1.38L185,43.25l-4.85-1.84Z"/><path d="M180.57,87.83h-.09l-3.32-.28a1,1,0,0,1-.91-1V81.76a1.07,1.07,0,0,1,0-.25l1.31-5-.53-1.62-2.51-1.22A1,1,0,0,1,174,73l-.52-3.85a1,1,0,0,1,.09-.57l1.41-2.9a1,1,0,0,1,.39-.43l3.35-2a1,1,0,0,1,.71-.12l6.09,1.29a1,1,0,0,1,.74.65l.51,1.47,2.33.48-.32-1.72-4.14-3-3.06,0a1,1,0,0,1-.76-.37l-1-1.2a1,1,0,0,1-.21-.81l.49-2.79a1,1,0,0,1,.72-.79L185.49,55,187,53.24a1,1,0,0,1,.81-.36l2.92.15a1,1,0,0,1,.54.2l2.65,2a1,1,0,0,1,.24.25l1.57,2.4,2.47,1.2,1.79-.75a1,1,0,0,1,.78,1.85l-2.21.92a1,1,0,0,1-.82,0l-3.13-1.52a1,1,0,0,1-.41-.35l-1.61-2.48L190.34,55l-2.13-.11-1.4,1.65a.93.93,0,0,1-.5.32L182,58.05l-.3,1.71.41.49,2.91,0a1,1,0,0,1,.58.19l4.72,3.42a1,1,0,0,1,.4.63l.66,3.58a1,1,0,0,1-.29.89,1,1,0,0,1-.9.27l-4.35-.91a1,1,0,0,1-.74-.65l-.51-1.47-5.15-1.09-2.76,1.61-1.14,2.36.41,3,2.42,1.17a1,1,0,0,1,.51.59l.75,2.31a1,1,0,0,1,0,.56l-1.35,5.11v3.74l1.81.15,3.17-4.73a1,1,0,0,1,.24-.26l3.76-2.71,2.64-3a1.08,1.08,0,0,1,.37-.26l3.37-1.42a1,1,0,0,1,.82,0l2.15,1,2.13-.25a1,1,0,1,1,.23,2l-2.42.29a1,1,0,0,1-.55-.09l-2-1-2.74,1.15-2.57,2.94-.17.15-3.7,2.68-3.39,5.07A1,1,0,0,1,180.57,87.83Z"/><path d="M173,94a28.67,28.67,0,0,1-12.64-2.92A29,29,0,0,1,173,36a28.67,28.67,0,0,1,12.64,2.92A29,29,0,0,1,173,94Zm0-56a27,27,0,0,0-11.81,51.3A26.79,26.79,0,0,0,173,92a27,27,0,0,0,11.81-51.3A26.82,26.82,0,0,0,173,38Z"/><path d="M173,98a32.85,32.85,0,0,1-14.37-3.33,1,1,0,1,1,.87-1.8,31,31,0,1,0,27.06-55.78,1,1,0,0,1,.87-1.8A33,33,0,0,1,173,98Z"/><path d="M185.22,40.81a1,1,0,0,1-.43-.1,1,1,0,0,1-.47-1.34l3.49-7.19a1,1,0,1,1,1.8.87l-3.49,7.19A1,1,0,0,1,185.22,40.81Z"/><path d="M157.29,98.39a1,1,0,0,1-.44-.1,1,1,0,0,1-.46-1.34l3.49-7.19a1,1,0,1,1,1.8.87l-3.49,7.2A1,1,0,0,1,157.29,98.39Z"/><path d="M173,105.81a1,1,0,0,1-1-1V97.2a1,1,0,1,1,2,0v7.61A1,1,0,0,1,173,105.81Z"/><rect class="d" x="141" y="121" width="60" height="8"/><path d="M201,130H141a1,1,0,0,1-1-1v-8a1,1,0,0,1,1-1h60a1,1,0,0,1,1,1v8A1,1,0,0,1,201,130Zm-59-2h58v-6H142Z"/><rect class="b" x="145" y="117" width="52" height="4"/><path d="M201,130H141a1,1,0,0,1-1-1v-8a1,1,0,0,1,1-1h60a1,1,0,0,1,1,1v8A1,1,0,0,1,201,130Zm-59-2h58v-6H142Z"/><path d="M197,122H145a1,1,0,0,1-1-1v-4a1,1,0,0,1,1-1h52a1,1,0,0,1,1,1v4A1,1,0,0,1,197,122Zm-51-2h50v-2H146Z"/><path d="M145,130a1,1,0,0,1-1-1v-8a1,1,0,0,1,2,0v8A1,1,0,0,1,145,130Z"/><path d="M149,130a1,1,0,0,1-1-1v-8a1,1,0,0,1,2,0v8A1,1,0,0,1,149,130Z"/><path d="M197,130a1,1,0,0,1-1-1v-8a1,1,0,0,1,2,0v8A1,1,0,0,1,197,130Z"/><path d="M193,130a1,1,0,0,1-1-1v-8a1,1,0,0,1,2,0v8A1,1,0,0,1,193,130Z"/><rect class="f" x="149" y="109" width="56" height="8"/><path d="M205,118H149a1,1,0,0,1-1-1v-8a1,1,0,0,1,1-1h56a1,1,0,0,1,1,1v8A1,1,0,0,1,205,118Zm-55-2h54v-6H150Z"/><circle class="e" cx="125" cy="115" r="2"/><polygon class="g" points="117 129 133 129 133.57 121 116.43 121 117 129"/><polygon class="g" points="135 101 115 101 115.57 109 134.43 109 135 101"/><path d="M133,130H117a1,1,0,0,1-1-.93l-2-28a1,1,0,0,1,.27-.75A1,1,0,0,1,115,100h20a1,1,0,0,1,.73.32,1,1,0,0,1,.27.75l-2,28A1,1,0,0,1,133,130Zm-15.07-2h14.14l1.86-26H116.07Z"/><path d="M137,102H113a1,1,0,0,1-1-1V97a1,1,0,0,1,1-1h24a1,1,0,0,1,1,1v4A1,1,0,0,1,137,102Zm-23-2h22V98H114Z"/><path d="M135,98H115a1,1,0,0,1-.79-.38,1,1,0,0,1-.18-.86l1-4a1,1,0,0,1,1-.76h18a1,1,0,0,1,1,.76l1,4a1,1,0,0,1-.18.86A1,1,0,0,1,135,98Zm-18.72-2h17.44l-.5-2H116.78Z"/><path d="M125,118a3,3,0,1,1,3-3A3,3,0,0,1,125,118Zm0-4a1,1,0,1,0,1,1A1,1,0,0,0,125,114Z"/><path d="M134.43,110H115.57a1,1,0,0,1,0-2h18.86a1,1,0,0,1,0,2Z"/><path d="M133.57,122H116.43a1,1,0,0,1,0-2h17.14a1,1,0,0,1,0,2Z"/><path class="e" d="M434.08,117a8,8,0,1,0,13.84,0Z"/><path class="c" d="M405,109a12,12,0,0,0,24,0Z"/><path d="M417,122a13,13,0,0,1-5-25V77a1,1,0,0,1,1-1h8a1,1,0,0,1,1,1V97a13,13,0,0,1-5,25Zm-3-44V97.7a1,1,0,0,1-.67.94,11,11,0,1,0,7.34,0,1,1,0,0,1-.67-.94V78Z"/><path d="M423,78H411a1,1,0,0,1,0-2h12a1,1,0,0,1,0,2Z"/><path d="M429,110H405a1,1,0,0,1,0-2h24a1,1,0,0,1,0,2Z"/><path d="M429,130a1,1,0,0,1-1-1V109a1,1,0,0,1,2,0v20A1,1,0,0,1,429,130Z"/><path d="M405,130a1,1,0,0,1-1-1V109a1,1,0,0,1,2,0v20A1,1,0,0,1,405,130Z"/><path d="M417,130a1,1,0,0,1-1-1V109a1,1,0,0,1,2,0v20A1,1,0,0,1,417,130Z"/><path d="M429,114H405a1,1,0,0,1,0-2h24a1,1,0,0,1,0,2Z"/><path d="M415,94h-2a1,1,0,0,1,0-2h2a1,1,0,0,1,0,2Z"/><path d="M415,90h-2a1,1,0,0,1,0-2h2a1,1,0,0,1,0,2Z"/><path d="M415,86h-2a1,1,0,0,1,0-2h2a1,1,0,0,1,0,2Z"/><path d="M415,82h-2a1,1,0,0,1,0-2h2a1,1,0,0,1,0,2Z"/><path d="M441,130a9,9,0,0,1-3-17.48V101a1,1,0,0,1,1-1h4a1,1,0,0,1,1,1v11.52A9,9,0,0,1,441,130Zm-1-28v11.26a1,1,0,0,1-.75,1,7,7,0,1,0,3.5,0,1,1,0,0,1-.75-1V102Z"/><path d="M465,102h-8a1,1,0,0,1,0-2h8a1,1,0,0,1,0,2Z"/><path d="M445,102h-8a1,1,0,0,1,0-2h8a1,1,0,0,1,0,2Z"/><path d="M447.92,118H434.08a1,1,0,1,1,0-2h13.84a1,1,0,1,1,0,2Z"/><path d="M461,130a9,9,0,0,1-3-17.48V101a1,1,0,0,1,1-1h4a1,1,0,0,1,1,1v11.52A9,9,0,0,1,461,130Zm-1-28v11.26a1,1,0,0,1-.75,1,7,7,0,1,0,3.5,0,1,1,0,0,1-.75-1V102Z"/><path d="M477,62H393a1,1,0,0,1-1-1V53a1,1,0,0,1,1-1h84a1,1,0,0,1,1,1v8A1,1,0,0,1,477,62Zm-83-2h82V54H394Z"/><rect class="a" x="373" y="73" width="8" height="20"/><rect class="c" x="369" y="93" width="24" height="36"/><path d="M393,130H369a1,1,0,0,1-1-1V93a1,1,0,0,1,1-1h24a1,1,0,0,1,1,1v36A1,1,0,0,1,393,130Zm-23-2h22V94H370Z"/><path d="M381,94h-8a1,1,0,0,1-1-1V73a1,1,0,0,1,1-1h8a1,1,0,0,1,1,1V93A1,1,0,0,1,381,94Zm-7-2h6V74h-6Z"/><path d="M375,78h-2a1,1,0,0,1,0-2h2a1,1,0,0,1,0,2Z"/><path d="M375,82h-2a1,1,0,0,1,0-2h2a1,1,0,0,1,0,2Z"/><path d="M375,86h-2a1,1,0,0,1,0-2h2a1,1,0,0,1,0,2Z"/><path d="M375,90h-2a1,1,0,0,1,0-2h2a1,1,0,0,1,0,2Z"/><path d="M389,94h-4a1,1,0,0,1-1-1V81a1,1,0,0,1,1-1h4a1,1,0,0,1,1,1V93A1,1,0,0,1,389,94Zm-3-2h2V82h-2Z"/><path d="M389,82h-4a1,1,0,0,1-.89-1.45l2-4a1,1,0,0,1,1.78,0l2,4A1,1,0,0,1,389,82Zm-2.38-2h.76l-.38-.76Z"/><rect class="f" x="69" y="69" width="36" height="60"/><rect class="a" x="69" y="89.57" width="12" height="19.43"/><rect class="d" x="81" y="89.57" width="12" height="19.43"/><rect class="c" x="93" y="89.57" width="12" height="19.43"/><rect class="a" x="113" y="37" width="20" height="20"/><path d="M105,130H93a1,1,0,0,1-1-1V69a1,1,0,0,1,1-1h12a1,1,0,0,1,1,1v60A1,1,0,0,1,105,130Zm-11-2h10V70H94Z"/><path d="M93,130H81a1,1,0,0,1-1-1V69a1,1,0,0,1,1-1H93a1,1,0,0,1,1,1v60A1,1,0,0,1,93,130Zm-11-2H92V70H82Z"/><path d="M81,130H69a1,1,0,0,1-1-1V69a1,1,0,0,1,1-1H81a1,1,0,0,1,1,1v60A1,1,0,0,1,81,130Zm-11-2H80V70H70Z"/><path d="M99,82a3,3,0,1,1,3-3A3,3,0,0,1,99,82Zm0-4a1,1,0,1,0,1,1A1,1,0,0,0,99,78Z"/><path d="M87,82a3,3,0,1,1,3-3A3,3,0,0,1,87,82Zm0-4a1,1,0,1,0,1,1A1,1,0,0,0,87,78Z"/><path d="M75,82a3,3,0,1,1,3-3A3,3,0,0,1,75,82Zm0-4a1,1,0,1,0,1,1A1,1,0,0,0,75,78Z"/><path d="M105,90H69a1,1,0,0,1,0-2h36a1,1,0,0,1,0,2Z"/><path d="M105,110H69a1,1,0,0,1,0-2h36a1,1,0,0,1,0,2Z"/><path d="M133,58H113a1,1,0,0,1-1-1V37a1,1,0,0,1,1-1h20a1,1,0,0,1,1,1V57A1,1,0,0,1,133,58Zm-19-2h18V38H114Z"/><rect class="e" x="101" y="29" width="20" height="20"/><path d="M121,50H101a1,1,0,0,1-1-1V29a1,1,0,0,1,1-1h20a1,1,0,0,1,1,1V49A1,1,0,0,1,121,50Zm-19-2h18V30H102Z"/><rect class="b" x="13" y="125" width="20" height="4"/><rect class="b" x="21" y="113" width="4" height="12"/><path d="M25,126H21a1,1,0,0,1-1-1V109a1,1,0,0,1,1-1h4a1,1,0,0,1,1,1v16A1,1,0,0,1,25,126Zm-3-2h2V110H22Z"/><path class="b" d="M27,97v4a4,4,0,0,1,0,8H11v4H27a8,8,0,0,0,0-16Z"/><polygon class="b" points="23 85 23 73 19 73 19 85 19 89 19 97 19 105 23 105 23 97 27 97 27 85 23 85"/><rect class="b" x="15" y="97" width="12" height="4"/><path d="M27,102H15a1,1,0,0,1-1-1V97a1,1,0,0,1,1-1H27a1,1,0,0,1,1,1v4A1,1,0,0,1,27,102Zm-11-2H26V98H16Z"/><path class="a" d="M551,105v16a4,4,0,0,0,8,0V105Z"/><path class="e" d="M535,105v16a4,4,0,0,0,8,0V105Z"/><path d="M565,130a1,1,0,0,1-1-1V106h-5a1,1,0,0,1,0-2h6a1,1,0,0,1,1,1v24A1,1,0,0,1,565,130Z"/><path d="M559,106h-8a1,1,0,0,1,0-2h8a1,1,0,0,1,0,2Z"/><path d="M529,130a1,1,0,0,1-1-1V105a1,1,0,0,1,1-1h6a1,1,0,0,1,0,2h-5v23A1,1,0,0,1,529,130Z"/><path d="M551,106h-8a1,1,0,0,1,0-2h8a1,1,0,0,1,0,2Z"/><path d="M543,106h-8a1,1,0,0,1,0-2h8a1,1,0,0,1,0,2Z"/><path d="M543,106a1,1,0,0,1-1-1V98h-6v7a1,1,0,0,1-2,0V97a1,1,0,0,1,1-1h8a1,1,0,0,1,1,1v8A1,1,0,0,1,543,106Z"/><path d="M539,126a5,5,0,0,1-5-5V105a1,1,0,0,1,2,0v16a3,3,0,0,0,6,0V105a1,1,0,0,1,2,0v16A5,5,0,0,1,539,126Z"/><path d="M555,126a5,5,0,0,1-5-5V105a1,1,0,0,1,2,0v16a3,3,0,0,0,6,0V105a1,1,0,0,1,2,0v16A5,5,0,0,1,555,126Z"/><path d="M559,106a1,1,0,0,1-1-1V98h-6v7a1,1,0,0,1-2,0V97a1,1,0,0,1,1-1h8a1,1,0,0,1,1,1v8A1,1,0,0,1,559,106Z"/><path d="M545,98H533a1,1,0,0,1,0-2h12a1,1,0,0,1,0,2Z"/><path d="M561,98H549a1,1,0,0,1,0-2h12a1,1,0,0,1,0,2Z"/><path d="M537,102h-2a1,1,0,0,1,0-2h2a1,1,0,0,1,0,2Z"/><path d="M537,110h-2a1,1,0,0,1,0-2h2a1,1,0,0,1,0,2Z"/><path d="M537,114h-2a1,1,0,0,1,0-2h2a1,1,0,0,1,0,2Z"/><path d="M537,118h-2a1,1,0,0,1,0-2h2a1,1,0,0,1,0,2Z"/><path d="M553,102h-2a1,1,0,0,1,0-2h2a1,1,0,0,1,0,2Z"/><path d="M553,110h-2a1,1,0,0,1,0-2h2a1,1,0,0,1,0,2Z"/><path d="M553,114h-2a1,1,0,0,1,0-2h2a1,1,0,0,1,0,2Z"/><path d="M553,118h-2a1,1,0,0,1,0-2h2a1,1,0,0,1,0,2Z"/><path d="M33,130H13a1,1,0,0,1-1-1v-4a1,1,0,0,1,1-1H33a1,1,0,0,1,1,1v4A1,1,0,0,1,33,130Zm-19-2H32v-2H14Z"/><path d="M27,114H11a1,1,0,0,1-1-1v-4a1,1,0,0,1,1-1H27a3,3,0,0,0,0-6,1,1,0,0,1-1-1V97a1,1,0,0,1,1-1,9,9,0,0,1,0,18Zm-15-2H27a7,7,0,0,0,1-13.93v2a5,5,0,0,1-1,9.9H12Z"/><path d="M23,106H19a1,1,0,0,1-1-1V73a1,1,0,0,1,1-1h4a1,1,0,0,1,1,1V84h3a1,1,0,0,1,1,1V97a1,1,0,0,1-1,1H24v7A1,1,0,0,1,23,106Zm-3-2h2V97a1,1,0,0,1,1-1h3V86H23a1,1,0,0,1-1-1V74H20Z"/><circle class="b" cx="27" cy="97" r="4"/><path d="M27,102a5,5,0,1,1,5-5A5,5,0,0,1,27,102Zm0-8a3,3,0,1,0,3,3A3,3,0,0,0,27,94Z"/><path d="M23,86H19a1,1,0,0,1,0-2h4a1,1,0,0,1,0,2Z"/><path d="M27,90H19a1,1,0,0,1,0-2h8a1,1,0,0,1,0,2Z"/><rect class="c" x="57" y="84.81" width="4" height="44"/><rect class="f" x="45" y="84.81" width="8" height="44"/><rect class="b" x="61" y="88.81" width="8" height="12"/><rect class="e" x="61" y="100.81" width="8" height="20"/><rect class="a" x="53" y="80.81" width="4" height="48"/><path d="M53,129.81H45a1,1,0,0,1-1-1v-44a1,1,0,0,1,1-1h8a1,1,0,0,1,1,1v44A1,1,0,0,1,53,129.81Zm-7-2h6v-42H46Z"/><path d="M57,129.81H53a1,1,0,0,1-1-1v-48a1,1,0,0,1,1-1h4a1,1,0,0,1,1,1v48A1,1,0,0,1,57,129.81Zm-3-2h2v-46H54Z"/><path d="M61,129.81H57a1,1,0,0,1-1-1v-44a1,1,0,0,1,1-1h4a1,1,0,0,1,1,1v44A1,1,0,0,1,61,129.81Zm-3-2h2v-42H58Z"/><path d="M69,129.81H61a1,1,0,0,1-1-1v-48a1,1,0,0,1,1-1h8a1,1,0,0,1,1,1v48A1,1,0,0,1,69,129.81Zm-7-2h6v-46H62Z"/><path d="M69,121.81H61a1,1,0,0,1,0-2h8a1,1,0,0,1,0,2Z"/><path d="M69,89.81H61a1,1,0,0,1,0-2h8a1,1,0,0,1,0,2Z"/><path d="M65,117.16a1,1,0,0,1-1-1v-3.35a1,1,0,0,1,2,0v3.35A1,1,0,0,1,65,117.16Z"/><path d="M65,109.81a1,1,0,0,1-1-1V105a1,1,0,0,1,2,0v3.77A1,1,0,0,1,65,109.81Z"/><path d="M69,101.81H62a1,1,0,0,1,0-2h7a1,1,0,0,1,0,2Z"/><path d="M65,97.81a1,1,0,0,1-1-1V92.92a1,1,0,0,1,2,0v3.89A1,1,0,0,1,65,97.81Z"/></svg>