<svg xmlns="http://www.w3.org/2000/svg" xmlns:xlink="http://www.w3.org/1999/xlink" viewBox="0 0 341.17 329.93"><defs><clipPath id="clip-path"><circle cx="289.01" cy="242.72" r="33.25" style="fill:#fec00f"/></clipPath><clipPath id="clip-path-2"><circle cx="293.25" cy="77.99" r="33.25" style="fill:#8fc4d7"/></clipPath><clipPath id="clip-path-3"><circle cx="151.23" cy="296.16" r="33.25" style="fill:#d1ecfb"/></clipPath><clipPath id="clip-path-4"><circle cx="74.05" cy="264.78" r="20" style="fill:none"/></clipPath><clipPath id="clip-path-5"><circle cx="243.4" cy="31.9" r="20" style="fill:#fec00f"/></clipPath><clipPath id="clip-path-6"><circle cx="46.03" cy="111.59" r="33.25" style="fill:#15b0bf"/></clipPath><clipPath id="clip-path-7"><circle cx="321.17" cy="161.64" r="20" style="fill:#fd6120"/></clipPath></defs><g id="Layer_2" data-name="Layer 2"><g id="Layer_4" data-name="Layer 4"><path d="M176,310.93h0c-2.15,0-4.33-.06-6.48-.16a.92.92,0,1,1,.08-1.84c2.12.1,4.28.15,6.41.16a.92.92,0,1,1,0,1.84Zm6.45-.12a.92.92,0,0,1,0-1.84c2.13-.09,4.28-.22,6.4-.4a.9.9,0,0,1,1,.84.92.92,0,0,1-.84,1c-2.14.18-4.32.31-6.47.4Zm-19.32-.47H163c-2.15-.2-4.32-.44-6.45-.72a.92.92,0,0,1-.79-1,.91.91,0,0,1,1-.79c2.1.28,4.24.52,6.36.71a.92.92,0,0,1-.08,1.84Zm32.16-.61a.92.92,0,0,1-.11-1.83c2.11-.27,4.24-.59,6.33-.95a.92.92,0,1,1,.32,1.81c-2.12.37-4.28.69-6.42,1Zm-44.93-1.09-.17,0c-2.11-.38-4.25-.81-6.36-1.28a.93.93,0,0,1-.7-1.1.94.94,0,0,1,1.11-.7c2.08.47,4.19.9,6.28,1.27a.91.91,0,0,1,.74,1.07A.93.93,0,0,1,150.31,308.64Zm57.63-1.1a.92.92,0,0,1-.19-1.82c2.08-.46,4.17-1,6.23-1.51a.93.93,0,0,1,.47,1.79c-2.08.55-4.21,1.06-6.31,1.52Zm-70.21-1.72-.24,0c-2.08-.57-4.18-1.18-6.23-1.84a.92.92,0,0,1,.56-1.75c2,.64,4.09,1.25,6.15,1.81a.92.92,0,0,1-.24,1.81Zm82.68-1.58a.92.92,0,0,1-.28-1.8c2-.63,4.07-1.32,6.07-2.05a.93.93,0,0,1,.63,1.74c-2,.73-4.1,1.43-6.15,2.07A.84.84,0,0,1,220.41,304.24Zm-95-2.34a1,1,0,0,1-.32-.06c-2-.74-4.06-1.54-6-2.38a.91.91,0,0,1-.49-1.2.92.92,0,0,1,1.2-.5c2,.83,4,1.62,6,2.35a.92.92,0,0,1,.54,1.19A.9.9,0,0,1,125.43,301.9Zm107.1-2a.93.93,0,0,1-.35-1.78c2-.81,3.93-1.67,5.85-2.56a.92.92,0,0,1,.78,1.67c-1.95.9-3.94,1.78-5.93,2.6A1.15,1.15,0,0,1,232.53,299.86Zm-119-2.95a.93.93,0,0,1-.4-.09c-2-.92-3.91-1.9-5.81-2.9a.92.92,0,1,1,.86-1.63c1.87,1,3.8,1.95,5.74,2.87a.91.91,0,0,1,.44,1.22A.93.93,0,0,1,113.52,296.91Zm130.67-2.47a.93.93,0,0,1-.82-.5.92.92,0,0,1,.4-1.24c1.88-1,3.77-2,5.61-3.07a.92.92,0,0,1,.92,1.6c-1.86,1.07-3.78,2.11-5.68,3.1A.86.86,0,0,1,244.19,294.44Zm-142.1-3.55a1,1,0,0,1-.46-.12c-1.87-1.09-3.73-2.23-5.54-3.4a.92.92,0,0,1,1-1.55c1.79,1.15,3.62,2.28,5.47,3.36a.92.92,0,0,1-.47,1.71ZM255.35,288a.92.92,0,0,1-.5-1.7c1.78-1.13,3.58-2.33,5.33-3.55a.92.92,0,0,1,1.05,1.51c-1.77,1.24-3.59,2.45-5.39,3.59A.91.91,0,0,1,255.35,288Zm-164.1-4.11a1,1,0,0,1-.54-.17c-1.74-1.24-3.5-2.54-5.21-3.87a.92.92,0,1,1,1.13-1.45c1.69,1.31,3.42,2.59,5.15,3.81a.94.94,0,0,1,.22,1.29A.92.92,0,0,1,91.25,283.91Zm174.65-3.27a.91.91,0,0,1-.73-.36.92.92,0,0,1,.17-1.29c1.68-1.28,3.37-2.63,5-4a.93.93,0,0,1,1.3.12.91.91,0,0,1-.12,1.29c-1.65,1.39-3.36,2.75-5.06,4.06A1,1,0,0,1,265.9,280.64ZM81.05,276a.93.93,0,0,1-.59-.21c-1.64-1.4-3.28-2.84-4.86-4.31a.92.92,0,1,1,1.25-1.35c1.56,1.45,3.18,2.87,4.8,4.25a.92.92,0,0,1-.6,1.62Zm194.74-3.62a1,1,0,0,1-.69-.3.93.93,0,0,1,.06-1.3c1.57-1.43,3.13-2.92,4.64-4.42a.92.92,0,1,1,1.3,1.3c-1.53,1.52-3.11,3-4.69,4.48A.93.93,0,0,1,275.79,272.38Zm-204.2-5.13a.91.91,0,0,1-.65-.27c-1.52-1.54-3-3.12-4.47-4.71A.92.92,0,0,1,67.83,261c1.43,1.57,2.91,3.14,4.41,4.65a.92.92,0,0,1-.65,1.57Zm213.33-4a.94.94,0,0,1-.63-.24.92.92,0,0,1-.05-1.3c1.44-1.57,2.86-3.19,4.23-4.81a.92.92,0,0,1,1.3-.11.91.91,0,0,1,.11,1.29c-1.38,1.65-2.83,3.29-4.29,4.87A.91.91,0,0,1,284.92,263.28Zm-222-5.57a.91.91,0,0,1-.71-.33c-1.38-1.66-2.74-3.37-4-5.08a.92.92,0,1,1,1.47-1.11c1.28,1.68,2.62,3.37,4,5a.92.92,0,0,1-.7,1.51Zm230.29-4.29a.91.91,0,0,1-.72-1.48c1.3-1.69,2.58-3.43,3.8-5.16a.92.92,0,0,1,1.28-.23.93.93,0,0,1,.23,1.29c-1.24,1.75-2.54,3.51-3.86,5.22A.9.9,0,0,1,293.22,253.42Zm-238.09-6a.93.93,0,0,1-.76-.4c-1.23-1.76-2.43-3.58-3.58-5.4a.92.92,0,0,1,1.56-1c1.13,1.8,2.32,3.59,3.53,5.33a.92.92,0,0,1-.23,1.28A.85.85,0,0,1,55.13,247.46Zm245.52-4.59a1,1,0,0,1-.5-.14.93.93,0,0,1-.27-1.28c1.15-1.79,2.27-3.64,3.33-5.47a.92.92,0,1,1,1.6.92c-1.08,1.86-2.22,3.73-3.38,5.55A.94.94,0,0,1,300.65,242.87Zm-252.4-6.3a.91.91,0,0,1-.8-.46c-1.06-1.86-2.1-3.77-3.09-5.69a.92.92,0,1,1,1.64-.84c1,1.89,2,3.78,3,5.62a.91.91,0,0,1-.34,1.25A.83.83,0,0,1,48.25,236.57Zm258.88-4.86a.84.84,0,0,1-.43-.11.92.92,0,0,1-.39-1.24c1-1.89,1.95-3.82,2.85-5.75a.92.92,0,0,1,1.67.78c-.92,2-1.89,3.91-2.89,5.82A.9.9,0,0,1,307.13,231.71ZM42.36,225.14a.93.93,0,0,1-.84-.54c-.9-1.95-1.77-3.95-2.58-5.93a.92.92,0,0,1,1.71-.7c.8,2,1.65,3.93,2.55,5.86a.92.92,0,0,1-.46,1.22A.85.85,0,0,1,42.36,225.14ZM312.6,220a.91.91,0,0,1-.35-.07.92.92,0,0,1-.5-1.2c.82-2,1.61-4,2.34-6a.92.92,0,0,1,1.73.63c-.74,2-1.54,4.06-2.37,6.06A.91.91,0,0,1,312.6,220ZM37.49,213.22a.91.91,0,0,1-.87-.61c-.73-2-1.42-4.09-2.06-6.15a.92.92,0,0,1,1.76-.55c.63,2,1.32,4.09,2,6.08a.92.92,0,0,1-.55,1.18A.87.87,0,0,1,37.49,213.22ZM317,207.87a.84.84,0,0,1-.27,0,.91.91,0,0,1-.6-1.15c.63-2,1.24-4.1,1.79-6.15a.92.92,0,1,1,1.78.47c-.56,2.09-1.17,4.18-1.82,6.23A.91.91,0,0,1,317,207.87Zm-283.36-7a.92.92,0,0,1-.89-.69c-.54-2.09-1.05-4.21-1.5-6.31a.91.91,0,0,1,.71-1.09.92.92,0,0,1,1.09.7c.45,2.08.94,4.17,1.49,6.23a.93.93,0,0,1-.66,1.13A1,1,0,0,1,33.67,200.91Zm286.7-5.49a.68.68,0,0,1-.2,0,.92.92,0,0,1-.7-1.1c.46-2.07.88-4.19,1.24-6.28a.92.92,0,0,1,1.82.32c-.37,2.12-.8,4.26-1.26,6.36A.93.93,0,0,1,320.37,195.42ZM31,188.31a.93.93,0,0,1-.91-.77c-.36-2.12-.67-4.28-.94-6.41a.92.92,0,1,1,1.83-.23c.26,2.11.57,4.24.93,6.33a.93.93,0,0,1-.75,1.07Zm291.64-5.58h-.12a.92.92,0,0,1-.8-1c.28-2.12.51-4.26.69-6.37a.92.92,0,1,1,1.84.16c-.19,2.14-.42,4.31-.7,6.45A.92.92,0,0,1,322.6,182.73ZM29.36,175.52a.92.92,0,0,1-.92-.85c-.17-2.15-.3-4.32-.38-6.47a.93.93,0,0,1,.89-1,.94.94,0,0,1,.95.89c.08,2.12.21,4.27.38,6.4a.93.93,0,0,1-.84,1Zm294.35-5.63h0a.91.91,0,0,1-.88-1c.09-2.13.13-4.29.13-6.41a.92.92,0,0,1,1.84,0c0,2.15,0,4.33-.14,6.49A.91.91,0,0,1,323.71,169.89ZM28.88,162.64h0a.93.93,0,0,1-.92-.93c0-2.16.08-4.34.18-6.48a.92.92,0,0,1,1-.88.93.93,0,0,1,.88,1c-.1,2.11-.16,4.27-.17,6.4A.93.93,0,0,1,28.88,162.64Zm294.89-4a.91.91,0,0,1-.92-.89c-.07-2.13-.19-4.28-.35-6.4a.92.92,0,1,1,1.84-.14c.16,2.14.28,4.32.35,6.48a.93.93,0,0,1-.89.95ZM29.5,149.77h-.08a.92.92,0,0,1-.84-1c.2-2.16.45-4.33.74-6.44a.92.92,0,1,1,1.82.25c-.28,2.08-.53,4.23-.72,6.36A.93.93,0,0,1,29.5,149.77Zm293.29-4a.92.92,0,0,1-.91-.81c-.26-2.12-.56-4.26-.9-6.35a.92.92,0,1,1,1.82-.3c.34,2.12.65,4.28.91,6.43a.92.92,0,0,1-.81,1ZM31.24,137l-.17,0a.92.92,0,0,1-.74-1.07c.38-2.11.82-4.25,1.3-6.36a.92.92,0,0,1,1.1-.69.91.91,0,0,1,.69,1.1c-.47,2.08-.9,4.19-1.28,6.28A.92.92,0,0,1,31.24,137Zm289.46-4a.93.93,0,0,1-.9-.73c-.43-2.09-.92-4.18-1.45-6.24a.91.91,0,0,1,.66-1.12.93.93,0,0,1,1.13.66c.53,2.08,1,4.21,1.47,6.32a.93.93,0,0,1-.72,1.09Zm-286.61-8.6a.67.67,0,0,1-.24,0,.92.92,0,0,1-.65-1.13c.57-2.07,1.19-4.16,1.85-6.22a.93.93,0,0,1,1.76.57c-.66,2-1.27,4.09-1.83,6.14A.92.92,0,0,1,34.09,124.43Zm283.42-3.89a.93.93,0,0,1-.89-.65c-.61-2-1.28-4.08-2-6.09a.91.91,0,0,1,.56-1.17.92.92,0,0,1,1.18.56c.72,2,1.4,4.11,2,6.16a.92.92,0,0,1-.62,1.15A.82.82,0,0,1,317.51,120.54ZM38,112.14a1,1,0,0,1-.32-.06.91.91,0,0,1-.54-1.18c.75-2,1.56-4.07,2.4-6.05a.92.92,0,1,1,1.69.72c-.82,2-1.62,4-2.36,6A.93.93,0,0,1,38,112.14Zm275.18-3.75a.92.92,0,0,1-.85-.58c-.79-2-1.64-3.94-2.52-5.88a.92.92,0,1,1,1.68-.76c.89,2,1.75,4,2.55,6a.92.92,0,0,1-.51,1.2A1.09,1.09,0,0,1,313.22,108.39ZM43.06,100.24a.93.93,0,0,1-.83-1.32c.93-1.94,1.91-3.89,2.92-5.8a.92.92,0,1,1,1.63.86c-1,1.89-2,3.82-2.88,5.73A.94.94,0,0,1,43.06,100.24ZM307.9,96.68a.93.93,0,0,1-.82-.51c-1-1.88-2-3.78-3-5.63a.92.92,0,1,1,1.6-.91c1.06,1.88,2.09,3.8,3.06,5.71a.93.93,0,0,1-.4,1.24A.9.9,0,0,1,307.9,96.68ZM49.11,88.83a1,1,0,0,1-.47-.12.93.93,0,0,1-.32-1.26c1.09-1.86,2.24-3.72,3.41-5.53A.91.91,0,0,1,53,81.65a.92.92,0,0,1,.28,1.27c-1.16,1.79-2.3,3.63-3.37,5.46A.93.93,0,0,1,49.11,88.83Zm252.46-3.36a.93.93,0,0,1-.78-.43c-1.13-1.81-2.3-3.61-3.5-5.35a.92.92,0,1,1,1.51-1c1.22,1.77,2.41,3.6,3.55,5.42a.92.92,0,0,1-.29,1.27A.87.87,0,0,1,301.57,85.47ZM56.13,78a.91.91,0,0,1-.75-1.45c1.25-1.76,2.56-3.51,3.88-5.21a.92.92,0,0,1,1.29-.16.93.93,0,0,1,.16,1.3c-1.3,1.67-2.59,3.4-3.83,5.14A.93.93,0,0,1,56.13,78Zm238.16-3.14a.91.91,0,0,1-.74-.37c-1.28-1.71-2.62-3.4-4-5A.92.92,0,1,1,291,68.29c1.36,1.65,2.71,3.37,4,5.09a.91.91,0,0,1-.18,1.29A.9.9,0,0,1,294.29,74.86Zm-230.23-7a.91.91,0,0,1-.6-.22.92.92,0,0,1-.1-1.3c1.39-1.63,2.84-3.26,4.31-4.84A.92.92,0,0,1,69,62.72c-1.45,1.56-2.88,3.17-4.26,4.79A.92.92,0,0,1,64.06,67.83Zm222-2.92a1,1,0,0,1-.69-.31C284,63,282.52,61.45,281,59.93a.92.92,0,0,1,0-1.3.93.93,0,0,1,1.31,0c1.5,1.54,3,3.13,4.44,4.73a.93.93,0,0,1-.69,1.54ZM72.84,58.39a.92.92,0,0,1-.65-1.57c1.53-1.51,3.12-3,4.72-4.45a.92.92,0,1,1,1.23,1.36c-1.57,1.43-3.14,2.91-4.65,4.4A.91.91,0,0,1,72.84,58.39ZM277.08,55.7a.88.88,0,0,1-.63-.25c-1.56-1.45-3.17-2.89-4.78-4.27a.92.92,0,1,1,1.2-1.4c1.63,1.4,3.26,2.85,4.83,4.33a.91.91,0,0,1,.05,1.3A.93.93,0,0,1,277.08,55.7ZM82.4,49.76a.93.93,0,0,1-.59-1.64c1.66-1.36,3.37-2.72,5.09-4A.92.92,0,0,1,88,45.57c-1.7,1.29-3.39,2.62-5,4A.88.88,0,0,1,82.4,49.76Zm184.88-2.45a.92.92,0,0,1-.56-.19c-1.68-1.32-3.41-2.61-5.13-3.85a.92.92,0,0,1-.22-1.28.93.93,0,0,1,1.29-.22c1.74,1.25,3.49,2.56,5.19,3.9a.92.92,0,0,1-.57,1.64ZM92.67,42a.91.91,0,0,1-.52-1.67c1.77-1.23,3.59-2.43,5.41-3.57a.92.92,0,1,1,1,1.56c-1.8,1.13-3.59,2.31-5.34,3.52A.94.94,0,0,1,92.67,42ZM256.79,39.8a.86.86,0,0,1-.5-.15c-1.78-1.16-3.62-2.3-5.45-3.38a.92.92,0,0,1,.94-1.59c1.85,1.1,3.71,2.25,5.52,3.43a.93.93,0,0,1,.27,1.28A.92.92,0,0,1,256.79,39.8ZM103.58,35.14a.94.94,0,0,1-.81-.47.92.92,0,0,1,.35-1.25c1.87-1.07,3.79-2.1,5.7-3.08a.92.92,0,1,1,.84,1.64c-1.89,1-3.78,2-5.63,3A.92.92,0,0,1,103.58,35.14Zm142.1-1.9a1,1,0,0,1-.43-.11c-1.88-1-3.81-2-5.72-2.9a.92.92,0,1,1,.79-1.66c1.94.93,3.89,1.91,5.8,2.93a.92.92,0,0,1,.38,1.25A.94.94,0,0,1,245.68,33.24ZM115,29.28a.92.92,0,0,1-.39-1.76c2-.89,4-1.76,5.94-2.57a.94.94,0,0,1,1.21.51.92.92,0,0,1-.51,1.2c-2,.8-4,1.65-5.87,2.53A.85.85,0,0,1,115,29.28Zm119-1.62a.89.89,0,0,1-.36-.07c-2-.83-4-1.63-6-2.38a.92.92,0,0,1-.53-1.19.91.91,0,0,1,1.18-.54c2,.76,4,1.57,6,2.42a.92.92,0,0,1-.36,1.76ZM127,24.44a.92.92,0,0,1-.31-1.79c2-.72,4.1-1.41,6.16-2a.92.92,0,1,1,.54,1.76c-2,.62-4.08,1.3-6.08,2A.89.89,0,0,1,127,24.44Zm95-1.3a1,1,0,0,1-.29-.05c-2-.65-4.08-1.27-6.13-1.84a.92.92,0,1,1,.49-1.78c2.07.58,4.16,1.2,6.21,1.87a.92.92,0,0,1-.28,1.8Zm-82.66-2.48a.93.93,0,0,1-.89-.69.92.92,0,0,1,.66-1.12c2.08-.54,4.2-1,6.31-1.49a.92.92,0,0,1,.39,1.8c-2.09.44-4.18.94-6.24,1.47A.91.91,0,0,1,139.28,20.66Zm70.23-1-.2,0c-2.07-.48-4.18-.91-6.28-1.3a.92.92,0,0,1-.74-1.07.93.93,0,0,1,1.08-.74c2.12.39,4.26.83,6.35,1.31a.92.92,0,0,1-.21,1.82ZM151.89,18a.92.92,0,0,1-.15-1.83c2.12-.35,4.28-.67,6.42-.93a.93.93,0,0,1,1,.81.92.92,0,0,1-.8,1c-2.11.26-4.25.57-6.34.92Zm45-.61h-.13c-2.11-.29-4.25-.54-6.36-.74a.92.92,0,0,1-.83-1,.94.94,0,0,1,1-.83c2.14.21,4.31.46,6.44.76a.92.92,0,0,1-.12,1.83Zm-32.16-.95a.93.93,0,0,1-.92-.85.91.91,0,0,1,.85-1c2.14-.17,4.32-.3,6.47-.37a1,1,0,0,1,1,.89.92.92,0,0,1-.89,1c-2.13.07-4.28.2-6.4.36ZM184,16.15h0c-2.12-.11-4.27-.17-6.4-.19a.92.92,0,0,1-.92-.92,1,1,0,0,1,.93-.92c2.16,0,4.34.08,6.48.19a.92.92,0,0,1,0,1.84Z" style="fill:#fff"/><polygon points="241.97 246.68 241.97 146.21 241.97 95.83 205.88 59.74 105.18 59.74 105.18 97.03 105.18 146.21 105.18 246.68 241.97 246.68" style="fill:#fff"/><polygon points="205.88 95.83 241.97 95.83 205.88 59.74 205.88 95.83" style="fill:#15b0bf"/><polygon points="241.97 95.83 205.88 95.83 241.97 131.93 241.97 95.83" style="fill:#d1ecfb"/><rect x="131.08" y="102.55" width="41.86" height="3.41" style="fill:#fd6120"/><rect x="131.08" y="119.36" width="84.99" height="3.42" style="fill:#a6dae9"/><rect x="131.08" y="130.09" width="84.99" height="3.42" style="fill:#a6dae9"/><rect x="131.08" y="140.83" width="84.99" height="3.41" style="fill:#a6dae9"/><rect x="131.08" y="151.56" width="84.99" height="3.42" style="fill:#a6dae9"/><rect x="131.08" y="162.29" width="84.99" height="3.42" style="fill:#a6dae9"/><rect x="131.08" y="173.03" width="84.99" height="3.42" style="fill:#a6dae9"/><rect x="131.08" y="183.76" width="84.99" height="3.42" style="fill:#a6dae9"/><path d="M182.6,223.55h-.19c-.88-.15-1.28-1.18-1.53-2.06a9.53,9.53,0,0,1,1.09-7.69,12.6,12.6,0,0,0-.95-2.2.88.88,0,0,1,.33-1.21.9.9,0,0,1,1.22.34,12.68,12.68,0,0,1,.69,1.44,8,8,0,0,1,5.64-2.35c2.76,0,5.34,2.5,6.82,4.83l.12.19c2.56-1.7,5.93-3,7.85-2.74,2.4.28,2.75,2.49,2.79,4a6.66,6.66,0,0,0,.94-1.88c.65-1.87,1.38-1.73,5.44-1l.84.16a.88.88,0,0,1,.7,1,.89.89,0,0,1-1,.71l-.84-.16a24.85,24.85,0,0,0-3.3-.53c0,.08-.08.2-.11.31a8.92,8.92,0,0,1-1.51,2.77c-.56.71-1.25,1.6-2.11,1.3s-.79-1.14-.79-2.06c0-1.87-.17-2.85-1.22-3-1.66-.2-4.65,1.14-6.79,2.59.66,1.52.93,3.08.21,4a2.17,2.17,0,0,1-2.57.59c-2.06-.59-1.94-2-1.85-2.48a5.48,5.48,0,0,1,1.93-2.68l-.19-.32c-1.18-1.84-3.27-4-5.32-4a6.22,6.22,0,0,0-5,2.53c1,3.74.61,7.63-.22,8.81A1.32,1.32,0,0,1,182.6,223.55Zm0-6.85a7.76,7.76,0,0,0,0,4.22A14.86,14.86,0,0,0,182.6,216.7Zm12.63.87a3.16,3.16,0,0,0-1,1.38c0,.05,0,.22.61.41.49.14.65.06.65.06S195.61,218.62,195.23,217.57Z" style="fill:#fd6120"/><path d="M138.8,221.7a8.58,8.58,0,1,1,8.58-8.58A8.59,8.59,0,0,1,138.8,221.7Zm0-13.79a5.21,5.21,0,1,0,5.22,5.21A5.22,5.22,0,0,0,138.8,207.91Z" style="fill:#1b5e8f"/><path d="M136.5,221.89a1.68,1.68,0,0,1-1.35-.69L134,219.68l-1.78-.59a1.67,1.67,0,0,1-1.15-1.58l0-1.88L130,214.1a1.68,1.68,0,0,1,0-2l1.09-1.53,0-1.88a1.67,1.67,0,0,1,1.15-1.58l1.78-.59,1.12-1.52a1.69,1.69,0,0,1,1.86-.61l1.79.58,1.79-.58a1.71,1.71,0,0,1,1.87.61l1.11,1.52,1.79.59a1.68,1.68,0,0,1,1.15,1.58v1.88l1.1,1.53a1.68,1.68,0,0,1,0,2l-1.1,1.53v1.88a1.68,1.68,0,0,1-1.15,1.58l-1.79.6-1.11,1.51a1.69,1.69,0,0,1-1.87.61l-1.79-.58-1.79.58A1.81,1.81,0,0,1,136.5,221.89Zm2.3-4.1a1.44,1.44,0,0,1,.51.08l1.15.36.72-1a1.69,1.69,0,0,1,.82-.6l1.15-.38v-1.21a1.61,1.61,0,0,1,.32-1l.7-1-.7-1a1.63,1.63,0,0,1-.32-1V210l-1.15-.38a1.65,1.65,0,0,1-.82-.6l-.72-1-1.15.36a1.62,1.62,0,0,1-1,0l-1.15-.36-.71,1a1.72,1.72,0,0,1-.83.6l-1.15.38v1.21a1.76,1.76,0,0,1-.32,1l-.7,1,.7,1a1.76,1.76,0,0,1,.32,1v1.21l1.15.38a1.72,1.72,0,0,1,.83.6l.71,1,1.15-.36A1.51,1.51,0,0,1,138.8,217.79Z" style="fill:#1b5e8f"/><path d="M144.06,225.94a1.7,1.7,0,0,1-1.35-.68l-2.62-3.5a1.68,1.68,0,0,1,2.69-2l2.63,3.5a1.7,1.7,0,0,1-.34,2.36A1.66,1.66,0,0,1,144.06,225.94Z" style="fill:#1b5e8f"/><path d="M133.55,225.94a1.66,1.66,0,0,1-1-.34,1.69,1.69,0,0,1-.34-2.36l2.63-3.5a1.69,1.69,0,0,1,2.7,2l-2.64,3.5A1.67,1.67,0,0,1,133.55,225.94Z" style="fill:#1b5e8f"/><path d="M199.19,260.66c3.6,3.08,4.22,10.55,1.47,18.38l1,.42,0-.09,7.05-16.4a1.68,1.68,0,0,1-.47-2,1.72,1.72,0,1,1,1.4,2.38l-7.06,16.39,0,.1,1,.42c3.79-7.38,9.64-12.06,14.35-11.57a60.82,60.82,0,0,1,5.58-17.6,53,53,0,0,1-7.93-2.72,53.68,53.68,0,0,1-7.43-3.9,59.8,59.8,0,0,1-3.85,8.39A59.07,59.07,0,0,1,199.19,260.66Z" style="fill:#103754"/><path d="M254,177.16c6.27-14.57-6.87-20.22-13.14-5.65q-16.3,36.53-32.62,73.05l15.12,6.51Q238.71,214.11,254,177.16Z" style="fill:#de3f18"/><rect x="214.09" y="240.43" width="2.5" height="17.03" transform="translate(-98.48 348.25) rotate(-66.7)" style="fill:#fd6120"/><path d="M249.07,196.53l23.27-54.05c1.8-4.19.18-8.92-3.62-10.55l-4.73-2c-3.8-1.64-8.34.44-10.15,4.63l-23.27,54Z" style="fill:#fd6120"/><path d="M230.89,173.48l-3,7.05c2.51.24,5.22-1.14,6.06-3.09S233.39,173.72,230.89,173.48Z" style="fill:#103754"/><path d="M231,178.87a1.68,1.68,0,0,1-.65-.13,1.65,1.65,0,0,1-.86-2.18l16-37.22a6.82,6.82,0,0,1,8.95-3.56l18.5,8a1.66,1.66,0,0,1-1.31,3l-18.49-8a3.5,3.5,0,0,0-4.61,1.83l-16,37.22A1.65,1.65,0,0,1,231,178.87Z" style="fill:#103754"/><path d="M133.39,22.32l-22.47,3.5c-9.6,1.67-16.54,8.34-15.49,14.82q1.54,10,3.1,19.94c1,6.45,5,10.85,19.47,15.14a109.35,109.35,0,0,0,24.42,4.64Z" style="fill:#2c5871"/><path d="M133.34,22.33l22.47-3.5c9.65-1.32,18.29,2.93,19.26,9.42q1.55,10,3.1,19.94c1,6.46-1.45,11.86-13.95,20.34a108.9,108.9,0,0,1-21.85,11.83Z" style="fill:#0e303f"/><path d="M139.34,60.77,60,43.53l-.12-3.23L209.19,17.24l.47,3Z" style="fill:#0e303f"/><path d="M138.87,57.75,59.57,40.51,129.89,0l79.3,17.24Z" style="fill:#2c5871"/><path d="M186,52.73a1.51,1.51,0,0,1-1.5-1.28l-2.7-17.37-49.5-10.76a1.51,1.51,0,1,1,.64-3l50.52,11a1.51,1.51,0,0,1,1.18,1.25L187.47,51a1.51,1.51,0,0,1-1.27,1.73Z" style="fill:#fec00f"/><path d="M182,34.91l-.31,0L134.42,24.61a1.42,1.42,0,0,1,.61-2.77l47.25,10.27a1.42,1.42,0,0,1-.3,2.8Z" style="fill:#f99b1c"/><path d="M143,20.85c.47,3-2.76,6.07-7.22,6.76s-8.46-1.21-8.93-4.24,2.76-6.07,7.22-6.76S142.54,17.82,143,20.85Z" style="fill:#0e303f"/><path d="M141.44,20c.35,2.3-3,4.72-7.55,5.43s-8.48-.59-8.84-2.88,3-4.71,7.55-5.42S141.08,17.66,141.44,20Z" style="fill:#2c5871"/><path d="M189.7,46.36a4.46,4.46,0,1,1-5.1-3.73A4.46,4.46,0,0,1,189.7,46.36Z" style="fill:#fec00f"/><path d="M189,55.34a2.44,2.44,0,0,1-2,2.79h0a2.45,2.45,0,0,1-2.79-2l-1.33-8.6a2.43,2.43,0,0,1,2-2.78h0a2.44,2.44,0,0,1,2.79,2Z" style="fill:#fec00f"/><path d="M197.18,71.65c-2.14-1.38-3.15-5.05-5.79-15-.73-2.36-2.87-4-5.13-3.7h-.1c-2.26.35-3.78,2.62-3.76,5.09.49,10.25.65,14.06-1,16-.27,2.43,3.62,4.58,8.6,3.83h.11C195.12,77.11,198.18,73.88,197.18,71.65Z" style="fill:#fec00f"/><path d="M185.45,59.49a6.16,6.16,0,0,1,1.73-4.32l-.56-3.63a4.92,4.92,0,0,1-2.88-3.69,5,5,0,0,1,2.52-5.14,4.4,4.4,0,0,0-1.66-.08,4.47,4.47,0,0,0-3.73,5.1A4.36,4.36,0,0,0,183.43,51l.51,3.24a5.45,5.45,0,0,0-1.55,3.83c.5,10.25.66,14.06-1,16-.16,1.36,1,2.62,3,3.34C186.18,75.22,186,70.93,185.45,59.49Z" style="fill:#f99b1c"/><circle cx="33.25" cy="202.15" r="33.25" style="fill:#fd6120"/><path d="M33.25,235.4a33.15,33.15,0,0,0,23.8-10c-3.87-4.27-13.11-7.28-23.89-7.28s-19.89,3-23.81,7.18A33.16,33.16,0,0,0,33.25,235.4Z" style="fill:#fec00f"/><path d="M40.62,220a7.21,7.21,0,0,1-7.37,7.6h0a7.21,7.21,0,0,1-7.37-7.6c.16-2.63.32-5.27.49-7.9.29-4.05,3.37-7.09,6.88-7.1h0c3.5,0,6.58,3.05,6.88,7.1C40.29,214.71,40.45,217.35,40.62,220Z" style="fill:#2c5871"/><path d="M40.62,215.15a7.22,7.22,0,0,1-7.37,7.6h0a7.22,7.22,0,0,1-7.37-7.6q.24-4,.49-7.9c.29-4.05,3.37-7.09,6.88-7.1h0c3.5,0,6.58,3,6.88,7.1Q40.37,211.2,40.62,215.15Z" style="fill:#0e303f"/><path d="M40.13,212.08c-.3-4-3.34-7.05-6.81-7.09,0,.15,0,.3,0,.45v20.69a13.57,13.57,0,0,0,.09,1.44A7.2,7.2,0,0,0,40.62,220C40.45,217.35,40.29,214.71,40.13,212.08Z" style="fill:#0e303f"/><path d="M25.46,205c0,1.74-.9,3.16-2,3.16h0c-1.12,0-2-1.42-2-3.16v-3.17c0-1.75.91-3.17,2-3.17h0c1.12,0,2,1.42,2,3.17Z" style="fill:#2c5871"/><path d="M45.08,205c0,1.74-.91,3.16-2,3.16h0c-1.12,0-2-1.42-2-3.16v-3.17c0-1.75.91-3.17,2-3.17h0c1.11,0,2,1.42,2,3.17Z" style="fill:#2c5871"/><path d="M22.38,203.88a1.94,1.94,0,0,0,1.81,2.05h0A1.94,1.94,0,0,0,26,203.88v-5.4a1.94,1.94,0,0,0-1.81-2h0a1.94,1.94,0,0,0-1.81,2Z" style="fill:#0e303f"/><path d="M40.49,203.88a1.94,1.94,0,0,0,1.81,2.05h0a1.94,1.94,0,0,0,1.81-2.05v-5.4a1.94,1.94,0,0,0-1.81-2h0a1.94,1.94,0,0,0-1.81,2Z" style="fill:#0e303f"/><ellipse cx="33.25" cy="194.3" rx="12.5" ry="13.43" style="fill:#0e303f"/><path d="M43.61,209.82A10.14,10.14,0,0,1,33.25,220.5h0a10.15,10.15,0,0,1-10.37-10.68l.69-11.12c.42-5.68,4.75-10,9.68-10h0c4.93,0,9.25,4.29,9.67,10Z" style="fill:#2c5871"/><path d="M42.92,198.7c-.41-5.64-4.69-9.9-9.57-10,0,.21,0,.42,0,.64v29.08a19.25,19.25,0,0,0,.12,2,10.12,10.12,0,0,0,10.17-10.67Z" style="fill:#24495d"/><circle cx="289.01" cy="242.72" r="33.25" style="fill:#fec00f"/><g style="clip-path:url(#clip-path)"><path d="M311,245.24a20.7,20.7,0,0,0-1.64-3.4c-3-5.1-7.49-8-10-6.58s-2,6.79,1,11.89a20.71,20.71,0,0,0,2.21,3.06Z" style="fill:#0e303f"/><path d="M267.39,245.24a21.46,21.46,0,0,1,1.63-3.4c3-5.1,7.5-8,10-6.58s2,6.79-1,11.89a21.46,21.46,0,0,1-2.21,3.06Z" style="fill:#0e303f"/><path d="M278.92,238.36a.93.93,0,0,1-1.32-.11l-2.07-2.45a.94.94,0,0,1,.12-1.32h0a.93.93,0,0,1,1.32.11L279,237a.94.94,0,0,1-.12,1.32Z" style="fill:#fd6120"/><path d="M299.3,238.06a.94.94,0,0,1,.11-1.32l2.46-2.07a1,1,0,0,1,1.32.11h0a.94.94,0,0,1-.12,1.32l-2.45,2.07a.94.94,0,0,1-1.32-.11Z" style="fill:#fd6120"/><path d="M289.19,222.82c-7.66-.39-14.72,5.78-12.61,15,2.08,8.88,7.13,13,12.61,13s10.53-4.13,12.62-13C303.91,228.6,296.85,222.43,289.19,222.82Z" style="fill:#0e303f"/><path d="M281.36,242.05c.35,2,.13,3.28-.39,3.45s-1.27-.83-1.83-2.73-.48-3.79.26-4S281,240.07,281.36,242.05Z" style="fill:#f2efdc"/><path d="M297,242.05c-.34,2-.12,3.28.39,3.45s1.27-.83,1.83-2.73.48-3.79-.26-4S297.36,240.07,297,242.05Z" style="fill:#f2efdc"/><path d="M289.36,280.48a40.69,40.69,0,0,0,17.78-4.06l-1.29-16c-.16-2-2.39-3.54-5.18-3.81a45.36,45.36,0,0,0-22.62,0c-2.79.27-5,1.84-5.18,3.81l-1.29,16A40.66,40.66,0,0,0,289.36,280.48Z" style="fill:#fd6120"/><path d="M297.65,256a44.74,44.74,0,0,0-16.91.07c.07,3.78,3.83,10,8.45,10S297.61,259.73,297.65,256Z" style="fill:#f2efdc"/><path d="M294.14,248.63c0-.29,0-.56,0-.86-3.27-2.46-6.58-2.46-9.86,0,0,.29,0,.56,0,.85,0,9.45,2.21,17.1,4.94,17.1S294.14,258.08,294.14,248.63Z" style="fill:#f2efdc"/><path d="M294.14,247.16c0-.13,0-.26,0-.39a14.89,14.89,0,0,0-9.86,0c0,.13,0,.26,0,.39,0,4.31,2.21,7.81,4.94,7.81S294.14,251.47,294.14,247.16Z" style="fill:#dcdac8"/><path d="M298.89,240.48c-1.6,7.8-5.49,11.43-9.7,11.44s-8.1-3.64-9.7-11.44c-1.62-8.1,3.81-13.53,9.7-13.19C295.08,227,300.51,232.38,298.89,240.48Z" style="fill:#f2efdc"/><path d="M289.62,227.29v24.6c4-.24,7.73-3.87,9.27-11.41C300.47,232.58,295.34,227.23,289.62,227.29Z" style="fill:#dcdac8"/><path d="M290.23,223.28c4.28-.31,8.25,4.22,10.5,12.05-.23.42.53,2,.28,2.43l-3.76-1.23-1.79-5.78s-1.7,5.31-3.47,5.93l.81-3.39s-1.83,2.88-3.47,3.62c-2.88,1.31-8.88,1.15-8.88,1.15-.45-.7-1-3-1.33-3.8C281.77,226.67,286,222.55,290.23,223.28Z" style="fill:#0e303f"/><path d="M294.12,249.43c-1.49-.53-3,.19-4.5.14V260c2.53-.27,4.52-3,4.52-6.33C294.14,253.59,294.13,249.56,294.12,249.43Z" style="fill:#dcdac8"/></g><circle cx="293.25" cy="77.99" r="33.25" style="fill:#8fc4d7"/><g style="clip-path:url(#clip-path-2)"><polygon points="267.65 102.1 273.4 89.85 294.4 86.1 314.15 89.6 321.4 98.85 315.15 105.85 295.82 114.6 270.4 107.35 267.65 102.1" style="fill:#0e303f"/><polygon points="286.82 87.43 291.65 100.6 292.82 115.6 285.15 115.1 282.82 106.26 287.32 102.76 278.99 101.93 282.15 85.76 286.82 87.43" style="fill:#2c5871"/><polygon points="298.65 87.43 293.82 100.6 292.65 115.6 300.32 115.1 302.65 106.26 298.15 102.76 306.49 101.93 303.32 85.76 298.65 87.43" style="fill:#2c5871"/><path d="M303.14,83.27c.5,4.89-4.27,9.33-10.66,9.33h0c-6.39,0-11.15-4.44-10.65-9.33l1.08-12.73A9.63,9.63,0,0,1,292.48,62h0a9.62,9.62,0,0,1,9.57,8.53Q302.59,76.9,303.14,83.27Z" style="fill:#f2efdc"/><path d="M303.14,83.27q-.54-6.36-1.09-12.73A9.62,9.62,0,0,0,292.48,62V92.6C298.87,92.6,303.64,88.16,303.14,83.27Z" style="fill:#dcdac8"/><path d="M292.55,81.53a2,2,0,0,0-2,0c-1,.59-1.57,2.06-3.91,1.52a2.89,2.89,0,0,0,2.64,1.71,5.33,5.33,0,0,0,3.23-1.17A2.17,2.17,0,0,0,292.55,81.53Z" style="fill:#0e303f"/><path d="M292.47,81.53a2,2,0,0,1,2,0c1,.59,1.57,2.06,3.92,1.52a2.91,2.91,0,0,1-2.65,1.71,5.33,5.33,0,0,1-3.23-1.17A2.17,2.17,0,0,1,292.47,81.53Z" style="fill:#0e303f"/><path d="M296,91.08c0,1.39-1.56,2.52-3.49,2.52S289,92.47,289,91.08s1.56-2.52,3.48-2.52S296,89.69,296,91.08Z" style="fill:#f2efdc"/><path d="M296,90.64c0,1.15-1.22,2.08-2.72,2.08s-2.72-.93-2.72-2.08,1.22-2.08,2.72-2.08S296,89.49,296,90.64Z" style="fill:#dcdac8"/><path d="M282.91,70.54c-.12,1.44-.25,2.88-.37,4.33l20.62,8.9c0-.17,0-.33,0-.5q-.54-6.36-1.09-12.73a8.57,8.57,0,0,0-.33-1.69L288.21,63A9.49,9.49,0,0,0,282.91,70.54Z" style="fill:#dcdac8"/><path d="M292.48,79.16l10.68,4.61c0-.17,0-.33,0-.5q-.54-6.36-1.09-12.73a8.57,8.57,0,0,0-.33-1.69l-9.24-4Z" style="fill:#c0beae"/><path d="M300.28,71.49c0,.85-1.29,1.12-2.14,1.12L278.6,73a1.52,1.52,0,0,1-1.53-1.53h0c0-.84,1-1.52,3.66-1.52h18a1.52,1.52,0,0,1,1.52,1.52Z" style="fill:#0e303f"/><path d="M282.26,71.09s.63-10,3.77-11.61c2.44-1.22,2.77.17,4,.61a13.75,13.75,0,0,0,4,.41c.92,0,.71,11.61.2,11.71S282.26,71.09,282.26,71.09Z" style="fill:#0e303f"/><path d="M284.7,71.49c0,.85,1.3,1.12,2.14,1.12l19.55.41a1.52,1.52,0,0,0,1.53-1.53h0c0-.84-1-1.52-3.67-1.52h-18a1.53,1.53,0,0,0-1.53,1.52Z" style="fill:#0e303f"/><path d="M302.73,71.09s-.63-10-3.77-11.61c-2.44-1.22-2.77.17-4,.61a13.79,13.79,0,0,1-4,.41c-.92,0-.71,11.61-.21,11.71S302.73,71.09,302.73,71.09Z" style="fill:#0e303f"/><path d="M300.28,71.12c0,.46-1.25.61-2.07.61L279.3,72c-.82,0-1.48-.38-1.48-.84h0c0-.46,1-.84,3.55-.84H298.8c.82,0,1.48.38,1.48.84Z" style="fill:#2c5871"/><path d="M282.26,71.09s.63-10,3.77-11.61c2.44-1.22,2.77.17,4,.61a7.45,7.45,0,0,0,2.78.57l.06,10.5C292.59,71,282.26,71.09,282.26,71.09Z" style="fill:#2c5871"/></g><circle cx="151.23" cy="296.16" r="33.25" style="fill:#d1ecfb"/><g style="clip-path:url(#clip-path-3)"><path d="M150.91,329.93a97.78,97.78,0,0,0,28.47-4.1l-2.07-16.09c-.25-2-3.85-3.33-8.3-3.82a164.62,164.62,0,0,0-36.19,0c-4.44.49-8,1.84-8.3,3.82l-2.06,16.09A97.69,97.69,0,0,0,150.91,329.93Z" style="fill:#fd6120"/><path d="M179.38,325.83l-2.07-16.09c-.25-2-3.85-3.33-8.3-3.82a164.11,164.11,0,0,0-18.76-1l-5.66,8.14L167,328.66A91.42,91.42,0,0,0,179.38,325.83Z" style="fill:#de3f18"/><path d="M158.76,308.75c-.27,3.66-4,6.23-8.35,6.23h0c-4.35,0-8.09-2.59-8.35-6.25-.11-1.86-.22-3.73-.34-5.59-.26-3.64,3.63-7,8.7-7h0c5.07,0,9,3.41,8.69,7.05C159,305,158.88,306.89,158.76,308.75Z" style="fill:#dcdac8"/><path d="M153.27,296.5c-2.13,1-3.62,4.59-3.58,8.83l0,7.78a18.44,18.44,0,0,0,.1,1.85l.59,0c4.35,0,8.08-2.57,8.35-6.23.06-1,.12-2,.19-3a15,15,0,0,0-.68-5.74A8.35,8.35,0,0,0,153.27,296.5Z" style="fill:#c0beae"/><path d="M150.47,277h-.06c-9.32-.09-11.57,6-11,16.64a29.75,29.75,0,0,0,2.12,9.61c.3.78,4.92,6.27,6.33,6.27a26.41,26.41,0,0,0,2.64.17,25.32,25.32,0,0,0,2.59-.17c1.41,0,6-5.49,6.33-6.27a29.26,29.26,0,0,0,2.11-9.61C162,283.22,158.93,276.74,150.47,277Z" style="fill:#0e303f"/><path d="M142.08,296.49c0,1.12-.54,2.1-1.31,2.2h0c-.76.11-1.43-.69-1.49-1.81-.09-1.79-.19-3.59-.28-5.38a2,2,0,0,1,1.34-2.23h0c.81-.12,1.49.72,1.53,1.83Z" style="fill:#dcdac8"/><path d="M161.34,296.88c-.06,1.12-.73,1.92-1.5,1.81h0c-.76-.1-1.35-1.08-1.3-2.2.06-1.79.13-3.59.2-5.39,0-1.12.73-2,1.53-1.83h0a2,2,0,0,1,1.35,2.23C161.53,293.29,161.43,295.09,161.34,296.88Z" style="fill:#dcdac8"/><path d="M159.24,291.56a52.94,52.94,0,0,1,.45-9.3s-4.56-2.39-8.13-2.23a3.94,3.94,0,0,0-1.24.29,3.82,3.82,0,0,0-1.23-.29c-3.57-.16-8.15,2.22-8.13,2.23a52.4,52.4,0,0,1,.44,9.3c-.23,4.84-.88,9.07.72,10.42s4.36,4.45,8,4.61h.41c3.64-.16,6.37-3.26,8-4.61S159.47,296.41,159.24,291.56Z" style="fill:#f2efdc"/><path d="M160.6,282.26s-5-2.39-8.92-2.23a4.42,4.42,0,0,0-1,.18q0,13.19-.07,26.37c4-.18,6.95-3.25,8.72-4.6s1-5.57.79-10.42A49.22,49.22,0,0,1,160.6,282.26Z" style="fill:#dcdac8"/><path d="M140,291.3S139,281.07,138.31,280s8.9-3.16,11.74-3.17a24.45,24.45,0,0,1,7,1.07c1.56.31-6.25,6.5-6.15,6.57l.55-1.66-1.79,1.38c-2.43-.63-4.89-1.2-7.38-1.69,0,1.34,0,2.68,0,4-.49.68-1,1.36-1.43,2-.12.89-.22,1.77-.33,2.66Z" style="fill:#0e303f"/><path d="M160.72,291.3s1.21-10.23,1.64-11.27c.48-1.21-8.9-3.16-11.74-3.18a23.25,23.25,0,0,0-6.84,1.06c-1,.14,8.33-.29,11,1.36.92.54-2.72,4.94-2.68,5,2.06-.62,4.15-1.18,6.27-1.7,0,1.34,0,2.68-.05,4l1.43,2c.11.89.22,1.78.32,2.66Z" style="fill:#0e303f"/><path d="M144,296h0a4.21,4.21,0,0,1-3-1.28,3.49,3.49,0,0,1-1-2.54l0-.84a3.51,3.51,0,0,1,.09-.65l.05-.27.26-.08a13.32,13.32,0,0,1,7.3-.27h0c.39.1,1.57.56,1.6,1.33l0,.81a3.32,3.32,0,0,1-.91,2.4,4.32,4.32,0,0,1-3,1.36ZM141,291.09a2.13,2.13,0,0,0,0,.25l0,.84a2.53,2.53,0,0,0,.72,1.87,3.2,3.2,0,0,0,2.29,1h1.49a3.38,3.38,0,0,0,2.35-1.07,2.38,2.38,0,0,0,.66-1.73l0-.82a2.51,2.51,0,0,0-.87-.46h0A12.47,12.47,0,0,0,141,291.09Z" style="fill:#0e303f"/><path d="M156,296h0a4.17,4.17,0,0,1-3-1.28,3.46,3.46,0,0,1-1-2.54l0-.83a5,5,0,0,1,.09-.66l.05-.27.26-.08a13.32,13.32,0,0,1,7.3-.27h0c.4.1,1.58.56,1.6,1.33l0,.81a3.36,3.36,0,0,1-.9,2.4,4.36,4.36,0,0,1-3,1.36Zm-2.95-4.87,0,.24,0,.85a2.53,2.53,0,0,0,.72,1.87,3.2,3.2,0,0,0,2.3,1h1.48a3.41,3.41,0,0,0,2.35-1.06,2.42,2.42,0,0,0,.67-1.74l0-.82a2.67,2.67,0,0,0-.88-.47A12.53,12.53,0,0,0,153.09,291.09Z" style="fill:#0e303f"/><rect x="148.64" y="291.14" width="4.03" height="1.76" style="fill:#0e303f"/><path d="M155.38,300.54c-.47-.7-2-1.31-3.95-1.31,0,0-.7.44-.72.43s-.67-.43-.69-.43c-2,0-3.53.61-4,1.31-2.89,5.55-4,.62-5.28-1,2.16,5,4.19,8.73,9.77,9.53a1.21,1.21,0,0,0,.19,0l1.81-.2c3.46,0,6-4.29,8.15-9.32C159.37,301.16,158.27,306.09,155.38,300.54Z" style="fill:#0e303f"/><path d="M148.37,301.61a.92.92,0,0,0,0,.29,1.44,1.44,0,0,0,1.52,1.34h1.7a1.44,1.44,0,0,0,1.52-1.34.92.92,0,0,0,0-.29Z" style="fill:#f2efdc"/></g><circle cx="74.05" cy="264.78" r="20" style="fill:#fec00f"/><circle cx="74.05" cy="264.78" r="20" style="fill:none"/><g style="clip-path:url(#clip-path-4)"><path d="M68.92,263.44a2.58,2.58,0,1,1-3.22-2.39A2.87,2.87,0,0,1,68.92,263.44Z" style="fill:#2c5871"/><path d="M69.22,260.26a3.11,3.11,0,1,1-3.11-3.11A3.11,3.11,0,0,1,69.22,260.26Z" style="fill:#2c5871"/><path d="M81.56,268.11A2.59,2.59,0,1,1,79,265.52,2.59,2.59,0,0,1,81.56,268.11Z" style="fill:#2c5871"/><path d="M72.2,258.17a4,4,0,1,1-4-4.05A4.05,4.05,0,0,1,72.2,258.17Z" style="fill:#2c5871"/><circle cx="69.75" cy="258.17" r="4.05" style="fill:#0e303f"/><path d="M73.48,261.22a4,4,0,1,1-4-4.05A4.05,4.05,0,0,1,73.48,261.22Z" style="fill:#0e303f"/><path d="M71.65,268.22a2.59,2.59,0,1,1-2.59-2.59A2.59,2.59,0,0,1,71.65,268.22Z" style="fill:#2c5871"/><path d="M83.61,257.66c.48,1.89-.38,3.74-1.91,4.13S78.52,261,78,259.08s.37-3.74,1.91-4.13S83.13,255.77,83.61,257.66Z" style="fill:#2c5871"/><path d="M83.75,263.31c-.78,1.79-2.59,2.73-4,2.1s-2-2.6-1.23-4.39,2.58-2.73,4-2.1S84.52,261.52,83.75,263.31Z" style="fill:#2c5871"/><path d="M74.1,253.87c-4.71-.26-9.06,3.86-7.76,10,1.28,5.92,4.39,8.68,7.76,8.68s6.48-2.76,7.76-8.68C83.16,257.73,78.81,253.61,74.1,253.87Z" style="fill:#2c5871"/><path d="M74.1,253.87a7.41,7.41,0,0,0-7.76,9.36c1.28,5.55,4.39,8.13,7.76,8.13s6.48-2.58,7.76-8.13A7.41,7.41,0,0,0,74.1,253.87Z" style="fill:#0e303f"/><path d="M74.1,285.42a43.86,43.86,0,0,0,14.12-2.28l-1-9c-.12-1.1-1.9-2-4.11-2.13a50.64,50.64,0,0,0-18,0c-2.21.15-4,1-4.11,2.13l-1,9A43.86,43.86,0,0,0,74.1,285.42Z" style="fill:#fd6120"/><path d="M80.74,271.77a.19.19,0,0,0,0-.08,50.31,50.31,0,0,0-13.26,0s0,.05,0,.08c0,3,3,7.92,6.64,7.92S80.74,274.72,80.74,271.77Z" style="fill:#f2efdc"/><path d="M77.39,269.22v-.46a5.83,5.83,0,0,0-6.58,0v.46c0,5.19,1.47,7.55,3.29,7.55S77.39,274.41,77.39,269.22Z" style="fill:#dcdac8"/><path d="M71.23,268.52a6.34,6.34,0,0,0-.42,1c0,.51,0,1,.06,1.46,2.43,2.19,4.42,3.18,5.86,3.27a15.79,15.79,0,0,0,.66-5v-.46A5.77,5.77,0,0,0,71.23,268.52Z" style="fill:#c0beae"/><path d="M79.59,264.73c-.91,4.81-3.11,7-5.49,7s-4.58-2.23-5.49-7c-.91-5,2.16-8.32,5.49-8.11C77.43,256.41,80.5,259.75,79.59,264.73Z" style="fill:#f2efdc"/><path d="M74.3,256.62v15.14c2.31-.13,4.41-2.36,5.29-7C80.49,259.85,77.55,256.56,74.3,256.62Z" style="fill:#dcdac8"/><path d="M76.77,255a3.89,3.89,0,1,1-3.89-3.88A3.89,3.89,0,0,1,76.77,255Z" style="fill:#2c5871"/><path d="M75.48,258.43a3.88,3.88,0,1,1-3.88-3.89A3.88,3.88,0,0,1,75.48,258.43Z" style="fill:#0e303f"/><path d="M80.67,255.78A3.74,3.74,0,1,1,76.93,252,3.74,3.74,0,0,1,80.67,255.78Z" style="fill:#2c5871"/><path d="M81.39,256.38a2.59,2.59,0,1,1-2.59-2.59A2.59,2.59,0,0,1,81.39,256.38Z" style="fill:#2c5871"/><path d="M82,259.19a2.59,2.59,0,1,1-2.59-2.59A2.59,2.59,0,0,1,82,259.19Z" style="fill:#2c5871"/><path d="M83.21,265.74A1.81,1.81,0,0,0,81.64,264a4.13,4.13,0,0,0-.52.58,4,4,0,0,0-.84,2.64,1.81,1.81,0,0,0,2.93-1.43Z" style="fill:#2c5871"/><path d="M82.78,261.22c.45,1.12.25,2.25-.46,2.53s-1.63-.39-2.07-1.5-.25-2.25.45-2.53S82.33,260.11,82.78,261.22Z" style="fill:#2c5871"/><path d="M80.6,258.46c-.37-1.89-1.6-3.1-2.76-2.71a2.29,2.29,0,0,0-1.3,1.53,14.27,14.27,0,0,1,2,5.38,1.33,1.33,0,0,0,.56-.07C80.31,262.2,81,260.35,80.6,258.46Z" style="fill:#0e303f"/><path d="M73.63,255.09c2.71-.19,5.22,2.59,6.65,7.41-.15.26.33,1.26.17,1.5l-2.38-.76-1.13-3.55s-1.07,3.27-2.2,3.64l.52-2.08a7.48,7.48,0,0,1-2.19,2.23c-1.83.8-5.62.7-5.62.7C67.16,263.75,66.76,255.08,73.63,255.09Z" style="fill:#2c5871"/><path d="M82.8,280.38a15.64,15.64,0,0,1,.21-2.51,14.34,14.34,0,0,0-1.09,5.63c0,.42,0,.83,0,1.23.46-.08.93-.16,1.38-.26A15.2,15.2,0,0,1,82.8,280.38Z" style="fill:#de3f18"/><path d="M67,284.86a17.36,17.36,0,0,0-1.81-6.94,22.5,22.5,0,0,1,.26,3.46,22.94,22.94,0,0,1-.22,3.16C65.76,284.66,66.35,284.76,67,284.86Z" style="fill:#de3f18"/></g><circle cx="243.4" cy="31.9" r="20" style="fill:#fec00f"/><g style="clip-path:url(#clip-path-5)"><path d="M247,54.14h0a45.44,45.44,0,0,0,12.05-2.32L258,42.32c-.14-1.17-2-2.1-4.37-2.26-1.44-.26-2.89-.45-4.34-.59,0-.38,0-.76,0-1.13a41.12,41.12,0,0,0-10.28,0c0,.37,0,.75,0,1.13-1.45.14-2.9.33-4.35.59-2.35.16-4.23,1.09-4.36,2.26l-1.09,9.5a45.44,45.44,0,0,0,12.06,2.32h0c.42,0,.83,0,1.25.06s1.09,0,1.64,0,1.09,0,1.64,0,.83,0,1.24-.06Z" style="fill:#1695a4"/><path d="M253.6,40.06c-1.44-.26-2.89-.45-4.34-.59,0-.38,0-.76,0-1.13a39.84,39.84,0,0,0-5.11-.32l-3.24,5.23,15.25,9.45c1-.26,2-.55,2.93-.88L258,42.32C257.83,41.15,256,40.22,253.6,40.06Z" style="fill:#138491"/><path d="M239.49,42.09l-.36-.33V38.6h.42Z" style="fill:#15b0bf"/><path d="M240.26,42.67a3.89,3.89,0,0,1-.39-.28c0-1.26.07-2.53.11-3.79h.42C240.35,40,240.3,41.31,240.26,42.67Z" style="fill:#15b0bf"/><path d="M241.08,43.12l-.42-.21c.05-1.44.11-2.88.16-4.31h.42C241.18,40.11,241.13,41.61,241.08,43.12Z" style="fill:#15b0bf"/><path d="M241.94,43.45a3.12,3.12,0,0,1-.43-.15l.15-4.7h.42C242,40.22,242,41.83,241.94,43.45Z" style="fill:#15b0bf"/><path d="M242.83,43.66a3.58,3.58,0,0,1-.45-.09l.12-5h.42Z" style="fill:#15b0bf"/><path d="M243.74,43.76l-.45,0c0-1.71,0-3.42.05-5.13h.42C243.76,40.32,243.75,42,243.74,43.76Z" style="fill:#15b0bf"/><path d="M244.66,43.73l-.46,0c0-1.72,0-3.44,0-5.16h.42Z" style="fill:#15b0bf"/><path d="M245.56,43.57l-.45.09L245,38.6h.42Z" style="fill:#15b0bf"/><path d="M246.44,43.3a3.81,3.81,0,0,1-.44.15c0-1.62-.09-3.23-.13-4.85h.42Z" style="fill:#15b0bf"/><path d="M247.28,42.91l-.41.21c-.06-1.51-.11-3-.17-4.52h.43Z" style="fill:#15b0bf"/><path d="M248.08,42.39l-.39.28c-.05-1.36-.1-2.72-.14-4.07H248C248,39.86,248,41.13,248.08,42.39Z" style="fill:#15b0bf"/><path d="M248.81,41.76l-.36.33-.06-3.49h.42Z" style="fill:#15b0bf"/><path d="M238.15,31.87c.42,1.53.4,2.59.07,2.76s-.94-.55-1.5-2-.69-2.95-.21-3.18S237.73,30.33,238.15,31.87Z" style="fill:#dcdac8"/><path d="M249.77,32.11c-.32,1.55-.24,2.6.1,2.76s.9-.61,1.38-2.1.5-3,0-3.19S250.1,30.55,249.77,32.11Z" style="fill:#dcdac8"/><path d="M244.08,19.51c-4.18-.29-8,4.25-6.88,11,1.13,6.52,3.89,9.56,6.88,9.56s5.74-3,6.88-9.56C252.11,23.76,248.26,19.22,244.08,19.51Z" style="fill:#f2efdc"/><path d="M244.08,19.51c-3.54-.24-6.84,3-7.06,8.1l12.56,7.75A21.42,21.42,0,0,0,251,30.54C252.11,23.76,248.26,19.22,244.08,19.51Z" style="fill:#dcdac8"/><path d="M244.08,19.51c-.11,0-.21,0-.31,0V40.08l.31,0c3,0,5.74-3,6.88-9.56C252.11,23.76,248.26,19.22,244.08,19.51Z" style="fill:#dcdac8"/><path d="M244.08,19.51c-.11,0-.21,0-.31,0V31.78l5.81,3.58A21.42,21.42,0,0,0,251,30.54C252.11,23.76,248.26,19.22,244.08,19.51Z" style="fill:#c0beae"/><path d="M244.08,26c3.11-.14,6,1.35,7.1,3.86.78-6.37-3-10.58-7.1-10.3-4.1-.28-7.88,3.93-7.1,10.3C238,27.3,241,25.81,244.08,26Z" style="fill:#1695a4"/><path d="M244.93,19.89a.94.94,0,1,1-.93-.82A.88.88,0,0,1,244.93,19.89Z" style="fill:#15b0bf"/><path d="M244.08,25.38a5.13,5.13,0,0,1,3.71,1.3c-.36-4.37-2-7.06-3.71-6.83-1.73-.22-3.35,2.46-3.71,6.83A5.1,5.1,0,0,1,244.08,25.38Z" style="fill:#1695a4"/><path d="M244.08,25.45a5.35,5.35,0,0,1,3.71,1.23c-.36-4.13-2-6.67-3.71-6.45-1.73-.21-3.35,2.32-3.71,6.45A5.31,5.31,0,0,1,244.08,25.45Z" style="fill:#15b0bf"/><path d="M244.08,25.64a5.75,5.75,0,0,1,5,2.59,6.92,6.92,0,0,0,.6-.61,6.25,6.25,0,0,0-11.26,0,5.67,5.67,0,0,0,.59.61A5.76,5.76,0,0,1,244.08,25.64Z" style="fill:#1695a4"/><path d="M244.08,26.3a6.39,6.39,0,0,1,5.32,2.4,6.64,6.64,0,0,0,.63-.56,7,7,0,0,0-11.9,0,5.6,5.6,0,0,0,.63.56A6.38,6.38,0,0,1,244.08,26.3Z" style="fill:#15b0bf"/></g><circle cx="46.03" cy="111.59" r="33.25" style="fill:#15b0bf"/><g style="clip-path:url(#clip-path-6)"><path d="M46,145.36a75.61,75.61,0,0,0,24.35-3.93L68.57,126c-.21-1.9-3.27-3.41-7.09-3.67a87.1,87.1,0,0,0-31,0c-3.82.26-6.88,1.77-7.1,3.67l-1.76,15.45A75.55,75.55,0,0,0,46,145.36Z" style="fill:#292d33"/><path d="M52.53,124.48a6.25,6.25,0,0,1-6.25,6.25h0A6.25,6.25,0,0,1,40,124.48v-6.42a6.25,6.25,0,0,1,6.25-6.26h0a6.25,6.25,0,0,1,6.25,6.26Z" style="fill:#dcdac8"/><path d="M50.55,128.38l.33.32a6.17,6.17,0,0,0,1.65-4.22v-6.42A6.25,6.25,0,0,0,40,117.87Z" style="fill:#c0beae"/><path d="M37.12,108.75c.44,2.55.16,4.25-.49,4.47s-1.6-1.07-2.31-3.54-.6-4.9.33-5.18S36.7,106.19,37.12,108.75Z" style="fill:#dcdac8"/><path d="M54.67,109.13c-.2,2.58.23,4.24.9,4.4s1.5-1.21,2-3.73.16-4.94-.79-5.13S54.87,106.53,54.67,109.13Z" style="fill:#dcdac8"/><path d="M46,92.14C39.65,91.67,33.8,99,35.54,110a35.68,35.68,0,0,0,2.27,8.25c.84,1.24,1.89,1.4,3.49-2.39.48-.87,2.55-1.64,4.51-1.64h.38c2,0,4,.77,4.5,1.64,1.6,3.78,2.65,3.63,3.49,2.4A35.78,35.78,0,0,0,56.45,110C58.2,99,52.34,91.67,46,92.14Z" style="fill:#f2efdc"/><path d="M46.24,92.14v22c1.94,0,4,.77,4.45,1.64,1.6,3.78,2.65,3.63,3.49,2.4A35.78,35.78,0,0,0,56.45,110C58.17,99.16,52.49,91.87,46.24,92.14Z" style="fill:#dcdac8"/><path d="M56.53,109.54a13.21,13.21,0,0,1-.24,1.47,19.07,19.07,0,0,1-2.24,5.68c-.82.85-1.86,1-3.43-1.65-.47-.6-2.5-1.13-4.43-1.13h-.38c-1.93,0-4,.53-4.44,1.13-1.57,2.61-2.6,2.5-3.43,1.65A19.18,19.18,0,0,1,35.71,111a11.24,11.24,0,0,1-.24-1.47,7.93,7.93,0,0,0-.15,4.85c1.77,6.37,1.66,9.47,10.68,9.33,9.59-.15,8.91-3,10.67-9.33A7.87,7.87,0,0,0,56.53,109.54Z" style="fill:#2c5871"/><path d="M56.29,111a19.07,19.07,0,0,1-2.24,5.68c-.82.85-1.86,1-3.43-1.65-.43-.56-2.21-1.05-4-1.12v9.79c9-.27,8.34-3.09,10.06-9.32a7.87,7.87,0,0,0-.14-4.85A13.21,13.21,0,0,1,56.29,111Z" style="fill:#0e303f"/><path d="M48.31,116.29a.06.06,0,0,1,0,0H43.69s-.86,2-.66,2.44.61.51,1.14-.35a6.12,6.12,0,0,1,.55-.75,2.12,2.12,0,0,0,.44.06h1.67a1.56,1.56,0,0,0,.44-.06,6.12,6.12,0,0,1,.55.75c.53.86.93.82,1.13.35S48.41,116.53,48.31,116.29Z" style="fill:#f2efdc"/></g><circle cx="321.17" cy="161.64" r="20" style="fill:#fd6120"/><g style="clip-path:url(#clip-path-7)"><path d="M326.27,168.35c0,2-2.31,3.65-5.15,3.65h0c-2.85,0-5.16-1.63-5.16-3.65v-3.08c0-2,2.31-3.65,5.16-3.65h0c2.84,0,5.15,1.64,5.15,3.65Z" style="fill:#dcdac8"/><path d="M326.27,171c0,2.8-1.26,5.07-2.8,5.07h0c-1.54,0-2.79-2.27-2.79-5.07v-4.28c0-2.8,1.25-5.07,2.79-5.07h0c1.54,0,2.8,2.27,2.8,5.07Z" style="fill:#c0beae"/><polygon points="315.76 167.54 307.6 169.95 304.87 178.37 322 183.56 321.82 174.46 321.03 171.82 318.36 169.52 315.76 167.54" style="fill:#d1ecfb"/><polygon points="321.91 174.46 320.68 171.9 318.26 169.82 314.36 172.95 315.05 167.81 315.85 166.06 321.03 171.6 321.91 174.46" style="fill:#a6dae9"/><polygon points="326.54 167.54 334.71 169.95 337.43 178.37 320.31 183.56 320.48 174.46 321.27 171.82 324.96 169.72 326.54 167.54" style="fill:#d1ecfb"/><path d="M316.43,161.06a.79.79,0,0,1-.79.79h0a.79.79,0,0,1-.79-.79V159a.79.79,0,0,1,.79-.79h0a.79.79,0,0,1,.79.79Z" style="fill:#dcdac8"/><path d="M327.25,161.06a.79.79,0,0,1-.79.79h0a.78.78,0,0,1-.78-.79V159a.78.78,0,0,1,.78-.79h0a.79.79,0,0,1,.79.79Z" style="fill:#dcdac8"/><path d="M326.39,158.39a23.8,23.8,0,0,1-.1-4.87,11.52,11.52,0,0,0-4.55-1.19,1.26,1.26,0,0,1-1.36,0,11.52,11.52,0,0,0-4.55,1.19,23.8,23.8,0,0,1-.1,4.87c-.33,3.14-1,5.85,0,6.82s2.7,3.14,5.19,3.25h.28c2.49-.11,4.22-2.28,5.19-3.25S326.72,161.53,326.39,158.39Z" style="fill:#f2efdc"/><path d="M326.29,153.52a11.52,11.52,0,0,0-4.55-1.19,1.76,1.76,0,0,0-.5.13v16c2.47-.13,4.18-2.27,5.15-3.24s.33-3.68,0-6.82A23.8,23.8,0,0,1,326.29,153.52Z" style="fill:#dcdac8"/><polygon points="326.37 158.78 326.7 155 325.93 150.89 321.76 150.22 321.98 152.56 324.72 154.78 326.37 158.78" style="fill:#0e303f"/><polygon points="315.7 158.12 314.07 152.28 321.97 148.38 321.97 152.5 320.13 156.61 320.13 153.9 318.44 157.99 319.38 154.12 317.37 158.32 316.24 155.63 315.7 158.12" style="fill:#2c5871"/><path d="M321.75,166.25l-.86.05-.14,1.1a4.3,4.3,0,0,1-2.78-2.68l-.48.38c0,1,.05,2.92,1.1,3.26,2.63.83,3.26.38,3.26.38l.24-.58Z" style="fill:#2c5871"/><path d="M320.84,166.25l.86.05.15,1.1a4.3,4.3,0,0,0,2.77-2.68l.48.38c0,1-.05,2.92-1.1,3.26-2.63.83-3,.38-3,.38l-.52-.58Z" style="fill:#2c5871"/><rect x="317.68" y="163.35" width="3.16" height="0.55" transform="translate(-26.82 69.12) rotate(-11.86)" style="fill:#2c5871"/><rect x="322.88" y="162.05" width="0.55" height="3.16" transform="translate(96.58 446.24) rotate(-78.13)" style="fill:#2c5871"/><path d="M322,182.73v-11.3l-.7.4-.79,2.63-.18,9.09,1.63-.49A1.86,1.86,0,0,0,322,182.73Z" style="fill:#fff"/><polygon points="320.41 174.63 321.62 171.9 324.02 170.42 326.33 172.28 326.88 167.66 326.58 166.16 321.27 171.6 320.41 174.63" style="fill:#a6dae9"/></g></g></g></svg>