<svg xmlns="http://www.w3.org/2000/svg" xmlns:xlink="http://www.w3.org/1999/xlink" viewBox="0 0 1010.8 538.43"><defs><style>.a{isolation:isolate;}.b{mix-blend-mode:multiply;}.c{fill:#bcbcbc;}.d{fill:#e2d1b3;}.e{fill:#ff97a6;}.f{fill:url(#a);}.g{fill:#30193b;}.h{fill:#3b2b5b;}.i{fill:#aacbe8;}.j{fill:#90b8d6;}.k{fill:#623577;}.l{fill:#c95d77;}.m{fill:#80540a;}.n{fill:#ad7121;}.o{fill:#d3aeff;}.p{fill:url(#b);}.q{fill:#b2d4ed;}</style><linearGradient id="a" x1="93.38" y1="96.01" x2="371.05" y2="96.01" gradientUnits="userSpaceOnUse"><stop offset="0" stop-color="#644ccf"/><stop offset="1" stop-color="#e87ba7"/></linearGradient><linearGradient id="b" x1="514.1" y1="300.18" x2="514.1" y2="542.03" xlink:href="#a"/></defs><g class="a"><g class="b"><path class="c" d="M441,521.45c0,9.38-79.07,17-176.62,17s-176.63-7.6-176.63-17,79.08-17,176.63-17S441,512.07,441,521.45Z"/></g><g class="b"><ellipse class="c" cx="688.33" cy="482.21" rx="259.49" ry="16.98"/></g><path class="d" d="M1010.14,253c-.38,0-.77,0-1.15-.05a1,1,0,0,0,.25-.66,16.89,16.89,0,0,0-17.14-16.86c-.5-6.83-1.94-14.94-8.33-18.66-4.13-2.4-9.72-2.47-13.24.65-.72-9-2-18.35-7.84-25.58a20.24,20.24,0,0,0-22.37-6.74c-18.39,5.89-21.44,26.42-24.84,43.44a24.81,24.81,0,0,0-16.06-18.08c-9.53-3.14-20.25.48-26.53,8.06-1.15-5.42-4.76-10.67-10.61-11.36a10.57,10.57,0,0,0-9.8,4.42c-1-12.06.35-24.62-3.84-36.1-3.18-8.72-9.67-17.36-19.08-19.71-10.22-2.55-19.76,3.62-26.14,11.13-7.27,8.6-12,19.54-14.15,30.53a72.12,72.12,0,0,0,2,36c-11.92-4.4-24.81,7.15-19.61,19.84a.6.6,0,0,0,.4,1c15.39,1,31,.35,46.42.37h46.41q46.41,0,92.83,0c17.44,0,35,.6,52.45-.33A.68.68,0,0,0,1010.14,253Z"/><path class="d" d="M149.48,400.85a21,21,0,0,0-21-21.81c.85-9.28-8.59-16.11-16.83-12.07,3.5-15.89-8.36-31.1-24.07-34.17-17.72-3.49-34.46,6.79-43.64,21.53-5.67,9.1-8.59,19.61-9.75,30.21a20.76,20.76,0,0,0-21.3-2.38A19.82,19.82,0,0,0,2,402.14a.42.42,0,0,0,.45.37l0,.25c-.81.09-1.6.19-2.4.33-.07,0-.07.13,0,.15,5.68.94,11.69.58,17.43.6l18.74.1c12.51.05,25,.05,37.5.07,25,0,50,.43,75-.54a.31.31,0,0,0,0-.61h-.35l0-1A1,1,0,0,0,149.48,400.85Z"/><path class="d" d="M695,134a17.47,17.47,0,0,0-17.44-18.12c.71-7.71-7.13-13.39-14-10,2.91-13.21-6.94-25.85-20-28.41C628.84,74.5,614.93,83,607.3,95.29c-4.72,7.57-7.14,16.3-8.11,25.1a17.26,17.26,0,0,0-17.7-2A16.47,16.47,0,0,0,572.41,135a.34.34,0,0,0,.37.3l0,.21c-.67.07-1.33.16-2,.27,0,0,0,.12,0,.13,4.73.78,9.72.48,14.49.5l15.58.08c10.39,0,20.77,0,31.16.06,20.77,0,41.57.36,62.32-.45a.26.26,0,0,0,0-.51h-.29l0-.82A.86.86,0,0,0,695,134Z"/><path class="e" d="M329.91,86s3.2-.36,3.56-1.9-.26,4.88-2.94,6.72C328.42,92.28,329.91,86,329.91,86Z"/><path class="f" d="M315.77,102.71A21.58,21.58,0,0,1,321,89.87a14.13,14.13,0,0,1,6.78-4.24c12.89-3.44,18.88,14,31.61,11a14.25,14.25,0,0,0,8.54-6.36c4.36-6.9,3.57-15.18,1.55-22.7-1.81-6.78-4.81-13.6-10.7-17.61a15.6,15.6,0,0,0-10.26-2.68c-8.71.87-10.18,8.42-14.52,13.49a17.76,17.76,0,0,1-15.33,6,16.46,16.46,0,0,1-2.79-.58,17.15,17.15,0,0,1-11.6-13.23L293.78,1a1,1,0,0,0-1.24-.82L244.12,10.62a16.77,16.77,0,0,0-11.58,8.73,17,17,0,0,0-1.69,5.6,17.78,17.78,0,0,0,6,15.34c5.07,4.33,12.62,5.81,13.49,14.52a15.6,15.6,0,0,1-2.68,10.26C243.63,71,236.81,74,230,75.77c-7.52,2-15.8,2.8-22.7-1.56A14.22,14.22,0,0,1,201,65.67C197.88,53,215.36,47,211.92,34.07a14.15,14.15,0,0,0-4.25-6.79c-5.33-4.81-12.55-5.72-19.4-5.16a9.9,9.9,0,0,0-1.2.17L138.48,32.5a1.05,1.05,0,0,0-.81,1.23L147.94,82.6a35.65,35.65,0,0,1,.84,8.55c-.2,5.31-1.59,10.53-5.29,14.63a14.18,14.18,0,0,1-6.78,4.24c-12.89,3.45-18.88-14-31.61-11a14.3,14.3,0,0,0-8.54,6.37C92.2,112.33,93,120.62,95,128.14c1.82,6.77,4.82,13.59,10.71,17.6A15.59,15.59,0,0,0,116,148.43c8.71-.87,10.18-8.43,14.52-13.49a17.79,17.79,0,0,1,15.33-6,17.49,17.49,0,0,1,2.79.58,17.22,17.22,0,0,1,11.61,13.14l10.17,48.39a1,1,0,0,0,1.24.81l49.78-10.77a17.23,17.23,0,0,0,13.08-11.62,16.46,16.46,0,0,0,.58-2.79,17.79,17.79,0,0,0-6-15.34c-5.07-4.33-12.62-5.8-13.49-14.51a15.63,15.63,0,0,1,2.68-10.27c4-5.88,10.83-8.88,17.61-10.7,7.52-2,15.8-2.8,22.7,1.56A14.25,14.25,0,0,1,265,126c3.09,12.73-14.39,18.71-10.95,31.6a14.2,14.2,0,0,0,4.24,6.79c5.36,4.83,12.61,5.73,19.5,5.16a8.64,8.64,0,0,0,1-.15l46.85-9.84a1,1,0,0,0,.81-1.24l-9.84-45A35.08,35.08,0,0,1,315.77,102.71Z"/><path class="e" d="M358.67,149.56c4.52-19.16-18.34-39.88-26.92-50.62C329.4,96,327.46,93,327.46,93c6.62-2.92,5.13-9.57,3.78-12.9s-4.29.82-5.91,1.31c-3.66,1.1-2.64,6.22-4.68,8.77-1.08,1.35,20.57,54.18,20.57,54.18s-10.36,23.46-28.42,33C309.35,179.18,353.58,171.15,358.67,149.56Z"/><path class="g" d="M202.81,523.36c-.76-5.37,6.31-4.88,10.37-5.81-1.09.71-2.42,1.73-.68,2.2,2.54.69,8.09-.19,9.71-2a11.78,11.78,0,0,1,.81,4.55C223,523.94,203,524.79,202.81,523.36Z"/><path class="e" d="M212.5,519.75c-1.74-.47-2.29-1.67.35-2.13a19.64,19.64,0,0,0,4.69-1.5c1.11-.51,1.49-2.29,1.49-2.29l2.13-.08s.86,3.57,1.05,4C220.59,519.56,215,520.44,212.5,519.75Z"/><path class="g" d="M348.21,519.32c.48-5.41-6.56-4.56-10.66-5.28,1.13.66,2.5,1.6.79,2.16-2.5.82-8.08.23-9.8-1.54a11.73,11.73,0,0,0-.58,4.59C328,520.92,348.08,520.75,348.21,519.32Z"/><path class="e" d="M338.34,516.2c1.71-.56,2.2-1.78-.46-2.11a19.86,19.86,0,0,1-4.76-1.25c-1.13-.46-1.61-2.21-1.61-2.21l-2.12,0s-.68,3.61-.85,4C330.26,516.43,335.84,517,338.34,516.2Z"/><path class="h" d="M303,262c-8.29-17.51-14.42-28-17.74-29.54-9.68.48-54,7.19-57.87,7.35-3.18,1.81-6.78,12.94-11.41,32.52-11.3,47.82-2.64,241.91-2.64,241.91l10.09.42s10.78-84.81,22.81-145.23c7.63-38.38,18-75.32,18.32-75.79,5.3,16.79,53.41,184.13,58.67,213.86.89,5,10.9,7.83,10.9,3.7C334.14,480.55,324,306.37,303,262Z"/><path class="g" d="M303,262c-8.29-17.51-14.42-28-17.74-29.54-3.23.16-18.49,2.09-18.49,2.09a679.84,679.84,0,0,1,41.08,116.16c18.48,74,21.45,162.33,23.07,162.46,1.8.15,3.21-.42,3.21-2C334.14,480.55,324,306.37,303,262Z"/><path class="i" d="M189.44,224.06s9.2,7.14,22.65-5.2c0,0,16.35-15.91,18.92-39.2V166.87h0a32.78,32.78,0,0,0-14.23,10.49c-7.4,9.5-19.85,25.19-22.44,26.65C190.6,206.11,189.44,224.06,189.44,224.06Z"/><path class="j" d="M340.91,143.4s11.89,4.79,18.37,0c0,0,8.49,29.91-39.19,38.51-4,.71-16.35,1.34-19.64,1.85-31.93,5.05-27.39,5-27.39,5s-1.39-21.7,8.44-22.64c27.27-2.6,36.82-5.63,46-11,8.75-5.14,11.75-7.88,12.86-9.52S340.91,143.4,340.91,143.4Z"/><path class="e" d="M164.46,169.85c-.4-1-3.52-4.91-3.71-8.82-.37-7.59,5.11-11.75,6.23-12.15,1.94-.71,1.87,5,1.87,5s2.24-.67,1.71,1.05c-2.53,8.15-2.76,12.09-2.44,12.86,4.33,8.63,25.9,28.72,31.12,39.07,2.43,4.82,5.56,26.12-14.51,16C166.93,213.9,165.48,183.73,164.46,169.85Z"/><path class="e" d="M323,87.06c0-.61.39-8.44,1.1-8.21s1.44,3.57,1.44,3.57-1.13-6,0-6.82,2.81,3.81,2.81,3.81-1.37-4.62,0-3.91,3.61,6.71,3.66,6.92S323,87.06,323,87.06Z"/><path class="k" d="M319.56,127l6.86,31.34a1,1,0,0,1-.81,1.24l-46.85,9.84a8.64,8.64,0,0,1-1,.15,40,40,0,0,1-4.9.12,29.88,29.88,0,0,1-4.54-.49,20.38,20.38,0,0,1-10.06-4.79Z"/><path class="i" d="M227.39,168.51s9.92-4.65,17.86-3.15c10.7,2,26.9,3.36,38.13,2.3,6.78-.64,27.19-1.53,27.19-1.53l-25.31,66.29s-23.86,8.26-32.16,9.23c-18,2.09-25.71-1.88-25.71-1.88s-2.39-20.33-2.51-27.15C224.68,201.58,227.39,168.51,227.39,168.51Z"/><path class="k" d="M229.09,151.35a17.79,17.79,0,0,1,6,15.34,16.46,16.46,0,0,1-.58,2.79,17.23,17.23,0,0,1-13.08,11.62l-18.24,4Z"/><path class="e" d="M266.82,159.19s-1.71,9.88-.68,10.93,4.75,2.31,6.78-.24-.39-11-.39-11Z"/><path class="l" d="M265.9,166.06a11.83,11.83,0,0,0,7.83.12,28.12,28.12,0,0,0-.63-5.34l-6.6.34C266.29,162.6,266,164.41,265.9,166.06Z"/><path class="m" d="M264.64,154.25s1.89-9,4.45-13.25,4.11-8.53,6.71-6.48,9.91,8,17.57,2.86c1.06-.7,2.13-2.83,2.81-4.62a.53.53,0,0,1,1,0c.95,2.76,2.57,9,0,14.18-3.37,6.9-8.59,9.43-11.59,11.14-1.67,1-6.51,2.83-6.51,2.83Z"/><path class="e" d="M280.14,162.09c.95-.76,2.7-4.53,4.06-7.73a5.14,5.14,0,0,0-2.84-6.78c-4.16-1.64-8.85-3.22-10.43-3-2.47.37-3.77,3.08-4.79,5.08s-2.11,5.91-1.68,8.18c.4,2.07,3,5,4.87,5.79C274.92,166.13,277.16,165.44,280.14,162.09Z"/><path class="j" d="M280.25,167.84l14.62-1.27,15.7-.44-25.31,66.29-17.08,5.51s9.95-17.62,13.43-35.9C284.86,184.94,280.25,167.84,280.25,167.84Z"/><path class="n" d="M269.09,141c.6-1.41,1.22-2.79,1.87-4.2a13.1,13.1,0,0,1,1.21-2.05,3.13,3.13,0,0,1,2.37-1.48,2.67,2.67,0,0,1,1.48.45c.45.27.65.47,1,.7.61.44,1.22.86,1.84,1.25a19.41,19.41,0,0,0,3.88,2,11.31,11.31,0,0,0,8.27.18,15.08,15.08,0,0,0,2-.91,4.67,4.67,0,0,0,1.43-1.44,15.92,15.92,0,0,0,1.2-1.89c.2-.35.31-.65.56-1a.61.61,0,0,1,1,.24.46.46,0,0,0-.81-.07l-.33,1.07a18.12,18.12,0,0,1-.86,2.17,5.65,5.65,0,0,1-1.54,2,13.35,13.35,0,0,1-2.06,1.23,11.88,11.88,0,0,1-9.53.24,20.43,20.43,0,0,1-4.2-2.26c-.64-.46-1.26-.94-1.86-1.43s-1.09-.95-1.47-1-.93.31-1.41.81a14.07,14.07,0,0,0-1.35,1.72C270.86,138.49,270.06,139.81,269.09,141Z"/><path class="o" d="M207.67,27.28a22,22,0,0,0-12.85-4.67,35.87,35.87,0,0,0-6.88.27c-2.17.44-4.52,1.07-6.78,1.6q-13.68,3.21-27.39,6.31l-13.72,3.07-.86.19-.33.08a.77.77,0,0,0,.24-.12.67.67,0,0,0,.24-.47.57.57,0,0,0,0-.13s0,.11,0,.15l.1.43.75,3.43,1.51,6.87,5.88,27.48L149,78.65l.71,3.44c.24,1.18.46,2.39.61,3.61a30.54,30.54,0,0,1-1.54,14.73,21.23,21.23,0,0,1-4,6.48,16.13,16.13,0,0,1-6.46,4.34,21.3,21.3,0,0,1-3.87.81,15.75,15.75,0,0,1-3.94-.33,20.38,20.38,0,0,1-6.86-3.18c-4-2.75-7.34-6.08-11.36-7.74a10.74,10.74,0,0,0-6.25-.78,11.58,11.58,0,0,0-5.85,2.6,15.54,15.54,0,0,0-4.13,5.18,20,20,0,0,0-2,6.49A39.52,39.52,0,0,0,95,128.14a36.56,36.56,0,0,1-1.94-14,21.06,21.06,0,0,1,1.73-7,17.17,17.17,0,0,1,4.21-6,13.57,13.57,0,0,1,6.68-3.33,13.14,13.14,0,0,1,7.52.61c4.79,1.77,8.3,5.2,12.1,7.59s8,3.61,11.9,2,6.77-5,8.26-9a27.39,27.39,0,0,0,1.21-13c-.28-2.18-.84-4.44-1.31-6.76l-1.47-6.87L138.22,45l-1.38-6.89-.69-3.44-.09-.43L136,34a2.68,2.68,0,0,1,1-2.56,2.82,2.82,0,0,1,1-.52l.52-.11.86-.17,13.79-2.71q13.8-2.7,27.62-5.24c2.34-.4,4.55-.86,7-1.2a36.32,36.32,0,0,1,7.15.15A21.43,21.43,0,0,1,207.67,27.28Z"/><path class="o" d="M293.78,1a1,1,0,0,0-1.44-.63l-1.81.54-3.64,1-7.28,2c-4.87,1.28-9.74,2.54-14.63,3.73s-9.79,2.33-14.68,3.5l-3.68.83c-1.24.29-2.47.52-3.5.85a15.45,15.45,0,0,0-5.79,3.33,14.82,14.82,0,0,0-4.75,12,16.43,16.43,0,0,0,6.18,11.77c1.84,1.47,4,2.71,6.14,4.26a15.21,15.21,0,0,1,5.17,6.12,15,15,0,0,1-2.43,14.76c2.5-4.36,2.89-9.81.75-14a13.14,13.14,0,0,0-4.9-4.86c-2.05-1.28-4.31-2.42-6.51-3.94a19.2,19.2,0,0,1-8-13.85,18.3,18.3,0,0,1,5.79-15.13A19,19,0,0,1,242,9.27c1.37-.42,2.62-.63,3.83-.9l3.69-.76c4.94-1,9.86-2,14.81-2.88s9.9-1.8,14.86-2.65l7.46-1.2,3.74-.56,1.87-.26A1.15,1.15,0,0,1,293.78,1Z"/><path class="g" d="M916.21,474c-6.08.45-5-7.75-5.69-12.54.7,1.33,1.74,2.95,2.4,1,1-2.9.42-9.42-1.52-11.46a12.73,12.73,0,0,1,5.16-.58C918.44,450.48,917.82,473.83,916.21,474Z"/><path class="e" d="M912.92,462.38c-.66,2-2,2.52-2.36-.58a23.47,23.47,0,0,0-1.31-5.58c-.48-1.33-2.44-1.92-2.44-1.92l.07-2.48s4.06-.72,4.52-.9C913.34,453,913.89,459.48,912.92,462.38Z"/><path class="p" d="M517.35,312.6A17,17,0,0,1,528,316.12a18.93,18.93,0,0,1,3.26,26.44c-4.43,5.75-12.15,9-11.13,18.48a17,17,0,0,0,5.16,10.33c5.59,5.38,13.53,7.05,21.15,7.46,8.46.47,17.45-.54,23.82-6.71a15.56,15.56,0,0,0,4.9-10.69c.26-12.36-14.88-15.82-18.15-26.17-1.86-5.87.91-12.51,5.58-16.52,0,0,6.73-6.42,20.19-6.14h50.51c1.24,0,.06,165.8,0,173.43a.27.27,0,0,1-.28.27H461a.28.28,0,0,1-.29-.28V435.55a34.63,34.63,0,0,0-3.82-16.05,13.82,13.82,0,0,0-2.31-3.46c-4.47-4.23-10.65-7.43-16.53-5.58-10.35,3.27-13.81,18.42-26.17,18.15a15.57,15.57,0,0,1-10.68-4.89c-6.17-6.38-7.18-15.37-6.72-23.82.42-7.63,2.09-15.56,7.46-21.15a17,17,0,0,1,10.33-5.16c9.48-1,12.74,6.7,18.49,11.12a19.37,19.37,0,0,0,17.68,3,18.41,18.41,0,0,0,2.84-1.25,18.73,18.73,0,0,0,9.43-16.59V312.88a.29.29,0,0,1,.29-.29Z"/><path class="g" d="M754.54,304.7c4.11,23.51,32.58,68.05,32.58,68.05L910,451.46l-5,8.87S804.75,425,765.53,405c-20.63-10.55-64.74-80-70.53-87.41.7-6.3,11.5-33.79,24.35-53.46C727.06,252.33,750.82,283.47,754.54,304.7Z"/><path class="e" d="M635.34,240.44c-4-3-7.75,2.75-11.6,5.16-5.2,3.26-18.54,17.81-29.11,28.45-29.1,13.82-57.09,43-57.09,43-2-.51-4.77-5.73-10.42-5.62-7.38.13-8,3.83-5.52,4.37,2.21.48,2.87-.75,5-.19,1.48.39,1.16,1,2.42,1.37-1.59.23-5.07.12-4.09.87,2.34,1.8,9.89,4.34,11.05,4,1.85-.48,68.81-37.56,68.81-37.56S644.1,247.09,635.34,240.44Z"/><path class="g" d="M724.13,485.18c-.85-6.27,7.09-5.7,11.64-6.78-1.22.83-2.71,2-.76,2.56,2.85.81,9.08-.21,10.9-2.37a14.1,14.1,0,0,1,.91,5.3C746.82,485.85,724.36,486.84,724.13,485.18Z"/><path class="e" d="M735,481c-2-.54-2.56-1.94.39-2.48a21.64,21.64,0,0,0,5.27-1.75c1.24-.59,1.68-2.67,1.68-2.67l2.38-.09s1,4.16,1.18,4.62C744.09,480.75,737.86,481.77,735,481Z"/><path class="h" d="M711.24,347l-51.58,34.52,84.27,90.65a2.55,2.55,0,0,1-1.07,4.16l-.41.12a7.82,7.82,0,0,1-5.37-.32c-16.18-7-101.63-45.88-116.12-86.3-8.43-23.51,54.6-90,55.28-100,4.88-4.27,32.1-17.07,55.46-22.38,4.21-1,6.68,4,8.08,11.54A67.32,67.32,0,0,1,711.24,347Z"/><path class="i" d="M676.16,290.38s35.69-5.43,58.62-22.64c0,0-33.58-51-49.81-55.47-7.47-2.06-34.28,9-45,18.07a221.15,221.15,0,0,0-19.75,19.16s25.73,17.16,35.59,24.18C666.41,281.26,678,289.22,676.16,290.38Z"/><path class="e" d="M681.7,220.69c-4.18-1.71-7.65.82-9.76,4.35-3.57,6-12.61,37.13-16.17,48.64C623,284.77,595.2,312.6,595.2,312.6a26.11,26.11,0,0,0-9.66-1.9c-3-.12-8.32,1.75-5.4,2.68,1.86.59,3.37-.5,7.32.59,4.89,1.35,5.74,3.8,6.41,3.67,1.93-.35,67.79-32.22,67.79-32.22S703.13,229.49,681.7,220.69Z"/><path class="j" d="M537.54,317s2.74,5.4,10.25,4.51,48-25.36,61.55-37.82c8.64-7.95,28.85-35.2,30.62-36.48s0-16.89,0-16.89S606.79,253,594.75,272.28C594.75,272.28,548.22,291.74,537.54,317Z"/><path class="j" d="M675.91,291.19s3.73.12,10.1-2c4.3-1.43,11.12-3.77,11.12-3.77s-24.08-15.19-37.2-32.7c-9.95-13.3-2.12-33.21-7.35-30.48a72.33,72.33,0,0,0-12.65,8.08,221.15,221.15,0,0,0-19.75,19.16s25.73,17.16,35.59,24.18A151.63,151.63,0,0,1,675.91,291.19Z"/><path class="i" d="M594.61,313.55c-.43.71,2.69,12.83,12.92,10.84s56.4-38.72,56.4-38.72,30.91-46.93,25.81-60.62-13.25-7-16.83-4-17.27,49-17.27,49S608.31,290.62,594.61,313.55Z"/><path class="e" d="M645.62,220.46s4.32,10.4,5.93,10.77,5.89-.67,6.28-4.3-7-10.18-7-10.18Z"/><path class="l" d="M649.06,227.83a13.37,13.37,0,0,0,7.43-4.71,31.55,31.55,0,0,0-3.8-4.6l-6.05,4.29C647.3,224.29,648.19,226.2,649.06,227.83Z"/><path class="e" d="M634.15,200.56c4.08-5.05,16.13-2.4,18.15-.82,2.21,1.74,2,5.12,1.87,7.64s-2.71,13.16-10.85,14C628,222.82,634.15,200.56,634.15,200.56Z"/><path class="g" d="M623.67,195.34s1.1,7,8.53,6.5c0,0-.6,6,.68,7.77,0,0,.79-7.49,3.43-8.11,0,0,3.78,3.2,12.67-2a7,7,0,0,1,2.21,5.79,12.82,12.82,0,0,0,1,6.13,10.42,10.42,0,0,1-9.4,8.21c-8.08.77-9.46-4.27-9.56-5.71,0,0-6.22,6-3.65,11,2.36,4.55,13.23,6.21,20.79,0a10,10,0,0,0,2.94-4.28,48.08,48.08,0,0,0,2.27-7.8,5.47,5.47,0,0,1,1.51-2.85c1.84-1.82,5-5.65,3.83-9.79-1.59-5.73-6-6.76-6-6.76s-4.28-8.61-11.54-7.14-9.36,4.05-12.2,7.65S623.77,194.26,623.67,195.34Z"/><path class="q" d="M679.08,259.87c1.94-4.23,3.89-8.44,5.57-12.75A75.9,75.9,0,0,0,688.84,234a23.12,23.12,0,0,0,.49-6.64,9,9,0,0,0-.9-3.07,23.44,23.44,0,0,0-1.52-2.95,7,7,0,0,0-4.76-3.53c-1.94-.25-4,.67-5.81,1.9a33.25,33.25,0,0,0-2.7,2,10.19,10.19,0,0,0-1.56,2.59c-1,2.05-1.82,4.2-2.65,6.36-1.66,4.31-3.13,8.71-4.7,13.07l-9.09,26.33c2.25-9,4.82-17.95,7.58-26.83,1.34-4.45,2.87-8.85,4.46-13.23.81-2.19,1.63-4.37,2.61-6.54.26-.54.51-1.08.82-1.62a5.85,5.85,0,0,1,1.25-1.68A33.33,33.33,0,0,1,675.2,218c2-1.3,4.47-2.49,7.2-2.13a7.57,7.57,0,0,1,3.63,1.6c.46.44.93.89,1.35,1.36l1.11,1.51a24,24,0,0,1,1.62,3.25,10.92,10.92,0,0,1,1,3.59,21.67,21.67,0,0,1-.71,7.17C688,243.5,683.68,251.81,679.08,259.87Z"/></g></svg>