<svg xmlns="http://www.w3.org/2000/svg" xmlns:xlink="http://www.w3.org/1999/xlink" viewBox="0 0 301.79 315.53"><defs><clipPath id="clip-path"><path d="M76.75,141.33c-4,0-7.55,1.46-9.4,3.62,1.85,2.17,5.36,3.63,9.4,3.63s7.55-1.46,9.4-3.63C84.3,142.79,80.78,141.33,76.75,141.33Z" style="fill:#fff"/></clipPath></defs><g id="Layer_2" data-name="Layer 2"><g id="Layer_4" data-name="Layer 4"><path d="M250.35,104.12l-1.43-2.07h.84l.8,1.17.24.49.25-.49.82-1.17h.77l-1.44,2,1.52,2.21h-.8L251,105l-.25-.51-.26.51-.92,1.29h-.76Z" style="fill:#fff"/><path d="M253.3,103.12h1.5v-1.53h.61v1.53h1.5v.61h-1.5v1.53h-.61v-1.53h-1.5Z" style="fill:#fff"/><path d="M259.16,104.8l.24.82h0l.19-.83.83-2.74h.68l-1.26,3.81-.28.81a6.64,6.64,0,0,1-.31.7,2,2,0,0,1-.39.49.72.72,0,0,1-.49.18,1.41,1.41,0,0,1-.5-.08l.12-.59a.52.52,0,0,0,.21,0,.62.62,0,0,0,.46-.25,1.94,1.94,0,0,0,.36-.86l-1.7-4.25h.78Z" style="fill:#fff"/><path d="M168.14,297.05l-2.32-3.37h1.35l1.31,1.9.39.79.4-.79,1.34-1.9h1.24L169.52,297l2.47,3.6h-1.31l-1.47-2.1-.41-.83-.43.83-1.49,2.1h-1.23Z" style="fill:#fff"/><path d="M250.71,212.05h2.43v-2.49h1v2.49h2.43v1h-2.43v2.49h-1V213h-2.43Z" style="fill:#fff"/><path d="M270.1,229.66a4.2,4.2,0,0,1-.25,1.41,9.2,9.2,0,0,1-.64,1.4,13.64,13.64,0,0,1-.87,1.32c-.31.42-.62.81-.92,1.17l-.73.56v.07l1-.19h2.63v1.5h-5.77V236c.22-.22.47-.49.74-.8s.55-.63.83-1,.55-.7.82-1.06a12.05,12.05,0,0,0,.71-1.1,7.36,7.36,0,0,0,.5-1.08,3,3,0,0,0,.18-1,1.36,1.36,0,0,0-.32-.93,1.29,1.29,0,0,0-1-.36,2.49,2.49,0,0,0-.9.18,2.58,2.58,0,0,0-.77.48l-.71-1.26a4.54,4.54,0,0,1,1.21-.71,4.28,4.28,0,0,1,1.59-.26,3.42,3.42,0,0,1,1.09.16,2.44,2.44,0,0,1,.85.48,2.3,2.3,0,0,1,.56.79A2.84,2.84,0,0,1,270.1,229.66Z" style="fill:#fff"/><path d="M128.1,293.58h-1.68a.83.83,0,0,1-.81-.83.81.81,0,0,1,.83-.81h1.85c1.28,0,2.56,0,3.85,0h0a.82.82,0,0,1,0,1.64C130.81,293.56,129.44,293.58,128.1,293.58Zm-7.39-.18h0c-1.9-.09-3.83-.21-5.75-.37a.82.82,0,0,1-.75-.88.83.83,0,0,1,.89-.75c1.89.16,3.8.28,5.68.37a.82.82,0,0,1,0,1.63Zm17.16-.1a.81.81,0,0,1-.81-.77.83.83,0,0,1,.77-.87c1.89-.11,3.8-.25,5.68-.43a.83.83,0,0,1,.89.74.82.82,0,0,1-.74.89c-1.89.18-3.82.32-5.74.43Zm-28.58-.83h-.09c-1.89-.22-3.81-.48-5.7-.77a.82.82,0,1,1,.24-1.62c1.88.29,3.78.54,5.65.76a.82.82,0,0,1,.72.91A.83.83,0,0,1,109.29,292.47Zm40-.24a.83.83,0,0,1-.81-.72.82.82,0,0,1,.71-.91c1.89-.25,3.78-.52,5.63-.83a.82.82,0,0,1,.27,1.61c-1.87.31-3.79.59-5.69.84ZM98,290.75l-.15,0c-1.87-.35-3.77-.74-5.64-1.16a.82.82,0,0,1,.36-1.6c1.86.42,3.73.81,5.58,1.15a.82.82,0,0,1-.15,1.63Zm62.6-.39a.82.82,0,0,1-.16-1.62c1.85-.37,3.72-.78,5.56-1.22a.83.83,0,0,1,1,.61.82.82,0,0,1-.61,1c-1.86.44-3.75.86-5.62,1.24ZM86.8,288.23a.76.76,0,0,1-.21,0c-1.84-.48-3.7-1-5.54-1.56a.81.81,0,1,1,.47-1.56c1.82.54,3.67,1.06,5.49,1.54a.82.82,0,0,1-.21,1.61Zm84.9-.52a.82.82,0,0,1-.21-1.61c1.82-.5,3.66-1,5.46-1.6a.8.8,0,0,1,1,.53.82.82,0,0,1-.53,1c-1.82.57-3.67,1.11-5.52,1.62A.83.83,0,0,1,171.7,287.71Zm-95.87-2.78a.75.75,0,0,1-.26,0c-1.81-.61-3.63-1.27-5.42-1.95a.82.82,0,0,1-.48-1.05.83.83,0,0,1,1.06-.48c1.77.67,3.57,1.32,5.36,1.93a.82.82,0,0,1,.51,1A.8.8,0,0,1,75.83,284.93Zm106.79-.65a.82.82,0,0,1-.27-1.59c1.78-.62,3.57-1.29,5.33-2a.82.82,0,0,1,.6,1.53c-1.78.7-3.59,1.37-5.39,2A.84.84,0,0,1,182.62,284.28Zm-117.5-3.41a.91.91,0,0,1-.32-.06c-1.75-.74-3.52-1.52-5.27-2.33a.82.82,0,0,1-.39-1.09.8.8,0,0,1,1.08-.39c1.73.79,3.48,1.57,5.22,2.3a.82.82,0,0,1-.32,1.57Zm128.15-.78a.8.8,0,0,1-.75-.49.81.81,0,0,1,.42-1.07c1.75-.76,3.49-1.56,5.18-2.37a.82.82,0,0,1,1.09.39.81.81,0,0,1-.38,1.09c-1.71.82-3.47,1.62-5.23,2.39A1,1,0,0,1,193.27,280.09Zm-138.55-4a.84.84,0,0,1-.37-.09c-1.69-.86-3.4-1.76-5.09-2.69a.82.82,0,0,1-.32-1.11.81.81,0,0,1,1.11-.32c1.67.92,3.37,1.81,5,2.66a.82.82,0,0,1-.37,1.55Zm148.87-.9a.82.82,0,0,1-.38-1.54c1.68-.87,3.36-1.79,5-2.72a.82.82,0,1,1,.81,1.42c-1.66.94-3.36,1.87-5.05,2.75A.85.85,0,0,1,203.59,275.16Zm-158.9-4.64a.88.88,0,0,1-.42-.11c-1.64-1-3.28-2-4.89-3.05a.81.81,0,0,1-.24-1.13.82.82,0,0,1,1.13-.25c1.59,1,3.22,2,4.84,3a.82.82,0,0,1,.28,1.12A.8.8,0,0,1,44.69,270.52Zm168.85-1a.82.82,0,0,1-.43-1.52c1.6-1,3.21-2,4.79-3.07a.83.83,0,0,1,1.14.23.81.81,0,0,1-.23,1.13c-1.6,1.07-3.23,2.11-4.84,3.1A.75.75,0,0,1,213.54,269.52ZM35.07,264.29a.84.84,0,0,1-.47-.15c-1.56-1.09-3.13-2.23-4.66-3.39a.82.82,0,1,1,1-1.3c1.51,1.14,3.07,2.27,4.61,3.35a.82.82,0,0,1,.2,1.14A.83.83,0,0,1,35.07,264.29Zm188-1.11a.82.82,0,0,1-.48-1.48c1.54-1.1,3.07-2.24,4.57-3.4a.8.8,0,0,1,1.14.15.82.82,0,0,1-.14,1.15c-1.51,1.16-3.06,2.32-4.61,3.43A.85.85,0,0,1,223.06,263.18ZM25.92,257.39a.86.86,0,0,1-.52-.18c-1.48-1.2-3-2.45-4.41-3.71a.82.82,0,0,1-.08-1.16.83.83,0,0,1,1.16-.08c1.43,1.25,2.9,2.49,4.36,3.67a.82.82,0,0,1-.51,1.46Zm206.19-1.2a.83.83,0,0,1-.63-.29.81.81,0,0,1,.11-1.15c1.45-1.21,2.9-2.46,4.32-3.72a.81.81,0,0,1,1.15.07.82.82,0,0,1-.06,1.15c-1.43,1.28-2.9,2.54-4.37,3.75A.78.78,0,0,1,232.11,256.19ZM17.27,249.87a.82.82,0,0,1-.55-.22c-1.4-1.31-2.79-2.65-4.14-4a.82.82,0,1,1,1.16-1.16c1.33,1.34,2.71,2.67,4.09,4a.82.82,0,0,1-.56,1.42Zm223.39-1.29a.81.81,0,0,1-.59-.25.82.82,0,0,1,0-1.16c.92-.88,1.83-1.77,2.74-2.68l1.31-1.33a.81.81,0,0,1,1.15,0,.82.82,0,0,1,0,1.16L244,245.65c-.91.91-1.83,1.82-2.76,2.7A.85.85,0,0,1,240.66,248.58Zm8-8.22a.86.86,0,0,1-.54-.2A.82.82,0,0,1,248,239c1.27-1.42,2.51-2.87,3.7-4.33a.82.82,0,0,1,1.27,1c-1.21,1.48-2.47,3-3.75,4.39A.8.8,0,0,1,248.63,240.36Zm7.24-8.87a.89.89,0,0,1-.49-.16.83.83,0,0,1-.16-1.15c1.12-1.51,2.23-3.07,3.3-4.64a.82.82,0,1,1,1.35.92c-1.08,1.58-2.2,3.16-3.34,4.7A.84.84,0,0,1,255.87,231.49ZM262.3,222a.82.82,0,0,1-.69-1.25c1-1.61,2-3.26,2.87-4.91a.82.82,0,1,1,1.43.8c-.92,1.66-1.9,3.34-2.91,5A.81.81,0,0,1,262.3,222Zm5.57-10a.9.9,0,0,1-.36-.08.82.82,0,0,1-.37-1.1c.85-1.7,1.66-3.43,2.43-5.15a.82.82,0,1,1,1.49.67c-.77,1.74-1.6,3.49-2.46,5.21A.8.8,0,0,1,267.87,212Zm4.66-10.46a.79.79,0,0,1-.3,0,.81.81,0,0,1-.46-1.06c.69-1.76,1.35-3.56,2-5.35a.82.82,0,0,1,1-.5.81.81,0,0,1,.51,1c-.62,1.8-1.29,3.63-2,5.41A.81.81,0,0,1,272.53,201.54Zm-129.44-2.43h0c-1.92,0-3.87-.09-5.79-.26a.82.82,0,0,1-.74-.89.79.79,0,0,1,.88-.74c1.88.16,3.78.25,5.65.25a.82.82,0,1,1,0,1.64Zm5.72-.24a.82.82,0,0,1-.07-1.63c1.87-.16,3.76-.4,5.61-.71a.82.82,0,0,1,.28,1.61c-1.9.32-3.83.57-5.75.73Zm-17.11-.76h-.15c-1.89-.33-3.79-.75-5.66-1.24a.82.82,0,0,1,.42-1.58c1.82.48,3.68.88,5.53,1.21a.82.82,0,0,1-.14,1.62ZM160.08,197a.83.83,0,0,1-.79-.62.82.82,0,0,1,.59-1c1.82-.48,3.64-1,5.4-1.66a.82.82,0,1,1,.55,1.54c-1.81.64-3.67,1.21-5.54,1.7A.76.76,0,0,1,160.08,197Zm-39.44-1.76a.87.87,0,0,1-.28-.05c-1.81-.65-3.61-1.39-5.37-2.19a.82.82,0,1,1,.69-1.49c1.71.79,3.47,1.51,5.23,2.14a.82.82,0,0,1-.27,1.59Zm50.22-2.07a.82.82,0,0,1-.34-1.56c1.71-.78,3.4-1.64,5-2.56a.81.81,0,1,1,.8,1.42c-1.67,1-3.41,1.83-5.16,2.63A.8.8,0,0,1,170.86,193.12Zm105.39-2.41a.85.85,0,0,1-.23,0,.83.83,0,0,1-.56-1c.54-1.81,1-3.66,1.49-5.49a.82.82,0,0,1,1.59.39c-.46,1.86-1,3.73-1.51,5.57A.81.81,0,0,1,276.25,190.71Zm-166-.3a.8.8,0,0,1-.4-.11c-1.68-1-3.33-2-4.91-3.08a.82.82,0,1,1,.93-1.35c1.54,1.07,3.15,2.08,4.79,3a.82.82,0,0,1-.41,1.53Zm70.58-2.91a.81.81,0,0,1-.46-1.49c1.54-1.06,3.06-2.2,4.52-3.39a.81.81,0,0,1,1.15.12.82.82,0,0,1-.12,1.15c-1.49,1.22-3,2.39-4.63,3.47A.78.78,0,0,1,180.82,187.5Zm-80-3.59a.86.86,0,0,1-.52-.18c-1.48-1.23-2.93-2.53-4.31-3.88a.82.82,0,1,1,1.15-1.17c1.34,1.32,2.76,2.59,4.2,3.78a.82.82,0,0,1-.52,1.45Zm88.85-3.65a.79.79,0,0,1-.59-.25.81.81,0,0,1,0-1.15l.7-.69a.82.82,0,0,1,1.15,0,.81.81,0,0,1,0,1.15l-.7.7A.85.85,0,0,1,189.67,180.26ZM279,179.6l-.16,0a.81.81,0,0,1-.64-1c.37-1.84.7-3.73,1-5.6a.83.83,0,0,1,.94-.69.82.82,0,0,1,.68.94c-.3,1.9-.64,3.81-1,5.67A.82.82,0,0,1,279,179.6ZM92.62,175.93a.8.8,0,0,1-.61-.27c-1.28-1.43-2.52-2.93-3.69-4.45a.82.82,0,1,1,1.29-1c1.15,1.49,2.37,3,3.62,4.36a.82.82,0,0,1-.07,1.16A.79.79,0,0,1,92.62,175.93Zm188.14-7.64h-.09a.81.81,0,0,1-.72-.9c.21-1.89.38-3.79.5-5.67a.83.83,0,0,1,.87-.76.82.82,0,0,1,.77.87c-.13,1.9-.3,3.83-.52,5.74A.81.81,0,0,1,280.76,168.29ZM85.63,166.88a.79.79,0,0,1-.68-.36c-1.07-1.59-2.09-3.25-3-4.91a.82.82,0,0,1,.31-1.12.81.81,0,0,1,1.11.31c.94,1.63,1.94,3.25,3,4.81a.81.81,0,0,1-.22,1.14A.84.84,0,0,1,85.63,166.88ZM79.94,157a.81.81,0,0,1-.73-.46c-.84-1.72-1.62-3.5-2.34-5.29a.81.81,0,0,1,.45-1.06.83.83,0,0,1,1.07.45c.7,1.75,1.47,3.5,2.29,5.19a.81.81,0,0,1-.38,1.09A.94.94,0,0,1,79.94,157Zm201.59-.1h0a.82.82,0,0,1-.8-.83c0-1,0-2,0-3.06s0-1.76,0-2.63a.82.82,0,0,1,.8-.84h0a.83.83,0,0,1,.82.8c0,.89,0,1.78,0,2.67s0,2.06,0,3.1A.82.82,0,0,1,281.53,156.86ZM75.68,146.35a.81.81,0,0,1-.78-.57c-.59-1.83-1.12-3.7-1.59-5.56a.82.82,0,1,1,1.59-.39c.46,1.82,1,3.66,1.56,5.45a.82.82,0,0,1-.53,1A1.09,1.09,0,0,1,75.68,146.35Zm205.62-.93a.83.83,0,0,1-.82-.77c-.12-1.89-.28-3.8-.49-5.67a.83.83,0,0,1,.73-.9.82.82,0,0,1,.9.73c.21,1.89.37,3.82.49,5.74a.82.82,0,0,1-.76.87ZM72.92,135.25a.82.82,0,0,1-.81-.68c-.33-1.89-.61-3.82-.81-5.72A.81.81,0,0,1,72,128a.82.82,0,0,1,.9.72c.2,1.87.46,3.76.79,5.61a.82.82,0,0,1-.66.95ZM280.07,134a.82.82,0,0,1-.81-.7c-.29-1.87-.62-3.75-1-5.6a.82.82,0,1,1,1.6-.32c.37,1.87.71,3.78,1,5.67a.82.82,0,0,1-.69.94ZM71.69,123.87a.82.82,0,0,1-.81-.79c0-1.09-.07-2.18-.07-3.27,0-.84,0-1.67,0-2.51a.82.82,0,0,1,.82-.79h0a.82.82,0,0,1,.8.84c0,.82,0,1.64,0,2.46q0,1.6.06,3.21a.82.82,0,0,1-.78.85Zm206.16-1.06a.83.83,0,0,1-.8-.63c-.44-1.82-.93-3.67-1.46-5.49a.82.82,0,1,1,1.57-.46c.53,1.85,1,3.72,1.48,5.56a.82.82,0,0,1-.6,1A.63.63,0,0,1,277.85,122.81ZM72,112.43H72a.82.82,0,0,1-.73-.9c.19-1.92.44-3.85.76-5.73a.82.82,0,0,1,1.61.27c-.3,1.85-.56,3.74-.74,5.62A.82.82,0,0,1,72,112.43Zm202.62-.62a.8.8,0,0,1-.77-.55c-.61-1.78-1.26-3.58-1.95-5.35a.81.81,0,0,1,.46-1.06.82.82,0,0,1,1.06.47c.7,1.79,1.36,3.61,2,5.41a.82.82,0,0,1-.51,1A.75.75,0,0,1,274.65,111.81Zm-4.15-10.66a.8.8,0,0,1-.75-.49c-.77-1.73-1.58-3.46-2.41-5.15a.82.82,0,1,1,1.46-.73c.85,1.71,1.67,3.47,2.44,5.22a.81.81,0,0,1-.41,1.08A.78.78,0,0,1,270.5,101.15Zm-196.57,0a.62.62,0,0,1-.19,0,.82.82,0,0,1-.61-1c.45-1.87,1-3.75,1.54-5.58a.82.82,0,0,1,1-.53.8.8,0,0,1,.53,1c-.56,1.8-1.07,3.64-1.5,5.47A.82.82,0,0,1,73.93,101.14ZM265.42,90.89a.82.82,0,0,1-.72-.42c-.92-1.67-1.88-3.32-2.86-4.92a.82.82,0,0,1,1.4-.85c1,1.62,2,3.29,2.89,5a.81.81,0,0,1-.71,1.21ZM77.35,90.22a1,1,0,0,1-.3,0,.82.82,0,0,1-.46-1.06c.7-1.8,1.47-3.58,2.29-5.31A.81.81,0,0,1,80,83.41a.82.82,0,0,1,.39,1.09c-.8,1.69-1.56,3.44-2.25,5.2A.8.8,0,0,1,77.35,90.22Zm182.1-9.09a.84.84,0,0,1-.68-.36c-1.06-1.57-2.16-3.13-3.28-4.65a.82.82,0,0,1,.17-1.14.83.83,0,0,1,1.15.17c1.13,1.53,2.25,3.12,3.32,4.7a.83.83,0,0,1-.22,1.14A.88.88,0,0,1,259.45,81.13ZM82.25,79.88a.83.83,0,0,1-.4-.11.81.81,0,0,1-.31-1.11c.93-1.67,1.94-3.34,3-5a.82.82,0,0,1,1.37.9c-1,1.58-2,3.21-3,4.85A.82.82,0,0,1,82.25,79.88Zm170.4-7.95a.81.81,0,0,1-.64-.3c-1.18-1.47-2.42-2.93-3.67-4.35a.81.81,0,0,1,1.22-1.08c1.27,1.43,2.52,2.91,3.72,4.4a.81.81,0,0,1-.63,1.33ZM88.53,70.3a.78.78,0,0,1-.5-.17A.8.8,0,0,1,87.88,69c1.15-1.53,2.38-3,3.65-4.49a.82.82,0,1,1,1.23,1.08c-1.24,1.42-2.45,2.9-3.58,4.4A.82.82,0,0,1,88.53,70.3Zm156.53-6.94a.85.85,0,0,1-.59-.25c-.54-.56-1.08-1.12-1.63-1.67-.8-.79-1.6-1.57-2.41-2.33a.82.82,0,1,1,1.12-1.19c.83.77,1.64,1.56,2.44,2.37.56.55,1.11,1.11,1.66,1.68a.82.82,0,0,1-.59,1.39Zm-149-1.68a.81.81,0,0,1-.57-.24.82.82,0,0,1,0-1.16c1.35-1.35,2.76-2.69,4.18-4a.82.82,0,0,1,1.1,1.22c-1.4,1.26-2.79,2.57-4.13,3.91A.82.82,0,0,1,96.05,61.68Zm140.66-6.15a.83.83,0,0,1-.53-.2c-1.44-1.21-2.94-2.4-4.44-3.53a.82.82,0,1,1,1-1.31c1.53,1.15,3.05,2.36,4.52,3.59a.83.83,0,0,1,.1,1.16A.85.85,0,0,1,236.71,55.53ZM104.57,54a.8.8,0,0,1-.63-.3.81.81,0,0,1,.12-1.15c1.49-1.2,3-2.37,4.6-3.49a.82.82,0,0,1,1,1.33c-1.53,1.1-3.06,2.25-4.52,3.43A.86.86,0,0,1,104.57,54Zm123-5.38a.77.77,0,0,1-.45-.14c-1.57-1-3.19-2.06-4.81-3a.82.82,0,1,1,.83-1.41c1.65,1,3.29,2,4.89,3.07a.82.82,0,0,1,.22,1.14A.81.81,0,0,1,227.55,48.65ZM113.88,47.37a.82.82,0,0,1-.44-1.51c1.62-1,3.29-2,5-3a.82.82,0,0,1,1.11.31.83.83,0,0,1-.31,1.12c-1.64.91-3.28,1.89-4.88,2.91A.77.77,0,0,1,113.88,47.37ZM217.7,42.83a.75.75,0,0,1-.38-.1c-1.68-.87-3.4-1.7-5.11-2.47a.82.82,0,0,1-.41-1.08.8.8,0,0,1,1.08-.41c1.74.78,3.49,1.63,5.2,2.51a.83.83,0,0,1-.38,1.55Zm-93.85-1.06a.82.82,0,0,1-.36-1.55c1.72-.84,3.48-1.65,5.25-2.4a.82.82,0,0,1,.64,1.51c-1.74.74-3.48,1.53-5.17,2.36A.76.76,0,0,1,123.85,41.77Zm83.41-3.65a.71.71,0,0,1-.29,0c-1.76-.68-3.56-1.31-5.36-1.9a.83.83,0,0,1-.53-1,.81.81,0,0,1,1-.52c1.83.59,3.66,1.24,5.44,1.92a.82.82,0,0,1-.29,1.58Zm-72.87-.81a.82.82,0,0,1-.28-1.59c1.8-.64,3.64-1.25,5.48-1.8a.82.82,0,1,1,.47,1.57c-1.81.54-3.63,1.14-5.39,1.77A.92.92,0,0,1,134.39,37.31Zm62-2.71a.75.75,0,0,1-.21,0c-1.83-.48-3.69-.92-5.53-1.3a.82.82,0,1,1,.33-1.6c1.87.38,3.76.83,5.62,1.32a.81.81,0,0,1-.21,1.6Zm-51-.56a.82.82,0,0,1-.19-1.62c1.87-.44,3.77-.84,5.65-1.19a.82.82,0,1,1,.29,1.61c-1.85.34-3.72.73-5.55,1.17A.69.69,0,0,1,145.35,34Zm39.81-1.74H185c-1.88-.28-3.77-.51-5.65-.68a.81.81,0,0,1-.73-.89.8.8,0,0,1,.89-.74c1.9.18,3.83.41,5.73.69a.82.82,0,0,1-.12,1.63ZM156.61,32a.82.82,0,0,1-.81-.71.83.83,0,0,1,.71-.92c1.91-.24,3.84-.43,5.74-.56a.83.83,0,0,1,.88.76.82.82,0,0,1-.76.87c-1.87.13-3.78.32-5.65.56Zm17.15-.74h0c-1.86-.08-3.78-.1-5.69-.07a.8.8,0,0,1-.83-.8.82.82,0,0,1,.81-.83c1.93,0,3.89,0,5.77.06a.82.82,0,0,1,0,1.64Z" style="fill:#fff"/><path d="M285.79,95.48l-.29,1.19c-.87.35-1.57.61-2.09.79a5.52,5.52,0,0,1-1.81.27,3.62,3.62,0,0,1-2.46-.77,2.49,2.49,0,0,1-.88-2,6.16,6.16,0,0,1,.07-1,9.77,9.77,0,0,1,.21-1.09l1.09-3.86c.1-.36.18-.71.24-1a4.5,4.5,0,0,0,.1-.91,1.42,1.42,0,0,0-.3-1,1.76,1.76,0,0,0-1.17-.29,2.9,2.9,0,0,0-.86.13l-.76.25.29-1.18c.71-.3,1.39-.54,2-.75a6.08,6.08,0,0,1,1.86-.31,3.51,3.51,0,0,1,2.42.76,2.49,2.49,0,0,1,.85,2c0,.17,0,.46,0,.89a6.46,6.46,0,0,1-.22,1.16L283,92.59a10,10,0,0,0-.24,1.06,5.49,5.49,0,0,0-.1.9,1.29,1.29,0,0,0,.34,1,1.87,1.87,0,0,0,1.18.28,3.47,3.47,0,0,0,.9-.14A4.51,4.51,0,0,0,285.79,95.48Zm.28-16.12a2.27,2.27,0,0,1-.76,1.71,2.73,2.73,0,0,1-3.67,0,2.24,2.24,0,0,1-.76-1.71,2.27,2.27,0,0,1,.76-1.72,2.73,2.73,0,0,1,3.67,0A2.31,2.31,0,0,1,286.07,79.36Z" style="fill:#fff"/><path d="M275,207.89a22.18,22.18,0,1,1,22.18-22.18A22.18,22.18,0,0,1,275,207.89Z" style="fill:#a6dae9"/><path d="M296.85,189.54l-12.42-12.42a2.09,2.09,0,0,0-.2-.22,4.19,4.19,0,0,0-3.81-.76h0l-.29.09-.06,0-.25.09-.09,0-.19.11a.67.67,0,0,0-.14.09,1,1,0,0,0-.13.09,1.59,1.59,0,0,0-.24.2,2.46,2.46,0,0,0-.63,2.17l-3.68-3.68c-.08-.08-.15-.16-.24-.24a5.19,5.19,0,0,0-4.45-1.07h0l-.4.09-.06,0-.35.11-.1,0a1.78,1.78,0,0,0-.29.12l-.15.07-.22.12-.19.13-.15.1a2.61,2.61,0,0,0-.31.27,3.44,3.44,0,0,0-.78,3.07c0,.42.1.84.14,1.26a.39.39,0,0,0-.24,0,.4.4,0,0,0-.36.45l.22,2.19a.41.41,0,0,0,.46.37.38.38,0,0,0,.25-.13c.06.48.11.95.17,1.43a1.75,1.75,0,0,0,.85,1.13c.08.51.15,1,.22,1.54a20,20,0,0,0-6.25,1.79,2.08,2.08,0,0,0-1,1.87c.07.77.15,1.54.23,2.31a1.66,1.66,0,0,0,.48,1h0l14.44,14.45A22.19,22.19,0,0,0,296.85,189.54Z" style="fill:#8fc4d7"/><path d="M287.72,187.11a16.87,16.87,0,0,0-4.22-1.4c.06-.4.11-.8.17-1.2a1.41,1.41,0,0,0,.67-.89c0-.37.08-.74.13-1.11a.35.35,0,0,0,.2.1.31.31,0,0,0,.35-.29l.18-1.72a.32.32,0,0,0-.29-.35.33.33,0,0,0-.19,0l.12-1a2.71,2.71,0,0,0-.61-2.41,4.19,4.19,0,0,0-5.23,0,2.71,2.71,0,0,0-.61,2.41c0,.33.07.65.11,1a.3.3,0,0,0-.19,0,.32.32,0,0,0-.28.35l.17,1.72a.33.33,0,0,0,.36.29.35.35,0,0,0,.2-.1c0,.37.09.74.13,1.11a1.34,1.34,0,0,0,.67.89c.05.4.11.8.17,1.2a15.57,15.57,0,0,0-4.89,1.4,1.61,1.61,0,0,0-.79,1.47q.07.9.18,1.8a1.35,1.35,0,0,0,1,1.14,35.62,35.62,0,0,0,12.1,0,1.35,1.35,0,0,0,1-1.14q.1-.9.18-1.8A1.63,1.63,0,0,0,287.72,187.11Z" style="fill:#1695a4"/><path d="M281.44,176a3.74,3.74,0,0,0-2.44.91,2.71,2.71,0,0,0-.61,2.41c0,.33.07.65.11,1a.3.3,0,0,0-.19,0,.32.32,0,0,0-.28.35l.17,1.72a.33.33,0,0,0,.36.29.35.35,0,0,0,.2-.1c0,.37.09.74.13,1.11a1.34,1.34,0,0,0,.67.89c.05.4.11.8.17,1.2a15.57,15.57,0,0,0-4.89,1.4,1.61,1.61,0,0,0-.79,1.47q.07.9.18,1.8a1.35,1.35,0,0,0,1,1.14,40.43,40.43,0,0,0,6.21.51Z" style="fill:#15b0bf"/><path d="M279.77,188.2a20,20,0,0,0-6.25-1.79l.21-1.54a1.73,1.73,0,0,0,.86-1.13c.05-.48.11-1,.16-1.43a.43.43,0,0,0,.26.13.4.4,0,0,0,.45-.37l.23-2.19a.4.4,0,0,0-.37-.45.42.42,0,0,0-.24,0l.15-1.26a3.44,3.44,0,0,0-.78-3.07,5.34,5.34,0,0,0-6.69,0,3.44,3.44,0,0,0-.78,3.07c0,.42.1.84.14,1.26a.39.39,0,0,0-.24,0,.4.4,0,0,0-.36.45l.22,2.19a.41.41,0,0,0,.46.37.38.38,0,0,0,.25-.13c.06.48.11.95.17,1.43a1.75,1.75,0,0,0,.85,1.13c.08.51.15,1,.22,1.54a20,20,0,0,0-6.25,1.79,2.08,2.08,0,0,0-1,1.87c.07.77.15,1.54.23,2.31a1.74,1.74,0,0,0,1.28,1.46,51.41,51.41,0,0,0,16.33,0,1.74,1.74,0,0,0,1.28-1.46c.08-.77.16-1.54.23-2.31A2.08,2.08,0,0,0,279.77,188.2Z" style="fill:#0e303f"/><path d="M270.88,174a4.75,4.75,0,0,0-3.12,1.17,3.44,3.44,0,0,0-.78,3.07c0,.42.1.84.14,1.26a.39.39,0,0,0-.24,0,.4.4,0,0,0-.36.45l.22,2.19a.41.41,0,0,0,.46.37.38.38,0,0,0,.25-.13c.06.48.11.95.17,1.43a1.75,1.75,0,0,0,.85,1.13c.08.51.15,1,.22,1.54a20,20,0,0,0-6.25,1.79,2.08,2.08,0,0,0-1,1.87c.07.77.15,1.54.23,2.31a1.74,1.74,0,0,0,1.28,1.46,50.42,50.42,0,0,0,7.94.65Z" style="fill:#2c5871"/><path d="M229.8,6.31C229.88,2.66,232.25,0,236,0c4.8,0,6.35,3,6.35,4.93,0,4.87-4.21,4.21-4.64,7.3v1h-3.45V12.05c.36-4.42,4.16-4,4.09-6.77A2,2,0,0,0,236.18,3c-1.83,0-2.62,1.5-2.62,3.32Zm4.11,8.42h4v3.93h-4Z" style="fill:#fff"/><polygon points="157.88 48.22 154.62 48.22 154.62 44.96 151.64 44.96 151.64 48.22 148.39 48.22 148.39 51.2 151.64 51.2 151.64 54.45 154.62 54.45 154.62 51.2 157.88 51.2 157.88 48.22" style="fill:#fff"/><polygon points="197.81 2.76 196.08 2.76 196.08 1.03 194.5 1.03 194.5 2.76 192.78 2.76 192.78 4.34 194.5 4.34 194.5 6.06 196.08 6.06 196.08 4.34 197.81 4.34 197.81 2.76" style="fill:#fff"/><path d="M243.76,235.91c.5-4.49-2.85-10.28-7.66-12.51-40.82-17.31-89.46-17.31-130.3,0-4.78,2.23-8.16,8-7.64,12.51q.86,7.72,1.73,15.44c.52,4.49,4.86,8.92,9.64,9.75a432.83,432.83,0,0,0,122.84,0c4.8-.83,9.12-5.26,9.66-9.75Q242.92,243.63,243.76,235.91Z" style="fill:#2c5871"/><path d="M236.1,223.4a167.66,167.66,0,0,0-66.74-12.94v55a433.1,433.1,0,0,0,63-4.36c4.8-.83,9.12-5.26,9.66-9.75q.89-7.72,1.73-15.44C244.26,231.42,240.91,225.63,236.1,223.4Z" style="fill:#0e303f"/><path d="M188.54,214.5c-.25,2.31-3.89,5.29-8.09,6a70.06,70.06,0,0,1-19,0c-4.21-.73-7.86-3.71-8.1-6l-3.24-22.87c-.2-2.37-1.61-8.69,4-12.77,8-6.49,25.72-6.49,33.75,0,5.56,4.08,4.13,10.4,3.93,12.77Q190.16,203.08,188.54,214.5Z" style="fill:#d1ecfb"/><path d="M197.18,190.43c-.39,4.19-5.82,9.58-12.09,10.91a86,86,0,0,1-28.27,0c-6.27-1.33-11.7-6.72-12.06-10.91q-2.43-20.75-4.84-41.45c-.29-4.3-2.4-15.77,5.88-23.16,12-11.76,38.33-11.76,50.32,0,8.27,7.39,6.16,18.86,5.86,23.16Q199.58,169.71,197.18,190.43Z" style="fill:#fff"/><path d="M187.84,178.86c-4.35-3.52-11.53-5.11-18.48-4.82v47.07a70.9,70.9,0,0,0,11.09-.59c4.2-.73,7.84-3.71,8.09-6q1.62-11.43,3.23-22.87C192,189.26,193.4,182.94,187.84,178.86Z" style="fill:#a6dae9"/><path d="M196.12,125.82c-6.33-6.21-16.66-9.11-26.76-8.76v85.42a85.5,85.5,0,0,0,15.73-1.14c6.27-1.33,11.7-6.72,12.09-10.91q2.38-20.75,4.8-41.45C202.28,144.68,204.39,133.21,196.12,125.82Z" style="fill:#d1ecfb"/><path d="M167.83,109.61,149,111.5c-8.06,1-14.13,6.19-13.56,11.63l1.68,16.72c.57,5.41,3.65,9.25,15.51,13.48a91.61,91.61,0,0,0,20.09,5Z" style="fill:#2c5871"/><path d="M167.79,109.61q9.42-.94,18.85-1.89c8.09-.66,15.07,3.27,15.59,8.71l1.68,16.72c.51,5.42-1.75,9.8-12.53,16.29a90.7,90.7,0,0,1-18.71,8.85Z" style="fill:#0e303f"/><path d="M171,141.85l-65.17-17.92,0-2.7,125.2-12.42.25,2.54Z" style="fill:#0e303f"/><path d="M170.79,139.32,105.62,121.4l60.31-30.51,65.18,17.92Z" style="fill:#2c5871"/><path d="M210.26,137.54a1.53,1.53,0,0,1-1.51-1.37l-1.44-14.39-40.52-11.14a1.52,1.52,0,0,1,.8-2.93l41.53,11.42a1.52,1.52,0,0,1,1.1,1.31l1.55,15.43a1.52,1.52,0,0,1-1.36,1.66Z" style="fill:#fec00f"/><path d="M207.74,122.52a1.73,1.73,0,0,1-.38,0l-38.83-10.68a1.42,1.42,0,0,1,.75-2.74l38.84,10.68a1.42,1.42,0,0,1-.38,2.79Z" style="fill:#f99b1c"/><path d="M175.9,108.83c.26,2.54-2.57,4.91-6.31,5.29s-7-1.39-7.23-3.94,2.57-4.91,6.3-5.29S175.65,106.28,175.9,108.83Z" style="fill:#0e303f"/><path d="M174.63,108c.2,1.93-2.73,3.79-6.52,4.17s-7-.87-7.22-2.79,2.73-3.78,6.52-4.16S174.44,106.08,174.63,108Z" style="fill:#2c5871"/><path d="M213.58,132.15a3.72,3.72,0,1,1-4.08-3.33A3.73,3.73,0,0,1,213.58,132.15Z" style="fill:#fec00f"/><path d="M212.63,139.59a2,2,0,0,1-1.82,2.23h0a2,2,0,0,1-2.23-1.83l-.72-7.21a2,2,0,0,1,1.82-2.22h0a2,2,0,0,1,2.23,1.82Z" style="fill:#fec00f"/><path d="M218.66,153.53c-1.72-1.25-2.4-4.35-4.14-12.72a4.08,4.08,0,0,0-4.1-3.31h-.09a4.07,4.07,0,0,0-3.35,4.06c0,8.55-.1,11.72-1.54,13.28-.33,2,2.81,4,7,3.57h.09C216.7,158,219.38,155.43,218.66,153.53Z" style="fill:#fec00f"/><path d="M209.46,142.88a5.06,5.06,0,0,1,1.63-3.51l-.31-3.05a4.12,4.12,0,0,1-2.23-3.2,4.19,4.19,0,0,1,2.33-4.16,3.67,3.67,0,0,0-4.7,3.93,3.63,3.63,0,0,0,2,2.85l.27,2.71a4.58,4.58,0,0,0-1.46,3.12c0,8.55-.09,11.72-1.53,13.28-.19,1.13.75,2.23,2.33,2.92C209.34,156,209.4,152.42,209.46,142.88Z" style="fill:#f99b1c"/><path d="M242.66,92.61a32.07,32.07,0,1,1,32.07-32.07A32.07,32.07,0,0,1,242.66,92.61Z" style="fill:#fec00f"/><path d="M274.68,62.35,251.47,39.14h0a.25.25,0,0,0-.1-.08l-3.77-1.76a.3.3,0,0,0-.39.16l-1.72,3.69-.16-.08a.37.37,0,0,0-.48.21l-.17.36a.36.36,0,0,0,.15.49l.16.08-.51,1.11a.3.3,0,0,0,0,.34.64.64,0,0,0-.08.14l-.65,1.4-.58-.27a.39.39,0,0,0-.52.18l-4.44,9.51a.38.38,0,0,0,.19.51l.58.27-.47,1c-.12.26-.11.51,0,.58l.36.16-1.47,3.13c-.08.18-.07.36,0,.4l0,0,8.92,8.91a9.68,9.68,0,0,1-.87.75l-2.9-2.89a.28.28,0,0,0-.12-.12l-12-5.62c-.2-.09-.45.05-.58.31l-.15.32a.55.55,0,0,0,0,.56h0l4,4-1.73-.81c-.2-.09-.5.15-.68.54l-.22.47c-.18.4-.18.78,0,.87h0l8.7,8.7h-11c-.49,0-.89.27-.89.61V79h-.38v1.2h0l12.26,12.26c.9.07,1.81.12,2.73.12A32.07,32.07,0,0,0,274.68,62.35Z" style="fill:#f99b1c"/><path d="M249.25,79.54V77.33c0-.34-.4-.61-.89-.61H228.92c-.49,0-.89.27-.89.61v2.21Z" style="fill:#2c5066"/><rect x="227.65" y="79.03" width="21.97" height="1.2" style="fill:#0e303f"/><path d="M248.76,52.26a9.52,9.52,0,0,0-2.09-.7L244,57.35c1.6-1.44,3.32-2,4.65-1.41,2.31,1.08,2.57,5.4.58,9.65s-5.47,6.83-7.78,5.75c-1.33-.62-2-2.32-1.9-4.47l-2.71,5.79a9.69,9.69,0,0,0,1.88,1.16c5.32,2.49,11.9-.32,14.68-6.28S254.09,54.75,248.76,52.26Z" style="fill:#1695a4"/><path d="M242.52,58.26c-.12.26-.32.41-.45.35L238.57,57c-.13-.07-.14-.32,0-.58l5.89-12.59c.11-.25.32-.41.45-.35l3.5,1.64c.13.06.14.32,0,.57Z" style="fill:#1695a4"/><path d="M240.25,61.57c-.08.18-.22.29-.31.25l-2.46-1.15c-.09,0-.1-.22,0-.4l4.14-8.84c.08-.18.22-.29.31-.24l2.46,1.15c.09,0,.1.22,0,.4Z" style="fill:#1695a4"/><path d="M244.08,57.35a.39.39,0,0,1-.51.19l-5.13-2.4a.38.38,0,0,1-.19-.51l4.44-9.51a.39.39,0,0,1,.52-.18l5.13,2.39a.39.39,0,0,1,.18.52Z" style="fill:#fff"/><path d="M248.76,45.33a.3.3,0,0,1-.39.16l-3.77-1.76a.29.29,0,0,1-.12-.4l2.73-5.86a.3.3,0,0,1,.39-.16l3.77,1.76a.3.3,0,0,1,.13.4Z" style="fill:#fff"/><path d="M249.91,44.1a.36.36,0,0,1-.47.2l-4.61-2.16a.36.36,0,0,1-.15-.49l.17-.36a.37.37,0,0,1,.48-.21l4.6,2.16a.36.36,0,0,1,.15.49Z" style="fill:#1695a4"/><path d="M240.23,71.21a.38.38,0,0,1-.51.19L235,69.21a.38.38,0,0,1-.19-.51l.11-.24a.38.38,0,0,1,.51-.18l4.69,2.19a.38.38,0,0,1,.18.51Z" style="fill:#1695a4"/><path d="M236.6,69.66c-.18.39-.49.63-.68.55L231.23,68c-.19-.09-.19-.47,0-.87l.22-.47c.18-.39.48-.63.68-.54l4.68,2.19c.19.09.2.48,0,.87Z" style="fill:#2c5066"/><path d="M241.58,68.84c-.18.39-.48.64-.68.55l-4.68-2.19c-.19-.09-.2-.48,0-.87l.22-.48c.18-.39.49-.63.68-.54l4.69,2.19c.19.09.2.48,0,.87Z" style="fill:#1695a4"/><path d="M249.27,53.58a2.67,2.67,0,1,1-4.84-2.26,2.67,2.67,0,1,1,4.84,2.26Z" style="fill:#1695a4"/><path d="M248.84,53.38a2.19,2.19,0,1,1-1.06-2.91A2.19,2.19,0,0,1,248.84,53.38Z" style="fill:#2c5066"/><path d="M242.51,68.3a.47.47,0,0,1-.57.31l-12-5.62a.48.48,0,0,1-.13-.64l.15-.32c.13-.26.38-.4.58-.31l12,5.62a.47.47,0,0,1,.12.64Z" style="fill:#2c5066"/><path d="M248,78l-1.68-4.24c-.44-1.13-1.15-2-2.33-2a2,2,0,0,0-1.71,2L241.94,78Z" style="fill:#2c5066"/><path d="M245.44,73.46a1.3,1.3,0,1,1-1.3-1.29A1.3,1.3,0,0,1,245.44,73.46Z" style="fill:#1695a4"/><path d="M207.15,60.16a22.6,22.6,0,0,0,0-45.2Z" style="fill:#d1ecfb"/><path d="M207.15,15a22.6,22.6,0,0,0,0,45.2Z" style="fill:#fff"/><path d="M228.77,43.7c-.3,0-.68.15-.69.25s-.42.29-.55.34a1.8,1.8,0,0,0-.46.62c-.06.13-.39.09-.52.15s-.37.26-.38.38-.07.11-.15,0l-.16.17-.19.22a1.84,1.84,0,0,1-.61.82c-.12,0-.15.64-.15.89a1.16,1.16,0,0,0,.21.67l0,.2,0,.39a.68.68,0,0,0,.23.62,3.31,3.31,0,0,0,.84-.15,1.09,1.09,0,0,0,.3-.13,22.31,22.31,0,0,0,2.33-5.39Z" style="fill:#1695a4"/><path d="M191.45,44.28c0,.06.38.48.53.62a4,4,0,0,1,.56,1,1.68,1.68,0,0,1,0,.67,1.12,1.12,0,0,0,.09.36,5.12,5.12,0,0,0-.08,1c.06.27-.32,1.1-.31,1.51s.2,1,.28.92.1.37,0,.42-.27.38-.2.4,0,.34,0,.47.13,1,.15,1.21a6.26,6.26,0,0,0,.4.91c.06.18.13.52.15.57l.06.1s.26.1.33.15a1.89,1.89,0,0,0,.71,0c.16,0,0-.18-.06-.26s-.13-.46-.21-.5-.12-.52-.05-.63.36-.28.4-.37,0-.51,0-.57,0-.57,0-.83.44-.49.47-.69.58-.42.7-.52a1.29,1.29,0,0,0,.17-.81c-.06-.12.2-.22.32-.22s.24-.09.29-.09.18-.25.25-.31.23-.67.37-.77a1.11,1.11,0,0,0,.24-.58,1.69,1.69,0,0,1,.28-.53,3.08,3.08,0,0,1,.66-.37,4.23,4.23,0,0,0,.27-1.14,6.83,6.83,0,0,1,.19-.78c0-.1.18-.18.21-.21a4,4,0,0,1,.23-.49,2.22,2.22,0,0,0,.36-.52,3.62,3.62,0,0,1,.1-.46v-.51c-.09-.25-.36-.56-.43-.49s-.38-.21-.55-.27a2.94,2.94,0,0,0-.65-.11c-.11,0-.46-.29-.61-.34s-.56-.13-.63-.17-.17-.64-.49-.84a3.22,3.22,0,0,1-1-.81c-.06-.17-.68-.52-.87-.62a.74.74,0,0,0-.52-.09s-.27-.32-.4-.43-.49-.18-.5-.09-.27,0-.33,0-.24,0-.33.07-.4.49-.54.61-.31-.11-.4-.15a1,1,0,0,0-.55.14c-.09.07-.32-.5-.27-.76s-.23-.77-.45-.79-.29-.55-.24-.75-.4-.33-.51-.34-.39.26-.43.4-1-.19-.93-.79a2.64,2.64,0,0,1,.71-1.29,1.82,1.82,0,0,1,.9,0,.23.23,0,0,0,.29,0,1.74,1.74,0,0,1,.71.07c.15.06.38.66.54.74s.22-.39.25-.51a1.26,1.26,0,0,0-.12-.48,1.67,1.67,0,0,1,.51-.94,1.14,1.14,0,0,0,.48-.6c0-.08.2-.13.25-.16s0-.63.09-.76a3.26,3.26,0,0,1,.7-.46.52.52,0,0,0,.2-.5c-.05-.07.38-.43.6-.5s.42.13.37.16l.48-.27c.15-.1,0-.38-.1-.47s0-.4.08-.43.22-.31.19-.36.49,0,.69-.11.06.36-.09.56.11.39.2.36.2.1.21.16.22-.06.35,0,.21-.18.23-.29-.32-.34-.37-.47a8.93,8.93,0,0,1-.08-1.05c0-.16-.22-.42-.28-.37s-.21-.41-.32-.51a.56.56,0,0,1-.13-.38c0-.08-.37-.47-.46-.65s-.22-.14-.22-.06-.27.09-.38.08-.2-.42-.2-.58-.48-.18-.56-.31-.4-.06-.45-.15a.5.5,0,0,0-.38-.14c-.06,0,0,1.16-.08,1.46s-.31.57-.41.57,0,.21,0,.19-.18.33-.22.56-.26,0-.3-.21-.27-.5-.31-.42-.2-.09-.27-.05-.5-.25-.67-.34-.27-.63-.37-.68,0-.11,0-.19.33-.39.44-.52a5.84,5.84,0,0,1,.62-.71.63.63,0,0,0,.24-.44A3.71,3.71,0,0,1,192,24c.18-.06.34-.56.36-.71a.59.59,0,0,0-.19-.45c-.09,0,.25,0,.35,0s.46-.1.59,0,.41.23.6.36l0,.36-.08.62c-.52.22-.67.59-.49.58a4.49,4.49,0,0,1,1.25.53c.23.17.31-.24.38-.38a1,1,0,0,0,0-.61c-.06-.08.27-.05.36,0s.2-.09.27-.13.11-.37.15-.44-.16-.14-.16-.22-.38-.25-.5-.31a.28.28,0,0,1-.09-.36s-.05-.37-.11-.48-.45-.19-.58-.19-.26-.31-.33-.35a2,2,0,0,0-.7-.06c-.13,0-.35-.36-.56-.24s-.43-.14-.52-.19-.59.47-.58.84a1,1,0,0,0,.27.74c.07,0,0,.34-.11.44s-.29-.1-.21-.18-.21-.47-.31-.63-.33-.22-.5-.29l-.3.34a.74.74,0,0,1,0,.44c-.07.22-.26.26-.27.16s-.1-.07-.21-.09a22.46,22.46,0,0,0-5.08,11.81,1.29,1.29,0,0,1,.26.38c.07.2.41.33.48.37s.08-.38,0-.49.08-.17.08-.09.32.45.43.58.22,1,.32,1.18a4.06,4.06,0,0,0,1.42.64,1.67,1.67,0,0,1,.79.53c.06.1.48.15.58.19s.3.33.4.39a.48.48,0,0,1,.16.28s.56.26.7.41a.29.29,0,0,0,.4,0c0-.06.15.3.21.43a.81.81,0,0,1,0,.48s-.13.61-.22.72a2.76,2.76,0,0,0-.25,1.1,1.25,1.25,0,0,0,.42.55c.11,0,.06.22,0,.24s-.05.79.17.91A.77.77,0,0,1,191.45,44.28Z" style="fill:#1695a4"/><path d="M194.11,30.52h0Z" style="fill:#1695a4"/><path d="M192.57,21c.27,0,.72-.12.75-.2a.42.42,0,0,0,0-.31h.14c.1,0,.27-.56.38-.69a6.35,6.35,0,0,1,.87-.42,4.89,4.89,0,0,1,.6-.43c.12,0,.3-.33.27-.39s.42-.33.59-.4.26-.27.2-.28-1,.49-1.85,1a22.25,22.25,0,0,0-2.78,2.23C192,21.07,192.39,21,192.57,21Z" style="fill:#1695a4"/><path d="M208.91,49.11a7.45,7.45,0,0,0,1-1,2.53,2.53,0,0,0,.31-.82.81.81,0,0,1,.37-.34c.09,0,.38-1.25.64-1.51a4.48,4.48,0,0,0,.53-2,6.69,6.69,0,0,1,.22-1.56,2.1,2.1,0,0,1,.49-.66,14.33,14.33,0,0,0,.92-1.33,2.87,2.87,0,0,0,.35-1.22c0-.17-.47-.29-.55-.21a1.38,1.38,0,0,1-.62.15c-.13,0-.43-.69-.61-.84s-.35-.94-.46-1.09-.41-.53-.5-.62-.11-.51-.13-.63.18.08.22.25a6.93,6.93,0,0,0,.66,1.07c.15.23.54,1,.64,1.19s1,.11,1.25,0a1.72,1.72,0,0,0,.64-.44c0-.07.47-.28.59-.38s.23-.62.32-.71-.07-.58-.16-.73a.84.84,0,0,0-.64-.21c-.09.06-.28-.33-.35-.47s-.42-.33-.45-.42.09-.26.14-.29a2.81,2.81,0,0,1,.88.63,4.17,4.17,0,0,1,.42.7.9.9,0,0,0,.65,0c.11-.08.24-.06.28.05l.16,0,.55-.08a1.05,1.05,0,0,1,.33.58.6.6,0,0,0,.27.31c.11,0,.18.38.22.47s.34.63.41.86a5.82,5.82,0,0,0,.39.79,1.71,1.71,0,0,1,.12.55.41.41,0,0,0,.33.27c.12,0,.37-.8.43-1.09a.81.81,0,0,1,.32-.53c.06,0,.1-.17.1-.23s.32-.06.35-.14.12-.6.24-.68a4.25,4.25,0,0,1,.66-.39c.14,0,.5.26.58.41a1.12,1.12,0,0,1,.12.57c0,.07.19.39.39.38s.25.24.26.33.26.35.31.47a1.05,1.05,0,0,1,0,.5,1.55,1.55,0,0,0,0,.6,4.86,4.86,0,0,0,.85.9c.22.18.32-.37.21-.55s-.5-.57-.59-.69a1.4,1.4,0,0,1-.07-.73c0-.14.33.07.46.17a1,1,0,0,1,.3.39c0,.07.8-.38.82-.86a5.22,5.22,0,0,1,.32-1.15c0-.13-.07-.31-.14-.31s.12-.37.34-.37.76-.59.89-.82a1.92,1.92,0,0,1,.41-.47,3.81,3.81,0,0,0,.24-.82,2.44,2.44,0,0,0-.15-.71,2.48,2.48,0,0,0-.27-.48,1.15,1.15,0,0,1-.06-.47c0-.06.23-.13.25-.18s.25-.3.24-.41.14.14.24.23.22.66.35.73.66-.61.59-1.05a1.36,1.36,0,0,1,.29-1,3.16,3.16,0,0,0,.51-.64,22.68,22.68,0,0,0-5.57-8.77h-.08l-.2,0c-.32-.07-.51-.41-.45-.49a.31.31,0,0,0,0-.16l-.55-.48h-.41a1.93,1.93,0,0,1-.69-.22c-.08-.08-.33.07-.34.21s-.46.2-.5.31a.25.25,0,0,1-.32.05c0-.06-.45.15-.66.18a3.35,3.35,0,0,0-.68.23,1.1,1.1,0,0,0-.34.34c0,.09-.3.24-.38.27s-.07.41,0,.47-.2,0-.34-.12-.28.16-.33.24-.17,0-.16-.16-.34-.2-.38-.11-.29,0-.38-.08-.53.39-.69.55a1.92,1.92,0,0,1-1.05.22c-.14-.06-.28.33-.16.36s-.31,0-.54,0a3.68,3.68,0,0,0-1.08.42.17.17,0,0,1-.29-.12c0-.1-.26-.18-.34-.21s-.23.51-.36.62-.3-.42-.62-.51-.81-.39-1-.43a1.91,1.91,0,0,1-.51-.42,1.48,1.48,0,0,0-.61-.15,2.09,2.09,0,0,0-.67.33c-.11.1-.28.08-.34.11s-.53.5-.72.65a6.37,6.37,0,0,0-.61.92.42.42,0,0,1-.32.18c-.06,0-.11.17-.11.24s-.55.34-.6.59a5.58,5.58,0,0,0,0,1c0,.2.2.6.35.61s.08.34,0,.43.09.2.09.28-.39.19-.5.24a.84.84,0,0,0-.33.4c0,.09-.39.15-.51.27,0-.08.07-.2.1-.27a.43.43,0,0,0-.08-.41c-.06,0-.09-.7-.18-.84a2.93,2.93,0,0,0-.38-.43c-.05,0,0-.22.08-.29s-.31-.12-.4-.06-.15.7-.19.88a.62.62,0,0,0,.23.47s0,.33-.08.34-.23.48-.17.58-.08.32-.15.37.45,0,.7,0a.58.58,0,0,1,.4.12s-.46.09-.54.19-.37.3-.43.38.1.26.22.25.27.43.37.51a.4.4,0,0,1,0,.38c0,.06-.63-.05-.86,0s-.51.53-.52.71a3.69,3.69,0,0,0,.06.83c0,.14.5.23.59.3s.55,0,.64.05.39-.46.46-.69.53-.66.63-.81.61-.14.74-.22.06.39.12.65.55.22.48,0,.05-.35.07-.26.49.28.58.42.06.42,0,.42-.11.32,0,.35.26-.36.38-.42.22-.31.16-.33.1-.24.17-.16a2.45,2.45,0,0,0-.46-.69c-.2-.2-.05-.11.32.2l.26.37c.05.06.12.26.17.33l.06.11a2.57,2.57,0,0,1,.09.57.42.42,0,0,0,.33.27c.12,0,.22.06.19.07s.08.24.21.25.17-.31.05-.32-.11-.47-.12-.67.09-.36.13-.36,0,.41,0,.5a1.25,1.25,0,0,0,.11.42l.13.1.28.22c.41-.13,1,0,.94.05s.3.1.32,0,0,0,0,.1-.27.45-.32.62-1,.06-1.39,0-1,.1-1,.22-.68-.27-1-.4-.51-.56-.57-.62.05-.2,0-.29-.69-.11-.89,0-1.19.17-1.42.28a1.31,1.31,0,0,1-.7,0c-.11,0-.38.31-.51.36s-.3.52-.38,1l-.18.35-.12.23a5.07,5.07,0,0,0-.79,1.25,7.79,7.79,0,0,0-.2,1.77,5.65,5.65,0,0,0,.46,1.5,3.62,3.62,0,0,0,.91.88,3.27,3.27,0,0,0,1.08.14.66.66,0,0,0,.55-.46l.32,0,.14,0c0,.18.48.32.6.38a.88.88,0,0,0,.51,0c.09,0,.2.8.13,1a5.31,5.31,0,0,0,.23,1.34c.07.25.36.94.39,1.19a12,12,0,0,1-.21,1.37,5.24,5.24,0,0,0,.47,1.38,4.7,4.7,0,0,1,.19,1c0,.14.43,1,.53,1.32S208.62,49.28,208.91,49.11Z" style="fill:#1695a4"/><path d="M227.54,38.85c0,.06.3-.15.47-.18s.26-.46.13-.49-.28-.37-.38-.41-.27.14-.26.28-.3.18-.35.29-.06.19,0,.18S227.52,38.79,227.54,38.85Z" style="fill:#1695a4"/><path d="M227.21,41.23c.08,0,0-.46-.18-.5s-.64.57-.55.92.19.32.24.25.33.05.41.07.08,0,0-.18A.64.64,0,0,1,227.21,41.23Z" style="fill:#1695a4"/><path d="M226.29,40.81c0-.16.05-.64.07-.74s-.26-.37-.4-.42-.6.94-.93,1.12a.94.94,0,0,0-.36.91c.09.14.77.21.89.32s.25,0,.32,0,.05-.06,0-.08.24-.29.27-.47S226.27,41,226.29,40.81Z" style="fill:#1695a4"/><path d="M224.43,42.45a.5.5,0,0,0-.58.16,7.26,7.26,0,0,0,1.32.35c.34.09.54.12.47.06S224.69,42.55,224.43,42.45Z" style="fill:#1695a4"/><path d="M226.48,35.88c.08-.12-.11-.65-.21-.53s0,.43,0,.54S226.4,36,226.48,35.88Z" style="fill:#1695a4"/><path d="M227.09,37c.06-.14-.07-.29-.29-.33s-.19.61-.09.69S227,37.15,227.09,37Z" style="fill:#1695a4"/><path d="M228.23,41.09c.26.18.84.1.86-.26C228.83,40.66,228.21,40.69,228.23,41.09Z" style="fill:#1695a4"/><path d="M228.09,33a.35.35,0,0,0-.13.35h-.05c-.09,0-.1.34,0,.4s.31-.27.42-.34a.6.6,0,0,1,.38-.1,1.06,1.06,0,0,0,.45-.14.33.33,0,0,0,.13-.15c0-.26-.11-.5-.17-.75l-.29.21A8.12,8.12,0,0,1,228.09,33Z" style="fill:#1695a4"/><path d="M222.11,40h0C222.07,39.93,222.07,39.92,222.11,40Z" style="fill:#1695a4"/><path d="M223.74,41.48a2.59,2.59,0,0,0-.69-.81l-.11-.18-.12-.2c-.11-.21-.43-.38-.46-.45s-.13.19-.24.12l.35.25a16,16,0,0,1,1,1.79C223.62,42.1,223.84,41.69,223.74,41.48Z" style="fill:#1695a4"/><path d="M219.08,39.1c-.08.17.43.52.47.44a1,1,0,0,0-.16-.58C219.3,38.87,219.16,38.93,219.08,39.1Z" style="fill:#1695a4"/><path d="M212.25,47c0,.18.37.31.48.29a2,2,0,0,0,.43-.71,3.53,3.53,0,0,0,.07-.56.52.52,0,0,1,.09-.28.93.93,0,0,0,.14-.39,10.36,10.36,0,0,0-.22-1.3c0-.16-.19.09-.24.25s-.51.5-.61.64a1.45,1.45,0,0,0-.18.7,1.08,1.08,0,0,1-.08.49A4.29,4.29,0,0,0,212.25,47Z" style="fill:#1695a4"/><path d="M195.59,53.39h.31C196,53.05,195.57,53.11,195.59,53.39Z" style="fill:#1695a4"/><path d="M203.87,18.42a1.07,1.07,0,0,1-.53-.12,1.34,1.34,0,0,0-.71-.05c-.14.06,0-.36.16-.4s0-.33-.18-.33-.75-.08-.88-.06a1.35,1.35,0,0,1-.46-.1,9.87,9.87,0,0,1-1,.18,8.55,8.55,0,0,0-1.21.06c-.16,0-.28.36-.25.47s-.72.11-.95.11a8,8,0,0,0-1.81.45c-.33.18-.58.64-.47.65s-.18.26-.36.33-.59.08-.69.18.11.17.14.23.16-.06.27,0,.47.09.57.13-.31.11-.5.13-.15.38,0,.43.55.11.59.05.48.07.68.09.34.51.4.62a1.64,1.64,0,0,1,.06.58c0,.11.34.31.41.24s0,.17-.1.16-.05.4.13.46.05.31,0,.39-.05.32-.15.41.37.91.37,1.33.26.77.36.77.45.09.49.18.22-.06.28-.13a3.42,3.42,0,0,0,.32-.46c.11-.18.34-1,.38-1.12s.43,0,.52-.08.35-.25.43-.31.64-.3.79-.42.42-.59.54-.69-.06-.08-.21-.18-.09-.22,0-.26a1.75,1.75,0,0,1,.66.13c.16.07.46-.15.34-.24s-.05-.08,0,0,.12-.28.06-.34.46-.44.37-.81.14-.73.28-.73.1-.41-.07-.45,0-.07.06-.13a.85.85,0,0,0,.1-.49c0-.07.26-.15.31-.23a1.55,1.55,0,0,1,.51-.27C203.93,18.72,204,18.4,203.87,18.42Z" style="fill:#1695a4"/><path d="M206.81,18.71c-.16-.05-.48.13-.44.23s-.27-.13-.49,0-.27.49-.17.54.17.35.17.4.42,0,.53-.07.09.31,0,.41,0,.32.16.34.27.29.39.28.32-.46.36-.63.45,0,.63,0,.25-.63,0-.73-.44-.05-.52-.13a.74.74,0,0,0-.31-.17C207.06,19.17,207,18.77,206.81,18.71Z" style="fill:#1695a4"/><path d="M208.39,19a1.12,1.12,0,0,0,.76-.29c.07-.08-.89-.27-1.25-.28s-.67,0-.66.11A3.5,3.5,0,0,0,208.39,19Z" style="fill:#1695a4"/><path d="M202.57,27.66c-.08,0-.13.29-.11.4s.32.11.44.09a.24.24,0,0,0,.22-.22c0-.11-.19-.58-.26-.58S202.66,27.7,202.57,27.66Z" style="fill:#1695a4"/><path d="M203.52,24c-.07-.12-.57-.11-.69-.11a1.5,1.5,0,0,1-.57-.21c-.07-.08-.12.3-.23.35s.05.13.1.09,0,.2-.06.28.34.14.38.26a.32.32,0,0,0,.35.19c.15,0,.46-.18.56-.19S203.58,24.11,203.52,24Z" style="fill:#1695a4"/><path d="M214,21.13c.17-.17.88-.4,1-.58a.22.22,0,0,0-.12-.32c-.07,0-.16.09-.18.11s-.83.22-1.07.34a3.36,3.36,0,0,0-.65.41c-.1.11-.27.91-.34,1s.27.41.42.5a.55.55,0,0,0,.41,0,2.25,2.25,0,0,0-.16-.78C213.22,21.66,213.85,21.31,214,21.13Z" style="fill:#1695a4"/><path d="M213.15,19c.27.26.42-.12.71-.08C213.85,18.42,213.13,18.6,213.15,19Z" style="fill:#1695a4"/><path d="M218.34,19.14c0,.1.74.18,1,.14s0-.38-.36-.36S218.35,19,218.34,19.14Z" style="fill:#1695a4"/><path d="M191.31,24.67c-.08.08,0,.44.14.45s.38-.55.57-.44.3.16.27.1-.55-.28-.61-.33S191.39,24.6,191.31,24.67Z" style="fill:#1695a4"/><path d="M193.21,37.07c0,.07.33.06.39,0s0-.18-.07-.18S193.21,37,193.21,37.07Z" style="fill:#1695a4"/><path d="M191.77,36.54c.15,0,.08.22.12.31s.41.16.48.23.27-.12.42-.1,0-.52-.3-.5-.45-.23-.51-.26a2.7,2.7,0,0,1-.43-.27,3.85,3.85,0,0,0-.94-.12.72.72,0,0,0-.49.29c0,.08.35.13.45.07a1.07,1.07,0,0,1,.72.18A.57.57,0,0,0,191.77,36.54Z" style="fill:#1695a4"/><path d="M191.08,37.07c0,.07.33,0,.41,0s.08-.05,0-.12S191.08,37,191.08,37.07Z" style="fill:#1695a4"/><path d="M191.32,35.38c-.09,0-.16.1-.16.17a.11.11,0,0,0,.11.11C191.33,35.66,191.4,35.42,191.32,35.38Z" style="fill:#1695a4"/><path d="M192,35.44a.31.31,0,0,0-.22-.12s-.07.11-.06.24S192,35.5,192,35.44Z" style="fill:#1695a4"/><path d="M192.5,36.2c.13-.07.15-.22.07-.21s-.22-.23-.31-.27-.15.14-.15.22,0,.13.1.12S192.37,36.26,192.5,36.2Z" style="fill:#1695a4"/><path d="M229.22,41.36c-.07,0-.4.08-.45,0s-.11.14-.18.17,0,.2.08.15.38.14.64.3c.05-.25.1-.51.14-.77C229.35,41.27,229.26,41.34,229.22,41.36Z" style="fill:#1695a4"/><path d="M191.45,44.28c0,.06.38.48.53.62a4,4,0,0,1,.56,1,1.68,1.68,0,0,1,0,.67,1.12,1.12,0,0,0,.09.36,5.12,5.12,0,0,0-.08,1c.06.27-.32,1.1-.31,1.51s.2,1,.28.92.1.37,0,.42-.27.38-.2.4,0,.34,0,.47.13,1,.15,1.21a6.26,6.26,0,0,0,.4.91c.06.18.13.52.15.57l.06.1s.26.1.33.15a1.89,1.89,0,0,0,.71,0c.16,0,0-.18-.06-.26s-.13-.46-.21-.5-.12-.52-.05-.63.36-.28.4-.37,0-.51,0-.57,0-.57,0-.83.44-.49.47-.69.58-.42.7-.52a1.29,1.29,0,0,0,.17-.81c-.06-.12.2-.22.32-.22s.24-.09.29-.09.18-.25.25-.31.23-.67.37-.77a1.11,1.11,0,0,0,.24-.58,1.69,1.69,0,0,1,.28-.53,3.08,3.08,0,0,1,.66-.37,4.23,4.23,0,0,0,.27-1.14,6.83,6.83,0,0,1,.19-.78c0-.1.18-.18.21-.21a4,4,0,0,1,.23-.49,2.22,2.22,0,0,0,.36-.52,3.62,3.62,0,0,1,.1-.46v-.51c-.09-.25-.36-.56-.43-.49s-.38-.21-.55-.27a2.94,2.94,0,0,0-.65-.11c-.11,0-.46-.29-.61-.34s-.56-.13-.63-.17-.17-.64-.49-.84a3.22,3.22,0,0,1-1-.81c-.06-.17-.68-.52-.87-.62a.74.74,0,0,0-.52-.09s-.27-.32-.4-.43-.49-.18-.5-.09-.27,0-.33,0-.24,0-.33.07-.4.49-.54.61-.31-.11-.4-.15a1,1,0,0,0-.55.14c-.09.07-.32-.5-.27-.76s-.23-.77-.45-.79-.29-.55-.24-.75-.4-.33-.51-.34-.39.26-.43.4-1-.19-.93-.79a2.64,2.64,0,0,1,.71-1.29,1.82,1.82,0,0,1,.9,0,.23.23,0,0,0,.29,0,1.74,1.74,0,0,1,.71.07c.15.06.38.66.54.74s.22-.39.25-.51a1.26,1.26,0,0,0-.12-.48,1.67,1.67,0,0,1,.51-.94,1.14,1.14,0,0,0,.48-.6c0-.08.2-.13.25-.16s0-.63.09-.76a3.26,3.26,0,0,1,.7-.46.52.52,0,0,0,.2-.5c-.05-.07.38-.43.6-.5s.42.13.37.16l.48-.27c.15-.1,0-.38-.1-.47s0-.4.08-.43.22-.31.19-.36.49,0,.69-.11.06.36-.09.56.11.39.2.36.2.1.21.16.22-.06.35,0,.21-.18.23-.29-.32-.34-.37-.47a8.93,8.93,0,0,1-.08-1.05c0-.16-.22-.42-.28-.37s-.21-.41-.32-.51a.56.56,0,0,1-.13-.38c0-.08-.37-.47-.46-.65s-.22-.14-.22-.06-.27.09-.38.08-.2-.42-.2-.58-.48-.18-.56-.31-.4-.06-.45-.15a.5.5,0,0,0-.38-.14c-.06,0,0,1.16-.08,1.46s-.31.57-.41.57,0,.21,0,.19-.18.33-.22.56-.26,0-.3-.21-.27-.5-.31-.42-.2-.09-.27-.05-.5-.25-.67-.34-.27-.63-.37-.68,0-.11,0-.19.33-.39.44-.52a5.84,5.84,0,0,1,.62-.71.63.63,0,0,0,.24-.44A3.71,3.71,0,0,1,192,24c.18-.06.34-.56.36-.71a.59.59,0,0,0-.19-.45c-.09,0,.25,0,.35,0s.46-.1.59,0,.41.23.6.36l0,.36-.08.62c-.52.22-.67.59-.49.58a4.49,4.49,0,0,1,1.25.53c.23.17.31-.24.38-.38a1,1,0,0,0,0-.61c-.06-.08.27-.05.36,0s.2-.09.27-.13.11-.37.15-.44-.16-.14-.16-.22-.38-.25-.5-.31a.28.28,0,0,1-.09-.36s-.05-.37-.11-.48-.45-.19-.58-.19-.26-.31-.33-.35a2,2,0,0,0-.7-.06c-.13,0-.35-.36-.56-.24s-.43-.14-.52-.19-.59.47-.58.84a1,1,0,0,0,.27.74c.07,0,0,.34-.11.44s-.29-.1-.21-.18-.21-.47-.31-.63-.33-.22-.5-.29l-.3.34a.74.74,0,0,1,0,.44c-.07.22-.26.26-.27.16s-.1-.07-.21-.09l-.3.37-.29.37-.3.41-.26.36c-.13.19-.26.37-.38.56s-.24.36-.35.54l-.29.48c-.06.11-.12.22-.19.33l-.27.51-.15.29c-.21.4-.4.8-.58,1.21,0,0,0,0,0,0-.09.2-.18.41-.26.61l-.09.24-.24.64a.76.76,0,0,1,0,.11c-.25.72-.46,1.45-.64,2.2l0,.15a20.75,20.75,0,0,0-.41,2.38h0a1.29,1.29,0,0,1,.26.38c.07.2.41.33.48.37s.08-.38,0-.49.08-.17.08-.09.32.45.43.58.22,1,.32,1.18a4.06,4.06,0,0,0,1.42.64,1.67,1.67,0,0,1,.79.53c.06.1.48.15.58.19s.3.33.4.39a.48.48,0,0,1,.16.28s.56.26.7.41a.29.29,0,0,0,.4,0c0-.06.15.3.21.43a.81.81,0,0,1,0,.48s-.13.61-.22.72a2.76,2.76,0,0,0-.25,1.1,1.25,1.25,0,0,0,.42.55c.11,0,.06.22,0,.24s-.05.79.17.91A.77.77,0,0,1,191.45,44.28Z" style="fill:#15b0bf"/><path d="M194.12,30.52h0Z" style="fill:#15b0bf"/><path d="M192.57,21c.27,0,.72-.12.75-.2a.42.42,0,0,0,0-.31h.14c.1,0,.27-.56.38-.69a6.35,6.35,0,0,1,.87-.42,4.89,4.89,0,0,1,.6-.43c.12,0,.3-.33.27-.39s.42-.33.59-.4.26-.27.2-.28-1,.49-1.85,1l0,0-.73.52-.48.37L193,20l-.56.47-.12.1-.6.55C192,21.07,192.39,21,192.57,21Z" style="fill:#15b0bf"/><path d="M206.87,32c-.11,0-.11.32,0,.35s.18-.18.28-.31V30.8l0,0c-.13-.13-.11-.14,0,0V23l-.3.26a6.37,6.37,0,0,0-.61.92.42.42,0,0,1-.32.18c-.06,0-.11.17-.11.24s-.55.34-.6.59a5.58,5.58,0,0,0,0,1c0,.2.2.6.35.61s.08.34,0,.43.09.2.09.28-.39.19-.5.24a.84.84,0,0,0-.33.4c0,.09-.39.15-.51.27,0-.08.07-.2.1-.27a.43.43,0,0,0-.08-.41c-.06,0-.09-.7-.18-.84a2.93,2.93,0,0,0-.38-.43c-.05,0,0-.22.08-.29s-.31-.12-.4-.06-.15.7-.19.88a.62.62,0,0,0,.23.47s0,.33-.08.34-.23.48-.17.58-.08.32-.15.37.45,0,.7,0a.58.58,0,0,1,.4.12s-.46.09-.54.19-.37.3-.43.38.1.26.22.25.27.43.37.51a.4.4,0,0,1,0,.38c0,.06-.63-.05-.86,0s-.51.53-.52.71a3.69,3.69,0,0,0,.06.83c0,.14.5.23.59.3s.55,0,.64.05.39-.46.46-.69.53-.66.63-.81.61-.14.74-.22.06.39.12.65.55.22.48,0,.05-.35.07-.26.49.28.58.42S207,32,206.87,32Z" style="fill:#15b0bf"/><path d="M207.15,33.55l-.26-.13c-.29-.12-.51-.56-.57-.62s.05-.2,0-.29-.69-.11-.89,0-1.19.17-1.42.28a1.31,1.31,0,0,1-.7,0c-.11,0-.38.31-.51.36s-.3.52-.38,1l-.18.35-.12.23a5.07,5.07,0,0,0-.79,1.25,7.79,7.79,0,0,0-.2,1.77,5.65,5.65,0,0,0,.46,1.5,3.62,3.62,0,0,0,.91.88,3.27,3.27,0,0,0,1.08.14.66.66,0,0,0,.55-.46l.32,0,.14,0c0,.18.48.32.6.38a.88.88,0,0,0,.51,0c.09,0,.2.8.13,1a5.31,5.31,0,0,0,.23,1.34c.07.25.36.94.39,1.19a12,12,0,0,1-.21,1.37,5.24,5.24,0,0,0,.47,1.38,4.7,4.7,0,0,1,.19,1,3.45,3.45,0,0,0,.23.6Z" style="fill:#15b0bf"/><path d="M195.59,53.39h.31C196,53.05,195.57,53.11,195.59,53.39Z" style="fill:#15b0bf"/><path d="M201.85,22.48c.16.07.46-.15.34-.24s-.05-.08,0,0,.12-.28.06-.34.46-.44.37-.81.14-.73.28-.73.1-.41-.07-.45,0-.07.06-.13a.85.85,0,0,0,.1-.49c0-.07.26-.15.31-.23a1.55,1.55,0,0,1,.51-.27c.12,0,.19-.35.06-.33a1.07,1.07,0,0,1-.53-.12,1.34,1.34,0,0,0-.71-.05c-.14.06,0-.36.16-.4s0-.33-.18-.33-.75-.08-.88-.06a1.35,1.35,0,0,1-.46-.1,9.87,9.87,0,0,1-1,.18,8.55,8.55,0,0,0-1.21.06c-.16,0-.28.36-.25.47s-.72.11-.95.11a8,8,0,0,0-1.81.45c-.33.18-.58.64-.47.65s-.18.26-.36.33-.59.08-.69.18.11.17.14.23.16-.06.27,0,.47.09.57.13-.31.11-.5.13-.15.38,0,.43.55.11.59.05.48.07.68.09.34.51.4.62a1.64,1.64,0,0,1,.06.58c0,.11.34.31.41.24s0,.17-.1.16-.05.4.13.46.05.31,0,.39-.05.32-.15.41.37.91.37,1.33.26.77.36.77.45.09.49.18.22-.06.28-.13a3.42,3.42,0,0,0,.32-.46c.11-.18.34-1,.38-1.12s.43,0,.52-.08.35-.25.43-.31.64-.3.79-.42.42-.59.54-.69-.06-.08-.21-.18-.09-.22,0-.26A1.75,1.75,0,0,1,201.85,22.48Z" style="fill:#15b0bf"/><path d="M206.81,18.71c-.16-.05-.48.13-.44.23s-.27-.13-.49,0-.27.49-.17.54.17.35.17.4.42,0,.53-.07.09.31,0,.41,0,.32.16.34.27.29.39.28.14-.11.21-.25V19.19h0C207.06,19.17,207,18.77,206.81,18.71Z" style="fill:#15b0bf"/><path d="M202.9,28.15a.24.24,0,0,0,.22-.22c0-.11-.19-.58-.26-.58s-.2.35-.29.31-.13.29-.11.4S202.78,28.17,202.9,28.15Z" style="fill:#15b0bf"/><path d="M202.45,24.66a.32.32,0,0,0,.35.19c.15,0,.46-.18.56-.19s.22-.55.16-.66-.57-.11-.69-.11a1.5,1.5,0,0,1-.57-.21c-.07-.08-.12.3-.23.35s.05.13.1.09,0,.2-.06.28S202.41,24.54,202.45,24.66Z" style="fill:#15b0bf"/><path d="M191.31,24.67c-.08.08,0,.44.14.45s.38-.55.57-.44.3.16.27.1-.55-.28-.61-.33S191.39,24.6,191.31,24.67Z" style="fill:#15b0bf"/><path d="M193.21,37.07c0,.07.33.06.39,0s0-.18-.07-.18S193.21,37,193.21,37.07Z" style="fill:#15b0bf"/><path d="M191.77,36.54c.15,0,.08.22.12.31s.41.16.48.23.27-.12.42-.1,0-.52-.3-.5-.45-.23-.51-.26a2.7,2.7,0,0,1-.43-.27,3.85,3.85,0,0,0-.94-.12.72.72,0,0,0-.49.29c0,.08.35.13.45.07a1.07,1.07,0,0,1,.72.18A.57.57,0,0,0,191.77,36.54Z" style="fill:#15b0bf"/><path d="M191.08,37.07c0,.07.33,0,.41,0s.08-.05,0-.12S191.08,37,191.08,37.07Z" style="fill:#15b0bf"/><path d="M191.32,35.38c-.09,0-.16.1-.16.17a.11.11,0,0,0,.11.11C191.33,35.66,191.4,35.42,191.32,35.38Z" style="fill:#15b0bf"/><path d="M192,35.44a.31.31,0,0,0-.22-.12s-.07.11-.06.24S192,35.5,192,35.44Z" style="fill:#15b0bf"/><path d="M192.5,36.2c.13-.07.15-.22.07-.21s-.22-.23-.31-.27-.15.14-.15.22,0,.13.1.12S192.37,36.26,192.5,36.2Z" style="fill:#15b0bf"/><path d="M193.32,20.53s-.12,0-.07.08S193.36,20.57,193.32,20.53Z" style="fill:#d1ecfb"/><path d="M195.82,28s-.11,0-.07.08S195.87,28,195.82,28Z" style="fill:#d1ecfb"/><path d="M301.79,150.62a2,2,0,0,1-1.91,2h-3.69v7.66l-9.05-7.66H263.58a2,2,0,0,1-1.91-2V127.44a2,2,0,0,1,1.91-2h36.3a2,2,0,0,1,1.91,2Z" style="fill:#2c5871"/><path d="M245.58,143.31a2,2,0,0,0,1.9,2h3.7V153l9-7.66h23.57a2,2,0,0,0,1.91-2V120.13a2,2,0,0,0-1.91-2H247.48a2,2,0,0,0-1.9,2Z" style="fill:#fff"/><rect x="251.59" y="125.54" width="28.1" height="1.75" style="fill:#15b0bf"/><rect x="251.59" y="131.09" width="28.1" height="1.75" style="fill:#15b0bf"/><rect x="251.59" y="136.64" width="21.87" height="1.75" style="fill:#15b0bf"/><path d="M123.72,315.53a22.78,22.78,0,1,1,22.78-22.78A22.78,22.78,0,0,1,123.72,315.53Z" style="fill:#15b0bf"/><path d="M128.05,315.09a22.82,22.82,0,0,0,17-14.43l-15-15a8.05,8.05,0,0,0-14.41,4.94,14.55,14.55,0,0,0,3.22,7.89,6.43,6.43,0,0,1,.72,3.55h-.16a.41.41,0,0,0-.41.41.45.45,0,0,0,.12.29h0l.47.47v.2h-.18a.42.42,0,0,0-.41.42.39.39,0,0,0,.13.29v0l.47.47v.18h-.18a.42.42,0,0,0-.41.41.42.42,0,0,0,.15.32h0l.45.45v.28a1.94,1.94,0,0,1,.46.78l0,0Z" style="fill:#1695a4"/><path d="M126.9,307.21h-6.46a.52.52,0,0,1-.52-.52.52.52,0,0,1,.52-.52h6.46a.52.52,0,0,1,.52.52.52.52,0,0,1-.52.52Z" style="fill:#2c5871"/><path d="M115.62,290.57a8,8,0,1,1,16.1,0,14.62,14.62,0,0,1-3.22,7.89,6.46,6.46,0,0,0-.74,3.55h-8.2s.17-2.37-.72-3.55A14.55,14.55,0,0,1,115.62,290.57Z" style="fill:#d1ecfb"/><path d="M123.67,302h-4.11s.17-2.37-.72-3.55a14.55,14.55,0,0,1-3.22-7.89,8,8,0,0,1,8-8.05Z" style="fill:#fff"/><path d="M130,290.57h-.71a5.64,5.64,0,0,0-5.63-5.64v-.7a6.34,6.34,0,0,1,6.34,6.34Z" style="fill:#fff"/><polygon points="125.43 302.64 124.73 302.52 126.11 294.2 126.81 294.31 125.43 302.64 125.43 302.64" style="fill:#0e303f"/><polygon points="121.91 302.64 120.53 294.31 121.23 294.2 122.61 302.52 121.91 302.64 121.91 302.64" style="fill:#0e303f"/><path d="M126.41,295.37c-.29,0-.41-.28-.51-.49s-.11-.26-.16-.26-.12.18-.16.26-.22.49-.51.49-.41-.28-.5-.49-.12-.26-.16-.26-.13.18-.17.26-.21.49-.5.49-.42-.28-.51-.49-.12-.26-.16-.26-.13.18-.16.26-.22.49-.51.49-.41-.28-.51-.48-.11-.27-.16-.27-.13.18-.16.26-.22.49-.51.49V295s.13-.18.16-.27.22-.48.51-.48.42.28.51.48.11.27.16.27.12-.18.16-.27.22-.48.51-.48.41.28.51.48.11.27.16.27.12-.18.16-.27.22-.48.51-.48.41.28.5.48.12.27.16.27.13-.18.17-.27.21-.48.5-.48.42.28.51.48.12.27.16.27v.37Z" style="fill:#0e303f"/><path d="M127.77,302v4.21a.52.52,0,0,1-.52.52H120.1a.52.52,0,0,1-.52-.52V302Z" style="fill:#0e303f"/><path d="M127.94,302.42h0Z" style="fill:#0e303f"/><path d="M127.94,302.83H119.4a.41.41,0,1,1,0-.82h8.54a.41.41,0,0,1,0,.82Z" style="fill:#2c5871"/><path d="M127.94,303.8h0Z" style="fill:#0e303f"/><path d="M127.94,304.21H119.4a.41.41,0,0,1-.41-.41.42.42,0,0,1,.41-.42h8.54a.42.42,0,0,1,.41.42.41.41,0,0,1-.41.41Z" style="fill:#2c5871"/><path d="M127.94,305.17h0Z" style="fill:#0e303f"/><path d="M127.94,305.59H119.4a.42.42,0,0,1,0-.83h8.54a.42.42,0,0,1,0,.83Z" style="fill:#2c5871"/><path d="M123.67,279.89a.21.21,0,0,1-.21-.21v-4.42a.21.21,0,0,1,.21-.22.22.22,0,0,1,.21.22v4.42a.21.21,0,0,1-.21.21Z" style="fill:#a6dae9"/><path d="M118,281.4a.21.21,0,0,1-.19-.1l-2.21-3.83a.21.21,0,0,1,.37-.21l2.21,3.83a.21.21,0,0,1-.08.29l-.1,0Z" style="fill:#a6dae9"/><path d="M113.9,285.53a.23.23,0,0,1-.11,0L110,283.29a.21.21,0,0,1-.07-.29.21.21,0,0,1,.28-.07l3.83,2.21a.21.21,0,0,1,.08.29.2.2,0,0,1-.18.1Z" style="fill:#a6dae9"/><path d="M112.39,291.17H108a.21.21,0,0,1-.21-.21.22.22,0,0,1,.21-.21h4.43a.21.21,0,0,1,.21.21.21.21,0,0,1-.21.21Z" style="fill:#a6dae9"/><path d="M110.07,299a.2.2,0,0,1-.18-.1.21.21,0,0,1,.08-.29l3.83-2.21a.2.2,0,0,1,.28.08.2.2,0,0,1-.07.28L110.18,299a.22.22,0,0,1-.11,0Z" style="fill:#a6dae9"/><path d="M115.82,304.77a.23.23,0,0,1-.11,0,.21.21,0,0,1-.07-.28l2.21-3.84a.22.22,0,0,1,.29-.07.2.2,0,0,1,.07.28L116,304.67a.22.22,0,0,1-.18.1Z" style="fill:#a6dae9"/><path d="M131.52,304.77a.21.21,0,0,1-.18-.11l-2.21-3.83a.21.21,0,0,1,.08-.29.21.21,0,0,1,.28.08l2.22,3.83a.22.22,0,0,1-.08.29.2.2,0,0,1-.11,0Z" style="fill:#a6dae9"/><path d="M137.27,299a.17.17,0,0,1-.1,0l-3.84-2.21a.21.21,0,0,1-.07-.29.21.21,0,0,1,.28-.08l3.84,2.22a.2.2,0,0,1,.07.28.21.21,0,0,1-.18.11Z" style="fill:#a6dae9"/><path d="M139.37,291.16H135a.2.2,0,0,1-.21-.2.21.21,0,0,1,.21-.21h4.42a.21.21,0,0,1,.21.21.2.2,0,0,1-.21.2Z" style="fill:#a6dae9"/><path d="M133.44,285.53a.21.21,0,0,1-.19-.11.22.22,0,0,1,.08-.29l3.83-2.21a.21.21,0,1,1,.21.37l-3.83,2.21a.19.19,0,0,1-.1,0Z" style="fill:#a6dae9"/><path d="M129.3,281.4a.19.19,0,0,1-.1,0,.21.21,0,0,1-.08-.28l2.22-3.84a.2.2,0,0,1,.28-.07.2.2,0,0,1,.08.28l-2.21,3.83a.21.21,0,0,1-.19.11Z" style="fill:#a6dae9"/><path d="M123.67,279.89a.21.21,0,0,1-.21-.21v-4.42a.21.21,0,0,1,.21-.22.22.22,0,0,1,.21.22v4.42a.21.21,0,0,1-.21.21Z" style="fill:#a6dae9"/><circle cx="40.75" cy="257.85" r="40.75" transform="translate(-170.39 104.33) rotate(-45)" style="fill:#2c5871"/><path d="M80.24,267.91,62.57,250.24h.07L51.7,243.07l-11-7.17L29.8,243.07l-10.95,7.17h.06l1,1v1.21h0l2.89,2.89-.54,8.23h-.75v2.6H19.9v5.39h0l26.62,26.62A40.78,40.78,0,0,0,80.24,267.91Z" style="fill:#0e303f"/><rect x="19.9" y="250.24" width="41.7" height="2.2" style="fill:#a6dae9"/><polygon points="22.9 254.06 22.27 263.6 25.11 263.6 27.95 263.6 27.32 254.06 22.9 254.06" style="fill:#8fc4d7"/><rect x="22.33" y="252.44" width="5.56" height="2.2" style="fill:#a6dae9"/><rect x="22.33" y="252.44" width="5.56" height="0.7" style="fill:#8fc4d7"/><rect x="21.52" y="263.56" width="7.18" height="2.78" style="fill:#a6dae9"/><rect x="21.52" y="265.64" width="7.18" height="0.69" style="fill:#8fc4d7"/><polygon points="33.32 254.06 32.7 263.6 35.53 263.6 38.37 263.6 37.75 254.06 33.32 254.06" style="fill:#8fc4d7"/><rect x="32.75" y="252.44" width="5.56" height="2.2" style="fill:#a6dae9"/><rect x="32.75" y="252.44" width="5.56" height="0.7" style="fill:#8fc4d7"/><rect x="31.94" y="263.56" width="7.18" height="2.78" style="fill:#a6dae9"/><rect x="31.94" y="265.64" width="7.18" height="0.69" style="fill:#8fc4d7"/><polygon points="43.75 254.06 43.12 263.6 45.96 263.6 48.8 263.6 48.17 254.06 43.75 254.06" style="fill:#8fc4d7"/><rect x="43.18" y="252.44" width="5.56" height="2.2" style="fill:#a6dae9"/><rect x="43.18" y="252.44" width="5.56" height="0.7" style="fill:#8fc4d7"/><rect x="42.37" y="263.56" width="7.18" height="2.78" style="fill:#a6dae9"/><rect x="42.37" y="265.64" width="7.18" height="0.69" style="fill:#8fc4d7"/><polygon points="54.17 254.06 53.55 263.6 56.39 263.6 59.22 263.6 58.6 254.06 54.17 254.06" style="fill:#8fc4d7"/><rect x="53.61" y="252.44" width="5.56" height="2.2" style="fill:#a6dae9"/><rect x="53.61" y="252.44" width="5.56" height="0.7" style="fill:#8fc4d7"/><rect x="52.79" y="263.56" width="7.18" height="2.78" style="fill:#a6dae9"/><rect x="52.79" y="265.64" width="7.18" height="0.69" style="fill:#8fc4d7"/><rect x="19.9" y="266.16" width="41.7" height="5.39" style="fill:#a6dae9"/><rect x="29.97" y="270.61" width="21.55" height="0.94" style="fill:#8fc4d7"/><rect x="29.97" y="268.79" width="21.55" height="0.94" style="fill:#8fc4d7"/><rect x="29.97" y="266.96" width="21.55" height="0.94" style="fill:#8fc4d7"/><polygon points="40.75 235.9 51.7 243.07 62.64 250.24 40.75 250.24 18.85 250.24 29.8 243.07 40.75 235.9" style="fill:#8fc4d7"/><polygon points="24.68 248.5 40.75 237.98 56.82 248.5 24.68 248.5" style="fill:#a6dae9"/><polygon points="51.7 246.46 40.75 239.29 29.8 246.46 26.68 248.5 27.88 248.5 29.8 247.24 40.75 240.07 51.7 247.24 53.62 248.5 54.81 248.5 51.7 246.46" style="fill:#8fc4d7"/><path d="M95,89.41a33,33,0,1,1,33-33A33,33,0,0,1,95,89.41Z" style="fill:#a6dae9"/><path d="M68.07,75.33a33,33,0,0,0,54.08,0Z" style="fill:#8fc4d7"/><path d="M89.14,69.55l-1.29,5.29H99.93l-1.29-5.29Z" style="fill:#8fc4d7"/><path d="M100.68,74.75H87.1a.69.69,0,0,0-.62.73v.27H101.3v-.27A.69.69,0,0,0,100.68,74.75Z" style="fill:#fff"/><path d="M73.47,67.49V70.4a1,1,0,0,0,1,1h38.8a1,1,0,0,0,1-1V67.49Z" style="fill:#fff"/><path d="M114.31,67.49V42.79a1,1,0,0,0-1-1H74.49a1,1,0,0,0-1,1v24.7Z" style="fill:#0e303f"/><rect x="75.15" y="43.36" width="37.49" height="22.44" style="fill:#15b0bf"/><polygon points="75.15 65.8 112.64 43.36 112.64 65.8 75.15 65.8" style="fill:#1695a4"/><polygon points="105.32 65.86 105.32 49.06 105.32 40.64 99.29 34.61 82.46 34.61 82.46 40.84 82.46 49.06 82.46 65.86 105.32 65.86" style="fill:#fff"/><polygon points="99.29 40.64 105.32 40.64 99.29 34.61 99.29 40.64" style="fill:#15b0bf"/><polygon points="105.32 40.64 99.29 40.64 105.32 46.68 105.32 40.64" style="fill:#a6dae9"/><rect x="86.79" y="41.77" width="7" height="0.57" style="fill:#15b0bf"/><rect x="86.79" y="44.58" width="14.2" height="0.57" style="fill:#a6dae9"/><rect x="86.79" y="46.37" width="14.2" height="0.57" style="fill:#a6dae9"/><rect x="86.79" y="48.16" width="14.2" height="0.57" style="fill:#a6dae9"/><rect x="86.79" y="49.96" width="14.2" height="0.57" style="fill:#a6dae9"/><rect x="86.79" y="51.75" width="14.2" height="0.57" style="fill:#a6dae9"/><rect x="86.79" y="53.55" width="14.2" height="0.57" style="fill:#a6dae9"/><rect x="86.79" y="55.34" width="14.2" height="0.57" style="fill:#a6dae9"/><polygon points="100.39 54.23 91.98 52.04 94.18 60.44 95.64 57.78 98.27 60.41 100.36 58.32 97.73 55.69 100.39 54.23" style="fill:#2c5871"/><polygon points="92.07 52.06 91.98 52.04 94.18 60.44 95.64 57.78 98.27 60.41 99.35 59.34 92.07 52.06" style="fill:#0e303f"/><path d="M131.24,50.73a16,16,0,1,1,16-16A16,16,0,0,1,131.24,50.73Z" style="fill:#fff"/><path d="M132.9,50.65A16,16,0,0,0,147.18,36L139.11,28h0a61.62,61.62,0,0,0-16.28,0,29.66,29.66,0,0,0-.7,6.26h0c0,.18,0,.36,0,.53a2.26,2.26,0,0,0,0,.26c0,.2,0,.4,0,.6a1.28,1.28,0,0,0,0,.19c0,.2,0,.4,0,.6a1.28,1.28,0,0,0,0,.19c0,.18,0,.36,0,.54l0,.25c0,.15,0,.3,0,.45s0,.22,0,.34l.06.34.06.45c0,.06,0,.13,0,.2.08.44.16.88.26,1.32l0,0Z" style="fill:#d1ecfb"/><path d="M139.11,40.53a62.48,62.48,0,0,1-16.28,0,28.71,28.71,0,0,1,0-12.58,61.62,61.62,0,0,1,16.28,0A29,29,0,0,1,139.11,40.53Z" style="fill:#fd6120"/><path d="M122.83,40.53a62.48,62.48,0,0,0,16.28,0,29.55,29.55,0,0,0,.69-6.32H122.13A28.94,28.94,0,0,0,122.83,40.53Z" style="fill:#de3f18"/><path d="M134.3,33.87a.4.4,0,0,1,0,.73l-4.72,3c-.31.2-.57,0-.57-.36V31.28c0-.4.26-.56.57-.36Z" style="fill:#fff"/><path d="M129,37.2c0,.4.26.56.57.36l4.72-3a.42.42,0,0,0,.23-.39H129Z" style="fill:#a6dae9"/><rect x="63.28" y="83.51" width="28.72" height="20.08" rx="1.87" style="fill:#d1ecfb"/><path d="M73.15,93.14l-9.75,9.18a1.88,1.88,0,0,0,1.74,1.27h25a1.86,1.86,0,0,0,1.74-1.27L82,93Z" style="fill:#8fc4d7"/><path d="M73.15,93.68l-9.75,8.7a1.88,1.88,0,0,0,1.74,1.21h25a1.86,1.86,0,0,0,1.74-1.21L82,93.59Z" style="fill:#fff"/><path d="M63.4,84.83,77.64,98.75,91.87,84.83a1.87,1.87,0,0,0-1.74-1.32h-25A1.89,1.89,0,0,0,63.4,84.83Z" style="fill:#8fc4d7"/><path d="M63.4,84.71l14.24,12.7,14.23-12.7a1.85,1.85,0,0,0-1.74-1.2h-25A1.87,1.87,0,0,0,63.4,84.71Z" style="fill:#fff"/><path d="M57.71,145.2A19.18,19.18,0,1,0,76.88,126,19.17,19.17,0,0,0,57.71,145.2Z" style="fill:#15b0bf"/><path d="M94.65,152.41,84.4,142.16a9.93,9.93,0,0,0-7.65-3.85c-4,0-7.55,2.68-9.4,6.64a12.62,12.62,0,0,0,3.11,4.2l13.76,13.76A19.21,19.21,0,0,0,94.65,152.41Z" style="fill:#1695a4"/><path d="M76.75,138.31c-4,0-7.55,2.68-9.4,6.64,1.85,4,5.36,6.64,9.4,6.64s7.55-2.67,9.4-6.64C84.3,141,80.78,138.31,76.75,138.31Z" style="fill:#fec00f"/><path d="M76.75,141.33c-4,0-7.55,1.46-9.4,3.62,1.85,2.17,5.36,3.63,9.4,3.63s7.55-1.46,9.4-3.63C84.3,142.79,80.78,141.33,76.75,141.33Z" style="fill:#fff"/><g style="clip-path:url(#clip-path)"><path d="M82.74,145a6,6,0,1,1-6-6A6,6,0,0,1,82.74,145Z" style="fill:#15b0bf"/><path d="M80.25,145a3.51,3.51,0,1,1-3.5-3.51A3.51,3.51,0,0,1,80.25,145Z" style="fill:#0e303f"/></g><path d="M81.21,144.29a1.33,1.33,0,1,1-.25-1.87A1.33,1.33,0,0,1,81.21,144.29Z" style="fill:#fff"/><path d="M80,146.42a.61.61,0,0,1-.85.11.6.6,0,1,1,.85-.11Z" style="fill:#fff"/><path d="M201,259.19a27.62,27.62,0,1,1,27.62,27.62A27.61,27.61,0,0,1,201,259.19Z" style="fill:#fec00f"/><path d="M245.3,248.54l-.51.19-1.88-1.4-.64.28-.15.07v-.89l-7.91,3.88,0,0-3.25,1.5.12.06-2.19,1.08-13.25-6.5v.89l-.8-.34h0l0,0-1.86,1.39-.51-.19v20.69h0l0,0,17.5,17.51a27.62,27.62,0,0,0,26.34-27.34l-10.92-10.91Z" style="fill:#f99b1c"/><polygon points="242.12 267.69 230.43 273.44 226.87 254.26 242.12 246.79 242.12 267.69" style="fill:#a6dae9"/><polygon points="215.61 267.69 227.3 273.44 231.58 254.62 215.61 246.79 215.61 267.69" style="fill:#a6dae9"/><polygon points="243.14 251.01 241.75 247.84 242.91 247.33 245.08 248.95 243.14 251.01" style="fill:#fff"/><polygon points="214.55 251.01 215.94 247.84 214.77 247.33 212.6 248.95 214.55 251.01" style="fill:#fff"/><polygon points="242.91 266.57 230.52 271.87 226.75 254.22 242.91 247.34 242.91 266.57" style="fill:#fff"/><polygon points="214.81 266.57 227.21 271.87 231.74 254.55 214.81 247.34 214.81 266.57" style="fill:#fff"/><path d="M230.81,254.21a1.13,1.13,0,0,1-.82.35h-2.24a1.13,1.13,0,0,1-.83-.35h-.33v19.92a1.16,1.16,0,0,0,1.16,1.16H230a1.16,1.16,0,0,0,1.16-1.16V254.21Z" style="fill:#15b0bf"/><polygon points="245.32 269.22 230.8 274.92 230.8 254.22 245.32 248.53 245.32 269.22" style="fill:#1695a4"/><polygon points="212.4 269.22 226.92 274.92 226.92 254.22 212.4 248.53 212.4 269.22" style="fill:#1695a4"/><polygon points="236.46 261.09 234.72 260.79 232.97 262.21 232.97 253.32 234.72 252.6 236.46 252.04 236.46 261.09" style="fill:#0e303f"/><polygon points="232.97 253.32 230.93 252.15 234.18 250.65 236.46 252.04 232.97 253.32" style="fill:#2c5871"/><circle cx="196.64" cy="279.33" r="17.51" style="fill:#15b0bf"/><path d="M196.64,261.82a17.51,17.51,0,1,1,0,35Z" style="fill:#1695a4"/><path d="M210.26,279.33a13.62,13.62,0,1,1-13.62-13.62A13.62,13.62,0,0,1,210.26,279.33Z" style="fill:#fff"/><path d="M184.48,280.3a13.61,13.61,0,0,1,20.43-11.79,13.62,13.62,0,1,0-15.08,22.61A13.6,13.6,0,0,1,184.48,280.3Z" style="fill:#d1ecfb"/><path d="M199.07,279.33a2.43,2.43,0,1,1-2.43-2.43A2.43,2.43,0,0,1,199.07,279.33Z" style="fill:#0e303f"/><path d="M202.43,269.51a.23.23,0,0,1-.11,0,.21.21,0,0,1-.07-.29l.37-.65a.22.22,0,0,1,.29-.08.21.21,0,0,1,.08.29l-.38.65A.21.21,0,0,1,202.43,269.51Z" style="fill:#0e303f"/><path d="M190.47,290.22a.22.22,0,0,1-.11,0,.21.21,0,0,1-.07-.29l.37-.65a.21.21,0,0,1,.29-.08.21.21,0,0,1,.08.29l-.38.65A.19.19,0,0,1,190.47,290.22Z" style="fill:#0e303f"/><path d="M207.32,285.71a.23.23,0,0,1-.11,0l-.64-.37a.21.21,0,0,1-.08-.29.21.21,0,0,1,.29-.08l.64.37a.21.21,0,0,1,.08.29A.21.21,0,0,1,207.32,285.71Z" style="fill:#0e303f"/><path d="M186.61,273.75a.23.23,0,0,1-.11,0l-.65-.37a.21.21,0,0,1-.08-.29.21.21,0,0,1,.29-.08l.65.37a.21.21,0,0,1,.08.29A.21.21,0,0,1,186.61,273.75Z" style="fill:#0e303f"/><path d="M190.85,269.51a.21.21,0,0,1-.19-.11l-.37-.65a.21.21,0,0,1,.37-.21l.37.65a.21.21,0,0,1-.08.29A.19.19,0,0,1,190.85,269.51Z" style="fill:#0e303f"/><path d="M202.81,290.22a.2.2,0,0,1-.18-.1l-.38-.65a.21.21,0,0,1,.08-.29.21.21,0,0,1,.29.07l.38.66a.22.22,0,0,1-.08.29Z" style="fill:#0e303f"/><path d="M186,285.71a.21.21,0,0,1-.11-.4l.65-.37a.21.21,0,0,1,.29.08.21.21,0,0,1-.08.29l-.65.37A.19.19,0,0,1,186,285.71Z" style="fill:#0e303f"/><path d="M206.67,273.75a.21.21,0,0,1-.18-.11.21.21,0,0,1,.08-.29l.64-.37a.21.21,0,0,1,.29.07.2.2,0,0,1-.08.29l-.64.38A.2.2,0,0,1,206.67,273.75Z" style="fill:#0e303f"/><path d="M185.05,279.54h-.74a.22.22,0,1,1,0-.43h.74a.22.22,0,1,1,0,.43Z" style="fill:#0e303f"/><path d="M208.22,279.54a.22.22,0,0,1,0-.43H209a.22.22,0,0,1,.21.21.21.21,0,0,1-.21.22h-.76Z" style="fill:#0e303f"/><path d="M196.64,291.87h0a.21.21,0,0,1-.22-.21v-.75a.21.21,0,0,1,.21-.21h0a.21.21,0,0,1,.21.21v.75A.21.21,0,0,1,196.64,291.87Z" style="fill:#0e303f"/><path d="M196.64,268a.21.21,0,0,1-.21-.21V267a.21.21,0,1,1,.42,0v.74A.21.21,0,0,1,196.64,268Z" style="fill:#0e303f"/><path d="M196.64,280a.7.7,0,0,1-.7-.7v-9.66a.7.7,0,1,1,1.4,0v9.66A.7.7,0,0,1,196.64,280Z" style="fill:#0e303f"/><path d="M192.41,284.25a.7.7,0,0,1-.49-1.19L196,279a.69.69,0,0,1,1,0,.71.71,0,0,1,0,1l-4.06,4.06A.69.69,0,0,1,192.41,284.25Z" style="fill:#0e303f"/><circle cx="196.64" cy="279.33" r="1.5" style="fill:#fff"/><path d="M197.38,279.33a.74.74,0,0,1-.74.74.75.75,0,0,1-.75-.74.76.76,0,0,1,.75-.75A.75.75,0,0,1,197.38,279.33Z" style="fill:#f99b1c"/><path d="M196.64,279.65a.32.32,0,0,1-.09-.63l8.41-2.54a.32.32,0,0,1,.41.21.34.34,0,0,1-.22.41l-8.42,2.54Z" style="fill:#f99b1c"/><rect x="164.26" y="24.9" width="7.44" height="2.52" style="fill:#f99b1c"/><path d="M160.26,2.16a14.8,14.8,0,0,0-.65,4.34A14.58,14.58,0,0,0,168,19.76,14.57,14.57,0,0,0,176.35,6.5a14.8,14.8,0,0,0-.65-4.34Z" style="fill:#f99b1c"/><path d="M166.42,17.33l-.88-.09c-6.09-.66-10.68-6.15-10.68-12.79,0-.25,0-.5,0-.74l.05-.75h11.49V17.33Zm-10-12.78c0,5.45,3.56,10,8.36,11v-11Z" style="fill:#fec00f"/><path d="M169.54,17.33V3H181l0,.76c0,.25,0,.49,0,.74,0,6.64-4.59,12.13-10.67,12.79l-.89.09Zm1.6-12.78v11c4.8-1,8.32-5.51,8.37-11Z" style="fill:#f99b1c"/><rect x="166.79" y="16.7" width="2.39" height="9.96" style="fill:#f99b1c"/><path d="M174.47,27.49v-.8a.89.89,0,0,0-.79-1H162.29a.89.89,0,0,0-.8,1v.8Z" style="fill:#f99b1c"/><path d="M160.26,2.16a14.8,14.8,0,0,0-.65,4.34,14.6,14.6,0,0,0,7.18,12.63V24.9h1.1V2.16Z" style="fill:#fec00f"/><path d="M164.26,25.73h-2a.89.89,0,0,0-.8,1v.8h6.4V25.73h-3.63Z" style="fill:#fec00f"/><rect x="159.85" y="27.4" width="16.27" height="8.02" style="fill:#15b0bf"/><rect x="161.76" y="29.31" width="12.45" height="4.2" style="fill:#1695a4"/><rect x="159.21" y="35.06" width="17.55" height="1.95" style="fill:#1695a4"/><polygon points="107.47 180.36 95.07 186.46 91.3 166.13 107.47 158.2 107.47 180.36" style="fill:#a6dae9"/><polygon points="79.36 180.36 91.76 186.46 96.29 166.51 79.36 158.2 79.36 180.36" style="fill:#a6dae9"/><polygon points="108.55 162.68 107.08 159.31 108.31 158.78 110.61 160.49 108.55 162.68" style="fill:#fff"/><polygon points="78.23 162.68 79.71 159.31 78.47 158.78 76.17 160.49 78.23 162.68" style="fill:#fff"/><polygon points="108.31 179.18 95.17 184.79 91.17 166.08 108.31 158.78 108.31 179.18" style="fill:#fff"/><polygon points="78.52 179.18 91.66 184.79 96.47 166.43 78.52 158.78 78.52 179.18" style="fill:#fff"/><path d="M95.48,166.08a1.23,1.23,0,0,1-.87.36H92.23a1.23,1.23,0,0,1-.87-.36H91V187.2a1.22,1.22,0,0,0,1.23,1.22h2.38a1.21,1.21,0,0,0,1.22-1.22V166.08Z" style="fill:#fec00f"/><polygon points="110.87 181.99 95.47 188.03 95.47 166.09 110.87 160.04 110.87 181.99" style="fill:#f99b1c"/><polygon points="75.96 181.99 91.36 188.03 91.36 166.09 75.96 160.04 75.96 181.99" style="fill:#f99b1c"/><polygon points="101.47 173.37 99.62 173.05 97.77 174.56 97.77 165.13 99.62 164.36 101.47 163.77 101.47 173.37" style="fill:#0e303f"/><polygon points="97.77 165.13 95.6 163.88 99.05 162.3 101.47 163.77 97.77 165.13" style="fill:#2c5871"/><path d="M25.82,236.2l5.55-5.55a1.31,1.31,0,0,0,0-1.85L12.16,209.59a1.31,1.31,0,0,0-1.85,0l-5.55,5.55a1.31,1.31,0,0,0,0,1.85L24,236.2A1.31,1.31,0,0,0,25.82,236.2ZM8.92,213.75a1.15,1.15,0,1,1,0,1.62A1.16,1.16,0,0,1,8.92,213.75Z" style="fill:#fec00f"/><path d="M30.06,232l1.31-1.31a1.31,1.31,0,0,0,0-1.85L12.16,209.59a1.31,1.31,0,0,0-1.85,0L9,210.89Z" style="fill:#f99b1c"/><rect x="11" y="210.89" width="2.18" height="0.33" transform="translate(-145.69 70.36) rotate(-45)" style="fill:#fff"/><rect x="12.59" y="212.48" width="2.18" height="0.33" transform="translate(-146.35 71.95) rotate(-45)" style="fill:#fff"/><polygon points="14.62 215.12 14.38 214.89 15.93 213.34 16.16 213.58 14.62 215.12" style="fill:#fff"/><rect x="15.77" y="215.66" width="2.18" height="0.33" transform="translate(-147.64 75.1) rotate(-44.99)" style="fill:#fff"/><polygon points="17.8 218.3 17.57 218.07 19.11 216.53 19.34 216.76 17.8 218.3" style="fill:#fff"/><polygon points="19.39 219.89 19.16 219.66 20.7 218.12 20.93 218.35 19.39 219.89" style="fill:#fff"/><polygon points="20.98 221.48 20.75 221.25 22.29 219.71 22.52 219.94 20.98 221.48" style="fill:#fff"/><rect x="22.14" y="222.02" width="2.18" height="0.33" transform="translate(-150.31 81.5) rotate(-45)" style="fill:#fff"/><polygon points="24.16 224.66 23.93 224.44 25.47 222.89 25.7 223.12 24.16 224.66" style="fill:#fff"/><polygon points="25.75 226.26 25.52 226.02 27.07 224.48 27.3 224.72 25.75 226.26" style="fill:#fff"/><polygon points="27.35 227.85 27.11 227.62 28.66 226.07 28.89 226.31 27.35 227.85" style="fill:#fff"/><polygon points="28.94 229.44 28.7 229.21 30.25 227.66 30.48 227.89 28.94 229.44" style="fill:#fff"/><path d="M24.12,210.72,6.38,228.46a2.65,2.65,0,0,0,3.13.34l16.34-16.34Z" style="fill:#008a9d"/><path d="M30,216.58l-4.13-4.12L9.51,228.8h0l0,0,0,0a2.78,2.78,0,0,0,.64,3.48,2.78,2.78,0,0,0,3.47.63l0,0h0Z" style="fill:#15b0bf"/><path d="M13.64,232.92a2.65,2.65,0,0,0,.34,3.13l17.73-17.73L30,216.58Z" style="fill:#008a9d"/><path d="M14,236.06a2.67,2.67,0,0,1-.34-3.14h0l0,0a2.78,2.78,0,0,1-3.47-.63,2.78,2.78,0,0,1-.64-3.48l0,0,0,0h0a2.65,2.65,0,0,1-3.13-.34l0,7.56Z" style="fill:#fff"/><path d="M6.4,232.31V236l3.72,0a14.63,14.63,0,0,0-1.69-2A14.51,14.51,0,0,0,6.4,232.31Z" style="fill:#008a9d"/><rect x="24.64" y="209.45" width="2.52" height="2.45" transform="translate(-141.39 80.02) rotate(-45)" style="fill:#0e303f"/><rect x="27.57" y="210.69" width="2.52" height="5.83" transform="translate(-142.6 82.95) rotate(-45)" style="fill:#2c5871"/><rect x="30.5" y="215.31" width="2.52" height="2.45" transform="translate(-143.78 85.83) rotate(-44.98)" style="fill:#0e303f"/></g></g></svg>