<svg xmlns="http://www.w3.org/2000/svg" viewBox="0 0 296.81 348.95"><g style="isolation:isolate"><g id="Layer_2" data-name="Layer 2"><g id="Layer_4" data-name="Layer 4"><path d="M148,349h0c-2.17,0-4.35-.06-6.49-.16a.91.91,0,0,1-.87-1,.93.93,0,0,1,1-.88c2.1.1,4.26.15,6.4.16a.92.92,0,0,1,0,1.84Zm6.45-.12a.92.92,0,0,1,0-1.84c2.14-.09,4.29-.22,6.39-.4a.92.92,0,0,1,1,.84.93.93,0,0,1-.84,1c-2.13.18-4.31.31-6.48.4Zm-19.32-.47H135c-2.13-.19-4.3-.43-6.44-.72a.92.92,0,0,1,.24-1.83c2.11.29,4.26.52,6.37.71a.93.93,0,0,1,.83,1A.91.91,0,0,1,135.13,348.36Zm32.16-.61a.92.92,0,0,1-.12-1.83c2.11-.27,4.25-.59,6.34-.95a.92.92,0,1,1,.31,1.81c-2.12.37-4.27.69-6.41,1Zm-44.94-1.09-.16,0c-2.11-.37-4.25-.8-6.36-1.27a.92.92,0,1,1,.4-1.8c2.08.46,4.2.89,6.28,1.26a.92.92,0,0,1-.16,1.83Zm57.64-1.1a.92.92,0,0,1-.19-1.82c2.06-.45,4.16-1,6.22-1.5a.92.92,0,1,1,.47,1.78c-2.08.55-4.21,1.06-6.3,1.52Zm-70.22-1.72-.24,0c-2.07-.56-4.16-1.18-6.22-1.83a.92.92,0,1,1,.56-1.76c2,.65,4.1,1.26,6.14,1.81a.92.92,0,0,1-.24,1.81Zm82.68-1.58a.92.92,0,0,1-.27-1.8c2-.63,4.07-1.32,6.07-2a.92.92,0,1,1,.62,1.73c-2,.73-4.09,1.43-6.15,2.07A.84.84,0,0,1,192.45,342.26Zm-95-2.34a.87.87,0,0,1-.32-.06c-2-.74-4.08-1.55-6-2.38a.92.92,0,1,1,.71-1.69c2,.81,4,1.61,6,2.35a.91.91,0,0,1,.55,1.18A.92.92,0,0,1,97.48,339.92Zm107.09-2a.93.93,0,0,1-.85-.57.92.92,0,0,1,.5-1.2c2-.82,3.94-1.68,5.86-2.57a.92.92,0,0,1,.77,1.67c-1.94.9-3.93,1.78-5.93,2.6A.84.84,0,0,1,204.57,337.88Zm-119-2.95a.92.92,0,0,1-.39-.09c-2-.92-3.91-1.89-5.81-2.9a.92.92,0,1,1,.85-1.63c1.88,1,3.82,2,5.75,2.87a.92.92,0,0,1-.4,1.75Zm130.68-2.47a.92.92,0,0,1-.43-1.74c1.88-1,3.77-2,5.61-3.07a.92.92,0,0,1,.92,1.6c-1.87,1.08-3.78,2.12-5.68,3.11A.9.9,0,0,1,216.24,332.46Zm-142.1-3.54a.9.9,0,0,1-.47-.13c-1.85-1.08-3.71-2.22-5.53-3.4a.92.92,0,1,1,1-1.54c1.79,1.15,3.63,2.28,5.46,3.35a.92.92,0,0,1,.33,1.26A.93.93,0,0,1,74.14,328.92ZM227.39,326a.92.92,0,0,1-.49-1.7c1.79-1.14,3.58-2.33,5.32-3.55a.92.92,0,0,1,1.06,1.51c-1.76,1.23-3.58,2.44-5.39,3.6A1,1,0,0,1,227.39,326Zm-164.1-4.11a1,1,0,0,1-.53-.17c-1.76-1.24-3.51-2.54-5.22-3.87a.92.92,0,1,1,1.13-1.45c1.69,1.31,3.42,2.59,5.15,3.82a.91.91,0,0,1,.22,1.28A.92.92,0,0,1,63.29,321.93ZM238,318.67a.93.93,0,0,1-.56-1.66c1.69-1.29,3.37-2.64,5-4a.92.92,0,0,1,1.29.12.91.91,0,0,1-.11,1.29c-1.65,1.38-3.35,2.75-5.06,4.06A1,1,0,0,1,238,318.67ZM53.1,314a1,1,0,0,1-.6-.22c-1.63-1.39-3.27-2.84-4.85-4.31a.91.91,0,0,1,0-1.3.93.93,0,0,1,1.3-.05c1.56,1.45,3.18,2.88,4.8,4.25a.93.93,0,0,1,.1,1.3A.9.9,0,0,1,53.1,314Zm194.73-3.63a.92.92,0,0,1-.62-1.6c1.56-1.43,3.12-2.91,4.63-4.42a.93.93,0,0,1,1.31,0,.92.92,0,0,1,0,1.3c-1.54,1.53-3.12,3-4.7,4.48A.91.91,0,0,1,247.83,310.4Zm-204.2-5.13A.92.92,0,0,1,43,305c-1.52-1.54-3-3.12-4.46-4.71a.91.91,0,0,1,.06-1.3.93.93,0,0,1,1.3.06c1.42,1.57,2.91,3.13,4.41,4.65a.92.92,0,0,1,0,1.3A.91.91,0,0,1,43.63,305.27Zm213.33-4a.93.93,0,0,1-.62-.24.92.92,0,0,1-.06-1.3c1.45-1.57,2.87-3.19,4.24-4.81a.92.92,0,0,1,1.41,1.19c-1.39,1.64-2.83,3.28-4.29,4.87A.94.94,0,0,1,257,301.3ZM35,295.73a.92.92,0,0,1-.71-.33c-1.38-1.66-2.74-3.37-4-5.07a.92.92,0,0,1,1.46-1.12c1.28,1.68,2.62,3.37,4,5a.92.92,0,0,1-.71,1.51Zm230.3-4.29a.92.92,0,0,1-.73-1.48c1.31-1.69,2.59-3.43,3.81-5.16a.92.92,0,0,1,1.5,1.06c-1.23,1.76-2.53,3.51-3.85,5.22A.9.9,0,0,1,265.27,291.44Zm-238.1-6a.93.93,0,0,1-.76-.4c-1.22-1.75-2.42-3.57-3.57-5.4a.91.91,0,0,1,.28-1.27.92.92,0,0,1,1.27.29c1.14,1.8,2.33,3.6,3.54,5.33a.92.92,0,0,1-.76,1.45Zm245.53-4.59a.9.9,0,0,1-.5-.14.92.92,0,0,1-.28-1.27c1.15-1.81,2.28-3.65,3.34-5.48a.92.92,0,0,1,1.26-.33.9.9,0,0,1,.33,1.25c-1.07,1.86-2.21,3.73-3.38,5.55A.91.91,0,0,1,272.7,280.89ZM20.3,274.6a.92.92,0,0,1-.8-.47c-1.07-1.86-2.11-3.77-3.09-5.69A.92.92,0,1,1,18,267.6c1,1.89,2,3.78,3.06,5.62a.93.93,0,0,1-.34,1.26A1,1,0,0,1,20.3,274.6Zm258.87-4.87a.9.9,0,0,1-.42-.1.93.93,0,0,1-.39-1.25c1-1.89,1.95-3.82,2.85-5.75a.91.91,0,0,1,1.22-.44.93.93,0,0,1,.45,1.22c-.92,1.95-1.89,3.91-2.89,5.83A.93.93,0,0,1,279.17,269.73ZM14.4,263.16a.91.91,0,0,1-.83-.54c-.91-1.95-1.77-3.95-2.58-5.93a.92.92,0,1,1,1.7-.7c.8,2,1.66,3.93,2.55,5.86a.93.93,0,0,1-.45,1.23A1.09,1.09,0,0,1,14.4,263.16ZM284.65,258a.85.85,0,0,1-.35-.08.91.91,0,0,1-.5-1.2c.82-2,1.6-4,2.33-6a.93.93,0,0,1,1.19-.55.91.91,0,0,1,.54,1.18c-.74,2-1.53,4.06-2.36,6.06A.93.93,0,0,1,284.65,258ZM9.53,251.25a.93.93,0,0,1-.87-.62c-.72-2-1.41-4.09-2-6.15a.92.92,0,1,1,1.76-.54c.63,2,1.31,4.07,2,6.07a.92.92,0,0,1-.56,1.18A.85.85,0,0,1,9.53,251.25Zm279.55-5.35a1,1,0,0,1-.28-.05.92.92,0,0,1-.6-1.15c.64-2,1.24-4.1,1.79-6.15a.92.92,0,0,1,1.13-.65.91.91,0,0,1,.65,1.12c-.55,2.09-1.16,4.18-1.81,6.23A.93.93,0,0,1,289.08,245.9Zm-283.36-7a.92.92,0,0,1-.89-.69c-.55-2.08-1.05-4.21-1.51-6.31a.92.92,0,0,1,1.81-.38c.44,2.07.94,4.17,1.48,6.23A.91.91,0,0,1,6,238.9.85.85,0,0,1,5.72,238.93Zm286.69-5.48-.2,0a.92.92,0,0,1-.7-1.09c.46-2.08.88-4.19,1.25-6.29a.92.92,0,1,1,1.81.32c-.37,2.12-.79,4.26-1.26,6.36A.92.92,0,0,1,292.41,233.45ZM3,226.33a.91.91,0,0,1-.9-.77c-.36-2.12-.68-4.27-1-6.41A.92.92,0,1,1,3,218.92c.26,2.11.58,4.24.93,6.34a.92.92,0,0,1-.75,1.06Zm291.64-5.58h-.12a.92.92,0,0,1-.79-1c.27-2.11.51-4.25.69-6.37a.92.92,0,1,1,1.83.16c-.18,2.14-.42,4.31-.7,6.45A.92.92,0,0,1,294.64,220.75ZM1.41,213.54a.92.92,0,0,1-.92-.84c-.18-2.15-.31-4.33-.39-6.48A.93.93,0,0,1,2,206.15c.07,2.12.2,4.27.37,6.4a.91.91,0,0,1-.84,1Zm294.34-5.63h0a.92.92,0,0,1-.88-1c.09-2.13.14-4.28.14-6.41a.92.92,0,1,1,1.84,0c0,2.15-.05,4.33-.14,6.49A.92.92,0,0,1,295.75,207.91ZM.92,200.66h0a.92.92,0,0,1-.92-.92c0-2.17.07-4.35.17-6.49a.91.91,0,0,1,1-.87.9.9,0,0,1,.87,1c-.1,2.11-.16,4.27-.17,6.41A.92.92,0,0,1,.92,200.66Zm294.89-4a.92.92,0,0,1-.92-.89c-.07-2.13-.18-4.28-.34-6.4a.92.92,0,0,1,.84-1,.93.93,0,0,1,1,.85c.16,2.15.28,4.33.35,6.48a.92.92,0,0,1-.89,1ZM1.55,187.79H1.46a.91.91,0,0,1-.83-1c.2-2.16.44-4.33.73-6.44a.91.91,0,0,1,1-.79.92.92,0,0,1,.79,1c-.29,2.09-.53,4.23-.73,6.36A.91.91,0,0,1,1.55,187.79Zm293.29-4a.94.94,0,0,1-.92-.81c-.25-2.13-.55-4.26-.9-6.35a.92.92,0,1,1,1.82-.3c.35,2.12.66,4.28.91,6.43a.92.92,0,0,1-.8,1ZM3.28,175l-.16,0a.92.92,0,0,1-.74-1.07c.38-2.11.81-4.25,1.29-6.35a.92.92,0,0,1,1.1-.7.93.93,0,0,1,.7,1.11c-.47,2.07-.9,4.18-1.28,6.27A.92.92,0,0,1,3.28,175Zm289.47-4a.92.92,0,0,1-.9-.73c-.44-2.09-.93-4.19-1.45-6.24a.92.92,0,1,1,1.78-.46c.53,2.08,1,4.21,1.47,6.32a.91.91,0,0,1-.71,1.09ZM6.14,162.45a1.07,1.07,0,0,1-.25,0,.93.93,0,0,1-.64-1.14c.56-2.06,1.18-4.16,1.85-6.21a.91.91,0,0,1,1.16-.6.92.92,0,0,1,.59,1.16c-.65,2-1.27,4.1-1.83,6.14A.92.92,0,0,1,6.14,162.45Zm283.41-3.89a.92.92,0,0,1-.88-.65c-.61-2-1.29-4.08-2-6.09a.93.93,0,0,1,.57-1.17.91.91,0,0,1,1.17.56c.72,2,1.4,4.11,2,6.16a.91.91,0,0,1-.61,1.15A.84.84,0,0,1,289.55,158.56Zm-279.46-8.4a.87.87,0,0,1-.32-.06.92.92,0,0,1-.55-1.18c.75-2,1.56-4.06,2.4-6a.92.92,0,1,1,1.7.72c-.83,2-1.63,4-2.37,6A.92.92,0,0,1,10.09,150.16Zm275.18-3.75a.92.92,0,0,1-.85-.58c-.8-2-1.64-4-2.52-5.88a.92.92,0,0,1,.46-1.22.94.94,0,0,1,1.22.46c.88,2,1.74,4,2.54,5.95a.92.92,0,0,1-.51,1.2A1,1,0,0,1,285.27,146.41ZM15.11,138.26a1,1,0,0,1-.4-.09.91.91,0,0,1-.43-1.22c.92-1.95,1.9-3.9,2.91-5.81a.92.92,0,0,1,1.25-.38.91.91,0,0,1,.38,1.24c-1,1.89-2,3.82-2.88,5.74A.92.92,0,0,1,15.11,138.26ZM280,134.7a.91.91,0,0,1-.82-.5c-1-1.89-2-3.78-3-5.64a.92.92,0,1,1,1.61-.91c1.06,1.88,2.09,3.8,3.06,5.71a.92.92,0,0,1-.41,1.24A.86.86,0,0,1,280,134.7ZM21.16,126.85a1,1,0,0,1-.47-.12.92.92,0,0,1-.33-1.26c1.09-1.86,2.24-3.72,3.41-5.53a.92.92,0,0,1,1.55,1c-1.16,1.79-2.29,3.63-3.37,5.46A.92.92,0,0,1,21.16,126.85Zm252.46-3.36a.9.9,0,0,1-.78-.43c-1.13-1.81-2.31-3.61-3.51-5.35a.92.92,0,1,1,1.52-1c1.21,1.77,2.41,3.59,3.55,5.42a.92.92,0,0,1-.78,1.41ZM28.17,116a1,1,0,0,1-.53-.17.93.93,0,0,1-.22-1.29c1.25-1.76,2.56-3.51,3.88-5.2a.92.92,0,1,1,1.45,1.13c-1.3,1.67-2.59,3.4-3.83,5.14A.92.92,0,0,1,28.17,116Zm238.16-3.15a.93.93,0,0,1-.74-.37c-1.27-1.7-2.61-3.39-4-5a.92.92,0,1,1,1.43-1.17c1.36,1.66,2.71,3.37,4,5.09a.92.92,0,0,1-.19,1.29A.88.88,0,0,1,266.33,112.88Zm-230.23-7a1,1,0,0,1-.6-.22.93.93,0,0,1-.1-1.3c1.4-1.64,2.85-3.27,4.32-4.85a.93.93,0,0,1,1.3,0,.94.94,0,0,1,0,1.31c-1.45,1.55-2.89,3.16-4.27,4.78A.9.9,0,0,1,36.1,105.86Zm222-2.93a.89.89,0,0,1-.68-.31c-1.43-1.58-2.9-3.15-4.39-4.67a.92.92,0,0,1,1.32-1.29c1.5,1.54,3,3.13,4.44,4.73a.92.92,0,0,1-.07,1.3A.93.93,0,0,1,258.14,102.93ZM44.88,96.42a.92.92,0,0,1-.65-.28.91.91,0,0,1,0-1.3c1.52-1.5,3.11-3,4.71-4.45a.93.93,0,0,1,1.3.06.91.91,0,0,1-.06,1.3c-1.59,1.44-3.15,2.92-4.66,4.4A.91.91,0,0,1,44.88,96.42Zm204.24-2.69a1,1,0,0,1-.63-.25c-1.55-1.45-3.15-2.89-4.77-4.28a.92.92,0,0,1,1.2-1.4c1.64,1.41,3.26,2.87,4.83,4.33a.92.92,0,0,1,0,1.3A.89.89,0,0,1,249.12,93.73Zm-194.67-6a.92.92,0,0,1-.59-1.63c1.65-1.37,3.36-2.73,5.08-4a.93.93,0,0,1,1.29.18.91.91,0,0,1-.18,1.29c-1.69,1.29-3.38,2.62-5,4A.92.92,0,0,1,54.45,87.78Zm184.88-2.45a.93.93,0,0,1-.57-.19c-1.68-1.32-3.4-2.61-5.13-3.85a.92.92,0,0,1,1.07-1.49c1.75,1.25,3.5,2.56,5.2,3.89a.92.92,0,0,1-.57,1.64ZM64.72,80a.92.92,0,0,1-.53-1.68c1.77-1.22,3.59-2.42,5.41-3.57a.93.93,0,0,1,1.28.29.92.92,0,0,1-.3,1.27c-1.8,1.14-3.6,2.32-5.34,3.52A.92.92,0,0,1,64.72,80Zm164.12-2.18a.91.91,0,0,1-.5-.15c-1.79-1.17-3.62-2.31-5.45-3.39a.92.92,0,1,1,.94-1.58c1.85,1.09,3.71,2.24,5.51,3.42a.92.92,0,0,1,.27,1.28A.91.91,0,0,1,228.84,77.83ZM75.62,73.16a.93.93,0,0,1-.8-.46.92.92,0,0,1,.35-1.26c1.87-1.06,3.78-2.1,5.69-3.08a.92.92,0,0,1,1.24.4A.91.91,0,0,1,81.7,70c-1.88,1-3.78,2-5.62,3A1,1,0,0,1,75.62,73.16Zm142.11-1.9a1,1,0,0,1-.43-.11c-1.89-1-3.81-2-5.73-2.9a.92.92,0,1,1,.8-1.66c1.94.93,3.89,1.92,5.79,2.93a.92.92,0,0,1,.38,1.25A.91.91,0,0,1,217.73,71.26Zm-130.66-4a.92.92,0,0,1-.38-1.76c1.94-.89,3.94-1.75,5.94-2.57a.92.92,0,0,1,.69,1.71c-2,.8-3.95,1.66-5.86,2.53A.92.92,0,0,1,87.07,67.3Zm119-1.61a.94.94,0,0,1-.36-.08c-2-.84-4-1.64-6-2.38a.92.92,0,0,1-.54-1.19.93.93,0,0,1,1.18-.54c2,.75,4,1.57,6,2.42a.91.91,0,0,1,.49,1.2A.93.93,0,0,1,206.08,65.69ZM99,62.46a.93.93,0,0,1-.87-.62.92.92,0,0,1,.56-1.17c2-.72,4.09-1.4,6.16-2a.92.92,0,0,1,.54,1.76c-2,.63-4.09,1.31-6.08,2A.85.85,0,0,1,99,62.46Zm95-1.3a.92.92,0,0,1-.28,0c-2-.65-4.08-1.27-6.14-1.84a.92.92,0,0,1-.64-1.13.92.92,0,0,1,1.13-.65c2.09.58,4.18,1.21,6.21,1.87a.92.92,0,0,1-.28,1.8Zm-82.66-2.48a.92.92,0,0,1-.23-1.81c2.09-.54,4.21-1,6.32-1.49a.92.92,0,0,1,1.09.71.91.91,0,0,1-.71,1.09c-2.08.44-4.18.94-6.23,1.47A1,1,0,0,1,111.32,58.68Zm70.24-1-.21,0c-2.08-.48-4.19-.91-6.27-1.3a.92.92,0,1,1,.33-1.81c2.11.39,4.25.83,6.35,1.31a.92.92,0,0,1-.2,1.82ZM123.93,56a.92.92,0,0,1-.15-1.83c2.12-.35,4.28-.66,6.42-.92a.92.92,0,1,1,.22,1.82c-2.11.26-4.24.57-6.34.92Zm44.95-.61h-.13c-2.08-.29-4.22-.54-6.36-.74a.92.92,0,1,1,.18-1.83c2.16.2,4.32.45,6.44.75a.92.92,0,0,1-.13,1.83Zm-32.16-1a.92.92,0,0,1-.07-1.84c2.15-.17,4.33-.3,6.48-.37a.93.93,0,0,1,1,.89.92.92,0,0,1-.89,1c-2.12.07-4.27.2-6.39.36Zm19.33-.27H156c-2.12-.1-4.27-.17-6.4-.18a.93.93,0,0,1,0-1.85h0c2.16,0,4.34.08,6.49.19a.93.93,0,0,1,.87,1A.91.91,0,0,1,156.05,54.17Z" style="fill:#fff"/><path d="M223.42,122.53h-2.87a20.65,20.65,0,0,0-.84-2.94l2.41-1.38a1.22,1.22,0,0,0,.44-1.65l-2.41-4.17a1.21,1.21,0,0,0-1.65-.44L216,113.39a18.37,18.37,0,0,0-2.19-2.13l1.39-2.4a1.21,1.21,0,0,0-.44-1.65l-4.17-2.41a1.21,1.21,0,0,0-1.64.44l-1.44,2.5a18.6,18.6,0,0,0-3-.75v-2.78a1.21,1.21,0,0,0-1.21-1.21h-4.81a1.21,1.21,0,0,0-1.21,1.21v2.87a20.87,20.87,0,0,0-2.93.83l-1.39-2.4a1.21,1.21,0,0,0-1.65-.44l-4.17,2.41a1.21,1.21,0,0,0-.44,1.64l1.45,2.5a19.06,19.06,0,0,0-2.13,2.18l-2.41-1.39a1.2,1.2,0,0,0-1.64.45L179.6,117a1.21,1.21,0,0,0,.45,1.65l2.49,1.44a19.14,19.14,0,0,0-.75,3H179a1.2,1.2,0,0,0-1.2,1.2v4.81a1.21,1.21,0,0,0,1.2,1.21h2.88a19.39,19.39,0,0,0,.83,2.94l-2.41,1.39a1.21,1.21,0,0,0-.44,1.64l2.41,4.17a1.22,1.22,0,0,0,1.65.44l2.49-1.44a19.15,19.15,0,0,0,2.19,2.13L187.22,144a1.19,1.19,0,0,0,.44,1.64l4.17,2.41a1.2,1.2,0,0,0,1.64-.44l1.44-2.49a19.71,19.71,0,0,0,3,.74v2.79a1.2,1.2,0,0,0,1.2,1.2h4.82a1.2,1.2,0,0,0,1.2-1.2v-2.88a19.39,19.39,0,0,0,2.94-.83l1.39,2.4a1.2,1.2,0,0,0,1.64.44l4.18-2.41a1.19,1.19,0,0,0,.43-1.64l-1.44-2.5a20,20,0,0,0,2.14-2.18l2.4,1.39a1.22,1.22,0,0,0,1.65-.44l2.4-4.18a1.19,1.19,0,0,0-.43-1.64l-2.5-1.44a19.31,19.31,0,0,0,.75-3h2.78a1.21,1.21,0,0,0,1.2-1.21v-4.81A1.21,1.21,0,0,0,223.42,122.53Zm-22.2,16.37a12.49,12.49,0,1,1,12.49-12.49A12.49,12.49,0,0,1,201.22,138.9Z" style="fill:#1695a4"/><path d="M200.8,138.89a12.49,12.49,0,0,1,0-25V103h-2.26a1.21,1.21,0,0,0-1.21,1.21v2.87a20.87,20.87,0,0,0-2.93.83l-1.39-2.4a1.21,1.21,0,0,0-1.65-.44l-4.17,2.41a1.21,1.21,0,0,0-.44,1.64l1.45,2.5a19.06,19.06,0,0,0-2.13,2.18l-2.41-1.39a1.2,1.2,0,0,0-1.64.45L179.6,117a1.21,1.21,0,0,0,.45,1.65l2.49,1.44a19.14,19.14,0,0,0-.75,3H179a1.2,1.2,0,0,0-1.2,1.2v4.81a1.21,1.21,0,0,0,1.2,1.21h2.88a19.39,19.39,0,0,0,.83,2.94l-2.41,1.39a1.21,1.21,0,0,0-.44,1.64l2.41,4.17a1.22,1.22,0,0,0,1.65.44l2.49-1.44a19.15,19.15,0,0,0,2.19,2.13L187.22,144a1.19,1.19,0,0,0,.44,1.64l4.17,2.41a1.2,1.2,0,0,0,1.64-.44l1.44-2.49a19.71,19.71,0,0,0,3,.74v2.79a1.2,1.2,0,0,0,1.2,1.2h1.73Z" style="fill:#15b0bf"/><path d="M201.21,111.2a15.21,15.21,0,1,0,15.22,15.21A15.2,15.2,0,0,0,201.21,111.2Zm0,27.7a12.49,12.49,0,1,1,12.49-12.49A12.49,12.49,0,0,1,201.22,138.9Z" style="fill:#1695a4"/><path d="M201.21,111.2h-.41v2.72h.42a12.49,12.49,0,1,1,0,25h-.42v2.72h.41a15.21,15.21,0,1,0,0-30.42Z" style="fill:#15b0bf"/><path d="M236.85,99.49H235.1a1.09,1.09,0,0,1-1-.7l-.32-.79a1.09,1.09,0,0,1,.19-1.18l1.23-1.23a.73.73,0,0,0,0-1l-1.91-1.92a.75.75,0,0,0-1,0L231,93.87a1.07,1.07,0,0,1-1.17.19l-.79-.33a1.07,1.07,0,0,1-.7-1V91a.74.74,0,0,0-.74-.74h-2.7a.74.74,0,0,0-.74.74v1.74a1.07,1.07,0,0,1-.7,1l-.79.33a1.09,1.09,0,0,1-1.18-.19l-1.23-1.24a.75.75,0,0,0-1,0l-1.91,1.92a.73.73,0,0,0,0,1l1.24,1.23a1.13,1.13,0,0,1,.19,1.18l-.33.79a1.09,1.09,0,0,1-1,.7h-1.75a.74.74,0,0,0-.73.74v2.7a.74.74,0,0,0,.73.74h1.75a1.1,1.1,0,0,1,1,.69l.33.79a1.12,1.12,0,0,1-.19,1.18l-1.24,1.24a.73.73,0,0,0,0,1l1.91,1.91a.73.73,0,0,0,1,0l1.23-1.23a1.09,1.09,0,0,1,1.18-.2l.79.33a1.08,1.08,0,0,1,.7,1v1.75a.74.74,0,0,0,.74.74h2.7a.74.74,0,0,0,.74-.74v-1.75a1.08,1.08,0,0,1,.7-1l.79-.33a1.07,1.07,0,0,1,1.17.2l1.24,1.23a.73.73,0,0,0,1,0l1.91-1.91a.73.73,0,0,0,0-1L234,106.33a1.09,1.09,0,0,1-.19-1.18l.32-.79a1.1,1.1,0,0,1,1-.69h1.75a.75.75,0,0,0,.74-.74v-2.7A.74.74,0,0,0,236.85,99.49Zm-10.56,5.65a3.56,3.56,0,1,1,3.56-3.56A3.56,3.56,0,0,1,226.29,105.14Z" style="fill:#de3f18"/><path d="M226.33,105.14h0a3.56,3.56,0,0,1,0-7.12h0V90.28h-1.39a.74.74,0,0,0-.74.74v1.74a1.07,1.07,0,0,1-.7,1l-.79.33a1.09,1.09,0,0,1-1.18-.19l-1.23-1.24a.75.75,0,0,0-1,0l-1.91,1.92a.73.73,0,0,0,0,1l1.24,1.23a1.13,1.13,0,0,1,.19,1.18l-.33.79a1.09,1.09,0,0,1-1,.7h-1.75a.74.74,0,0,0-.73.74v2.7a.74.74,0,0,0,.73.74h1.75a1.1,1.1,0,0,1,1,.69l.33.79a1.12,1.12,0,0,1-.19,1.18l-1.24,1.24a.73.73,0,0,0,0,1l1.91,1.91a.73.73,0,0,0,1,0l1.23-1.23a1.09,1.09,0,0,1,1.18-.2l.79.33a1.08,1.08,0,0,1,.7,1v1.75a.74.74,0,0,0,.74.74h1.39Z" style="fill:#fd6120"/><polygon points="149.89 193.23 149.89 153.52 149.89 133.61 164.15 119.35 203.95 119.35 203.95 134.08 203.95 153.52 203.95 193.23 149.89 193.23" style="fill:#fff"/><polygon points="164.15 133.61 149.89 133.61 164.15 119.35 164.15 133.61" style="fill:#15b0bf"/><polygon points="149.89 133.61 164.15 133.61 149.89 147.88 149.89 133.61" style="fill:#d1ecfb"/><path d="M163,177.33V168a8.75,8.75,0,1,0,9.31,9.31Z" style="fill:#2c5871"/><path d="M171.92,175.13a6.54,6.54,0,0,0-6.55-6.54v6.54Z" style="fill:#f99b1c"/><path d="M167.29,150.3a3.81,3.81,0,0,1-.83,1.43l2.84,4a8.75,8.75,0,0,0,2.87-4.87Z" style="fill:#a6dae9"/><path d="M164.39,145.26a3.9,3.9,0,0,1,3.08,3.46l4.86.53c0-.05,0-.11,0-.16a8.73,8.73,0,0,0-8-8.7Z" style="fill:#f99b1c"/><path d="M160.72,146.47a3.86,3.86,0,0,1,2.08-1.21v-4.87a8.7,8.7,0,0,0-6.29,3.6Z" style="fill:#15b0bf"/><path d="M165.17,152.66a3.89,3.89,0,0,1-5.48-3.57,4,4,0,0,1,.22-1.25l-4.21-2.48a8.73,8.73,0,0,0,7.9,12.47,8.61,8.61,0,0,0,4.41-1.21Z" style="fill:#2c5871"/><rect x="176.46" y="140.39" width="21.07" height="2.16" style="fill:#15b0bf"/><rect x="176.46" y="147.18" width="21.07" height="2.16" style="fill:#a6dae9"/><rect x="176.46" y="153.98" width="21.07" height="2.16" style="fill:#a6dae9"/><rect x="176.46" y="168.02" width="14.66" height="2.16" style="fill:#15b0bf"/><rect x="176.46" y="174.81" width="21.07" height="2.16" style="fill:#a6dae9"/><rect x="176.46" y="181.61" width="21.07" height="2.16" style="fill:#a6dae9"/><path d="M83.63,178.06a41.51,41.51,0,0,0,0-83Z" style="fill:#8fc4d7"/><path d="M83.63,95.05a41.51,41.51,0,1,0,0,83Z" style="fill:#a6dae9"/><path d="M123.33,147.83c-.54,0-1.25.27-1.26.46s-.77.53-1,.63a3.4,3.4,0,0,0-.84,1.12c-.1.26-.71.18-.95.28s-.69.48-.69.71-.13.2-.28-.06l-.3.32-.36.39a3.21,3.21,0,0,1-1.11,1.51c-.23.06-.27,1.19-.27,1.63a2.13,2.13,0,0,0,.39,1.24l0,.36.07.71a1.32,1.32,0,0,0,.42,1.15,6.24,6.24,0,0,0,1.54-.28,2.77,2.77,0,0,0,.56-.23,40.83,40.83,0,0,0,4.27-9.91A.83.83,0,0,0,123.33,147.83Z" style="fill:#0e303f"/><path d="M54.8,148.9c-.06.11.68.87,1,1.13a7.5,7.5,0,0,1,1,1.92,3.36,3.36,0,0,1,0,1.23c0,.16.14.5.16.65a10.62,10.62,0,0,0-.14,1.85c.1.5-.58,2-.56,2.79s.36,1.75.5,1.68.18.69-.05.78-.5.7-.37.73,0,.63,0,.87l.28,2.21a11,11,0,0,0,.72,1.68c.12.33.24.94.29,1a.76.76,0,0,0,.11.19,4.9,4.9,0,0,1,.59.27,3.63,3.63,0,0,0,1.31,0c.29-.06,0-.32-.11-.47s-.24-.85-.39-.92-.22-1-.09-1.16.67-.51.73-.68.07-.94-.07-1,0-1.05-.07-1.52.82-.89.87-1.27,1.05-.77,1.28-1a2.38,2.38,0,0,0,.31-1.49c-.11-.22.37-.41.58-.41a2.93,2.93,0,0,0,.54-.15c.08,0,.33-.47.47-.58s.42-1.24.66-1.42a2,2,0,0,0,.46-1.07,3.59,3.59,0,0,1,.5-1,6.06,6.06,0,0,1,1.22-.67,7.46,7.46,0,0,0,.49-2.1,14.65,14.65,0,0,1,.36-1.44c0-.17.32-.32.37-.38s.28-.74.42-.9a4.36,4.36,0,0,0,.68-1,5.51,5.51,0,0,1,.17-.83v-.94c-.16-.46-.66-1-.79-.9s-.7-.4-1-.51a6.19,6.19,0,0,0-1.21-.2c-.19,0-.83-.52-1.12-.61a11.72,11.72,0,0,1-1.15-.32c-.13-.08-.31-1.18-.9-1.53a6.56,6.56,0,0,1-1.75-1.5c-.11-.3-1.24-.94-1.6-1.13a1.36,1.36,0,0,0-.94-.17c-.07.06-.51-.59-.73-.78s-.91-.34-.94-.18-.48.08-.59-.06-.45.06-.62.11-.73.92-1,1.12-.57-.19-.74-.26a2,2,0,0,0-1,.25c-.18.13-.59-.91-.5-1.39s-.42-1.43-.83-1.45-.53-1-.45-1.39-.73-.6-.93-.62-.71.49-.79.74-1.93-.34-1.71-1.44a5.13,5.13,0,0,1,1.3-2.38,3.32,3.32,0,0,1,1.66-.05.43.43,0,0,0,.54-.07,3.42,3.42,0,0,1,1.3.13c.28.12.7,1.23,1,1.36s.41-.72.46-.92a2.16,2.16,0,0,0-.22-.89,3.13,3.13,0,0,1,.93-1.73,2.1,2.1,0,0,0,.89-1.11c0-.13.36-.23.46-.29s0-1.15.16-1.38a5.24,5.24,0,0,1,1.29-.85,1,1,0,0,0,.38-.92c-.1-.13.69-.79,1.1-.93s.76.24.66.29c.08,0,.64-.33.89-.49s0-.7-.18-.85-.07-.74.14-.79.41-.57.35-.68.9.09,1.27-.18.1.65-.16,1a.42.42,0,0,0,.36.65c.18-.07.36.2.39.3s.41-.1.65,0,.38-.33.4-.53-.57-.62-.67-.86a15.13,15.13,0,0,1-.14-1.94c0-.29-.4-.75-.53-.67s-.37-.75-.58-.93a1,1,0,0,1-.23-.71c0-.13-.69-.85-.85-1.19s-.4-.26-.41-.11-.5.17-.69.15-.36-.77-.36-1.06-.89-.34-1-.57-.72-.12-.82-.28a.91.91,0,0,0-.7-.25c-.11.06-.06,2.12-.16,2.68s-.57,1.05-.74,1-.07.4,0,.36-.34.61-.39,1-.49,0-.56-.41-.49-.9-.57-.77-.37-.16-.5-.07-.91-.47-1.23-.64-.5-1.15-.69-1.24,0-.21,0-.35.62-.73.81-1A11.62,11.62,0,0,1,53.91,113a1.17,1.17,0,0,0,.44-.8,7.24,7.24,0,0,1,1.5-.59c.32-.11.61-1,.65-1.29a1.09,1.09,0,0,0-.35-.82c-.16-.07.45-.09.65,0s.83-.19,1.08-.06.75.43,1.1.66l-.07.67-.15,1.14c-.95.4-1.23,1.08-.89,1.07a7.8,7.8,0,0,1,2.29,1c.43.31.56-.45.69-.7a1.8,1.8,0,0,0,0-1.13c-.1-.14.5-.09.67.07s.37-.17.5-.22.19-.69.26-.82-.28-.25-.29-.41-.7-.45-.92-.56-.28-.58-.16-.66-.08-.68-.19-.88-.83-.36-1.07-.36-.48-.56-.62-.64a3.54,3.54,0,0,0-1.28-.11c-.23.07-.65-.65-1-.44s-.78-.25-1-.35-1.08.87-1.07,1.55a1.91,1.91,0,0,0,.49,1.36c.14,0,0,.63-.19.8s-.53-.18-.39-.34-.39-.86-.57-1.15a2.32,2.32,0,0,0-.91-.52c-.19.2-.37.41-.55.61a1.51,1.51,0,0,1,.07.81c-.13.42-.48.48-.5.3S52,110,51.74,110a41.35,41.35,0,0,0-9.33,21.7,2.61,2.61,0,0,1,.49.69c.11.37.74.61.86.68s.16-.7.08-.9.15-.32.15-.17.59.82.79,1.07.4,1.83.59,2.17A7.7,7.7,0,0,0,48,136.42a3.07,3.07,0,0,1,1.44,1c.12.19.9.28,1.07.36s.57.61.73.72a.87.87,0,0,1,.3.51c0,.08,1,.47,1.28.75a.55.55,0,0,0,.74.08c.08-.12.29.55.39.78a1.44,1.44,0,0,1,0,.88,12.49,12.49,0,0,1-.4,1.34,5.38,5.38,0,0,0-.47,2,2.45,2.45,0,0,0,.78,1,.23.23,0,0,1,0,.43c-.16,0-.09,1.46.3,1.68S54.86,148.79,54.8,148.9Z" style="fill:#0e303f"/><path d="M59.69,123.62h0S59.67,123.62,59.69,123.62Z" style="fill:#0e303f"/><path d="M56.85,106.11a3.86,3.86,0,0,0,1.38-.36.81.81,0,0,0,0-.57h.24c.19,0,.51-1,.71-1.27a9.83,9.83,0,0,1,1.6-.76,9.36,9.36,0,0,1,1.09-.8c.23-.07.56-.6.51-.71s.77-.6,1.08-.73.47-.5.36-.52-1.81.9-3.4,1.8a42.09,42.09,0,0,0-5.11,4.1C55.76,106.26,56.52,106.17,56.85,106.11Z" style="fill:#0e303f"/><path d="M86.87,157.77a14.8,14.8,0,0,0,1.73-1.93,4.49,4.49,0,0,0,.57-1.51,1.44,1.44,0,0,1,.68-.62c.17-.05.71-2.29,1.18-2.78a8.18,8.18,0,0,0,1-3.71,11.81,11.81,0,0,1,.41-2.86,3.89,3.89,0,0,1,.89-1.22A26.55,26.55,0,0,0,95,140.7a5.44,5.44,0,0,0,.64-2.24c-.07-.32-.86-.54-1-.38a2.77,2.77,0,0,1-1.13.28c-.25,0-.79-1.28-1.13-1.55s-.65-1.72-.84-2a13.72,13.72,0,0,0-.92-1.14c-.17-.17-.2-.94-.24-1.16s.33.14.4.45a14.69,14.69,0,0,0,1.21,2c.27.43,1,1.77,1.17,2.19s1.78.2,2.3,0,1.16-.66,1.18-.81.85-.52,1.08-.7.44-1.15.59-1.3-.12-1.07-.3-1.34a1.49,1.49,0,0,0-1.16-.39c-.17.11-.53-.61-.65-.87s-.76-.59-.83-.77.17-.47.27-.54a5.38,5.38,0,0,1,1.6,1.17,8.61,8.61,0,0,1,.79,1.29,1.73,1.73,0,0,0,1.18,0,.34.34,0,0,1,.53.08l.29,0,1-.15a2,2,0,0,1,.6,1.07,1,1,0,0,0,.49.56c.19.05.34.71.4.87s.63,1.16.75,1.57a9.72,9.72,0,0,0,.73,1.45,3.38,3.38,0,0,1,.21,1,.76.76,0,0,0,.6.5c.23,0,.7-1.47.81-2a1.52,1.52,0,0,1,.58-1c.1,0,.19-.3.19-.42s.59-.1.64-.25.22-1.1.43-1.24a8.64,8.64,0,0,1,1.21-.73c.26-.09.93.49,1.08.75A2.38,2.38,0,0,1,110,136c0,.11.35.7.71.69s.46.45.47.62.48.64.58.85a1.9,1.9,0,0,1,0,.92,3,3,0,0,0,0,1.1,9.92,9.92,0,0,0,1.56,1.65c.4.34.6-.68.39-1s-.92-1.05-1.09-1.27a2.81,2.81,0,0,1-.13-1.35c.06-.24.62.14.85.32a1.65,1.65,0,0,1,.55.71c0,.13,1.47-.69,1.52-1.58a9.69,9.69,0,0,1,.58-2.12c0-.23-.14-.55-.26-.56s.21-.68.62-.67,1.4-1.08,1.63-1.52a3.4,3.4,0,0,1,.76-.85,7.75,7.75,0,0,0,.43-1.5,4.47,4.47,0,0,0-.27-1.31,4.71,4.71,0,0,0-.48-.89,2,2,0,0,1-.12-.87c.05-.11.42-.23.46-.32s.46-.55.43-.75.26.25.46.42.4,1.22.64,1.34,1.21-1.13,1.09-1.93a2.49,2.49,0,0,1,.51-1.91,5,5,0,0,0,.94-1.18,41.58,41.58,0,0,0-10.22-16.11h-.16l-.35-.08c-.6-.13-.94-.76-.84-.91a.45.45,0,0,0,0-.28c-.33-.3-.67-.59-1-.88h-.75a3.28,3.28,0,0,1-1.27-.4c-.14-.14-.61.12-.63.38s-.85.37-.93.57a.43.43,0,0,1-.57.1c-.09-.11-.84.26-1.22.32a6.36,6.36,0,0,0-1.23.43,1.87,1.87,0,0,0-.63.62c-.07.17-.55.43-.7.5s-.13.76.07.86-.37-.09-.62-.22-.53.3-.61.45-.31-.09-.3-.3-.62-.38-.7-.21-.52-.06-.7-.15-1,.72-1.25,1a3.39,3.39,0,0,1-1.94.41c-.26-.11-.51.62-.29.66s-.56,0-1,0a6.91,6.91,0,0,0-2,.76.32.32,0,0,1-.54-.22c0-.17-.48-.33-.62-.38s-.42.94-.67,1.13-.54-.77-1.13-.93-1.5-.72-1.76-.78a3.66,3.66,0,0,1-.92-.78,2.78,2.78,0,0,0-1.14-.28,3.48,3.48,0,0,0-1.21.62c-.22.17-.53.13-.63.2s-1,.92-1.31,1.18A11.13,11.13,0,0,0,82,112a.8.8,0,0,1-.59.34c-.11,0-.2.31-.2.42s-1,.64-1.11,1.09a10.21,10.21,0,0,0,.1,1.87c0,.37.37,1.11.65,1.12s.13.63.06.8.17.36.17.51-.71.35-.92.44a1.63,1.63,0,0,0-.62.74c0,.16-.7.27-.92.49a3.91,3.91,0,0,1,.18-.49.78.78,0,0,0-.15-.75c-.1-.09-.15-1.3-.32-1.56a5.88,5.88,0,0,0-.7-.78c-.1-.08.07-.4.13-.54s-.56-.21-.73-.11-.26,1.3-.33,1.62a1,1,0,0,0,.41.85c.1,0,.07.62-.14.64s-.43.88-.31,1.07-.16.58-.29.67.84,0,1.28,0,.79.19.74.22-.84.16-1,.35-.69.55-.8.7.18.47.41.45.5.8.68.94a.69.69,0,0,1,0,.69c-.08.11-1.16-.08-1.57,0s-.93,1-1,1.3a9.22,9.22,0,0,0,.12,1.53c.06.26.92.42,1.09.55s1,0,1.17.08.72-.83.84-1.25,1-1.21,1.16-1.5,1.13-.25,1.36-.4.11.71.22,1.19,1,.42.88,0,.09-.64.13-.48.9.52,1.07.77.11.78-.08.78-.2.58,0,.65.47-.67.69-.78.4-.56.3-.6.18-.44.31-.31a5.66,5.66,0,0,0-.84-1.26c-.37-.37-.11-.2.59.37l.47.67c.09.12.22.49.3.62l.11.2a4.21,4.21,0,0,1,.18,1,.74.74,0,0,0,.6.49c.23,0,.4.11.35.12s.15.45.38.46.32-.57.1-.59-.2-.85-.23-1.21.17-.67.24-.67,0,.75,0,.92a2.3,2.3,0,0,0,.21.76l.23.18.53.4c.75-.22,1.76,0,1.72.11s.55.19.59-.06.06,0,.06.18-.49.84-.57,1.15-1.82.1-2.56,0a3.09,3.09,0,0,0-1.94.42c-.08.23-1.25-.51-1.78-.74s-1-1-1.07-1.14.1-.37,0-.53-1.27-.2-1.62-.07-2.18.33-2.61.52a2.33,2.33,0,0,1-1.29,0c-.21,0-.69.56-.93.67a3.22,3.22,0,0,0-.69,1.88l-.34.65-.22.41a9.78,9.78,0,0,0-1.46,2.3,14.56,14.56,0,0,0-.35,3.26,10.14,10.14,0,0,0,.83,2.75,6.59,6.59,0,0,0,1.67,1.62,6.12,6.12,0,0,0,2,.26,1.24,1.24,0,0,0,1-.85l.58.06.27,0c0,.33.88.59,1.09.7a1.79,1.79,0,0,0,1,0c.17-.05.36,1.48.23,1.92a8.6,8.6,0,0,0,.43,2.45c.12.46.65,1.74.7,2.19a21.76,21.76,0,0,1-.37,2.51,9.83,9.83,0,0,0,.86,2.53,8.39,8.39,0,0,1,.34,1.87c0,.25.79,1.79,1,2.42S86.34,158.08,86.87,157.77Z" style="fill:#0e303f"/><path d="M121.08,138.93c.06.11.55-.28.85-.33s.49-.85.26-.91-.53-.68-.7-.75-.5.26-.49.51-.54.34-.64.54-.11.35,0,.33S121,138.82,121.08,138.93Z" style="fill:#0e303f"/><path d="M120.47,143.29c.15-.06,0-.85-.32-.92s-1.18,1-1,1.69.34.59.43.46.6.09.75.14.15-.11,0-.34A1.2,1.2,0,0,1,120.47,143.29Z" style="fill:#0e303f"/><path d="M118.78,142.51c0-.28.09-1.17.13-1.34s-.48-.69-.74-.78-1.1,1.73-1.7,2.05a1.69,1.69,0,0,0-.66,1.68c.16.26,1.41.39,1.63.59s.47,0,.6-.07.09-.11,0-.15.43-.54.51-.87S118.74,142.79,118.78,142.51Z" style="fill:#0e303f"/><path d="M115.37,145.54a.94.94,0,0,0-1.07.28c0,.18,1.81.47,2.42.64s1,.22.86.12A22.85,22.85,0,0,0,115.37,145.54Z" style="fill:#0e303f"/><path d="M119.13,133.46c.15-.21-.21-1.18-.38-1s0,.79,0,1S119,133.67,119.13,133.46Z" style="fill:#0e303f"/><path d="M120.25,135.54c.11-.25-.13-.52-.54-.61s-.34,1.13-.16,1.28S120.14,135.8,120.25,135.54Z" style="fill:#0e303f"/><path d="M122.34,143c.48.34,1.55.18,1.59-.47C123.45,142.25,122.3,142.3,122.34,143Z" style="fill:#0e303f"/><path d="M122.08,128.22a.67.67,0,0,0-.24.64h-.08c-.16,0-.18.63,0,.74s.57-.5.78-.64a1.2,1.2,0,0,1,.7-.19,1.72,1.72,0,0,0,.83-.24.74.74,0,0,0,.23-.29c-.09-.46-.2-.91-.31-1.37-.2.15-.43.3-.53.4S122.34,128,122.08,128.22Z" style="fill:#0e303f"/><path d="M111.11,141h0C111,140.9,111,140.89,111.11,141Z" style="fill:#0e303f"/><path d="M114.1,143.74a5.13,5.13,0,0,0-1.27-1.47l-.21-.33-.22-.37c-.19-.39-.79-.7-.84-.82s-.24.35-.44.21l.64.46c.56.4,1.63,3.1,1.87,3.29S114.28,144.14,114.1,143.74Z" style="fill:#0e303f"/><path d="M105.53,139.38c-.15.3.8,1,.87.8a1.75,1.75,0,0,0-.29-1.06C105.94,139,105.68,139.07,105.53,139.38Z" style="fill:#0e303f"/><path d="M93,153.82c0,.32.69.57.88.52a3.5,3.5,0,0,0,.79-1.3,6.7,6.7,0,0,0,.13-1,.87.87,0,0,1,.17-.5,1.89,1.89,0,0,0,.26-.73,20.89,20.89,0,0,0-.4-2.37c0-.31-.35.15-.44.45s-.94.92-1.13,1.18a2.59,2.59,0,0,0-.32,1.28,1.87,1.87,0,0,1-.16.91A9.82,9.82,0,0,0,93,153.82Z" style="fill:#0e303f"/><path d="M62.39,165.62H63C63.06,165,62.36,165.1,62.39,165.62Z" style="fill:#0e303f"/><path d="M77.6,101.4a2.07,2.07,0,0,1-1-.21,2.29,2.29,0,0,0-1.3-.1c-.27.11-.09-.66.28-.74s.06-.61-.33-.61-1.38-.15-1.61-.1-.68-.16-.84-.18a16.61,16.61,0,0,1-1.9.32,13.23,13.23,0,0,0-2.22.12c-.3.08-.51.65-.47.86s-1.32.2-1.75.21a13.77,13.77,0,0,0-3.31.82c-.6.33-1.07,1.17-.87,1.18s-.33.49-.65.61-1.09.16-1.27.34.19.3.26.42.29-.1.49,0a9,9,0,0,0,1,.24c.18.07-.56.21-.91.23s-.27.72,0,.81,1,.2,1.1.08.87.13,1.23.17.63.94.74,1.13a2.84,2.84,0,0,1,.1,1.08c0,.2.64.56.76.43s.08.31-.18.29-.09.74.23.85.11.58-.08.72-.09.59-.28.75.68,1.67.68,2.45.48,1.41.66,1.41.83.16.91.33.4-.12.52-.25a5.4,5.4,0,0,0,.57-.83,19.39,19.39,0,0,0,.7-2.06c.06-.16.79-.06,1-.14a9.28,9.28,0,0,0,.78-.58c.14-.11,1.18-.55,1.47-.76s.76-1.09,1-1.28-.11-.14-.39-.32a.3.3,0,0,1-.08-.49,3.32,3.32,0,0,1,1.22.25c.29.12.84-.28.63-.44s-.1-.15,0-.08.21-.51.1-.62.85-.82.68-1.48.27-1.35.53-1.36.18-.75-.13-.82,0-.14.1-.24a1.7,1.7,0,0,0,.2-.9c-.08-.13.47-.27.56-.42a2.64,2.64,0,0,1,.94-.5C77.72,102,77.84,101.37,77.6,101.4Z" style="fill:#0e303f"/><path d="M83,101.94c-.3-.1-.9.23-.82.41s-.49-.24-.88,0-.51.9-.33,1,.32.64.32.75.77,0,1-.13.16.56,0,.75.07.58.28.62.5.53.72.52.59-.84.67-1.16.82-.06,1.15,0,.45-1.15.09-1.35-.81-.09-1-.23a1.19,1.19,0,0,0-.57-.31C83.46,102.78,83.3,102,83,101.94Z" style="fill:#0e303f"/><path d="M85.91,102.54a2,2,0,0,0,1.38-.54c.15-.13-1.62-.49-2.29-.51s-1.22.07-1.21.2A6.72,6.72,0,0,0,85.91,102.54Z" style="fill:#0e303f"/><path d="M75.22,118.38c-.15-.07-.24.51-.2.73s.57.2.8.16a.44.44,0,0,0,.4-.41c0-.19-.33-1-.46-1S75.38,118.44,75.22,118.38Z" style="fill:#0e303f"/><path d="M77,111.64c-.12-.21-1-.18-1.27-.2a2.56,2.56,0,0,1-1-.39c-.12-.14-.23.57-.44.66s.11.23.19.15,0,.37-.1.52.62.26.7.49a.56.56,0,0,0,.64.33c.28,0,.84-.33,1-.35S77.08,111.85,77,111.64Z" style="fill:#0e303f"/><path d="M96.25,106.38c.32-.32,1.61-.74,1.76-1.07a.42.42,0,0,0-.22-.6.55.55,0,0,0-.33.22c0,.06-1.52.41-2,.63a5.49,5.49,0,0,0-1.19.75c-.19.2-.5,1.67-.62,1.84s.5.77.77.93a1,1,0,0,0,.74,0c.11,0-.14-1.06-.28-1.42S95.93,106.7,96.25,106.38Z" style="fill:#0e303f"/><path d="M94.65,102.53c.49.49.76-.22,1.3-.15C95.94,101.4,94.61,101.73,94.65,102.53Z" style="fill:#0e303f"/><path d="M104.19,102.72c0,.18,1.35.32,1.75.25s-.08-.69-.66-.66S104.2,102.53,104.19,102.72Z" style="fill:#0e303f"/><path d="M54.53,112.89c-.15.13,0,.8.25.82s.72-1,1-.81.57.29.51.18a10.81,10.81,0,0,0-1.13-.6C55.09,112.41,54.67,112.76,54.53,112.89Z" style="fill:#0e303f"/><path d="M58,135.66c0,.11.59.1.69-.09s.05-.33-.12-.33S58,135.54,58,135.66Z" style="fill:#0e303f"/><path d="M55.38,134.68c.28-.06.15.4.21.57s.76.3.9.41.49-.21.76-.17-.09-1-.55-.93-.82-.41-.93-.47a8.71,8.71,0,0,1-.8-.49,6.56,6.56,0,0,0-1.72-.23,1.3,1.3,0,0,0-.89.54c-.07.13.63.22.82.12a2,2,0,0,1,1.32.34A1.06,1.06,0,0,0,55.38,134.68Z" style="fill:#0e303f"/><path d="M54.12,135.66c0,.11.61,0,.75.05s.14-.1,0-.22S54.12,135.54,54.12,135.66Z" style="fill:#0e303f"/><path d="M54.55,132.55c-.16-.06-.28.19-.28.3a.2.2,0,0,0,.19.21C54.56,133.06,54.71,132.62,54.55,132.55Z" style="fill:#0e303f"/><path d="M55.82,132.65a.61.61,0,0,0-.39-.21c-.08,0-.14.2-.12.44S55.87,132.76,55.82,132.65Z" style="fill:#0e303f"/><path d="M56.73,134.05c.24-.12.27-.41.13-.39s-.42-.42-.57-.48-.29.26-.29.4.09.24.2.21S56.48,134.17,56.73,134.05Z" style="fill:#0e303f"/><path d="M124.16,143.53c-.13.07-.74.14-.82,0s-.2.25-.33.31-.06.38.14.28.71.25,1.18.54c.09-.46.17-.93.25-1.4C124.41,143.37,124.24,143.49,124.16,143.53Z" style="fill:#0e303f"/><path d="M54.8,148.9c-.06.11.68.87,1,1.13a7.5,7.5,0,0,1,1,1.92,3.36,3.36,0,0,1,0,1.23c0,.16.14.5.16.65a10.62,10.62,0,0,0-.14,1.85c.1.5-.58,2-.56,2.79s.36,1.75.5,1.68.18.69-.05.78-.5.7-.37.73,0,.63,0,.87l.28,2.21a11,11,0,0,0,.72,1.68c.12.33.24.94.29,1a.76.76,0,0,0,.11.19,4.9,4.9,0,0,1,.59.27,3.63,3.63,0,0,0,1.31,0c.29-.06,0-.32-.11-.47s-.24-.85-.39-.92-.22-1-.09-1.16.67-.51.73-.68.07-.94-.07-1,0-1.05-.07-1.52.82-.89.87-1.27,1.05-.77,1.28-1a2.38,2.38,0,0,0,.31-1.49c-.11-.22.37-.41.58-.41a2.93,2.93,0,0,0,.54-.15c.08,0,.33-.47.47-.58s.42-1.24.66-1.42a2,2,0,0,0,.46-1.07,3.59,3.59,0,0,1,.5-1,6.06,6.06,0,0,1,1.22-.67,7.46,7.46,0,0,0,.49-2.1,14.65,14.65,0,0,1,.36-1.44c0-.17.32-.32.37-.38s.28-.74.42-.9a4.36,4.36,0,0,0,.68-1,5.51,5.51,0,0,1,.17-.83v-.94c-.16-.46-.66-1-.79-.9s-.7-.4-1-.51a6.19,6.19,0,0,0-1.21-.2c-.19,0-.83-.52-1.12-.61a11.72,11.72,0,0,1-1.15-.32c-.13-.08-.31-1.18-.9-1.53a6.56,6.56,0,0,1-1.75-1.5c-.11-.3-1.24-.94-1.6-1.13a1.36,1.36,0,0,0-.94-.17c-.07.06-.51-.59-.73-.78s-.91-.34-.94-.18-.48.08-.59-.06-.45.06-.62.11-.73.92-1,1.12-.57-.19-.74-.26a2,2,0,0,0-1,.25c-.18.13-.59-.91-.5-1.39s-.42-1.43-.83-1.45-.53-1-.45-1.39-.73-.6-.93-.62-.71.49-.79.74-1.93-.34-1.71-1.44a5.13,5.13,0,0,1,1.3-2.38,3.32,3.32,0,0,1,1.66-.05.43.43,0,0,0,.54-.07,3.42,3.42,0,0,1,1.3.13c.28.12.7,1.23,1,1.36s.41-.72.46-.92a2.16,2.16,0,0,0-.22-.89,3.13,3.13,0,0,1,.93-1.73,2.1,2.1,0,0,0,.89-1.11c0-.13.36-.23.46-.29s0-1.15.16-1.38a5.24,5.24,0,0,1,1.29-.85,1,1,0,0,0,.38-.92c-.1-.13.69-.79,1.1-.93s.76.24.66.29c.08,0,.64-.33.89-.49s0-.7-.18-.85-.07-.74.14-.79.41-.57.35-.68.9.09,1.27-.18.1.65-.16,1a.42.42,0,0,0,.36.65c.18-.07.36.2.39.3s.41-.1.65,0,.38-.33.4-.53-.57-.62-.67-.86a15.13,15.13,0,0,1-.14-1.94c0-.29-.4-.75-.53-.67s-.37-.75-.58-.93a1,1,0,0,1-.23-.71c0-.13-.69-.85-.85-1.19s-.4-.26-.41-.11-.5.17-.69.15-.36-.77-.36-1.06-.89-.34-1-.57-.72-.12-.82-.28a.91.91,0,0,0-.7-.25c-.11.06-.06,2.12-.16,2.68s-.57,1.05-.74,1-.07.4,0,.36-.34.61-.39,1-.49,0-.56-.41-.49-.9-.57-.77-.37-.16-.5-.07-.91-.47-1.23-.64-.5-1.15-.69-1.24,0-.21,0-.35.62-.73.81-1A11.62,11.62,0,0,1,53.91,113a1.17,1.17,0,0,0,.44-.8,7.24,7.24,0,0,1,1.5-.59c.32-.11.61-1,.65-1.29a1.09,1.09,0,0,0-.35-.82c-.16-.07.45-.09.65,0s.83-.19,1.08-.06.75.43,1.1.66l-.07.67-.15,1.14c-.95.4-1.23,1.08-.89,1.07a7.8,7.8,0,0,1,2.29,1c.43.31.56-.45.69-.7a1.8,1.8,0,0,0,0-1.13c-.1-.14.5-.09.67.07s.37-.17.5-.22.19-.69.26-.82-.28-.25-.29-.41-.7-.45-.92-.56-.28-.58-.16-.66-.08-.68-.19-.88-.83-.36-1.07-.36-.48-.56-.62-.64a3.54,3.54,0,0,0-1.28-.11c-.23.07-.65-.65-1-.44s-.78-.25-1-.35-1.08.87-1.07,1.55a1.91,1.91,0,0,0,.49,1.36c.14,0,0,.63-.19.8s-.53-.18-.39-.34-.39-.86-.57-1.15a2.32,2.32,0,0,0-.91-.52c-.19.2-.37.41-.55.61a1.51,1.51,0,0,1,.07.81c-.13.42-.48.48-.5.3S52,110,51.74,110l-.55.69c-.18.22-.36.45-.53.68s-.38.49-.56.74l-.48.67q-.36.51-.69,1c-.22.33-.43.67-.64,1s-.35.58-.52.88-.24.4-.35.6l-.51.93-.27.54c-.38.73-.73,1.47-1.06,2.23a.33.33,0,0,1,0,.06c-.16.38-.32.76-.47,1.14-.06.14-.11.28-.17.43-.15.39-.3.78-.44,1.17l-.06.2A40,40,0,0,0,43.23,127l-.06.28a41.79,41.79,0,0,0-.76,4.36v0a2.61,2.61,0,0,1,.49.69c.11.37.74.61.86.68s.16-.7.08-.9.15-.32.15-.17.59.82.79,1.07.4,1.83.59,2.17A7.7,7.7,0,0,0,48,136.42a3.07,3.07,0,0,1,1.44,1c.12.19.9.28,1.07.36s.57.61.73.72a.87.87,0,0,1,.3.51c0,.08,1,.47,1.28.75a.55.55,0,0,0,.74.08c.08-.12.29.55.39.78a1.44,1.44,0,0,1,0,.88,12.49,12.49,0,0,1-.4,1.34,5.38,5.38,0,0,0-.47,2,2.45,2.45,0,0,0,.78,1,.23.23,0,0,1,0,.43c-.16,0-.09,1.46.3,1.68S54.86,148.79,54.8,148.9Z" style="fill:#2c5871"/><path d="M59.69,123.61h0Z" style="fill:#2c5871"/><path d="M56.85,106.11a3.86,3.86,0,0,0,1.38-.36.81.81,0,0,0,0-.57h.24c.19,0,.51-1,.71-1.27a9.83,9.83,0,0,1,1.6-.76,9.36,9.36,0,0,1,1.09-.8c.23-.07.56-.6.51-.71s.77-.6,1.08-.73.47-.5.36-.52-1.81.9-3.4,1.8l0,0c-.45.3-.9.62-1.34,1s-.59.45-.89.69l-.46.36c-.35.28-.7.57-1,.87l-.21.18c-.38.33-.75.67-1.12,1C55.76,106.26,56.52,106.17,56.85,106.11Z" style="fill:#2c5871"/><path d="M83.11,126.38c-.19,0-.2.58,0,.65s.33-.33.51-.58v-2.32s0,0,0,0c-.24-.25-.21-.25,0-.06v-14.2c-.21.2-.42.38-.54.48A11.13,11.13,0,0,0,82,112a.8.8,0,0,1-.59.34c-.11,0-.2.31-.2.42s-1,.64-1.11,1.09a10.21,10.21,0,0,0,.1,1.87c0,.37.37,1.11.65,1.12s.13.63.06.8.17.36.17.51-.71.35-.92.44a1.63,1.63,0,0,0-.62.74c0,.16-.7.27-.92.49a3.91,3.91,0,0,1,.18-.49.78.78,0,0,0-.15-.75c-.1-.09-.15-1.3-.32-1.56a5.88,5.88,0,0,0-.7-.78c-.1-.08.07-.4.13-.54s-.56-.21-.73-.11-.26,1.3-.33,1.62a1,1,0,0,0,.41.85c.1,0,.07.62-.14.64s-.43.88-.31,1.07-.16.58-.29.67.84,0,1.28,0,.79.19.74.22-.84.16-1,.35-.69.55-.8.7.18.47.41.45.5.8.68.94a.69.69,0,0,1,0,.69c-.08.11-1.16-.08-1.57,0s-.93,1-1,1.3a9.22,9.22,0,0,0,.12,1.53c.06.26.92.42,1.09.55s1,0,1.17.08.72-.83.84-1.25,1-1.21,1.16-1.5,1.13-.25,1.36-.4.11.71.22,1.19,1,.42.88,0,.09-.64.13-.48.9.52,1.07.77S83.3,126.38,83.11,126.38Z" style="fill:#2c5871"/><path d="M83.63,129.19l-.47-.24c-.54-.22-1-1-1.07-1.14s.1-.37,0-.53-1.27-.2-1.62-.07-2.18.33-2.61.52a2.33,2.33,0,0,1-1.29,0c-.21,0-.69.56-.93.67a3.22,3.22,0,0,0-.69,1.88l-.34.65-.22.41a9.78,9.78,0,0,0-1.46,2.3,14.56,14.56,0,0,0-.35,3.26,10.14,10.14,0,0,0,.83,2.75,6.59,6.59,0,0,0,1.67,1.62,6.12,6.12,0,0,0,2,.26,1.24,1.24,0,0,0,1-.85l.58.06.27,0c0,.33.88.59,1.09.7a1.79,1.79,0,0,0,1,0c.17-.05.36,1.48.23,1.92a8.6,8.6,0,0,0,.43,2.45c.12.46.65,1.74.7,2.19a21.76,21.76,0,0,1-.37,2.51,9.83,9.83,0,0,0,.86,2.53,8.39,8.39,0,0,1,.34,1.87,6.17,6.17,0,0,0,.43,1.09Z" style="fill:#2c5871"/><path d="M62.39,165.62H63C63.06,165,62.36,165.1,62.39,165.62Z" style="fill:#2c5871"/><path d="M73.89,108.86c.29.12.84-.28.63-.44s-.1-.15,0-.08.21-.51.1-.62.85-.82.68-1.48.27-1.35.53-1.36.18-.75-.13-.82,0-.14.1-.24a1.7,1.7,0,0,0,.2-.9c-.08-.13.47-.27.56-.42a2.64,2.64,0,0,1,.94-.5c.22,0,.34-.63.1-.6a2.07,2.07,0,0,1-1-.21,2.29,2.29,0,0,0-1.3-.1c-.27.11-.09-.66.28-.74s.06-.61-.33-.61-1.38-.15-1.61-.1-.68-.16-.84-.18a16.61,16.61,0,0,1-1.9.32,13.23,13.23,0,0,0-2.22.12c-.3.08-.51.65-.47.86s-1.32.2-1.75.21a13.77,13.77,0,0,0-3.31.82c-.6.33-1.07,1.17-.87,1.18s-.33.49-.65.61-1.09.16-1.27.34.19.3.26.42.29-.1.49,0a9,9,0,0,0,1,.24c.18.07-.56.21-.91.23s-.27.72,0,.81,1,.2,1.1.08.87.13,1.23.17.63.94.74,1.13a2.84,2.84,0,0,1,.1,1.08c0,.2.64.56.76.43s.08.31-.18.29-.09.74.23.85.11.58-.08.72-.09.59-.28.75.68,1.67.68,2.45.48,1.41.66,1.41.83.16.91.33.4-.12.52-.25a5.4,5.4,0,0,0,.57-.83,19.39,19.39,0,0,0,.7-2.06c.06-.16.79-.06,1-.14a9.28,9.28,0,0,0,.78-.58c.14-.11,1.18-.55,1.47-.76s.76-1.09,1-1.28-.11-.14-.39-.32a.3.3,0,0,1-.08-.49A3.32,3.32,0,0,1,73.89,108.86Z" style="fill:#2c5871"/><path d="M83,101.94c-.3-.1-.9.23-.82.41s-.49-.24-.88,0-.51.9-.33,1,.32.64.32.75.77,0,1-.13.16.56,0,.75.07.58.28.62.5.53.72.52.26-.22.39-.46V102.8h0C83.46,102.78,83.3,102,83,101.94Z" style="fill:#2c5871"/><path d="M75.82,119.27a.44.44,0,0,0,.4-.41c0-.19-.33-1-.46-1s-.38.63-.54.57-.24.51-.2.73S75.59,119.31,75.82,119.27Z" style="fill:#2c5871"/><path d="M75,112.87a.56.56,0,0,0,.64.33c.28,0,.84-.33,1-.35s.41-1,.29-1.21-1-.18-1.27-.2a2.56,2.56,0,0,1-1-.39c-.12-.14-.23.57-.44.66s.11.23.19.15,0,.37-.1.52S74.92,112.64,75,112.87Z" style="fill:#2c5871"/><path d="M54.53,112.89c-.15.13,0,.8.25.82s.72-1,1-.81.57.29.51.18a10.81,10.81,0,0,0-1.13-.6C55.09,112.41,54.67,112.76,54.53,112.89Z" style="fill:#2c5871"/><path d="M58,135.66c0,.11.59.1.69-.09s.05-.33-.12-.33S58,135.54,58,135.66Z" style="fill:#2c5871"/><path d="M55.38,134.68c.28-.06.15.4.21.57s.76.3.9.41.49-.21.76-.17-.09-1-.55-.93-.82-.41-.93-.47a8.71,8.71,0,0,1-.8-.49,6.56,6.56,0,0,0-1.72-.23,1.3,1.3,0,0,0-.89.54c-.07.13.63.22.82.12a2,2,0,0,1,1.32.34A1.06,1.06,0,0,0,55.38,134.68Z" style="fill:#2c5871"/><path d="M54.12,135.66c0,.11.61,0,.75.05s.14-.1,0-.22S54.12,135.54,54.12,135.66Z" style="fill:#2c5871"/><path d="M54.55,132.55c-.16-.06-.28.19-.28.3a.2.2,0,0,0,.19.21C54.56,133.06,54.71,132.62,54.55,132.55Z" style="fill:#2c5871"/><path d="M55.82,132.65a.61.61,0,0,0-.39-.21c-.08,0-.14.2-.12.44S55.87,132.76,55.82,132.65Z" style="fill:#2c5871"/><path d="M56.73,134.05c.24-.12.27-.41.13-.39s-.42-.42-.57-.48-.29.26-.29.4.09.24.2.21S56.48,134.17,56.73,134.05Z" style="fill:#2c5871"/><path d="M58.23,105.27s-.22.08-.14.16S58.3,105.36,58.23,105.27Z" style="fill:#d1ecfb"/><path d="M62.83,119s-.21.08-.15.16S62.9,119.05,62.83,119Z" style="fill:#d1ecfb"/><path d="M142.7,142.42l-42.11-13.74a1.36,1.36,0,0,0-.2,0,8.42,8.42,0,0,0-2.28-.38,6.77,6.77,0,0,0-6.81,6.36,1.09,1.09,0,0,0,0,.26v57.66a.91.91,0,0,0,.63.86L134,207.15a.92.92,0,0,0,.28,0,.91.91,0,0,0,.91-.91v-9.57c7.08,2.32,7.1,2.33,7.24,2.33a.91.91,0,0,0,.91-.91V143.28A.91.91,0,0,0,142.7,142.42Z" style="fill:#fd6120"/><path d="M142.42,199.05a.85.85,0,0,0,.45-.13l-.33-55.84-42.29-13.83h-.06a7.07,7.07,0,0,0-2.48-.52,5.33,5.33,0,0,0-5.23,5.34,3.74,3.74,0,0,0,1.25,2.55,11.68,11.68,0,0,0,2.34,1l39.58,13.53a1,1,0,0,1,.65,1v45C142.26,199,142.29,199.05,142.42,199.05Z" style="fill:#de3f18"/><path d="M135.18,151.43v49.71a5,5,0,0,1,4.48-2.67,6.54,6.54,0,0,1,1.85.32V143.93l-41-13.36h-.05a7,7,0,0,0-2.38-.47,5,5,0,0,0-5,4.87,3.47,3.47,0,0,0,1.21,2.33,12.64,12.64,0,0,0,2.24.93l38,12.35A.91.91,0,0,1,135.18,151.43Z" style="fill:#d1ecfb"/><path d="M139.66,198.47a6.54,6.54,0,0,1,1.85.32V143.93l-1.76-.57a4.36,4.36,0,0,0-.51,0,5.22,5.22,0,0,0-5.25,5.09,4.07,4.07,0,0,0,.94,2.19v.21a.93.93,0,0,1,.25.61v49.71A5,5,0,0,1,139.66,198.47Z" style="fill:#fff"/><path d="M113,185.42h-1.4a.89.89,0,0,0-.83.94v16.52a.89.89,0,0,0,.83.93H113v1.87H24.13a2.67,2.67,0,0,1-2.51-2.8V186.36a2.68,2.68,0,0,1,2.51-2.81H113Z" style="fill:#1695a4"/><path d="M113,185.42h-1.4a.89.89,0,0,0-.83.94v16.52a.89.89,0,0,0,.83.93H113v1.87H66.87V183.55H113Z" style="fill:#15b0bf"/><path d="M110.73,186.36v16.52a.89.89,0,0,0,.83.93H24.13a.89.89,0,0,1-.83-.93V186.36a.89.89,0,0,1,.83-.94h87.43A.89.89,0,0,0,110.73,186.36Z" style="fill:#d1ecfb"/><path d="M110.73,186.36v16.52a.89.89,0,0,0,.83.93H65.2a.89.89,0,0,1-.84-.93V186.36a.89.89,0,0,1,.84-.94h46.36A.89.89,0,0,0,110.73,186.36Z" style="fill:#fff"/><rect x="23.96" y="201.94" width="40.37" height="0.62" style="fill:#fff"/><rect x="23.96" y="186.2" width="40.37" height="0.62" style="fill:#fff"/><rect x="23.96" y="200.88" width="40.37" height="0.19" style="fill:#fff"/><rect x="23.96" y="196.59" width="40.37" height="0.18" style="fill:#fff"/><rect x="23.96" y="192.3" width="40.37" height="0.18" style="fill:#fff"/><rect x="23.96" y="190.36" width="40.37" height="0.18" style="fill:#fff"/><rect x="23.96" y="199.77" width="40.37" height="0.37" style="fill:#fff"/><rect x="23.96" y="197.66" width="40.37" height="0.62" style="fill:#fff"/><rect x="23.96" y="195.49" width="40.37" height="0.37" style="fill:#fff"/><rect x="23.96" y="188.16" width="40.37" height="0.37" style="fill:#fff"/><rect x="23.96" y="193.38" width="40.37" height="0.37" style="fill:#fff"/><path d="M26.29,169.91h1.56a.94.94,0,0,1,.94.93v10a.94.94,0,0,1-.94.93H26.29v1.87h99.14a2.8,2.8,0,0,0,2.81-2.8v-10a2.8,2.8,0,0,0-2.81-2.8H26.29Z" style="fill:#2c5871"/><path d="M26.29,169.91h1.56a.94.94,0,0,1,.94.93v10a.94.94,0,0,1-.94.93H26.29v1.87H77.73V168H26.29Z" style="fill:#0e303f"/><path d="M28.79,170.84v10a.94.94,0,0,1-.94.93h97.58a.93.93,0,0,0,.93-.93v-10a.93.93,0,0,0-.93-.93H27.85A.94.94,0,0,1,28.79,170.84Z" style="fill:#fff"/><path d="M28.79,170.84v10a.94.94,0,0,1-.94.93H79.6a.94.94,0,0,0,.94-.93v-10a.94.94,0,0,0-.94-.93H27.85A.94.94,0,0,1,28.79,170.84Z" style="fill:#d1ecfb"/><path d="M32.18,166.07h1.49a.93.93,0,0,0,.92-.93c.06-3.32.06-6.67,0-10a.93.93,0,0,0-.92-.93H32.18v-1.87H92.1a5.65,5.65,0,0,1,4.46,2.54,11.53,11.53,0,0,1,0,10.51,5.65,5.65,0,0,1-4.46,2.54H32.18Z" style="fill:#1695a4"/><path d="M34.59,165.14c.06-3.32.06-6.67,0-10a.93.93,0,0,0-.92-.93L93.36,154a1.73,1.73,0,0,1,1.4.89,11.8,11.8,0,0,1,0,10.49,1.76,1.76,0,0,1-1.4.89l-59.69-.21A.93.93,0,0,0,34.59,165.14Z" style="fill:#fff"/><polygon points="84.37 172.43 88.46 169.89 92.55 172.43 92.55 162.77 88.46 162.77 84.37 162.77 84.37 172.43" style="fill:#fd6120"/><polygon points="184.78 204.4 184.45 165.9 184.29 146.6 198 132.66 236.58 132.33 236.7 146.62 236.86 165.46 237.18 203.96 184.78 204.4" style="fill:#15b0bf"/><polygon points="198.12 146.49 184.29 146.6 198 132.66 198.12 146.49" style="fill:#a6dae9"/><polygon points="184.29 146.6 198.12 146.49 184.41 160.43 184.29 146.6" style="fill:#1695a4"/><path d="M236.88,167.76l-11.61-11.41a5.75,5.75,0,0,0-.86-.85l-.13-.12v0a5,5,0,0,0-3-1h-1a5.19,5.19,0,0,0-4.75,3.37.77.77,0,0,0,.43,1H216l3.47,3.42c-.67.16-1.15.29-1.49.38a5.51,5.51,0,0,0-2.15,1.21,2.73,2.73,0,0,0-.23.25l-9.93-9.76a.75.75,0,0,0-.72-.5.74.74,0,0,0-.71.52l-10.18,32h-1.7a.75.75,0,0,0-.25,1.46l16.68,16.41,28.37-.24Z" style="fill:#1695a4"/><path d="M194.63,188a.84.84,0,0,1-.27,0,.91.91,0,0,1-.59-1.14l10.34-32.53a.91.91,0,0,1,.86-.63.89.89,0,0,1,.87.61l10.88,32.36a.9.9,0,1,1-1.71.58l-10-29.74-9.5,29.9A.91.91,0,0,1,194.63,188Z" style="fill:#fff"/><path d="M192.39,188a.91.91,0,0,1,0-1.81l5.07,0h0a.91.91,0,0,1,0,1.81l-5.06,0Z" style="fill:#fff"/><path d="M213,187.82a.91.91,0,0,1,0-1.81l5.06,0h0a.91.91,0,0,1,0,1.82l-5.07,0Z" style="fill:#fff"/><path d="M198.37,177.93a.91.91,0,0,1,0-1.81l13.58-.11h0a.91.91,0,0,1,0,1.81l-13.58.11Z" style="fill:#fff"/><path d="M219.24,170.77a4.67,4.67,0,0,1-3.32-1.21,4.1,4.1,0,0,1-1.35-3.05,3.56,3.56,0,0,1,1.19-2.84,5.55,5.55,0,0,1,2.2-1.23c.63-.18,1.76-.45,3.57-.86a29.56,29.56,0,0,0,3.74-1.06.9.9,0,0,1,1.23.84v.89a10.46,10.46,0,0,1-.9,5.12,6.31,6.31,0,0,1-2.57,2.46,7.92,7.92,0,0,1-3.74.94Zm5.46-8.15c-.75.23-1.67.47-2.77.72-1.78.41-2.89.68-3.48.84a3.77,3.77,0,0,0-1.5.86,1.78,1.78,0,0,0-.57,1.45,2.32,2.32,0,0,0,.78,1.75,2.88,2.88,0,0,0,2.08.72v.91l0-.91a6.13,6.13,0,0,0,2.89-.72,4.43,4.43,0,0,0,1.85-1.75A8.19,8.19,0,0,0,224.7,162.62Z" style="fill:#fff"/><path d="M225.81,170.58a.9.9,0,0,1-.9-.9l-.09-9.87a3.65,3.65,0,0,0-3.51-3.74h-1.07a3.52,3.52,0,0,0-3.21,2.31.9.9,0,0,1-1.17.52.92.92,0,0,1-.52-1.18,5.33,5.33,0,0,1,4.89-3.46h1.08a5.46,5.46,0,0,1,5.32,5.53l.09,9.87a.92.92,0,0,1-.9.92Z" style="fill:#fff"/><path d="M82.08,180.44a24.48,24.48,0,1,0-34.63,34.62h0a24.48,24.48,0,1,0,34.63-34.62ZM64.8,216A18.22,18.22,0,1,1,83,197.72,18.11,18.11,0,0,1,64.8,216Z" style="fill:#0e303f"/><path d="M64.8,216A18.22,18.22,0,1,1,83,197.72,18.11,18.11,0,0,1,64.8,216Z" style="fill:#fff;opacity:0.2"/><path d="M16.83,245.87h0a6.27,6.27,0,0,0,8.86,0l19.11-19.2a6.26,6.26,0,0,0,0-8.85s0,0,0,0a6.27,6.27,0,0,0-8.86,0L16.82,237a6.28,6.28,0,0,0,0,8.86Z" style="fill:#de3f18"/><path d="M19.56,245.75a2.42,2.42,0,0,0,3.42,0l19.11-19.2a2.43,2.43,0,1,0-3.44-3.42l-19.11,19.2a2.43,2.43,0,0,0,0,3.43Z" style="fill:#fd6120"/><path d="M64.81,220.86v-3.08A20,20,0,0,0,78.92,183.6a19.85,19.85,0,0,0-14.14-5.87h0v-3.08h0a23.11,23.11,0,0,1,0,46.21Z" style="fill:#2c5871"/><g style="mix-blend-mode:multiply"><path d="M66.36,179.6l.29,0Z" style="fill:#a6dae9"/><path d="M68.1,179.84l.42.08Z" style="fill:#a6dae9"/><path d="M53.73,212.23c-.19-.15-.38-.28-.56-.43C53.35,212,53.55,212.08,53.73,212.23Z" style="fill:#a6dae9"/><path d="M77.65,184.87A18.14,18.14,0,0,0,68.81,180a18.4,18.4,0,0,1,5.35,3.72,18.22,18.22,0,0,1-12.85,31.1,17.41,17.41,0,0,1-4-.43,18.21,18.21,0,0,0,20.3-29.51Z" style="fill:#a6dae9"/><path d="M55.27,213.28c-.24-.15-.49-.29-.73-.46C54.78,213,55,213.13,55.27,213.28Z" style="fill:#a6dae9"/><path d="M56.79,214.12c-.27-.13-.54-.26-.81-.41C56.25,213.86,56.52,214,56.79,214.12Z" style="fill:#a6dae9"/></g><path d="M42.34,220.37a3.13,3.13,0,0,0,4.43,0l3.9-4a3.13,3.13,0,0,0,0-4.42h0a3.13,3.13,0,0,0-4.43,0l-3.9,4a3.14,3.14,0,0,0,0,4.43Z" style="fill:#0e303f"/><path d="M159.63,94.79H140.57a1.53,1.53,0,0,1,0-3.06h19.06a1.53,1.53,0,0,1,0,3.06Z" style="fill:#2c5871"/><path d="M126.36,45.76a23.74,23.74,0,1,1,47.47,0c0,.77-.57,11.74-9.51,23.25-2.61,3.48-2.18,10.47-2.16,10.47H138s.5-7-2.1-10.47C126.92,57.49,126.36,46.53,126.36,45.76Z" style="fill:#d1ecfb"/><path d="M150.1,79.48H138s.5-7-2.1-10.47c-9-11.52-9.52-22.48-9.52-23.25A23.74,23.74,0,0,1,150.1,22Z" style="fill:#fff"/><path d="M168.79,45.75h-2.08A16.63,16.63,0,0,0,150.1,29.14V27.06a18.71,18.71,0,0,1,18.69,18.69Z" style="fill:#fff"/><polygon points="155.28 81.33 153.23 80.99 157.28 56.45 159.34 56.8 155.28 81.33 155.28 81.33" style="fill:#0e303f"/><polygon points="144.91 81.33 140.86 56.8 142.91 56.45 146.97 80.99 144.91 81.33 144.91 81.33" style="fill:#0e303f"/><path d="M158.18,59.91c-.86,0-1.23-.83-1.5-1.44-.11-.25-.34-.78-.47-.78s-.37.53-.48.78c-.27.61-.64,1.44-1.49,1.44s-1.22-.83-1.49-1.44c-.11-.25-.35-.78-.48-.78s-.36.53-.48.78c-.27.61-.63,1.44-1.49,1.44s-1.22-.83-1.49-1.44c-.11-.25-.35-.78-.48-.78s-.37.53-.48.78c-.27.61-.64,1.44-1.49,1.44s-1.22-.83-1.49-1.44c-.12-.25-.35-.78-.49-.78s-.36.53-.48.78c-.27.61-.64,1.44-1.49,1.44V58.8c.14,0,.37-.52.48-.78.27-.61.64-1.43,1.49-1.43s1.23.82,1.5,1.43c.11.26.35.78.48.78s.37-.52.48-.78c.27-.61.64-1.43,1.49-1.43s1.22.82,1.49,1.43c.12.26.35.78.48.78s.37-.52.48-.78c.27-.61.64-1.43,1.49-1.43s1.22.83,1.49,1.43c.12.26.35.78.48.78s.36-.52.48-.78c.27-.6.63-1.43,1.49-1.43s1.22.83,1.49,1.43c.11.26.34.78.48.78v1.11Z" style="fill:#0e303f"/><path d="M162.18,79.49V91.9a1.53,1.53,0,0,1-1.54,1.54H139.58A1.54,1.54,0,0,1,138,91.9V79.49Z" style="fill:#0e303f"/><path d="M162.67,80.69h0Z" style="fill:#0e303f"/><path d="M162.67,81.9H137.53a1.22,1.22,0,1,1,0-2.43h25.14a1.22,1.22,0,1,1,0,2.43Z" style="fill:#2c5871"/><path d="M162.67,84.74h0Z" style="fill:#0e303f"/><path d="M162.67,86H137.53a1.22,1.22,0,1,1,0-2.43h25.14a1.22,1.22,0,1,1,0,2.43Z" style="fill:#2c5871"/><path d="M162.67,88.8h0Z" style="fill:#0e303f"/><path d="M162.67,90H137.53a1.22,1.22,0,1,1,0-2.43h25.14a1.22,1.22,0,1,1,0,2.43Z" style="fill:#2c5871"/><path d="M150.09,14.28a.62.62,0,0,1-.62-.62V.62a.62.62,0,0,1,1.24,0v13a.62.62,0,0,1-.62.62Z" style="fill:#fff"/><path d="M133.47,18.74a.62.62,0,0,1-.54-.31l-6.52-11.3a.62.62,0,0,1,1.07-.62L134,17.81a.61.61,0,0,1-.22.85.71.71,0,0,1-.31.08Z" style="fill:#fff"/><path d="M121.3,30.91a.64.64,0,0,1-.3-.08l-11.3-6.52a.62.62,0,0,1-.22-.85.61.61,0,0,1,.84-.23l11.29,6.52a.62.62,0,0,1-.31,1.16Z" style="fill:#fff"/><path d="M116.86,47.53h-13a.62.62,0,1,1,0-1.24h13a.62.62,0,1,1,0,1.24Z" style="fill:#fff"/><path d="M110,70.67a.62.62,0,0,1-.31-1.15L121,63a.62.62,0,0,1,.84.22.63.63,0,0,1-.22.85l-11.3,6.52a.58.58,0,0,1-.31.08Z" style="fill:#fff"/><path d="M127,87.61a.65.65,0,0,1-.31-.08.62.62,0,0,1-.23-.85L133,75.39A.62.62,0,1,1,134,76L127.5,87.3a.6.6,0,0,1-.53.31Z" style="fill:#fff"/><path d="M173.25,87.6a.6.6,0,0,1-.53-.31L166.19,76a.63.63,0,0,1,.23-.85.62.62,0,0,1,.85.23l6.52,11.29a.62.62,0,0,1-.23.85.68.68,0,0,1-.31.08Z" style="fill:#fff"/><path d="M190.19,70.66a.56.56,0,0,1-.31-.09l-11.29-6.52a.6.6,0,0,1-.23-.84.61.61,0,0,1,.84-.23l11.3,6.52a.62.62,0,0,1-.31,1.16Z" style="fill:#fff"/><path d="M196.39,47.51h-13a.62.62,0,0,1,0-1.24h13a.62.62,0,0,1,0,1.24Z" style="fill:#fff"/><path d="M178.88,30.89a.6.6,0,0,1-.53-.31.61.61,0,0,1,.23-.84l11.29-6.53a.61.61,0,0,1,.84.23.62.62,0,0,1-.22.85l-11.3,6.52a.65.65,0,0,1-.31.08Z" style="fill:#fff"/><path d="M166.71,18.73a.63.63,0,0,1-.54-.93l6.52-11.3a.63.63,0,0,1,.85-.22.61.61,0,0,1,.23.84l-6.52,11.3a.63.63,0,0,1-.54.31Z" style="fill:#fff"/><path d="M150.09,14.28a.62.62,0,0,1-.62-.62V.62a.62.62,0,0,1,1.24,0v13a.62.62,0,0,1-.62.62Z" style="fill:#fff"/><polygon points="225.01 226.66 225.01 195.72 225.01 180.21 236.12 169.09 267.13 169.09 267.13 180.57 267.13 195.72 267.13 226.66 225.01 226.66" style="fill:#fff"/><polygon points="236.12 180.21 225.01 180.21 236.12 169.09 236.12 180.21" style="fill:#8fc4d7"/><polygon points="225.01 180.21 236.12 180.21 225.01 191.32 225.01 180.21" style="fill:#d1ecfb"/><path d="M214.6,280.49V199.23a5.92,5.92,0,0,0-5.93-5.93h-107a5.93,5.93,0,0,0-5.92,5.93v81.26a5.93,5.93,0,0,0,5.92,5.93h107A5.93,5.93,0,0,0,214.6,280.49Z" style="fill:#0e303f"/><path d="M98.79,239.86a2.38,2.38,0,1,1,2.38,2.38A2.37,2.37,0,0,1,98.79,239.86Z" style="fill:#fff"/><rect x="107.25" y="203.87" width="95.86" height="71.98" style="fill:#8fc4d7"/><polygon points="107.25 275.85 107.25 203.87 203.12 203.87 107.25 275.85" style="fill:#a6dae9"/><path d="M108.82,282.68l.39-25.89A7.6,7.6,0,0,1,117,249.4l2.54.07a3,3,0,0,1,.31,0l-1,29.24Z" style="fill:#fff"/><path d="M92.3,277.35l16.12-3.69c1.31-1.24,9.17-8.07,10.83-8.26l-.38,13.34-18.53,17.47Z" style="fill:#fff"/><path d="M116.31,209.46,98.66,227.11h0L97,228.77,97.06,271a5.44,5.44,0,1,0,10.88,0V233.44l10.51-10.51a8,8,0,0,0,0-11.36l-1.89-1.89Z" style="fill:#fff"/><polygon points="107.98 274.05 107.98 262.98 107.98 248.91 107.98 243.91 80.13 245.72 80.13 263.81 83.47 284.99 100.5 296.56 107.98 287.15 107.98 274.05" style="fill:#fff"/><path d="M96.12,267l-.06-37.1-5.66,5.66h0l-1.66,1.66.06,42.23a5.44,5.44,0,0,0,10.88,0v-7.35A5.44,5.44,0,0,1,96.12,267Z" style="fill:#fff"/><polygon points="87.51 272.45 87.45 238.15 81.8 243.8 81.79 243.81 80.13 245.47 80.16 265.11 87.51 272.45" style="fill:#fff"/><rect x="80.13" y="253.23" width="24.6" height="33.92" rx="9.36" style="fill:#fff"/><ellipse cx="155.18" cy="239.86" rx="23.81" ry="18.4" style="fill:#fd6120"/><path d="M138.35,252.87a129.09,129.09,0,0,0,33.67,0,60.54,60.54,0,0,0,1.43-13.06H136.92A60.54,60.54,0,0,0,138.35,252.87Z" style="fill:#de3f18"/><path d="M162.06,239.11a.82.82,0,0,1,0,1.5l-9.74,6.12c-.65.41-1.19.07-1.19-.75V233.74c0-.82.54-1.16,1.19-.75Z" style="fill:#fff"/><path d="M151.13,246c0,.82.54,1.16,1.19.75l9.74-6.12a.89.89,0,0,0,.49-.8H151.13Z" style="fill:#a6dae9"/><path d="M200.88,269.31a4.88,4.88,0,0,0-4.67,3.48,13.15,13.15,0,0,0-2.37-.36v-3.34a4.88,4.88,0,0,0-9.75,0v3.3h-2.34v-7.74a4.88,4.88,0,0,0-9.75,0v7.77a12.92,12.92,0,0,0-2.34.31V249.59a4.87,4.87,0,1,0-9.74,0V284.5c0,.18,0,.36,0,.54v12.14l-2.25-2.24v-9.73a7.19,7.19,0,0,0-7.19-7.2h-2.4l-.3,0v9h0v12l16.13,15.78a12.54,12.54,0,0,0,8.7,3.49H193.1a12.65,12.65,0,0,0,12.65-12.66V274.18A4.87,4.87,0,0,0,200.88,269.31Z" style="fill:#fff"/><path d="M250.73,220.75l17.09-17.09a7.84,7.84,0,0,0,10.73-6.81l-3.3,3.3-5.33-1.43-1.43-5.33,4.53-4.53a7.85,7.85,0,0,0-9.59,10.41l-17.09,17.09a7.84,7.84,0,0,0-10.68,8.34l4.23-4.23,4.37,1.17,1.18,4.38-4.93,4.92a7.85,7.85,0,0,0,10.22-10.19Z" style="fill:#2c5871"/><path d="M250.73,220.75l17.09-17.09a7.84,7.84,0,0,0,10.73-6.81l-3.3,3.3-5.33-1.43-.5-1.85L244.35,222l1.09,4.07-4.93,4.92a7.85,7.85,0,0,0,10.22-10.19Z" style="fill:#0e303f"/><polygon points="245.09 192.72 239.52 189.13 237.54 191.12 241.13 196.69 243.39 196.97 243.45 196.91 260.19 213.65 262.05 211.79 245.31 195.04 245.37 194.98 245.09 192.72" style="fill:#2c5871"/><polygon points="238.27 190.38 260.87 212.97 262.05 211.79 245.31 195.04 245.37 194.98 245.09 192.72 239.52 189.13 238.27 190.38" style="fill:#0e303f"/><path d="M267.36,212.29a1.75,1.75,0,0,0-1.84-.39,3,3,0,0,0-.77-2.29l-.7-.7c-.67-.68-.9-.9-.9-.9l-.7-.7a1.77,1.77,0,0,0-2.49,0q-2.11,2.13-4.25,4.25a1.77,1.77,0,0,0,0,2.49l.7.7.91.9.69.7a3,3,0,0,0,2.29.77,1.73,1.73,0,0,0,.36,1.95l10.54,10.4a2.87,2.87,0,0,0,3,.56,9.64,9.64,0,0,0,4.32-4.38,2.87,2.87,0,0,0-.61-3Z" style="fill:#15b0bf"/><path d="M265.52,211.9a3,3,0,0,0-.77-2.29l-.7-.7c-.67-.68-.9-.9-.9-.9l-.7-.7a1.77,1.77,0,0,0-2.49,0l-2.14,2.15,18.8,18.8a9.6,9.6,0,0,0,1.88-2.61,2.87,2.87,0,0,0-.61-3l-10.53-10.39A1.75,1.75,0,0,0,265.52,211.9Z" style="fill:#1695a4"/><path d="M272.87,225.73a.8.8,0,0,1,0,1.13h0a.79.79,0,0,1-1.13,0l-8.38-8.38a.8.8,0,0,1,0-1.13h0a.8.8,0,0,1,1.13,0Z" style="fill:#1695a4"/><path d="M275.26,223.34a.79.79,0,0,1,0,1.13h0a.81.81,0,0,1-1.14,0l-8.38-8.38a.8.8,0,0,1,0-1.13h0a.79.79,0,0,1,1.13,0Z" style="fill:#15b0bf"/><path d="M256.23,212.09l4.26-4.26a1.76,1.76,0,0,1,2.48,0l-.12-.13-.4-.39a1.77,1.77,0,0,0-2.49,0q-2.11,2.13-4.25,4.25a1.77,1.77,0,0,0,0,2.49l.4.39.12.13A1.76,1.76,0,0,1,256.23,212.09Z" style="fill:#15b0bf"/></g></g></g></svg>