<svg xmlns="http://www.w3.org/2000/svg" viewBox="0 0 368.59 51.3"><defs><style>.a{fill:#4eafc6;}.b{fill:#e9523b;}.c{fill:#f5bb17;}.d{fill:#c40823;}.e{fill:#66445a;}.f{fill:#0c6396;}.g{fill:#333;}.h{fill:#fff;}</style></defs><path class="a" d="M30.9,28.32a5.5,5.5,0,1,1-5.49-5.49,5.49,5.49,0,0,1,5.49,5.49"/><path class="b" d="M43.51,46.89a2.38,2.38,0,1,1-2.38-2.38,2.39,2.39,0,0,1,2.38,2.38"/><path class="b" d="M6.44,4.07A2.38,2.38,0,1,1,4.06,1.69,2.38,2.38,0,0,1,6.44,4.07"/><path class="c" d="M12.07,46.89a2.38,2.38,0,1,1-2.38-2.38,2.39,2.39,0,0,1,2.38,2.38"/><path class="c" d="M49.13,4.07a2.38,2.38,0,1,1-2.38-2.38,2.38,2.38,0,0,1,2.38,2.38"/><path class="d" d="M6.5,28.32a2,2,0,1,1-2-2,2,2,0,0,1,2,2"/><path class="e" d="M48.24,28.32a2,2,0,1,1-2-2,2,2,0,0,1,2,2"/><path class="f" d="M27.37,7.18a2,2,0,1,1-2-2,2,2,0,0,1,2,2"/><path class="g" d="M46.28,29.68a1.36,1.36,0,1,1,1.35-1.36,1.36,1.36,0,0,1-1.35,1.36M27.44,33.07H27.3v.07a5.86,5.86,0,0,1-1.89.34,6,6,0,0,1-1.9-.34v-.07h-.13a5.16,5.16,0,1,1,7.18-4.75,5.22,5.22,0,0,1-3.12,4.75M4.54,29.68a1.36,1.36,0,1,1,1.35-1.36,1.36,1.36,0,0,1-1.35,1.36m18.9-22.5a2,2,0,1,1,2,2,2,2,0,0,1-2-2M41.13,44.93a2,2,0,1,1-2,2,2,2,0,0,1,2-2M9.69,48.86a2,2,0,1,1,2-2,2,2,0,0,1-2,2M4.06,2.51A1.56,1.56,0,1,1,2.5,4.07,1.54,1.54,0,0,1,4.06,2.51m42.69,0a1.56,1.56,0,1,1,0,3.12,1.54,1.54,0,0,1-1.56-1.56,1.63,1.63,0,0,1,1.56-1.56m-.47,22a3.88,3.88,0,0,0-3.59,2.58H32.86a7.6,7.6,0,0,0-1.62-3.6v-4.6A2.79,2.79,0,0,1,34,16.13h8.87a5.22,5.22,0,0,0,5.22-5.22V7.79A4,4,0,0,0,46.89,0a4,4,0,0,0-4,4,4,4,0,0,0,2.78,3.79v3.12a2.79,2.79,0,0,1-2.78,2.78H34a5.22,5.22,0,0,0-5.22,5.22v2.64a6.24,6.24,0,0,0-2.17-.68V11.45a4.41,4.41,0,1,0-2.44,0v9.42a8.18,8.18,0,0,0-2.17.68V18.91a5.22,5.22,0,0,0-5.22-5.22H8a2.79,2.79,0,0,1-2.78-2.78V7.79a4,4,0,1,0-2.43,0v3.12A5.22,5.22,0,0,0,8,16.13h8.87a2.79,2.79,0,0,1,2.78,2.78v4.6A7.6,7.6,0,0,0,18,27.11H8.13a3.79,3.79,0,1,0-3.59,5,3.88,3.88,0,0,0,3.59-2.57H18a7.41,7.41,0,0,0,3.11,5v7.8a3.4,3.4,0,0,1-3.39,3.38H13.89a4.41,4.41,0,1,0,0,2.44h3.79a5.82,5.82,0,0,0,5.83-5.82V35.64a8.29,8.29,0,0,0,1.9.27,5.68,5.68,0,0,0,1.9-.27v6.65a5.83,5.83,0,0,0,5.83,5.82h3.79a4.38,4.38,0,0,0,8.6-1.22,4.38,4.38,0,0,0-8.6-1.22h-3.8a3.4,3.4,0,0,1-3.39-3.38V34.56a7.58,7.58,0,0,0,3.12-5h9.83a3.79,3.79,0,0,0,7.39-1.22,3.86,3.86,0,0,0-3.8-3.86Z"/><rect class="a" x="152.39" y="16.71" width="106.28" height="24.43"/><path class="g" d="M279.49,34.14v4.29h-8.26V34.14h1.1V29.86a1.87,1.87,0,0,0-.36-1.27,1.41,1.41,0,0,0-1.1-.4c-1.05,0-1.57.55-1.57,1.67v4.28h1.1v4.29h-8.26V34.14h1.15V22.38h-1.15V18.1h7.16v7.84a7.12,7.12,0,0,1,2.09-1.81,5.48,5.48,0,0,1,2.62-.6,3.93,3.93,0,0,1,3.25,1.36,5.86,5.86,0,0,1,1.08,3.74v5.51Z"/><path class="g" d="M297.53,34.14v4.29h-7.16v-2a5.78,5.78,0,0,1-4.71,2.41,3.93,3.93,0,0,1-3.25-1.36,5.86,5.86,0,0,1-1.09-3.74V28.19h-1.15V23.9h7.17v8.57a1.82,1.82,0,0,0,.37,1.27,1.82,1.82,0,0,0,2.28,0,1.82,1.82,0,0,0,.38-1.27V28.19H289V23.9h7.42V34.14Z"/><path class="g" d="M307.1,38.14a6.43,6.43,0,0,1-1.68-1.49v1.78h-7.16V34.14h1.15V22.38h-1.15V18.1h7.16v7.58a6.43,6.43,0,0,1,1.68-1.49,4.31,4.31,0,0,1,2.37-.66,4.54,4.54,0,0,1,4,2,10,10,0,0,1,1.35,5.64,10,10,0,0,1-1.35,5.65,4.54,4.54,0,0,1-4,2,4.31,4.31,0,0,1-2.37-.66m1-4.4a1.82,1.82,0,0,0,.38-1.27V29.86a1.82,1.82,0,0,0-.38-1.27,1.78,1.78,0,0,0-2.27,0,1.82,1.82,0,0,0-.38,1.27v2.61a1.82,1.82,0,0,0,.38,1.27,1.81,1.81,0,0,0,2.27,0"/><rect class="g" x="316.13" y="34.14" width="4.08" height="4.29"/><path class="g" d="M323.92,36.85a7.41,7.41,0,0,1-2.09-5.69,7.4,7.4,0,0,1,2.09-5.68,8.2,8.2,0,0,1,5.81-1.95,8.06,8.06,0,0,1,5.82,2,7.43,7.43,0,0,1,2.07,5.65,7.41,7.41,0,0,1-2.09,5.69,9.62,9.62,0,0,1-11.61,0m6.94-3.11a1.82,1.82,0,0,0,.38-1.27V29.86a1.82,1.82,0,0,0-.38-1.27,1.78,1.78,0,0,0-2.27,0,1.82,1.82,0,0,0-.38,1.27v2.61a1.82,1.82,0,0,0,.38,1.27,1.81,1.81,0,0,0,2.27,0"/><path class="g" d="M350.61,23.64a3.23,3.23,0,0,1,.78.26v5a6,6,0,0,0-2.3-.44,3.45,3.45,0,0,0-2.53.86,3.38,3.38,0,0,0-.89,2.56v2.27H348v4.29h-9.51V34.14h1.15v-6h-1.15V23.9h7.16v1.91a5.61,5.61,0,0,1,1.67-1.69,4.24,4.24,0,0,1,2.27-.59,4.64,4.64,0,0,1,1,.11"/><path class="g" d="M356.29,44.34a16,16,0,0,1-2.65-.6V39.45a28.58,28.58,0,0,0,5,.5,3.94,3.94,0,0,0,2.16-.46,2,2,0,0,0,.67-1.71V36.65a6.48,6.48,0,0,1-1.69,1.49,4.3,4.3,0,0,1-2.36.66,4.55,4.55,0,0,1-4-2A10.08,10.08,0,0,1,352,31.16a10,10,0,0,1,1.34-5.64,4.55,4.55,0,0,1,4-2,4.3,4.3,0,0,1,2.36.66,6.48,6.48,0,0,1,1.69,1.49V23.9h7.16v4.28h-1.15v9.2c0,2.53-.63,4.36-1.88,5.51s-3.15,1.71-5.68,1.71a24.35,24.35,0,0,1-3.59-.26m4.76-10.6a1.82,1.82,0,0,0,.38-1.27V29.86a1.82,1.82,0,0,0-.38-1.27,1.79,1.79,0,0,0-2.28,0,1.82,1.82,0,0,0-.38,1.27v2.61a1.82,1.82,0,0,0,.38,1.27,1.82,1.82,0,0,0,2.28,0"/><path class="h" d="M157.43,35a5.35,5.35,0,0,1-1.5-4.1,5.32,5.32,0,0,1,1.5-4.09,5.89,5.89,0,0,1,4.18-1.4,4.77,4.77,0,0,1,3.83,1.38,5.09,5.09,0,0,1,1.18,3.43v1.36h-6.1v.11a1.22,1.22,0,0,0,.42,1,2.2,2.2,0,0,0,1.37.33,13.77,13.77,0,0,0,2.18-.17,11.51,11.51,0,0,0,1.81-.43v3a8.07,8.07,0,0,1-1.93.65,12.63,12.63,0,0,1-2.76.29,5.93,5.93,0,0,1-4.18-1.4m5.28-5.49v-.23a1.31,1.31,0,0,0-.28-.92,1.07,1.07,0,0,0-.82-.28,1.11,1.11,0,0,0-.82.29,1.32,1.32,0,0,0-.27.91v.23Z"/><path class="h" d="M168,35a7.29,7.29,0,0,1-1-4.07,7.25,7.25,0,0,1,1-4.06,3.26,3.26,0,0,1,2.89-1.44,3.1,3.1,0,0,1,1.71.48,4.69,4.69,0,0,1,1.21,1.07V24.56H172.7V21.47h5.44V33H179v3.09h-5.16V34.84a4.88,4.88,0,0,1-1.21,1.07,3.18,3.18,0,0,1-1.71.47A3.27,3.27,0,0,1,168,35m5.54-2.21a1.33,1.33,0,0,0,.27-.92V29.94a1.3,1.3,0,0,0-.27-.91,1.3,1.3,0,0,0-1.64,0,1.3,1.3,0,0,0-.27.91v1.88a1.33,1.33,0,0,0,.27.92,1.3,1.3,0,0,0,1.64,0"/><path class="h" d="M192,33v3.09H186.8V34.65a4.14,4.14,0,0,1-3.39,1.73,2.82,2.82,0,0,1-2.34-1,4.2,4.2,0,0,1-.78-2.69v-4h-.83V25.65h5.16v6.17a1.33,1.33,0,0,0,.27.92,1.3,1.3,0,0,0,1.64,0,1.33,1.33,0,0,0,.27-.92V28.74h-1V25.65h5.35V33Z"/><path class="h" d="M193.92,35a5.32,5.32,0,0,1-1.51-4.1,5.29,5.29,0,0,1,1.51-4.09,5.86,5.86,0,0,1,4.18-1.41,8.5,8.5,0,0,1,2.48.36,6.91,6.91,0,0,1,1.85.81v3.73h-3.24v-.34a1.35,1.35,0,0,0-.26-.91,1.06,1.06,0,0,0-.83-.29c-.73,0-1.1.4-1.1,1.2v1.62Q197,33,198.68,33a23.56,23.56,0,0,0,3.63-.34v3a8.47,8.47,0,0,1-1.79.51,12.68,12.68,0,0,1-2.4.23,5.93,5.93,0,0,1-4.2-1.4"/><path class="h" d="M214,33v3.09h-5V34.84a3.77,3.77,0,0,1-1.16,1.07,3.34,3.34,0,0,1-1.81.47,3.14,3.14,0,0,1-2.22-.75,2.77,2.77,0,0,1-.81-2.13q0-3.55,6-3.65a1,1,0,0,0-.49-.88,3.28,3.28,0,0,0-1.47-.23,9.9,9.9,0,0,0-1.81.18,8.88,8.88,0,0,0-1.78.48V25.93a20,20,0,0,1,2.16-.39,17.93,17.93,0,0,1,2.28-.15,6.22,6.22,0,0,1,4,1,3.91,3.91,0,0,1,1.2,3.15V33Zm-5-1.32a3.08,3.08,0,0,0-1.31.23.78.78,0,0,0-.46.75.72.72,0,0,0,.2.52.75.75,0,0,0,.55.19.84.84,0,0,0,.76-.41,2.23,2.23,0,0,0,.26-1.17Z"/><path class="h" d="M216.29,35.41a4.41,4.41,0,0,1-1-3.27v-3.4h-.82V25.65a1.42,1.42,0,0,0,1.07-.37,1.37,1.37,0,0,0,.36-1v-.84h4v2.22h2.54v3.09h-2.54v3.08a1.33,1.33,0,0,0,.27.92A1.08,1.08,0,0,0,221,33a8.16,8.16,0,0,0,1.56-.17v3a8.35,8.35,0,0,1-1.42.39,9.21,9.21,0,0,1-1.82.18,4.15,4.15,0,0,1-3-1"/><path class="h" d="M223.13,36.12V33H224V28.74h-.83V25.65h5.16V33h.83v3.09ZM224,21.47h3.84v3.14H224Z"/><path class="h" d="M231.08,35a5.32,5.32,0,0,1-1.51-4.1,5.29,5.29,0,0,1,1.51-4.09,6.89,6.89,0,0,1,8.38,0,5.35,5.35,0,0,1,1.48,4.07,5.35,5.35,0,0,1-1.5,4.1,6.94,6.94,0,0,1-8.36,0m5-2.24a1.33,1.33,0,0,0,.27-.92V29.94a1.3,1.3,0,0,0-.27-.91,1.07,1.07,0,0,0-.82-.29,1,1,0,0,0-.82.29,1.3,1.3,0,0,0-.27.91v1.88a1.33,1.33,0,0,0,.27.92,1.08,1.08,0,0,0,.82.29,1.11,1.11,0,0,0,.82-.29"/><path class="h" d="M254,33v3.09H248.1V33h.79V29.94a1.3,1.3,0,0,0-.27-.91,1,1,0,0,0-.79-.29c-.75,0-1.13.4-1.13,1.2V33h.79v3.09h-6V33h.83V28.74h-.83V25.65h5.16v1.47a4.15,4.15,0,0,1,3.39-1.74,2.85,2.85,0,0,1,2.35,1,4.23,4.23,0,0,1,.78,2.7v4Z"/><path class="g" d="M62.68,37.72a9.82,9.82,0,0,1-1.33-5.57,9.84,9.84,0,0,1,1.33-5.57,4.46,4.46,0,0,1,3.95-2,4.29,4.29,0,0,1,2.34.65,6.45,6.45,0,0,1,1.66,1.47V23.49H69.11V19.26h7.45V35.09H77.7v4.23H70.63V37.57A6.45,6.45,0,0,1,69,39a4.28,4.28,0,0,1-2.34.64,4.44,4.44,0,0,1-3.95-2m7.58-3a1.78,1.78,0,0,0,.37-1.25V30.86a1.8,1.8,0,0,0-.37-1.25,1.78,1.78,0,0,0-2.25,0,1.8,1.8,0,0,0-.37,1.25v2.58A1.78,1.78,0,0,0,68,34.69a1.78,1.78,0,0,0,2.25,0"/><polygon class="g" points="78.52 39.32 78.52 35.09 79.66 35.09 79.66 29.21 78.52 29.21 78.52 24.98 85.59 24.98 85.59 35.09 86.72 35.09 86.72 39.32 78.52 39.32"/><path class="g" d="M91.45,45.15a13.62,13.62,0,0,1-2.61-.6V40.33a28.65,28.65,0,0,0,4.9.49,3.85,3.85,0,0,0,2.12-.46,1.89,1.89,0,0,0,.66-1.68V37.57A6.45,6.45,0,0,1,94.86,39a4.28,4.28,0,0,1-2.34.64,4.44,4.44,0,0,1-4-2,9.82,9.82,0,0,1-1.33-5.57,9.84,9.84,0,0,1,1.33-5.57,4.46,4.46,0,0,1,4-2,4.29,4.29,0,0,1,2.34.65,6.45,6.45,0,0,1,1.66,1.47V25h7.06v4.23h-1.13v9.08q0,3.74-1.86,5.43c-1.23,1.12-3.1,1.69-5.59,1.69a23.81,23.81,0,0,1-3.55-.26m4.7-10.46a1.78,1.78,0,0,0,.37-1.25V30.86a1.8,1.8,0,0,0-.37-1.25,1.78,1.78,0,0,0-2.25,0,1.8,1.8,0,0,0-.37,1.25v2.58a1.78,1.78,0,0,0,.37,1.25,1.78,1.78,0,0,0,2.25,0"/><polygon class="g" points="104.31 39.32 104.31 35.09 105.44 35.09 105.44 29.21 104.31 29.21 104.31 24.98 111.37 24.98 111.37 35.09 112.51 35.09 112.51 39.32 104.31 39.32"/><path class="g" d="M115.49,38.35q-1.38-1.32-1.38-4.47V29.21H113V25a2,2,0,0,0,1.47-.5,1.88,1.88,0,0,0,.49-1.38V21.94h5.47v3h3.48v4.23H120.4v4.23a1.78,1.78,0,0,0,.37,1.25,1.45,1.45,0,0,0,1.12.4,11.24,11.24,0,0,0,2.14-.23v4a12.53,12.53,0,0,1-1.94.53,13,13,0,0,1-2.49.24,5.68,5.68,0,0,1-4.11-1.33"/><path class="g" d="M139.89,35.09v4.23h-6.81V37.57A5.23,5.23,0,0,1,131.5,39a4.57,4.57,0,0,1-2.49.64,4.27,4.27,0,0,1-3-1,3.78,3.78,0,0,1-1.11-2.91q0-4.87,8.28-5a1.42,1.42,0,0,0-.68-1.2,4.56,4.56,0,0,0-2-.32,13.11,13.11,0,0,0-2.48.25,14.68,14.68,0,0,0-2.44.65V25.37a28.56,28.56,0,0,1,3-.54,24,24,0,0,1,3.12-.21c2.57,0,4.4.47,5.5,1.39a5.34,5.34,0,0,1,1.65,4.31v4.77Zm-6.81-1.8a4.11,4.11,0,0,0-1.79.31,1.06,1.06,0,0,0-.63,1,1,1,0,0,0,.27.71,1,1,0,0,0,.76.27,1.15,1.15,0,0,0,1-.57,3,3,0,0,0,.36-1.6Z"/><polygon class="g" points="140.72 39.35 140.72 35.09 141.85 35.09 141.85 23.49 140.72 23.49 140.72 19.26 147.78 19.26 147.78 35.09 148.91 35.09 148.91 39.35 140.72 39.35"/><path class="g" d="M82,19.59a1.21,1.21,0,1,1-1.21,1.21A1.22,1.22,0,0,1,82,19.59m0-2.3a3.51,3.51,0,1,0,3.51,3.51A3.51,3.51,0,0,0,82,17.29"/><path class="g" d="M107.81,19.61a1.2,1.2,0,1,1-1.2,1.2,1.2,1.2,0,0,1,1.2-1.2m0-2.3a3.5,3.5,0,1,0,3.5,3.5,3.5,3.5,0,0,0-3.5-3.5"/></svg>