<svg xmlns="http://www.w3.org/2000/svg" viewBox="0 0 101.94 102.42"><defs><style>.a,.c{fill:none;}.a,.c,.d,.e{stroke:#484f59;stroke-width:3px;}.b{fill:#4eafc6;}.c,.d,.e{stroke-linecap:round;}.c{stroke-linejoin:round;}.d{fill:#e5e8ec;}.e{fill:#fff;}</style></defs><path class="a" d="M89.5,22.21H65A3.2,3.2,0,0,1,61.83,19V17.84"/><path class="a" d="M87.37,22.21h7.45a4.25,4.25,0,0,1,4.25,4.25h0a4.25,4.25,0,0,1-4.25,4.26H83.11"/><path class="a" d="M82.05,41.36A5.32,5.32,0,0,1,76.73,36h0a5.32,5.32,0,0,1,5.32-5.32H86.3"/><path class="a" d="M82,41.35a6,6,0,0,1,6,6v9"/><path class="b" d="M71,33.63A31.15,31.15,0,1,1,39.87,2.48,31.15,31.15,0,0,1,71,33.63Z"/><path class="c" d="M72,33.63A32.13,32.13,0,1,1,39.87,1.5,32.12,32.12,0,0,1,72,33.63Z"/><path class="c" d="M58.44,33.63c0,17.74-8.32,32.12-18.57,32.12S21.29,51.37,21.29,33.63,29.61,1.5,39.87,1.5,58.44,15.89,58.44,33.63Z"/><path class="c" d="M39.87,65.75a32.13,32.13,0,0,0,0-64.25Z"/><path class="c" d="M7.74,33.63A32,32,0,0,0,9.83,45H69.9a31.73,31.73,0,0,0,0-22.65H9.83A32,32,0,0,0,7.74,33.63Z"/><path class="d" d="M3.1,56.24H98.84a1.6,1.6,0,0,1,1.6,1.6V99.33a1.59,1.59,0,0,1-1.59,1.59H3.1a1.6,1.6,0,0,1-1.6-1.6V57.84a1.6,1.6,0,0,1,1.6-1.6Z"/><rect class="e" x="7.92" y="63.15" width="5.21" height="5.21"/><rect class="e" x="7.92" y="74.67" width="5.21" height="5.21"/><rect class="e" x="7.92" y="86.19" width="5.21" height="5.21"/><rect class="e" x="19.54" y="63.15" width="5.21" height="5.21"/><rect class="e" x="19.54" y="74.67" width="5.21" height="5.21"/><rect class="e" x="19.54" y="86.19" width="5.21" height="5.21"/><rect class="e" x="31.17" y="63.15" width="5.21" height="5.21"/><rect class="e" x="31.17" y="74.67" width="5.21" height="5.21"/><rect class="e" x="42.79" y="63.15" width="5.21" height="5.21"/><rect class="e" x="42.79" y="74.67" width="5.21" height="5.21"/><rect class="e" x="54.42" y="63.15" width="5.21" height="5.21"/><rect class="e" x="54.42" y="74.67" width="5.21" height="5.21"/><rect class="e" x="66.04" y="63.15" width="5.21" height="5.21"/><rect class="e" x="66.04" y="74.67" width="5.21" height="5.21"/><polygon class="e" points="70.54 86.19 66.04 86.19 59.63 86.19 54.42 86.19 48 86.19 42.79 86.19 31.17 86.19 31.17 91.4 42.79 91.4 48 91.4 54.42 91.4 59.63 91.4 66.04 91.4 70.54 91.4 71.25 91.4 71.25 86.19 70.54 86.19"/><rect class="e" x="77.67" y="63.15" width="5.21" height="5.21"/><rect class="e" x="77.67" y="74.67" width="5.21" height="5.21"/><rect class="e" x="77.67" y="86.19" width="5.21" height="5.21"/><rect class="e" x="89.29" y="63.15" width="5.21" height="5.21"/><rect class="e" x="89.29" y="74.67" width="5.21" height="5.21"/><rect class="e" x="89.29" y="86.19" width="5.21" height="5.21"/></svg>