<svg xmlns="http://www.w3.org/2000/svg" viewBox="0 0 53.41 103.39"><defs><style>.a,.f{fill:none;}.a,.b,.e,.f,.g{stroke:#484f59;stroke-width:3px;}.a,.b{stroke-miterlimit:10;}.b{fill:#d5e962;}.c{fill:#ffc400;}.d{fill:#ffdc69;}.e{fill:#41a9d8;}.g{fill:#e5e8ec;stroke-linecap:round;stroke-linejoin:bevel;}</style></defs><line class="a" x1="26.71" y1="42.43" x2="26.71" y2="103.39"/><path class="b" d="M5.35,82.77c3.72,3.72,9.38,4.68,15.14,3.15,1.52-5.75.57-11.41-3.16-15.14S8,66.1,2.19,67.63C.67,73.38,1.63,79,5.35,82.77Z"/><line class="a" x1="2.19" y1="67.63" x2="26.57" y2="92"/><line class="a" x1="4.42" y1="80.54" x2="14.89" y2="80.9"/><line class="a" x1="13.1" y1="67.69" x2="13.91" y2="79.26"/><path class="b" d="M48.06,82.77c-3.72,3.72-9.38,4.68-15.14,3.15-1.52-5.75-.57-11.41,3.16-15.14s9.38-4.68,15.14-3.15C52.74,73.38,51.79,79,48.06,82.77Z"/><line class="a" x1="51.22" y1="67.63" x2="26.85" y2="92"/><line class="a" x1="50.34" y1="78.17" x2="39.88" y2="78.54"/><path class="c" d="M6,22.25a20.75,20.75,0,1,1,41.49,0c0,.67-.5,10.26-8.31,20.32-2.29,3-1.91,9.14-1.89,9.14H16.11s.44-6.1-1.84-9.14C6.45,32.5,6,22.92,6,22.25Z"/><path class="d" d="M43.61,22A14.52,14.52,0,1,1,29.09,7.43,14.52,14.52,0,0,1,43.61,22Z"/><path class="a" d="M6,22.25a20.75,20.75,0,1,1,41.49,0c0,.67-.5,10.26-8.31,20.32-2.29,3-1.91,9.14-1.89,9.14H16.11s.44-6.1-1.84-9.14C6.45,32.5,6,22.92,6,22.25Z"/><line class="e" x1="21.48" y1="51.63" x2="17.58" y2="27.61"/><line class="e" x1="31.94" y1="51.63" x2="35.83" y2="27.61"/><polyline class="f" points="17.83 28.43 19.63 30.43 21.42 28.43 23.22 30.43 25.02 28.43 26.82 30.43 28.62 28.43 30.42 30.43 32.22 28.43 34.03 30.43 35.83 28.43"/><path class="g" d="M38.64,56.27a1.76,1.76,0,0,0-1.29-1.69,1.74,1.74,0,0,0-.4-3.42H16.46a1.75,1.75,0,0,0-1.68,1.74,1.73,1.73,0,0,0,1.28,1.68,1.75,1.75,0,0,0,0,3.37,1.73,1.73,0,0,0-1.28,1.68,1.75,1.75,0,0,0,1.68,1.74v.16a2.34,2.34,0,0,0,2.35,2.33H34.6A2.34,2.34,0,0,0,37,61.53v-.16a1.74,1.74,0,0,0,.4-3.42A1.76,1.76,0,0,0,38.64,56.27Z"/><line class="a" x1="15.8" y1="56.87" x2="26.13" y2="56.87"/></svg>