<svg xmlns="http://www.w3.org/2000/svg" viewBox="0 0 99.55 86.02"><defs><style>.a,.e,.g{fill:#fff;}.a,.c,.d{stroke:#424953;}.a,.c,.d,.f,.g{stroke-width:3px;}.b{fill:#4eafc6;}.c{fill:#e5e8ec;}.d,.f{fill:none;}.f,.g{stroke:#484f59;}</style></defs><path class="a" d="M98,60.53V4.14A2.64,2.64,0,0,0,95.33,1.5H4.21A2.64,2.64,0,0,0,1.58,4.14V60.53Z"/><rect class="b" x="6.1" y="6.1" width="87.35" height="49.78"/><path class="a" d="M1.5,60.47V68.6a3.57,3.57,0,0,0,3.16,3.3h90.9c1.56,0,2.49-1.6,2.49-3.16V60.47Z"/><path class="c" d="M64.91,84.52c-.86-.37-1.89-.84-2.5-1.17-1.07-.59-1.28-.66-1.68-2.67-.43-2.2-.07-6.58-.24-8.6L39.1,72c-.17,2,.19,6.51-.24,8.71-.4,2-.68,2.08-1.74,2.67-.61.33-1.62.79-2.48,1.16h0"/><line class="d" x1="31.94" y1="84.52" x2="67.61" y2="84.52"/><circle class="e" cx="49.78" cy="25.9" r="15"/><line class="f" x1="49.05" y1="19.21" x2="49.05" y2="13.62"/><line class="f" x1="43.79" y1="22.63" x2="38.94" y2="19.83"/><line class="f" x1="44.12" y1="28.9" x2="39.27" y2="31.7"/><line class="f" x1="49.71" y1="31.75" x2="49.71" y2="37.35"/><line class="f" x1="54.98" y1="28.33" x2="59.82" y2="31.13"/><line class="f" x1="54.65" y1="22.06" x2="59.5" y2="19.26"/><line class="f" x1="66.83" y1="40.94" x2="74.8" y2="48.91"/><polygon class="g" points="52.26 26.37 75.69 36.28 66.28 40.4 62.17 49.8 52.26 26.37"/></svg>