<svg xmlns="http://www.w3.org/2000/svg" viewBox="0 0 102.32 73.49"><defs><style>.a{fill:#fff;}.a,.d,.e,.f,.g,.h,.i{stroke:#484f59;stroke-width:3px;}.a,.d,.e{stroke-linejoin:round;}.b{fill:#e9523b;}.c{fill:#484f59;}.d,.f{fill:#ffc400;}.d,.e{stroke-linecap:round;}.e{fill:#f6fafb;}.f,.g{stroke-miterlimit:10;}.g,.i{fill:none;}.h{fill:#d5e962;}</style></defs><rect class="a" x="1.5" y="1.5" width="99.32" height="70.49" rx="3.75"/><rect class="b" x="12.33" y="7.58" width="78.82" height="58.33"/><path class="c" d="M89.65,9.08V64.41H13.83V9.08H89.65m3-3H10.83V67.41H92.65V6.08Z"/><rect class="d" x="66.93" y="29.3" width="7.9" height="35.99"/><path class="e" d="M70.88,30a13.86,13.86,0,0,0,4-.57l-4-10.25L66.94,29.4A13.79,13.79,0,0,0,70.88,30Z"/><path class="f" d="M69.6,22.5c.4,0,.8.06,1.21.06s.92,0,1.36-.07l-1.29-3.34Z"/><rect class="f" x="41.91" y="16.82" width="16.5" height="49"/><line class="g" x1="57.41" y1="23.82" x2="50.91" y2="23.82"/><line class="g" x1="57.41" y1="30.82" x2="53.91" y2="30.82"/><line class="g" x1="57.41" y1="37.82" x2="50.91" y2="37.82"/><line class="g" x1="57.41" y1="44.82" x2="53.91" y2="44.82"/><line class="g" x1="57.41" y1="51.82" x2="50.91" y2="51.82"/><line class="g" x1="57.41" y1="58.82" x2="53.91" y2="58.82"/><path class="h" d="M29,22.93h5.26c-.07-1.81-.14-3.55-.22-5.22a4.18,4.18,0,0,0-4.81,0C29.1,19.38,29,21.12,29,22.93Z"/><path class="h" d="M34.92,65.5c0-1.17,0-2.35,0-3.54,0-14.42-.27-28-.72-39H29c-.45,11-.7,24.61-.72,39,0,1.19,0,2.37,0,3.54Z"/><line class="i" x1="28.45" y1="60.05" x2="34.25" y2="60.05"/><polyline class="i" points="22.82 56.57 22.82 25.32 28.95 22.93 31.8 22.93"/></svg>