<svg xmlns="http://www.w3.org/2000/svg" viewBox="0 0 79.1 106.04"><defs><style>.a,.g{fill:none;}.a,.b,.f,.g,.h{stroke:#484f59;stroke-width:3px;}.a,.b{stroke-miterlimit:10;}.b{fill:#01dee9;}.c{fill:#84f8fe;}.d{fill:#ffc400;}.e{fill:#ffdc69;}.f{fill:#41a9d8;}.h{fill:#e5e8ec;stroke-linecap:round;stroke-linejoin:bevel;}</style></defs><line class="a" x1="32.1" x2="32.1" y2="6.52"/><line class="a" x1="47.84" y1="4.48" x2="44.58" y2="10.12"/><line class="a" x1="59.24" y1="16.23" x2="53.59" y2="19.48"/><line class="a" y1="31.13" x2="6.52" y2="31.13"/><line class="a" x1="4.48" y1="15.39" x2="10.12" y2="18.65"/><line class="a" x1="16.23" y1="3.99" x2="19.48" y2="9.64"/><path class="b" d="M15.69,106V73.69A30,30,0,1,1,66.85,52.53c0,.45,0,.9,0,1.35L71,61.13l5.5,9.53h-7V82.48a8.08,8.08,0,0,1-8.08,8.08H48.67V106"/><polygon class="c" points="58.14 75.36 51.29 66.73 54.84 60.9 63.72 61.66 64.23 71.05 58.14 75.36"/><path class="c" d="M57.37,52.79a29.26,29.26,0,0,1,7-1.74,29.84,29.84,0,0,0-9.31-19.43,30.3,30.3,0,0,0-4.7,2.25A29.88,29.88,0,0,1,57.37,52.79Z"/><path class="d" d="M51,32.31a19.37,19.37,0,0,0-38.73,0c0,.63.47,9.58,7.76,19,2.14,2.83,1.79,8.53,1.77,8.53H41.5s-.41-5.7,1.72-8.53C50.52,41.88,51,32.94,51,32.31Z"/><circle class="e" cx="29.39" cy="32.03" r="13.55" transform="translate(-11.45 46.92) rotate(-67.5)"/><path class="a" d="M51,32.31a19.37,19.37,0,0,0-38.73,0c0,.63.47,9.58,7.76,19,2.14,2.83,1.79,8.53,1.77,8.53H41.5s-.41-5.7,1.72-8.53C50.52,41.88,51,32.94,51,32.31Z"/><line class="f" x1="36.49" y1="59.73" x2="40.13" y2="37.31"/><line class="f" x1="26.73" y1="59.73" x2="23.1" y2="37.31"/><polyline class="g" points="39.9 38.02 38.22 40.02 36.55 38.02 34.87 40.02 33.19 38.02 31.51 40.02 29.83 38.02 28.15 40.02 26.47 38.02 24.78 40.02 23.1 38.02"/><path class="h" d="M20.48,64.06a1.63,1.63,0,0,1,1.2-1.57,1.63,1.63,0,0,1,.38-3.2H41.17a1.63,1.63,0,0,1,.38,3.2,1.63,1.63,0,0,1,0,3.14,1.62,1.62,0,0,1-.38,3.19V69A2.19,2.19,0,0,1,39,71.15H24.25A2.19,2.19,0,0,1,22.06,69v-.15a1.62,1.62,0,0,1-.38-3.19A1.64,1.64,0,0,1,20.48,64.06Z"/><line class="a" x1="41.57" y1="64.25" x2="25.82" y2="64.25"/></svg>