<svg xmlns="http://www.w3.org/2000/svg" viewBox="0 0 512 512"><g id="Layer_2" data-name="Layer 2"><g id="Icons"><path d="M399.09,0h-284C52.13,0,0,50.14,0,113.11v284C0,460.07,52.13,512,115.09,512h284c63,0,112.91-51.93,112.91-114.89v-284C512,50.14,462.05,0,399.09,0Z" style="fill:#3b579d"/><path d="M279,512V318H211V236h68V183.85c0-25.62,4.88-43.59,10.34-56.18s23.15-30.26,37.53-38.53C360.63,69.82,439,78.87,439,78.87v69.48s-59.31-3.81-70.68,8c-5.16,5.29-8.32,13.51-8.32,29V236h77.56L425.8,318H360V512Z" style="fill:#fff"/></g></g></svg>