<svg xmlns="http://www.w3.org/2000/svg" xmlns:xlink="http://www.w3.org/1999/xlink" viewBox="0 0 512 512"><defs><filter id="luminosity-noclip" x="0" y="-8529.97" width="512" height="32766" filterUnits="userSpaceOnUse" color-interpolation-filters="sRGB"><feFlood flood-color="#fff" result="bg"/><feBlend in="SourceGraphic" in2="bg"/></filter><mask id="mask" x="0" y="-8529.97" width="512" height="32766" maskUnits="userSpaceOnUse"><g style="filter:url(#luminosity-noclip)"/></mask><radialGradient id="radial-gradient" cx="445.49" cy="479.5" r="679.61" gradientUnits="userSpaceOnUse"><stop offset="0"/><stop offset="0.29" stop-color="#020202"/><stop offset="0.41" stop-color="#090909"/><stop offset="0.5" stop-color="#151515"/><stop offset="0.57" stop-color="#272727"/><stop offset="0.63" stop-color="#3d3d3d"/><stop offset="0.69" stop-color="#595959"/><stop offset="0.74" stop-color="#7b7b7b"/><stop offset="0.79" stop-color="#a2a2a2"/><stop offset="0.83" stop-color="#ccc"/><stop offset="0.87" stop-color="#fbfbfb"/><stop offset="0.87" stop-color="#fff"/></radialGradient><radialGradient id="radial-gradient-2" cx="186.01" cy="566.49" r="842.23" gradientUnits="userSpaceOnUse"><stop offset="0.12" stop-color="#fff"/><stop offset="0.3" stop-color="#fff"/><stop offset="0.44" stop-color="gray"/><stop offset="0.54" stop-color="#4f4f4f"/><stop offset="0.64" stop-color="#242424"/><stop offset="0.72" stop-color="#0a0a0a"/><stop offset="0.77"/></radialGradient><radialGradient id="radial-gradient-3" cx="186.01" cy="566.49" r="842.23" gradientUnits="userSpaceOnUse"><stop offset="0.12" stop-color="#fdd274"/><stop offset="0.3" stop-color="#ee7539"/><stop offset="0.44" stop-color="#d82f80"/><stop offset="0.58" stop-color="#af35a4"/><stop offset="0.7" stop-color="#9539bb"/><stop offset="0.77" stop-color="#8b3ac3"/></radialGradient><filter id="luminosity-noclip-3" x="0" y="0" width="512" height="512" filterUnits="userSpaceOnUse" color-interpolation-filters="sRGB"><feFlood flood-color="#fff" result="bg"/><feBlend in="SourceGraphic" in2="bg"/></filter><mask id="mask-3" x="0" y="0" width="512" height="512" maskUnits="userSpaceOnUse"><g style="mask:url(#mask);filter:url(#luminosity-noclip-3)"><rect width="512" height="512" rx="114" style="mix-blend-mode:multiply;fill:url(#radial-gradient)"/></g></mask><radialGradient id="radial-gradient-4" cx="445.49" cy="479.5" r="679.61" gradientUnits="userSpaceOnUse"><stop offset="0" stop-color="#525ed1"/><stop offset="0.74" stop-color="#525ed1"/><stop offset="0.87" stop-color="#525ed1"/></radialGradient></defs><g id="Layer_2" data-name="Layer 2"><g id="Icons"><rect width="512" height="512" rx="114" style="fill:url(#radial-gradient-3)"/><g style="mask:url(#mask-3)"><rect width="512" height="512" rx="114" style="fill:url(#radial-gradient-4)"/></g><g style="mask:url(#mask-3)"><rect width="512" height="512" rx="114" style="fill:url(#radial-gradient-3)"/></g><path d="M339.59,99.31a71.35,71.35,0,0,1,71.26,71.27V338.09a71.34,71.34,0,0,1-71.26,71.26H172.08a71.35,71.35,0,0,1-71.27-71.26V170.58a71.35,71.35,0,0,1,71.27-71.27H339.59m0-33.06H172.08A104.33,104.33,0,0,0,67.75,170.58V338.09A104.32,104.32,0,0,0,172.08,442.41H339.59A104.31,104.31,0,0,0,443.91,338.09V170.58A104.32,104.32,0,0,0,339.59,66.25Z" style="fill:#fff"/><path d="M173.71,257.67a82.6,82.6,0,1,1,82.59,82.6A82.6,82.6,0,0,1,173.71,257.67Z" style="fill:none;stroke:#fff;stroke-miterlimit:10;stroke-width:33.0613px"/><path d="M331.24,154.08a24.25,24.25,0,1,1,24.25,24.24A24.25,24.25,0,0,1,331.24,154.08Z" style="fill:#fff"/></g></g></svg>