<svg xmlns="http://www.w3.org/2000/svg" viewBox="0 0 512 512"><g id="Layer_2" data-name="Layer 2"><g id="Icons"><rect width="512" height="512" rx="114" style="fill:#1da1f3"/><path d="M252.71,200.77s-73.5,5.5-144.8-73.46c-27.37,49.29,8.63,82,20,94-11.4.14-20.67-1.35-30.5-8.51,3.83,46.5,32.49,65.16,55.16,69.5-10.49,4.46-21.58,3-30.33,2,12.33,33.66,35,45,64.33,47.66-17.13,16.37-58.67,34-102,30.67,208.67,108,318.67-90,308-179.33,14.67-10,24-20,34.67-37.34-17.34,10-38.67,11.34-38.67,11.34s24-15.34,29.33-38a103.7,103.7,0,0,1-45.33,16s-36.85-35.1-80.67-16C239.87,141.93,252.71,200.77,252.71,200.77Z" style="fill:#fff"/></g></g></svg>