<svg xmlns="http://www.w3.org/2000/svg" xmlns:xlink="http://www.w3.org/1999/xlink" viewBox="0 0 1920 577.45"><defs><style>.a{fill:url(#a);}</style><linearGradient id="a" x1="2880" y1="296.23" x2="2880" y2="-281.22" gradientUnits="userSpaceOnUse"><stop offset="0" stop-color="#cce0f4"/><stop offset="0.06" stop-color="#c3dcf2"/><stop offset="0.17" stop-color="#a9d2ee"/><stop offset="0.31" stop-color="#80c2e7"/><stop offset="0.46" stop-color="#47acde"/><stop offset="0.57" stop-color="#1e9cd7"/><stop offset="0.87" stop-color="#0075be"/><stop offset="0.99" stop-color="#005b97"/></linearGradient></defs><path class="a" d="M1920,92c.21.26.41.52.63.77a42,42,0,0,0,40,12.88c3.71,19.35,20.25,35.64,39.7,39,18.78,3.18,39-6,49.27-21.93,2.15,34.39,7,72.45,31.93,96.59,20.75,20.08,54.72,27.16,84.53,17.62,22.58-7.22,42.84-23.19,57.33-44.75a47.47,47.47,0,0,0,27.92-.18,52.57,52.57,0,0,0,12.2-5.79c2.43,6.27,5.11,12.37,8.09,18.28,21,41.74,55.8,73,95.48,85.66,43.42,13.9,92.91,3.58,123.14-25.68,36.35-35.17,43.38-90.61,46.52-140.71,33.33,10.25,54.94,6.13,68.66-5.07,9.12,2.54,19.23,1.25,26.19-4.91,1.83,23.15,5.09,47,20.08,65.59,14.12,17.44,36,24.12,57.35,17.27,47.14-15.09,55-67.74,63.68-111.35,4.85,21,20.18,39.5,41.16,46.35,24.44,8,51.92-1.25,68-20.67,3,13.88,12.22,27.35,27.21,29.11a27.08,27.08,0,0,0,25.13-11.32c2.42,30.91,64.72,68.21,95,60.25,74.4-19.57,71.54-86.55,62-116.25,10.76,4,11.59-47.23,20.83-51.73.36-.07,17.64,31.08,18,31,3.71,19.34,13.56,54.54,33,57.86,18.79,3.18,39-6,49.27-21.93,2.15,34.39,7,72.45,31.93,96.59,20.75,20.09,54.72,27.17,84.53,17.63,22.58-7.23,42.85-23.2,57.34-44.76a47.35,47.35,0,0,0,27.91-.18,52.17,52.17,0,0,0,12.2-5.79q3.65,9.41,8.09,18.28c21,41.74,55.8,73,95.48,85.66,43.43,13.9,92.92,3.59,123.14-25.67,36.36-35.17,43.39-90.62,46.52-140.71,33.33,10.25,54.94,6.12,68.67-5.08,9.11,2.55,19.22,1.25,26.18-4.91,1.84,23.16,5.09,47,20.08,65.59A53.26,53.26,0,0,0,3840,162.23V-278.41h-12.82c-14.35,0-28.73.14-43.13,0h-6.54c-28.3-.25-56.62-1.5-84.8,0-.65,0-1.1-.4-1.38,0h-379.4c-4.66,7.42-7.25-9.09-7.72,0H3076c-.28.7-.52-.71-.75,0-18,.13-36,0-53.83,0h-119q-119,0-238,0c-14.35,0-28.73.14-43.13,0h-6.54c-28.3-.25-56.63-1.5-84.8,0-.65,0-1.1-.4-1.38,0h-379.4c-4.66,7.42-7.25-9.09-7.72,0H1920Z" transform="translate(-1920 281.22)"/></svg>