<svg xmlns="http://www.w3.org/2000/svg" viewBox="0 0 369.77 841.89"><g id="Layer_2" data-name="Layer 2"><g id="ColorNodes"><polygon points="301.7 0 278.07 0 280.56 20.17 301.7 0" style="fill:none"/><path d="M261.94,13.38a5.89,5.89,0,0,1,0,2.33L280,20.39,277.48,0h-13l-5.23,9.55A5.88,5.88,0,0,1,261.94,13.38Z" style="fill:none"/><path d="M214.32,14.3l31.57,9.45a4,4,0,1,1-.16.56l-30.89-9.24,27.57,49.17-.51.29L214.39,15.46l-5.58,35.13A13.64,13.64,0,0,1,209,77.41l4.72,30.49.31,0a9.1,9.1,0,0,1,4,.55l6-14.59a3.5,3.5,0,1,1,1.91.38,3.34,3.34,0,0,1-1.38-.15l-6,14.58a9.22,9.22,0,0,1,4.77,5l28.37-10.49a3.51,3.51,0,1,1,1,1.68,3.55,3.55,0,0,1-.83-1.12l-28.38,10.48a9.18,9.18,0,0,1,.4,2,8.45,8.45,0,0,1,0,1.67l17.82,2.27-.08.58-17.81-2.28a9.15,9.15,0,0,1-8.24,7.67,8.91,8.91,0,0,1-3.35-.33l-3.72,9.6-.54-.21,3.7-9.58a9.12,9.12,0,0,1-6-7.51l-10.58.92a22.65,22.65,0,0,1-3.23,12.75l9.61,5.79-.3.5-9.62-5.79a22.76,22.76,0,0,1-12.22,9.45l15,48,59.27-19a12.52,12.52,0,0,1-.43-2.32,12,12,0,0,1,10.68-13l-.74-13.29a3.65,3.65,0,0,1-.23-7.29,3.73,3.73,0,0,1,2,.39l10.43-14.7a5.86,5.86,0,1,1,9.38-5.76,5.9,5.9,0,0,1,.06.59l17.13-.88a3.48,3.48,0,1,1,.06.82,2,2,0,0,1,0-.24l-17.1.88a5.8,5.8,0,0,1-.11,1.11l22.83,10.81a12,12,0,0,1,18.52-3.08L348,101.32,335.63,80.23,332.93,84a3.45,3.45,0,0,1,.65.72,3.53,3.53,0,1,1-1.12-1.07l2.84-3.93L326.74,65l-16.23,3.54A3.49,3.49,0,0,1,309,72a3.52,3.52,0,1,1,1-4.87,3.57,3.57,0,0,1,.42.91l16-3.5-4.62-7.91a12.58,12.58,0,0,1-16.57-18l-25-17.55-18.45-4.78a5.84,5.84,0,0,1-11.28-.34l-.86.17c0-.19-.06-.39-.1-.58l.86-.17a5.82,5.82,0,0,1,8.3-6.07L263.77,0H195.21l-3.47,7.08Zm14.76,123.64a3.51,3.51,0,0,1-5.64-1.61l-12.13,2.75-.13-.57,12.13-2.75a3.52,3.52,0,0,1,6.15-2.78A3.51,3.51,0,0,1,229.08,137.94Z" style="fill:none"/><path d="M359.46,714.72a6.32,6.32,0,0,1-4.42-6.9l-18.31-2.93L322.84,761l18.57,38.19a18.69,18.69,0,0,1,7-2,19.41,19.41,0,0,1,3,0l4.05-43.89a9.63,9.63,0,1,1,1.85,0,8.88,8.88,0,0,1-1.26,0L352,797.2a18.72,18.72,0,1,1-7.88,36.38l-2.89,8.31h28.5V720.67L364.64,714A6.23,6.23,0,0,1,359.46,714.72Z" style="fill:none"/><path d="M353.45,550a12.58,12.58,0,0,1,6,23.71l10.33,20.74V545.5l-16.61-4.69Z" style="fill:none"/><path d="M352.58,522.61l4.15-2a3.49,3.49,0,1,1,.25.53l-4.38,2.11.54,17,16.63,4.69v-52.7l-18,6Z" style="fill:none"/><path d="M367.34,710.52a6.28,6.28,0,0,1-2.22,3.18l4.65,6V703.21l-3.28,1.89A6.28,6.28,0,0,1,367.34,710.52Z" style="fill:none"/><path d="M322.66,56.09l-.35.2L327,64.37l19.65-4.28a3.51,3.51,0,0,1,6.41-2.39,3.87,3.87,0,0,1,.33.64l16.34-5V16.5L326.92,39.86A12.59,12.59,0,0,1,322.66,56.09Z" style="fill:none"/><path d="M363.29,641.52a5.25,5.25,0,0,1-.44,1.06l6.92,3.48V632.37l-7,4.52A5.81,5.81,0,0,1,363.29,641.52Z" style="fill:none"/><path d="M366.59,443.47l3.18,4.66v-8A12,12,0,0,1,366.59,443.47Z" style="fill:none"/><path d="M323.31,396.25a8.6,8.6,0,0,1,2.93,12.4L350,426.18a12.11,12.11,0,0,1,19.81.94V356.8l-27.45,1.94Z" style="fill:none"/><path d="M356,645.43a5.85,5.85,0,0,1-1.73-10.35L341.78,616a6.14,6.14,0,0,1-2.08.77l5.48,40.76a9.76,9.76,0,1,1-1.49,19.27l-6.82,27.53,18.28,2.93c0-.14.06-.27.1-.41a6.32,6.32,0,0,1,10.89-2.21l3.63-2.09V646.72l-7.24-3.64A5.86,5.86,0,0,1,356,645.43Z" style="fill:none"/><path d="M352.15,62.53l17.62,30.86V54L353.59,58.9A3.5,3.5,0,0,1,352.15,62.53Z" style="fill:none"/><path d="M286.34,560.36c.05.6.06,1.2.07,1.79h9.66l4.45-20.68-12.8-9.68-9.91,12.43A23.39,23.39,0,0,1,286.34,560.36Z" style="fill:none"/><path d="M291.46,526.18l-10.37-2.13a5.09,5.09,0,0,1-.68,1.5l7.21,5.44Z" style="fill:none"/><polygon points="300.66 540.85 303.29 528.6 292.1 526.31 288.08 531.35 300.66 540.85" style="fill:none"/><path d="M259.89,231.54,242.58,205a3.52,3.52,0,1,1,0-6.17l.06,0,15.4-21.9a12,12,0,0,1-4.22-5.76l-59,18.9,63.41,43A7.58,7.58,0,0,1,259.89,231.54Z" style="fill:none"/><path d="M264.08,642.77a12.56,12.56,0,0,1-9.85-3.5l-21.68,21.35a12.12,12.12,0,0,1,2.69,4.54l37.06-11.31L267.46,642A12.53,12.53,0,0,1,264.08,642.77Z" style="fill:none"/><path d="M261.94,618.27a12,12,0,1,0,8.77,2.77A12,12,0,0,0,261.94,618.27Zm9.67,11.21a8.66,8.66,0,1,1-9.38-7.87A8.66,8.66,0,0,1,271.61,629.48Z" style="fill:none"/><path d="M309.8,520a14.38,14.38,0,0,1-4-.22L304,528.15l22.63,4.64a3.49,3.49,0,0,1,3-2.5l-1-45.71a4.91,4.91,0,0,1-2.58-.86l-8.58,10.49A14.44,14.44,0,0,1,309.8,520Z" style="fill:none"/><path d="M308.73,478l.15-13a12.08,12.08,0,0,1-10-6l-20.64,11.36a10.7,10.7,0,0,1,1.15,3.95,10.18,10.18,0,0,1,0,1.46Z" style="fill:none"/><path d="M311.4,441l5.79-28.87a8.59,8.59,0,0,1-6.14-5.58l-8.8,2.69a23,23,0,0,1,1,5.09,23.47,23.47,0,0,1-8.45,20.16l7.12,8.82a12,12,0,0,1,6.31-2.46A12.16,12.16,0,0,1,311.4,441Z" style="fill:none"/><path d="M325.57,483.36a4.82,4.82,0,0,1-1.62-3.2c0-.13,0-.26,0-.38l-14.65-1.13-.14,12.5a14.36,14.36,0,0,1,7.82,2.71Z" style="fill:none"/><path d="M300.76,514.83a12.1,12.1,0,1,0-4.27-8.22A12,12,0,0,0,300.76,514.83Z" style="fill:none"/><path d="M307.29,491.17c.44,0,.87,0,1.29,0l.15-12.53-29.37-2.26a10.65,10.65,0,0,1-1.91,5.05l19.95,15A14.4,14.4,0,0,1,307.29,491.17Z" style="fill:none"/><path d="M305.23,519.61a14.35,14.35,0,0,1-5.62-2.72l-7.1,8.9,10.9,2.24Z" style="fill:none"/><path d="M283.77,585.77a7.62,7.62,0,0,1,1.51-5.28l-4.1-3.31a23.41,23.41,0,0,1-16.2,8.63c-.61.05-1.21.06-1.81.06l-.07,31.78a12.4,12.4,0,0,1,6,1.58l17.59-28.07A7.66,7.66,0,0,1,283.77,585.77Z" style="fill:none"/><path d="M248.84,702.09a15.1,15.1,0,0,1,15,8.61l11.29-5.07a21.83,21.83,0,0,1,7.47-26.58l-10.05-24.66L235.4,665.72a11.6,11.6,0,0,1,.39,2.13,12.1,12.1,0,0,1-6,11.52l13.35,24.38A15.09,15.09,0,0,1,248.84,702.09Z" style="fill:none"/><path d="M266.29,179.32c-.31,0-.61,0-.92,0l-.72,50.79a7.29,7.29,0,0,1,3.83,1.3l4.86-6.45-6.76-45.71Z" style="fill:none"/><polygon points="194.56 0 169.6 0 191.18 6.9 194.56 0" style="fill:none"/><path d="M258.25,175.65a10.88,10.88,0,1,0-3.84-7.39A10.86,10.86,0,0,0,258.25,175.65Z" style="fill:none"/><path d="M261.28,726.48a14.5,14.5,0,1,0-9.86,5.14A14.46,14.46,0,0,0,261.28,726.48Z" style="fill:none"/><path d="M266.31,766a16.36,16.36,0,0,1,16.53,10l39.08-15.33-59-35.52a15.15,15.15,0,0,1-8.56,6.47l9.39,34.78A16.25,16.25,0,0,1,266.31,766Z" style="fill:none"/><path d="M228.12,621.35a7.06,7.06,0,0,0-.87-10,7.07,7.07,0,0,0-11.59,6,7.07,7.07,0,0,0,12.46,3.93Z" style="fill:none"/><path d="M264.87,584.64a22.31,22.31,0,1,0-16.29-5.14A22.23,22.23,0,0,0,264.87,584.64Z" style="fill:none"/><path d="M261.89,617.69c.21,0,.42,0,.62,0l.08-31.78a23.31,23.31,0,0,1-7.48-1.35l-14,38.08L251.15,626A12.57,12.57,0,0,1,261.89,617.69Z" style="fill:none"/><path d="M253.82,638.85A12.57,12.57,0,0,1,251,626.53l-10.08-3.36-12.7,34.49a11.92,11.92,0,0,1,4,2.55Z" style="fill:none"/><path d="M281.53,576.71l4.11,3.33a7.69,7.69,0,0,1,5.13-2.61,7.79,7.79,0,0,1,2,.09L296,562.75l-9.52,0A23.34,23.34,0,0,1,281.53,576.71Z" style="fill:none"/><path d="M290.87,578.59a6.55,6.55,0,1,0,4.77,1.51A6.5,6.5,0,0,0,290.87,578.59Z" style="fill:none"/><path d="M231.53,620.06a9.42,9.42,0,0,1-8,6.12c-.24,0-.49,0-.73,0l.88,30.6a11.93,11.93,0,0,1,4,.64L240.33,623Z" style="fill:none"/><path d="M321.73,759.9l-18.2-42.69a21.64,21.64,0,0,1-6.42,1.55,21.9,21.9,0,0,1-21.76-12.6l-11.29,5.07a15.05,15.05,0,0,1-.82,13.45Z" style="fill:none"/><path d="M186.31,103.4A21.64,21.64,0,1,0,194,118.1,21.54,21.54,0,0,0,186.31,103.4Zm-12.56,32.18a15.66,15.66,0,1,1,14.24-17A15.66,15.66,0,0,1,173.75,135.58Z" style="fill:none"/><path d="M287.4,831.47a10.61,10.61,0,0,1,.06-2.46l-42.06-6.2a9.7,9.7,0,0,1-1.27,3.36l23.46,15.72h21.59l2.16-2.83A11.16,11.16,0,0,1,287.4,831.47Z" style="fill:none"/><path d="M184.47,100.65A22.76,22.76,0,0,1,195.13,118c0,.13,0,.26,0,.4l10.55-.92a9.11,9.11,0,0,1,2.12-6.4l-19.2-17.23Z" style="fill:none"/><path d="M299.5,841.63a11.07,11.07,0,0,1-7.69-2.22l-1.9,2.48h11.88l-.21-.64A10.91,10.91,0,0,1,299.5,841.63Z" style="fill:none"/><path d="M207.57,77.61a13.61,13.61,0,0,1-8-1.79L188.91,93.34l19.3,17.31a9.13,9.13,0,0,1,4.92-2.67l-4.72-30.49A8.09,8.09,0,0,1,207.57,77.61Z" style="fill:none"/><path d="M146.45,4.71a12.25,12.25,0,0,0,9,2.84,12.31,12.31,0,0,0,8.36-4.35A12.24,12.24,0,0,0,165.71,0h-3.85a8.84,8.84,0,0,1-6.73,4.13A8.85,8.85,0,0,1,146.85,0H143A12.24,12.24,0,0,0,146.45,4.71Z" style="fill:none"/><path d="M164.06,70.7a16.44,16.44,0,1,0-11.18,5.82A16.36,16.36,0,0,0,164.06,70.7Z" style="fill:none"/><path d="M205.25,51a13.06,13.06,0,1,0,9.54,3A13,13,0,0,0,205.25,51Zm10.51,12.2a9.41,9.41,0,1,1-10.19-8.55A9.41,9.41,0,0,1,215.76,63.19Z" style="fill:none"/><path d="M155.48,8.13a13.55,13.55,0,0,1-1.8,0l-1.3,35a17,17,0,0,1,16.06,15.52,18.77,18.77,0,0,1,0,2.37l24.34,1.74a13.66,13.66,0,0,1,12.4-12.34,13.88,13.88,0,0,1,3,.08l5.67-35.71L191.48,7.61,178.07,34.94a8,8,0,1,1-.53-.25L190.92,7.43,167.68,0h-1.35A12.87,12.87,0,0,1,155.48,8.13Z" style="fill:none"/><path d="M170.41,97.25A22.68,22.68,0,0,1,184,100.34l4.18-6.89L163.93,71.7a16.76,16.76,0,0,1-6.58,4.39l7.79,22.27A22.86,22.86,0,0,1,170.41,97.25Z" style="fill:none"/><path d="M71.25,633.63a7.3,7.3,0,0,0-5.38-1.7,7.37,7.37,0,0,0-4.1,13,7.3,7.3,0,0,0,5.38,1.7,7.37,7.37,0,0,0,4.1-13Z" style="fill:none"/><path d="M159.6,622.58a9.18,9.18,0,1,0-2.12,6.69A9.17,9.17,0,0,0,159.6,622.58Z" style="fill:none"/><path d="M332.12,821.22l-22.78,6.5a10.88,10.88,0,0,1,.32,1.81,11.16,11.16,0,0,1-7.53,11.54l.27.82h38.25l3-8.52A18.73,18.73,0,0,1,332.12,821.22Z" style="fill:none"/><path d="M298.57,458.48a12.1,12.1,0,0,1,2.92-14.79l-7.11-8.83a23.35,23.35,0,0,1-18.6,4.67L271,464.81a10.71,10.71,0,0,1,6.92,5Z" style="fill:none"/><path d="M204.37,686.79a6.53,6.53,0,1,0,2.31,4.44A6.54,6.54,0,0,0,204.37,686.79Z" style="fill:none"/><path d="M188.47,92.94l10.59-17.43a13.62,13.62,0,0,1-6.28-10.31,14.63,14.63,0,0,1,0-1.87l-24.34-1.74a17,17,0,0,1-4.09,9.69Z" style="fill:none"/><path d="M279.32,683.59a20.74,20.74,0,1,0,14.08-7.33A20.64,20.64,0,0,0,279.32,683.59ZM293.9,682a15,15,0,1,1-13.66,16.27A15,15,0,0,1,293.9,682Z" style="fill:none"/><path d="M157.28,297.54a19.59,19.59,0,1,0-6.92-13.31A19.57,19.57,0,0,0,157.28,297.54Z" style="fill:none"/><path d="M302.06,408.7l8.82-2.7a7.9,7.9,0,0,1-.27-1.48,8.58,8.58,0,0,1,5.67-8.82L309,373,293.12,397A23.6,23.6,0,0,1,302.06,408.7Z" style="fill:none"/><path d="M171.69,303.22a20.68,20.68,0,0,1-11.56-2.37l-5.65,11.92a13.12,13.12,0,0,1,4.07,19.73l15.52,13.25a8.14,8.14,0,0,1,4.35-2.26l-5.87-40.39C172.26,303.13,172,303.19,171.69,303.22Z" style="fill:none"/><path d="M119.24,342.06a22.87,22.87,0,0,1,14.65,3.73L141,335.32a13.14,13.14,0,0,1-4.39-17.11l-17-9a11.76,11.76,0,0,1-7.93,6.15l5.38,27.06C117.77,342.23,118.5,342.13,119.24,342.06Z" style="fill:none"/><path d="M269.05,797.39a15.18,15.18,0,1,0-11.08-3.5A15.15,15.15,0,0,0,269.05,797.39Zm-12.38-14.16a11.1,11.1,0,1,1,12,10.1A11.11,11.11,0,0,1,256.67,783.23Z" style="fill:none"/><path d="M117.69,311a11.25,11.25,0,1,0-7.63,4A11.19,11.19,0,0,0,117.69,311Zm-7.9.86a8.12,8.12,0,1,1,7.38-8.79A8.12,8.12,0,0,1,109.79,311.88Z" style="fill:none"/><path d="M243.08,204.69l17.3,26.53a7.24,7.24,0,0,1,3.23-1.07,3.54,3.54,0,0,1,.46,0l.72-50.78a12,12,0,0,1-6.23-2l-15.39,21.89a3.53,3.53,0,0,1,.82,4.41A3.48,3.48,0,0,1,243.08,204.69Z" style="fill:none"/><path d="M171.81,353.24l-9.36,2.22,12.66,27.82a11.19,11.19,0,0,1,3.48-.87,7.31,7.31,0,0,1,.81,0l.09-22.59A8.24,8.24,0,0,1,171.81,353.24Z" style="fill:none"/><path d="M174.58,383.53,161.87,355.6l-18.24,4.33a23.18,23.18,0,0,1,.49,3,22.82,22.82,0,0,1-2.18,11.9l27.48,13.72A11.44,11.44,0,0,1,174.58,383.53Z" style="fill:none"/><path d="M71.81,302.08a7.86,7.86,0,1,0,2.78,5.35A7.83,7.83,0,0,0,71.81,302.08Z" style="fill:none"/><path d="M186.57,385.49a10.87,10.87,0,1,0,3.84,7.38A10.82,10.82,0,0,0,186.57,385.49Z" style="fill:none"/><path d="M281.79,438.65a22.35,22.35,0,1,0-16.32-5.15A22.28,22.28,0,0,0,281.79,438.65Z" style="fill:none"/><path d="M171.72,352.66c0-.12,0-.24-.05-.37a8.18,8.18,0,0,1,2-6.11L158.18,333a13,13,0,0,1-4.45,3.34l8.48,18.63Z" style="fill:none"/><path d="M149.38,337.45a13.09,13.09,0,0,1-7.88-1.82l-7.12,10.48a23,23,0,0,1,9.11,13.25l18.14-4.3-8.43-18.52A13,13,0,0,1,149.38,337.45Z" style="fill:none"/><path d="M119.86,308.64l17,9.06A13.11,13.11,0,0,1,154,312.51l5.66-11.94a20.77,20.77,0,0,1-9.22-10.92l-30.08,10.53a11.57,11.57,0,0,1,.54,2.59A11.83,11.83,0,0,1,119.86,308.64Z" style="fill:none"/><path d="M347.88,62.29a3.45,3.45,0,0,1-.65-.72,3.11,3.11,0,0,1-.41-.91L327.35,64.9l8.33,14.26Z" style="fill:none"/><path d="M67,468.85a10.31,10.31,0,0,1-7-2l-25.14,32.4a7.39,7.39,0,0,1-2.71,12.76l5.68,23.1c.18,0,.35-.08.53-.1a5.34,5.34,0,0,1,4.34,1.66L63.44,518.9a9.41,9.41,0,1,1,16.68-6.75,9.54,9.54,0,0,1-.3,3.3l25.09,7.77L71.21,467.5A10.36,10.36,0,0,1,67,468.85Z" style="fill:none"/><path d="M65.22,448.87a9.75,9.75,0,1,0,7.1,2.25A9.72,9.72,0,0,0,65.22,448.87Z" style="fill:none"/><path d="M34.85,509a6.23,6.23,0,1,0-4.23,2.2A6.22,6.22,0,0,0,34.85,509Z" style="fill:none"/><path d="M305.7,52.2a12,12,0,1,0-1.75-9A12,12,0,0,0,305.7,52.2Zm5.24-13.84a8.66,8.66,0,1,1-2.45,12A8.66,8.66,0,0,1,310.94,38.36Z" style="fill:none"/><path d="M71.57,522.34a9.37,9.37,0,0,1-7.74-3L43.07,537.14a5.37,5.37,0,0,1,.87,1.68l60.54-15.12L79.65,516A9.4,9.4,0,0,1,71.57,522.34Z" style="fill:none"/><path d="M71.71,467.2l33.87,56L120,501.73a7.65,7.65,0,0,1-2.11-10.06L74.62,464.32A10.37,10.37,0,0,1,71.71,467.2Z" style="fill:none"/><path d="M18.17,427.91a6.22,6.22,0,1,0-1.43,4.55A6.19,6.19,0,0,0,18.17,427.91ZM12.36,433a4.6,4.6,0,1,1,4.18-5A4.6,4.6,0,0,1,12.36,433Z" style="fill:none"/><path d="M173.4,504.78h.38l-.35-9.65a7.69,7.69,0,0,1-7.52-6.14l-6.38,1,8.53,16.44A12.89,12.89,0,0,1,173.4,504.78Z" style="fill:none"/><path d="M268.65,232.3a6.85,6.85,0,0,0-5-1.57,6.84,6.84,0,0,0,1.19,13.63,6.83,6.83,0,0,0,4.64-2.42,6.46,6.46,0,0,0,1-1.54l.09-.18a6.84,6.84,0,0,0-1.9-7.92Zm-4,10.25a5,5,0,1,1,4.57-5.44A5,5,0,0,1,264.69,242.55Z" style="fill:none"/><path d="M161.62,519a.78.78,0,0,1,0-.16,13,13,0,0,1,6-12.07l-8.64-16.64-26.72,4.43a1.45,1.45,0,0,1,0,.29,7.67,7.67,0,0,1-3.73,7.28l10.18,18.68Z" style="fill:none"/><path d="M138.05,520.86,128,502.41a7.61,7.61,0,0,1-7.47-.36l-14.39,21.34Z" style="fill:none"/><path d="M143,363.05a21.8,21.8,0,1,0-5,15.91A21.69,21.69,0,0,0,143,363.05Z" style="fill:none"/><path d="M338.72,661.36a9.16,9.16,0,1,0,6.23-3.25A9.12,9.12,0,0,0,338.72,661.36Z" style="fill:none"/><path d="M304.06,717l18.4,43.15,13.7-55.33-19.47-3.59A21.9,21.9,0,0,1,304.06,717Z" style="fill:none"/><path d="M337.49,672.44l-23.25,13.65a21.62,21.62,0,0,1,2.55,14.53l19.51,3.6,6.82-27.58A9.74,9.74,0,0,1,337.49,672.44Z" style="fill:none"/><path d="M344.62,612.39a6.25,6.25,0,0,1-2.36,3.28l12.47,19.09a5.86,5.86,0,0,1,4.65-.56l.16.07,10.23-26.06v-5.85l-25,6.82A6.27,6.27,0,0,1,344.62,612.39Z" style="fill:none"/><path d="M362.43,636.41l7.34-4.74V609.81l-9.69,24.68A5.91,5.91,0,0,1,362.43,636.41Z" style="fill:none"/><path d="M324.8,348.29,305,336.23a11,11,0,0,1-5.63,4.44l9.91,31Z" style="fill:none"/><path d="M271.65,236.9a7.33,7.33,0,0,1-.55,3.5l4.84,2.25-2.48-16.85-4.51,6A7.45,7.45,0,0,1,271.65,236.9Z" style="fill:none"/><path d="M283,776.58a16.18,16.18,0,0,1-.08,11.58L309.64,799l2.67-7.38a5.74,5.74,0,1,1,2.74.46,5.71,5.71,0,0,1-2.19-.24l-2.68,7.38,22.63,9.22a18.81,18.81,0,0,1,8.09-9l-18.62-38.3Z" style="fill:none"/><path d="M276.88,795.81l16.22,24.93a11.15,11.15,0,0,1,9-.84l7.38-20.32-26.69-10.87A16.44,16.44,0,0,1,276.88,795.81Z" style="fill:none"/><path d="M304.21,823.73a8.85,8.85,0,1,0,3.12,6A8.77,8.77,0,0,0,304.21,823.73Z" style="fill:none"/><path d="M292.59,821l-16.2-24.92a16.29,16.29,0,0,1-18.74-1L242.31,814a9.51,9.51,0,0,1,3.2,6.34,9.36,9.36,0,0,1,0,1.91l42.07,6.21A11.2,11.2,0,0,1,292.59,821Z" style="fill:none"/><path d="M332.61,809,310,799.8l-7.37,20.31a11.17,11.17,0,0,1,6.58,7l22.78-6.5a17.93,17.93,0,0,1-.58-3.22A18.48,18.48,0,0,1,332.61,809Z" style="fill:none"/><path d="M336.15,804.15a18.1,18.1,0,0,0-2.8,4.54h0l-.22.55h0a18.08,18.08,0,1,0,3-5.09Z" style="fill:none"/><path d="M354.65,575.1A12.59,12.59,0,0,1,341,563.65a7.58,7.58,0,0,1,0-.82l-44.44-.08-3.21,14.89a7.7,7.7,0,0,1-1.23,15.14,7.63,7.63,0,0,1-4.94-1.27l-17.57,28a12.53,12.53,0,0,1,5.21,15l13.79,5.35-.21.55-13.78-5.36a12.63,12.63,0,0,1-6.6,6.71l4.85,11.9L288.13,649l.17.56-15.22,4.65,10,24.47a21.92,21.92,0,0,1,10.25-3.6,21.6,21.6,0,0,1,3.86,0l1.71-16.55.58.06-1.7,16.53a21.91,21.91,0,0,1,16.19,10.43l23.25-13.65a9.78,9.78,0,0,1-.35-8.67l-24.31-11.75.25-.52,24.32,11.75a9.77,9.77,0,0,1,7.5-5.18l-5.48-40.73a6.25,6.25,0,0,1-5-1.81L310.5,636.66l-.39-.43,23.62-21.63a6.31,6.31,0,1,1,10.85-6l25.19-6.86v-6l-10.86-21.8A12.87,12.87,0,0,1,354.65,575.1Z" style="fill:none"/><path d="M317.76,412.25,312,441.11a12.13,12.13,0,0,1,8.52,7.19l27.62-10.61a12.4,12.4,0,0,1-.67-3,12,12,0,0,1,2.17-8l-23.72-17.54a8.58,8.58,0,0,1-6,3.23A9.05,9.05,0,0,1,317.76,412.25Z" style="fill:none"/><path d="M316.83,395.51a9.11,9.11,0,0,1,1.59-.29,8.54,8.54,0,0,1,4.36.77l19-37.41-16.45-10-15.85,23.82Z" style="fill:none"/><path d="M353.72,314a7.7,7.7,0,1,0-5.62-1.77A7.66,7.66,0,0,0,353.72,314Z" style="fill:none"/><path d="M351.11,314.41a8.47,8.47,0,0,1-2.4-1L325.63,348.1l16.3,9.9Z" style="fill:none"/><path d="M303.69,337a10.46,10.46,0,1,0-7.09,3.69A10.41,10.41,0,0,0,303.69,337Zm-7.34.82a7.56,7.56,0,1,1,6.87-8.19A7.57,7.57,0,0,1,296.35,337.8Z" style="fill:none"/><path d="M288.18,214.49a7.87,7.87,0,1,0-1.37-15.68,7.88,7.88,0,0,0-7.16,8.52,7.87,7.87,0,0,0,8.53,7.16Z" style="fill:none"/><path d="M321.36,451.86a12.1,12.1,0,0,1-11,13.1q-.45,0-.9,0l-.14,13.07L324,479.19a4.85,4.85,0,0,1,6.22-4.12L336.5,457a3.48,3.48,0,1,1,1.74.31,3.63,3.63,0,0,1-1.19-.12l-6.33,18.09a4.85,4.85,0,0,1-1.49,9.3h0l1,45.7A3.51,3.51,0,0,1,333,532l19-9.12-.79-24.82-.54-.07,7-52.38.4.05a12.16,12.16,0,0,1-9.73-7.42l-27.62,10.61A12.43,12.43,0,0,1,321.36,451.86Z" style="fill:none"/><path d="M333.49,533.47a3.66,3.66,0,0,1-.07,1L352.55,540,352,523.52l-18.77,9A3.7,3.7,0,0,1,333.49,533.47Z" style="fill:none"/><path d="M330.29,537.28a3.51,3.51,0,0,1-3.81-3.2,3.47,3.47,0,0,1,0-.72l-22.63-4.64-2.69,12.52,5.3,4a5.59,5.59,0,1,1-1.29,4.08,5.48,5.48,0,0,1,1-3.6l-5.1-3.85-4.37,20.3,44.31.07A12.59,12.59,0,0,1,352.47,550h.4l-.3-9.36L333.26,535A3.51,3.51,0,0,1,330.29,537.28Z" style="fill:none"/><path d="M344.37,554.84a12,12,0,1,0,8.15-4.24A11.92,11.92,0,0,0,344.37,554.84Zm17.82,7a8.66,8.66,0,1,1-9.38-7.87A8.66,8.66,0,0,1,362.19,561.8Z" style="fill:none"/><path d="M360.58,445.71a12.11,12.11,0,0,1-2.41,0h.05l-7,52.31h.24l-.1-.28,18.36-6.12V449.17l-3.65-5.36A12.13,12.13,0,0,1,360.58,445.71Z" style="fill:none"/><path d="M289.91,249.14a3.47,3.47,0,0,1,2.31-1.68L288,215.09a8.45,8.45,0,0,1-5.3-1.51L274,225.14,276.58,243Z" style="fill:none"/><path d="M367,424.78a11.55,11.55,0,1,0,1.42,16.27,11.84,11.84,0,0,0,1.39-2.11V428.28A11.54,11.54,0,0,0,367,424.78Zm-6.71,17.15a8.34,8.34,0,1,1,7.59-9A8.35,8.35,0,0,1,360.25,441.93Z" style="fill:none"/><rect x="251.19" y="307.63" width="32.72" height="0.58" transform="translate(-131.17 394.06) rotate(-61.2)" style="fill:#79919e"/><path d="M344.58,608.61a6.31,6.31,0,1,0-10.85,6l-23.62,21.63.39.43L334.12,615a6.25,6.25,0,0,0,5,1.81l5.48,40.73a9.77,9.77,0,0,0-7.5,5.18L312.78,651l-.25.52,24.31,11.75a9.78,9.78,0,0,0,.35,8.67l-23.25,13.65a21.91,21.91,0,0,0-16.19-10.43l1.7-16.53-.58-.06-1.71,16.55a21.6,21.6,0,0,0-3.86,0,21.92,21.92,0,0,0-10.25,3.6l-10-24.47,15.22-4.65-.17-.56-15.27,4.66L268,641.77a12.63,12.63,0,0,0,6.6-6.71l13.78,5.36.21-.55-13.79-5.35a12.53,12.53,0,0,0-5.21-15l17.57-28a7.63,7.63,0,0,0,4.94,1.27,7.7,7.7,0,0,0,1.23-15.14l3.21-14.89,44.44.08a7.58,7.58,0,0,0,0,.82,12.59,12.59,0,0,0,13.63,11.45,12.87,12.87,0,0,0,4.26-1.16l10.86,21.8v-1.31l-10.33-20.74a12.58,12.58,0,0,0-6-23.71l-.29-9.17,16.61,4.69v-.61l-16.63-4.69-.54-17,4.38-2.11a3.88,3.88,0,1,0-.25-.53l-4.15,2-.77-24.42,18-6v-.61l-18.36,6.12.1.28h-.24l7-52.31h-.05a12.15,12.15,0,0,0,7.95-1.87l3.65,5.36v-1l-3.18-4.66a12,12,0,0,0,3.18-3.38v-1.15a11.84,11.84,0,0,1-1.39,2.11,11.55,11.55,0,1,1,1.39-12.77v-1.16a12.11,12.11,0,0,0-19.81-.94l-23.72-17.53a8.6,8.6,0,0,0-2.93-12.4l19-37.51,27.45-1.94v-.59l-27.27,1.93,9.18-43.62a7.65,7.65,0,0,0,2.09.09,8.28,8.28,0,1,0-8.41-11.28l-49.8-17.66-.19.55,49.79,17.66a8.36,8.36,0,0,0-.36,3.21,8.24,8.24,0,0,0,3.43,6l-23.1,34.71-19.87-12.06a11,11,0,0,0-10.53-16.46,10.35,10.35,0,0,0-1.68.29l-6.93-25.2-.57.15,6.93,25.19a11,11,0,0,0-7.78,11.51,9.06,9.06,0,0,0,.13.91l-15.57,3.11.12.57,15.56-3.1a11,11,0,0,0,11.71,8.55,11.93,11.93,0,0,0,2.11-.4l10.05,31.46-16.19,24.33a23.26,23.26,0,0,0-21-2.3l-14-36.29-.54.21,14,36.27A23.61,23.61,0,0,0,257,410.93l-18.13-4.08,8.23-47.72-.57-.1-8.23,47.69L190.81,396a11.14,11.14,0,0,0,.18-3.22,11.4,11.4,0,0,0-2.15-5.74l45.38-34.83-.35-.46-45.38,34.82a11.44,11.44,0,0,0-8.51-4.23l.09-22.59a4.35,4.35,0,0,0,.51,0,8.22,8.22,0,0,0,7.46-7.3l20.34,2.8a5.71,5.71,0,0,0,0,.83,5,5,0,1,0,5.78-5.38l2.11-21.42-.29,0,0-.29-17.77,2.26a3.23,3.23,0,1,0,.08.58l17.4-2.21-2.07,21.06a4.53,4.53,0,0,0-.64,0,5,5,0,0,0-4.46,4l-20.39-2.81a8.77,8.77,0,0,0,0-1,8.23,8.23,0,0,0-8.91-7.47l-.15,0L173.13,303a20.69,20.69,0,0,0,13.48-8.22l47.18,33.59.34-.47L187,294.33a20.72,20.72,0,0,0,3.67-11.75l77.48-.89v-.58l-77.5.89c0-.42,0-.85-.05-1.27a20.76,20.76,0,1,0-41.37,3.6,20.13,20.13,0,0,0,1,4.77l-30.08,10.52a11.81,11.81,0,0,0-22.82,5.12l-22.24,1.94a8.45,8.45,0,1,0-11.78,9.15L48.18,353l.54.22L63.83,316a8.43,8.43,0,0,0,11.34-8.66.5.5,0,0,0,0-.12l22.24-1.94a11.8,11.8,0,0,0,12.72,10.25c.34,0,.66-.08,1-.14l5.38,27.06a23,23,0,0,0-18.21,22.13l-41.84-.09v.58l41.86.09c0,.58,0,1.16.06,1.74a22.92,22.92,0,0,0,11,17.62L71,449.54a10.27,10.27,0,0,0-5.88-1.25,11,11,0,0,0-1.17.18L47.17,376.91l-.57.13,16.82,71.57a10.32,10.32,0,0,0-6.31,4.84L18,431.53a6.71,6.71,0,0,0,.71-3.67,6.81,6.81,0,0,0-3.38-5.31l23.15-46.49L38,375.8,14.86,422.28a6.87,6.87,0,0,0-3.2-.63L7.29,371.5a3.52,3.52,0,1,0-.58.05l4.37,50.15A6.82,6.82,0,1,0,17.75,432L56.84,454a10.27,10.27,0,0,0,2.67,12.57L34.38,498.93a7.39,7.39,0,1,0-3.66,13.38,5.66,5.66,0,0,0,.84-.12l5.68,23.07a5.37,5.37,0,0,0-3.79,5.32L5.81,543a2.94,2.94,0,1,0,.05.58l27.64-2.41a5.37,5.37,0,0,0,1.87,3.38L6.57,583.26l.46.35,28.82-38.74a5.33,5.33,0,0,0,3.43.9,5.39,5.39,0,0,0,4.89-5.83,4.69,4.69,0,0,0-.11-.54l61.43-15.35,42,33.35.37-.46-41.57-33,32-2.53,2.68,4.93a5.5,5.5,0,1,0,.51-.29L139,521.38l22.71-1.8a12.94,12.94,0,0,0,7.43,9.93l-9.65,24.33.55.21,9.64-24.31a13,13,0,0,0,17.8-13.15,13.07,13.07,0,0,0-1.44-4.92l22.53-12.49-.28-.51-22.55,12.5a13,13,0,0,0-11.37-6.43L174,495.1h.11a7.7,7.7,0,0,0,7-7l24.82,1.2,0-.58-24.82-1.21c0-.24,0-.49,0-.74a7.69,7.69,0,0,0-3.89-6l3.82-7.42,26.2,10.16.21-.54-26.14-10.14,3.61-7a5.69,5.69,0,0,0,8-5.76,5.75,5.75,0,1,0-8.49,5.53l-3.62,7-19.69-7.64-.21.54,19.63,7.62-3.79,7.37a7.59,7.59,0,0,0-3.92-.7,7.7,7.7,0,0,0-7,8.33c0,.1,0,.2,0,.3l-6.58,1.09-7.36-14.19-.52.27,7.28,14L132.11,494a7.67,7.67,0,0,0-3.93-5.25L134.31,476l-.53-.25-6.13,12.73a7.57,7.57,0,0,0-3.74-.61,7.7,7.7,0,0,0-5.68,3.31l-43.3-27.35a10.26,10.26,0,0,0,1.44-5l46.84-.3v-.58l-46.84.3c0-.18,0-.36,0-.55a10.3,10.3,0,0,0-4.8-7.83l38.29-65a22.89,22.89,0,0,0,13.4,3,22.61,22.61,0,0,0,2.89-.46l11.74,51.29.57-.13-11.74-51.3a22.92,22.92,0,0,0,15-11.86l27.48,13.72a11.42,11.42,0,0,0,4.47,14.49l-21.29,37,.5.3,21.29-37a11.47,11.47,0,0,0,6.45,1.34,11.35,11.35,0,0,0,3.7-1l32.14,69L217,473l-32.14-69a11.5,11.5,0,0,0,5.87-7.39l47.49,10.69L227.1,471.5l.57.1,11.07-64.17,18.09,4.07a23.48,23.48,0,0,0,8.68,23.5l-29.94,39.89.47.35L266,435.35a23.32,23.32,0,0,0,9.23,4.08l-4.77,25.29a10.59,10.59,0,0,0-12.29,11.44,10.31,10.31,0,0,0,.41,2.16l-16.37,5.45.18.56,16.39-5.46a10.63,10.63,0,0,0,18.33,3l20,15a14.44,14.44,0,0,0-2.66,5.91L243,493.07l-.11.58,51.43,9.7a13.8,13.8,0,0,0-.13,3.47,14.35,14.35,0,0,0,5,9.7l-7.28,9.14-10.65-2.18a5.67,5.67,0,0,0,0-1.17,5,5,0,1,0-4.57,5.44,5,5,0,0,0,3.36-1.73l7.19,5.43-9.9,12.43a23.41,23.41,0,0,0-25.12-2.38l-18.64-35.29-.51.27,18.63,35.29a23.47,23.47,0,0,0,2.85,42.56l-14,38.11-8.82-2.94a9.38,9.38,0,0,0-9.82-12.06,9.4,9.4,0,0,0,.31,18.75l.89,30.64h-.41a12.09,12.09,0,0,0-9.07,5.43l-54.72-34a9.76,9.76,0,1,0-18.16-4c0,.23.06.45.1.68L74.26,637.51a7.87,7.87,0,1,0,.18,1.07c0-.17,0-.33-.07-.5l66.57-12.61a9.69,9.69,0,0,0,3.63,5.67l-12.85,18.08.48.34,12.85-18.07a9.75,9.75,0,0,0,13.53-2.72l54.72,34a12,12,0,0,0-1.6,4.74l-74.3-6.79-.06.58,74.32,6.79a11.68,11.68,0,0,0,0,1.87,12.06,12.06,0,0,0,2.94,6.9l-9.7,8.88a7.61,7.61,0,0,0-5.41-1.62,7.7,7.7,0,0,0-5.76,3.43l-11.44-7a3.56,3.56,0,0,0,.38-1.56,3.53,3.53,0,1,0-.68,2.06l11.44,7A7.69,7.69,0,0,0,197.33,699l-8.18,23.3a3.59,3.59,0,0,0-.88-.12,3.54,3.54,0,1,0,1.43.31l8.18-23.29a7.6,7.6,0,0,0,3,.32,7.69,7.69,0,0,0,4.53-13.35l9.64-8.83a12.08,12.08,0,0,0,9.78,3.68,11.92,11.92,0,0,0,4.51-1.31L242.65,704a15.06,15.06,0,0,0-5.76,20.32l-52.7,30,.29.5,52.71-30a15.07,15.07,0,0,0,6.07,5.7l-38,78.33.52.25,38-78.32a14.7,14.7,0,0,0,10,1l9.39,34.78a16.34,16.34,0,0,0-6,28.19L241.86,813.6a9.5,9.5,0,0,0-6.75-2,9.6,9.6,0,0,0-8.75,10.11l-8.81.77,0,.58,8.81-.77a9.59,9.59,0,0,0,17.4,4.38l22.73,15.23h1l-23.46-15.72a9.7,9.7,0,0,0,1.27-3.36l42.06,6.2a10.61,10.61,0,0,0-.06,2.46,11.16,11.16,0,0,0,3.94,7.59l-2.16,2.83h.73l1.9-2.48a11.07,11.07,0,0,0,7.69,2.22,10.91,10.91,0,0,0,2.08-.38l.21.64h.61l-.27-.82a11.16,11.16,0,0,0,7.53-11.54,10.88,10.88,0,0,0-.32-1.81l22.78-6.5a18.73,18.73,0,0,0,11.49,12.15l-3,8.52h.62l2.89-8.31A18.72,18.72,0,1,0,352,797.2l4.06-43.89a8.88,8.88,0,0,0,1.26,0,9.66,9.66,0,1,0-1.85,0l-4.05,43.89a19.41,19.41,0,0,0-3,0,18.69,18.69,0,0,0-7,2L322.84,761l13.89-56.11L355,707.82a6.32,6.32,0,0,0,4.42,6.9,6.23,6.23,0,0,0,5.18-.69l5.13,6.64v-.95l-4.65-6a6.29,6.29,0,0,0,1.37-8.6l3.28-1.89v-.67l-3.63,2.09a6.32,6.32,0,0,0-10.89,2.21c0,.14-.07.27-.1.41l-18.28-2.93,6.82-27.53a9.75,9.75,0,1,0,1.49-19.27l-5.48-40.76a6.14,6.14,0,0,0,2.08-.77l12.46,19.09a5.85,5.85,0,1,0,8.29,8l7.24,3.64v-.66l-6.92-3.48a5.25,5.25,0,0,0,.44-1.06,5.81,5.81,0,0,0-.54-4.63l7-4.52v-.7l-7.34,4.74a5.91,5.91,0,0,0-2.35-1.92l9.69-24.68v-1.6l-10.23,26.06-.16-.07a5.86,5.86,0,0,0-4.65.56l-12.47-19.09a6.28,6.28,0,0,0,2.48-6.49l25-6.82v-.61ZM72.77,313.17a7.88,7.88,0,0,1-11.09,1,7.88,7.88,0,1,1,11.09-1Zm-56,119.29a6.24,6.24,0,1,1,1.43-4.55A6.24,6.24,0,0,1,16.74,432.46Zm13.88,78.69a6.24,6.24,0,1,1,4.23-2.2A6.21,6.21,0,0,1,30.62,511.15Zm13.32,27.67a5.37,5.37,0,0,0-.87-1.68l20.76-17.81A9.4,9.4,0,0,0,79.65,516l24.83,7.69Zm35.88-23.37a9.54,9.54,0,0,0,.3-3.3,9.41,9.41,0,1,0-16.68,6.75L42.68,536.71a5.34,5.34,0,0,0-4.34-1.66c-.18,0-.35.07-.53.1l-5.68-23.1a7.39,7.39,0,0,0,2.71-12.76L60,466.89a10.24,10.24,0,0,0,11.23.61l33.7,55.72ZM165.91,489a7.69,7.69,0,0,0,7.52,6.14l.35,9.65h-.38a12.89,12.89,0,0,0-5.34,1.69L159.53,490Zm-33.67,5.87a1.45,1.45,0,0,0,0-.29l26.72-4.43,8.64,16.64a13,13,0,0,0-6,12.07.78.78,0,0,0,0,.16l-22.93,1.81-10.18-18.68A7.67,7.67,0,0,0,132.24,494.85Zm-7,8.34a7.66,7.66,0,0,0,2.75-.78l10.05,18.45-31.91,2.53,14.39-21.34A7.63,7.63,0,0,0,125.25,503.19Zm-7.32-11.52A7.65,7.65,0,0,0,120,501.73l-14.46,21.45-33.87-56a10.37,10.37,0,0,0,2.91-2.88ZM72.32,451.12a9.72,9.72,0,1,1-7.1-2.25A9.71,9.71,0,0,1,72.32,451.12Zm107.17-91.33-.09,22.59a7.31,7.31,0,0,0-.81,0,11.19,11.19,0,0,0-3.48.87l-12.66-27.82,9.36-2.22A8.24,8.24,0,0,0,179.49,359.79Zm-25.76-23.5a13,13,0,0,0,4.45-3.34l15.49,13.23a8.18,8.18,0,0,0-2,6.11c0,.13,0,.25.05.37l-9.51,2.26Zm7.9,18.77-18.14,4.3a23,23,0,0,0-9.11-13.25l7.12-10.48a13.19,13.19,0,0,0,11.7.91Zm16.79-11.57a8.14,8.14,0,0,0-4.35,2.26L158.55,332.5a13.12,13.12,0,0,0-4.07-19.73l5.65-11.92a20.68,20.68,0,0,0,11.56,2.37c.29,0,.57-.09.86-.12Zm-23.54-73.56a19.59,19.59,0,1,1-4.52,14.3A19.52,19.52,0,0,1,154.88,269.93Zm-4.48,19.72a20.77,20.77,0,0,0,9.22,10.92L154,312.51a13.11,13.11,0,0,0-17.06,5.19l-17-9.06a11.83,11.83,0,0,0,1-5.87,11.57,11.57,0,0,0-.54-2.59ZM110.06,315a11.21,11.21,0,1,1,7.63-4A11.16,11.16,0,0,1,110.06,315Zm1.61.33a11.76,11.76,0,0,0,7.93-6.15l17,9A13.14,13.14,0,0,0,141,335.32l-7.11,10.47a22.87,22.87,0,0,0-14.65-3.73c-.74.07-1.47.17-2.19.31ZM137.93,379a21.8,21.8,0,1,1,5-15.91A21.69,21.69,0,0,1,137.93,379Zm4-4.11a22.82,22.82,0,0,0,2.18-11.9,23.18,23.18,0,0,0-.49-3l18.24-4.33,12.71,27.93a11.44,11.44,0,0,0-5.16,5Zm46,25.95a10.87,10.87,0,1,1,2.5-7.93A10.84,10.84,0,0,1,187.91,400.8ZM72.16,644a7.4,7.4,0,0,1-5,2.6,7.39,7.39,0,0,1-8-6.7,7.37,7.37,0,0,1,6.71-8,7.39,7.39,0,0,1,8,6.7A7.42,7.42,0,0,1,72.16,644Zm85.32-14.75a9.16,9.16,0,1,1,2.12-6.69A9.13,9.13,0,0,1,157.48,629.27Zm49.2,62a6.55,6.55,0,1,1-2.31-4.44A6.52,6.52,0,0,1,206.68,691.23Zm86.72-15a20.75,20.75,0,1,1-14.08,7.33A20.67,20.67,0,0,1,293.4,676.26Zm-28.19,39.57a15,15,0,0,0-1.15-4.6l11.29-5.07a21.9,21.9,0,0,0,21.76,12.6,21.64,21.64,0,0,0,6.42-1.55l18.2,42.69-58.49-35.22A15,15,0,0,0,265.21,715.83Zm7.09-62-37.06,11.31a12.12,12.12,0,0,0-2.69-4.54l21.68-21.35A12.55,12.55,0,0,0,267.46,642ZM270.71,621a12,12,0,1,1-8.77-2.77A12,12,0,0,1,270.71,621Zm-1.61-1.81a12.4,12.4,0,0,0-6-1.58l.07-31.78c.6,0,1.2,0,1.81-.06a23.41,23.41,0,0,0,16.2-8.63l4.1,3.31a7.69,7.69,0,0,0,1.41,10.67Zm26.54-39.13a6.53,6.53,0,0,1-8.4,10,6.53,6.53,0,1,1,8.4-10Zm-2.87-2.58a7.79,7.79,0,0,0-2-.09,7.69,7.69,0,0,0-5.13,2.61l-4.11-3.33a23.34,23.34,0,0,0,4.9-14l9.52,0Zm68.51-24.16a12,12,0,0,1,1.47,16.91,12,12,0,0,1-16.91,1.48,12,12,0,0,1-1.47-16.91,12,12,0,0,1,16.91-1.48ZM352.87,550h-.4A12.59,12.59,0,0,0,341,562.24l-44.31-.07,4.37-20.3,5.1,3.85a5.48,5.48,0,0,0-1,3.6,5.59,5.59,0,1,0,1.29-4.08l-5.3-4,2.69-12.52,22.63,4.64a3.47,3.47,0,0,0,0,.72,3.51,3.51,0,0,0,6.78.95l19.31,5.61Zm-29.94-45.69a14.4,14.4,0,0,0-5.47-10.1L326,483.72a4.91,4.91,0,0,0,2.58.86l1,45.71a3.49,3.49,0,0,0-3,2.5L304,528.15l1.81-8.42a14.4,14.4,0,0,0,17.13-15.42Zm-43.55-30a10.7,10.7,0,0,0-1.15-3.95L298.87,459a12.08,12.08,0,0,0,10,6l-.15,13-29.34-2.26A10.18,10.18,0,0,0,279.38,474.3Zm28.88-33.44a12,12,0,0,0-6.31,2.46l-7.12-8.82a23.47,23.47,0,0,0,8.45-20.16,23,23,0,0,0-1-5.09l8.8-2.69a8.59,8.59,0,0,0,6.14,5.58L311.4,441A12.16,12.16,0,0,0,308.26,440.86Zm1.05,37.79L324,479.78c0,.12,0,.25,0,.38a4.82,4.82,0,0,0,1.62,3.2L317,493.86a14.36,14.36,0,0,0-7.82-2.71ZM352.55,540l-19.13-5.56a3.19,3.19,0,0,0-.16-1.94l18.77-9ZM358,445.66l-.4-.05-7,52.38.54.07.79,24.82L333,532a3.51,3.51,0,0,0-2.81-1.72l-1-45.7h0a4.85,4.85,0,0,0,1.49-9.3l6.33-18.09a3.63,3.63,0,0,0,1.19.12,3.56,3.56,0,1,0-1.74-.31l-6.32,18.07a4.85,4.85,0,0,0-6.22,4.12l-14.64-1.13.14-13.07q.45,0,.9,0a12.1,12.1,0,0,0,11-13.1,12.43,12.43,0,0,0-.67-3l27.62-10.61A12.16,12.16,0,0,0,358,445.66Zm-32.15-36.55,23.72,17.54a12,12,0,0,0-2.17,8,12.4,12.4,0,0,0,.67,3L320.49,448.3a12.13,12.13,0,0,0-8.52-7.19l5.79-28.86a9.05,9.05,0,0,0,2.15.09A8.58,8.58,0,0,0,325.89,409.11Zm16.24-50.64Zm6-46.21a7.68,7.68,0,0,1-.94-10.84,7.69,7.69,0,0,1,13.55,4.28,7.69,7.69,0,0,1-12.61,6.56Zm.61,1.15a8.47,8.47,0,0,0,2.4,1L341.93,358l-16.3-9.9ZM325.3,348.59l16.45,10-19,37.41a8.54,8.54,0,0,0-4.36-.77,9.11,9.11,0,0,0-1.59.29l-7.38-23.1Zm-28.7-7.92a10.45,10.45,0,1,1,7.09-3.69A10.42,10.42,0,0,1,296.6,340.67Zm2.72,0a11,11,0,0,0,5.63-4.44l19.85,12.06L309.23,371.7ZM309,373l7.24,22.67a8.58,8.58,0,0,0-5.67,8.82,7.9,7.9,0,0,0,.27,1.48l-8.82,2.7A23.6,23.6,0,0,0,293.12,397ZM265.47,433.5a22.36,22.36,0,1,1,16.32,5.15A22.26,22.26,0,0,1,265.47,433.5ZM271,464.81l4.76-25.28a23.35,23.35,0,0,0,18.6-4.67l7.11,8.83a12.1,12.1,0,0,0-2.92,14.79l-20.63,11.36A10.71,10.71,0,0,0,271,464.81Zm6.43,16.58a10.65,10.65,0,0,0,1.91-5.05l29.37,2.26-.15,12.53c-.42,0-.85,0-1.29,0a14.4,14.4,0,0,0-9.89,5.22Zm19,25.22a12.1,12.1,0,1,1,4.27,8.22A12,12,0,0,1,296.49,506.61Zm3.12,10.28a14.35,14.35,0,0,0,5.62,2.72L303.41,528l-10.9-2.24Zm-7.51,9.42,11.19,2.29-2.63,12.25-12.58-9.5Zm-11.69-.76a5.09,5.09,0,0,0,.68-1.5l10.37,2.13L287.62,531Zm7.31,6.25,12.8,9.68-4.45,20.68h-9.66c0-.59,0-1.19-.07-1.79a23.39,23.39,0,0,0-8.53-16.13Zm-39.14,47.7a22.33,22.33,0,1,1,16.29,5.14A22.23,22.23,0,0,1,248.58,579.5Zm6.53,5a23.31,23.31,0,0,0,7.48,1.35l-.08,31.78c-.2,0-.41,0-.62,0A12.57,12.57,0,0,0,251.15,626l-10.07-3.36Zm-37,37.68a7.07,7.07,0,0,1,3.93-12.46,7.08,7.08,0,0,1,7.66,6.43,7.07,7.07,0,0,1-11.59,6Zm5.51,34.59-.88-30.6c.24,0,.49,0,.73,0a9.42,9.42,0,0,0,8-6.12l8.8,2.93-12.69,34.46A11.93,11.93,0,0,0,223.67,656.81Zm4.51.85,12.7-34.49L251,626.53a12.57,12.57,0,0,0,2.86,12.32l-21.68,21.36A11.92,11.92,0,0,0,228.18,657.66Zm1.62,21.71a12.1,12.1,0,0,0,6-11.52,11.6,11.6,0,0,0-.39-2.13l37.12-11.33,10.05,24.66a21.83,21.83,0,0,0-7.47,26.58l-11.29,5.07a15.11,15.11,0,0,0-20.66-7Zm21.62,52.25a14.55,14.55,0,1,1,9.86-5.14A14.5,14.5,0,0,1,251.42,731.62Zm3,0a15.15,15.15,0,0,0,8.56-6.47l59,35.52L282.84,776a16.16,16.16,0,0,0-19.07-9.6Zm-1.77,51.94a15.18,15.18,0,1,1,5.36,10.3A15.15,15.15,0,0,1,252.61,783.59Zm56.83,16-7.38,20.32a11.15,11.15,0,0,0-9,.84l-16.22-24.93a16.44,16.44,0,0,0,5.87-7.1Zm-63.95,22.65a9.36,9.36,0,0,0,0-1.91,9.51,9.51,0,0,0-3.2-6.34l15.34-18.86a16.29,16.29,0,0,0,18.74,1L292.59,821a11.2,11.2,0,0,0-5,7.4Zm59.81,13.95a8.85,8.85,0,1,1,2-6.45A8.78,8.78,0,0,1,305.3,836.18Zm3.89-9a11.17,11.17,0,0,0-6.58-7L310,799.8,332.61,809a18.48,18.48,0,0,0-1.22,8.41,17.93,17.93,0,0,0,.58,3.22Zm39.27-29.41a18.18,18.18,0,1,1-15.31,11.5h0l.22-.55h0a18.21,18.21,0,0,1,15.11-11Zm-7.56,1.74a18.81,18.81,0,0,0-8.09,9l-22.63-9.22,2.68-7.38a5.71,5.71,0,0,0,2.19.24,5.87,5.87,0,1,0-2.74-.46L309.64,799,283,788.16a16.18,16.18,0,0,0,.08-11.58l39.24-15.4Zm-18.44-39.37L304.06,717a21.9,21.9,0,0,0,12.63-15.77l19.47,3.59Zm13.84-55.89-19.51-3.6a21.62,21.62,0,0,0-2.55-14.53l23.25-13.65a9.74,9.74,0,0,0,5.63,4.2Zm15.35-44a9.16,9.16,0,1,1-6.7-2.12A9.13,9.13,0,0,1,351.65,660.23Z" style="fill:#79919e"/><polygon points="211.43 836.99 215.09 841.89 215.81 841.89 211.9 836.64 211.43 836.99" style="fill:#79919e"/><path d="M117.17,303.09a8.12,8.12,0,1,0-7.38,8.79A8.12,8.12,0,0,0,117.17,303.09Z" style="fill:#79919e"/><path d="M263.82,232.54a5,5,0,1,0,5.44,4.57A5,5,0,0,0,263.82,232.54Z" style="fill:#79919e"/><path d="M155.13,4.13A8.84,8.84,0,0,0,161.86,0h-15A8.85,8.85,0,0,0,155.13,4.13Z" style="fill:#79919e"/><path d="M205.57,54.64a9.41,9.41,0,1,0,10.19,8.55A9.41,9.41,0,0,0,205.57,54.64Z" style="fill:#79919e"/><path d="M358.81,425.31a8.34,8.34,0,1,0,9,7.59A8.35,8.35,0,0,0,358.81,425.31Z" style="fill:#79919e"/><path d="M268.69,793.33a11.1,11.1,0,1,0-12-10.1A11.11,11.11,0,0,0,268.69,793.33Z" style="fill:#79919e"/><path d="M262.23,621.61a8.66,8.66,0,1,0,9.38,7.87A8.65,8.65,0,0,0,262.23,621.61Z" style="fill:#79919e"/><path d="M344.93,563.31a8.66,8.66,0,1,0,7.88-9.38A8.66,8.66,0,0,0,344.93,563.31Z" style="fill:#79919e"/><path d="M171,104.38a15.66,15.66,0,1,0,17,14.24A15.66,15.66,0,0,0,171,104.38Z" style="fill:#79919e"/><circle cx="295.21" cy="696.93" r="15.02" transform="translate(-425.3 928.72) rotate(-84.88)" style="fill:#79919e"/><path d="M11.56,423.87a4.6,4.6,0,1,0,5,4.18A4.6,4.6,0,0,0,11.56,423.87Z" style="fill:#79919e"/><path d="M136.65,703.14a4.1,4.1,0,0,0-3.7,3.51l-52.44-3.58,2.4-15.52a6.52,6.52,0,0,0,1.17,0,6,6,0,0,0,5-8.65L113.53,666l-.27-.51L88.8,678.4a6.09,6.09,0,1,0-6.46,9L79.9,703.21l-23.6,25a4.83,4.83,0,1,0,.46.36l23.09-24.49L78.51,740.4h-.39a4.34,4.34,0,1,0,1,0l1.36-36.78,52.47,3.59c0,.11,0,.22,0,.34a4.1,4.1,0,1,0,3.73-4.44Z" style="fill:#79919e"/><path d="M191.18,6.9,169.6,0h-1.92l23.24,7.43L177.54,34.69a8.37,8.37,0,1,0,.53.25L191.48,7.61l22.42,7.17-5.67,35.71a13.88,13.88,0,0,0-3-.08,13.66,13.66,0,0,0-12.4,12.34L168.46,61a18.77,18.77,0,0,0,0-2.37,17,17,0,0,0-16.06-15.52l1.3-35a13.55,13.55,0,0,0,1.8,0A12.87,12.87,0,0,0,166.33,0h-.62a12.24,12.24,0,0,1-1.93,3.2,12.31,12.31,0,0,1-8.36,4.35,12.25,12.25,0,0,1-9-2.84A12.24,12.24,0,0,1,143,0h-.62A12.9,12.9,0,0,0,153.1,8.11l-1.3,35a16.06,16.06,0,0,0-1.83.06,17,17,0,0,0-15.5,18.46,16.85,16.85,0,0,0,1.58,5.78l-13.73,6.77a9.12,9.12,0,0,0-14-2.63L97.51,60.2a3.42,3.42,0,0,0,.7-1.2,3.54,3.54,0,1,0-1.12,1.59l10.78,11.32a9.23,9.23,0,0,0-2.47,4.24,9.14,9.14,0,0,0,2.52,8.91L97.36,96.78a3.43,3.43,0,0,0-1.24-.61,3.53,3.53,0,1,0,1.67,1l10.56-11.72a9.31,9.31,0,0,0,3.6,1.87,9.12,9.12,0,0,0,5.16-.17L124,104.46l.54-.21L117.65,87a9.15,9.15,0,0,0,4.94-12.28l13.71-6.76a17.1,17.1,0,0,0,8.28,7.8l-11.45,27.74.54.22,11.45-27.74a17,17,0,0,0,7.81,1.17,17.5,17.5,0,0,0,3.87-.81l7.79,22.27a22.82,22.82,0,0,0-14.83,18.54l-8.36-1-.07.58,8.37,1a22.78,22.78,0,0,0,24.67,25,23.5,23.5,0,0,0,4.48-.85l15.09,48.25.28-.09-.17.24L258,233.62a7.42,7.42,0,1,0,12.89,7.31l5.2,2.41,3.55,24,.58-.08-3.5-23.67,13,6a3.52,3.52,0,0,0,1.58,4.28c.09.05.18.08.27.12l-4.89,13.8.55.19,4.89-13.79a3.49,3.49,0,0,0,4.1-4.79l27.64-16.08a3.47,3.47,0,1,0-.3-.5L295.9,249a3.54,3.54,0,0,0-1.22-1.15,3.36,3.36,0,0,0-1.88-.43L288.53,215a8.44,8.44,0,0,0,7.39-9.12,8.6,8.6,0,0,0-.78-2.87l51.26-26.42-.27-.52-51.26,26.42a8.45,8.45,0,1,0-12.69,10.7l-8.35,11.11-6.67-45.13a12,12,0,0,0,10.07-10.66l67.91,3.05,0-.58L277.27,168a13.5,13.5,0,0,0,0-1.68,12.05,12.05,0,0,0-12.74-11L263.77,142a3.63,3.63,0,0,0,1.66-6.55l-2,2.83a3.49,3.49,0,0,0-.49-.33l2-2.82a3.73,3.73,0,0,0-2-.39,3.65,3.65,0,0,0,.23,7.29l.74,13.29a12,12,0,0,0-10.68,13,12.52,12.52,0,0,0,.43,2.32l-59.27,19-15-48a22.76,22.76,0,0,0,12.22-9.45l9.62,5.79.3-.5-9.61-5.79A22.65,22.65,0,0,0,195.16,119l10.58-.92a9.12,9.12,0,0,0,6,7.51l-3.7,9.58.54.21,3.72-9.6a8.91,8.91,0,0,0,3.35.33,9.15,9.15,0,0,0,8.24-7.67l17.81,2.28.08-.58-17.82-2.27a8.45,8.45,0,0,0,0-1.67,9.18,9.18,0,0,0-.4-2l28.38-10.48a3.52,3.52,0,1,0,5.53-4.11,3.51,3.51,0,0,0-5.73,3.55l-28.37,10.49a9.22,9.22,0,0,0-4.77-5l6-14.58a3.34,3.34,0,0,0,1.38.15,3.53,3.53,0,1,0-1.91-.38l-6,14.59a9.1,9.1,0,0,0-4-.55l-.31,0L209,77.41a13.64,13.64,0,0,0-.18-26.82l5.58-35.13L241.9,64.53l.51-.29L214.84,15.07l30.89,9.24a3.46,3.46,0,1,0,.16-.56L214.32,14.3,191.74,7.08,195.21,0h-.65Zm79.37,233.32-.09.18a6.46,6.46,0,0,1-1,1.54A6.84,6.84,0,1,1,259,233.15a6.75,6.75,0,0,1,4.64-2.42,6.84,6.84,0,0,1,6.89,9.49Zm-27.38-41,15.39-21.89a12,12,0,0,0,6.23,2l-.72,50.78a3.54,3.54,0,0,0-.46,0,7.24,7.24,0,0,0-3.23,1.07l-17.3-26.53a3.48,3.48,0,0,0,.91-1.06A3.53,3.53,0,0,0,243.17,199.22Zm36.48,8.11a7.87,7.87,0,1,1,2.78,5.35A7.82,7.82,0,0,1,279.65,207.33Zm3,6.25a8.45,8.45,0,0,0,5.3,1.51l4.27,32.37a3.47,3.47,0,0,0-2.31,1.68L276.58,243,274,225.14Zm-6.71,29.07-4.84-2.25a7.33,7.33,0,0,0,.55-3.5,7.45,7.45,0,0,0-2.7-5.11l4.51-6ZM273.34,225l-4.86,6.45a7.29,7.29,0,0,0-3.83-1.3l.72-50.79c.31,0,.61,0,.92,0l.29,0Zm-16.42-64.67a10.88,10.88,0,1,1-2.51,7.94A10.84,10.84,0,0,1,256.92,160.32Zm-3.05,10.91a12,12,0,0,0,4.22,5.76l-15.4,21.9-.06,0a3.52,3.52,0,1,0,0,6.17l17.31,26.53a7.58,7.58,0,0,0-1.6,1.6l-63.41-43ZM192.76,63.33a14.63,14.63,0,0,0,0,1.87,13.62,13.62,0,0,0,6.28,10.31L188.47,92.94,164.33,71.28a17,17,0,0,0,4.09-9.69ZM152.88,76.52a16.47,16.47,0,1,1,11.18-5.82A16.42,16.42,0,0,1,152.88,76.52Zm4.47-.43a16.76,16.76,0,0,0,6.58-4.39l24.23,21.75L184,100.34a22.65,22.65,0,0,0-18.84-2ZM189,133.9a21.64,21.64,0,1,1,5-15.8A21.55,21.55,0,0,1,189,133.9Zm16.72-16.42-10.55.92c0-.14,0-.27,0-.4a22.76,22.76,0,0,0-10.66-17.35l4.14-6.8,19.2,17.23A9.11,9.11,0,0,0,205.69,117.48Zm7.44-9.5a9.13,9.13,0,0,0-4.92,2.67l-19.3-17.31,10.64-17.52a13.61,13.61,0,0,0,8,1.79,8.09,8.09,0,0,0,.84-.12Zm1.66-54a13.06,13.06,0,1,1-9.54-3A13,13,0,0,1,214.79,54Z" style="fill:#79919e"/><path d="M224.5,132.6a3.56,3.56,0,0,0-1.19,3.16l-12.13,2.75.13.57,12.13-2.75a3.52,3.52,0,1,0,6-3.35A3.53,3.53,0,0,0,224.5,132.6Z" style="fill:#79919e"/><circle cx="295.69" cy="330.27" r="7.56" transform="translate(-136.82 233.09) rotate(-35.5)" style="fill:#79919e"/><path d="M255,8.81a5.86,5.86,0,0,0-4.62,6.54l.1.58a5.84,5.84,0,0,0,11.28.34l18.45,4.78,25,17.55a12.58,12.58,0,0,0,16.57,18l4.62,7.91-16,3.5a3.57,3.57,0,0,0-.42-.91,3.56,3.56,0,1,0,.54,1.48L326.74,65l8.56,14.65-2.84,3.93a3.51,3.51,0,1,0,1.12,1.07,3.45,3.45,0,0,0-.65-.72l2.7-3.73L348,101.32,326.1,124.71a12,12,0,0,0-18.52,3.08L284.75,117a5.8,5.8,0,0,0,.11-1.11L302,115a2,2,0,0,0,0,.24,3.56,3.56,0,1,0-.06-.82l-17.13.88a5.85,5.85,0,1,0-11.56,1.76,5.82,5.82,0,0,0,2.12,3.41l-10.43,14.7a3.27,3.27,0,0,1,.5.32l10.39-14.67a5.83,5.83,0,0,0,8.77-3.26l22.72,10.76a12,12,0,0,0,11.81,17.32l1.06,8.23a3.68,3.68,0,0,1,.58-.06l-1.06-8.25a11.87,11.87,0,0,0,8.76-5.87l13.92,7.17a3.21,3.21,0,0,1,.22-.54l-13.85-7.14a12,12,0,0,0-.64-12.15,11.88,11.88,0,0,0-1.58-1.92l22-23.54-.22-.2.21-.11,10.32,27a5.2,5.2,0,0,1,.53-.26L349,101l-.51.2L336,79.71l12.35-17.07a3.51,3.51,0,0,0,3.29.17l18.13,31.76V93.39L352.15,62.53a3.5,3.5,0,0,0,1.44-3.63L369.77,54v-.61l-16.34,5a3.87,3.87,0,0,0-.33-.64,3.51,3.51,0,0,0-6.41,2.39L327,64.37l-4.73-8.08.35-.2a12.59,12.59,0,0,0,4.26-16.23L369.77,16.5v-.66L326.64,39.35c-.14-.24-.27-.48-.42-.71a12.59,12.59,0,0,0-17.44-3.56,12.22,12.22,0,0,0-3.19,3.05L280.8,20.75,302.55,0h-.85L280.56,20.17,278.07,0h-.59L280,20.39l-18.06-4.68a5.8,5.8,0,0,0-2.73-6.16L264.44,0h-.67l-5.08,9.28A5.84,5.84,0,0,0,255,8.81Zm91.81,51.85a3.11,3.11,0,0,0,.41.91,3.45,3.45,0,0,0,.65.72l-12.2,16.87L327.35,64.9ZM309.1,35.57A12,12,0,1,1,304,43.18,12,12,0,0,1,309.1,35.57Z" style="fill:#79919e"/><path d="M262.93,138a3.49,3.49,0,0,1,.49.33l2-2.83a3.27,3.27,0,0,0-.5-.32Z" style="fill:#79919e"/><path d="M320.49,52.81a8.66,8.66,0,1,0-12-2.45A8.66,8.66,0,0,0,320.49,52.81Z" style="fill:#79919e"/><path d="M360.24,131.92l-1.4-3.65a3.63,3.63,0,1,0,1.83-.51,3.76,3.76,0,0,0-1.3.25l1.3,3.41Z" style="fill:#79919e"/><path d="M360.24,131.92l.43-.5-1.3-3.41a5.2,5.2,0,0,0-.53.26Z" style="fill:#79919e"/><path d="M345.48,148.45l-3.1-1.6a3.53,3.53,0,0,0-.2,1.13,3.7,3.7,0,1,0,.42-1.67l3.24,1.67Z" style="fill:#79919e"/><path d="M345.48,148.45l.36-.47-3.24-1.67a3.21,3.21,0,0,0-.22.54Z" style="fill:#79919e"/><path d="M320.77,158.48l-.59-4.62a3.67,3.67,0,1,0,.72-.07h-.14l.62,4.83A5.44,5.44,0,0,0,320.77,158.48Z" style="fill:#79919e"/><path d="M320.77,158.48a5.44,5.44,0,0,1,.61.15l-.62-4.83a3.68,3.68,0,0,0-.58.06Z" style="fill:#79919e"/><path d="M349.47,178.53a8.87,8.87,0,1,0-3.12-6A8.82,8.82,0,0,0,349.47,178.53Z" style="fill:#4eafc6"/><path d="M213.47,503.24a17.4,17.4,0,1,0-6.14-11.81A17.32,17.32,0,0,0,213.47,503.24Z" style="fill:#4eafc6"/><path d="M273.9,291.13a12.93,12.93,0,1,0-4.56-8.77A12.88,12.88,0,0,0,273.9,291.13Z" style="fill:#4eafc6"/><path d="M247.52,125.94a4.85,4.85,0,1,0-3.55-1.12A4.83,4.83,0,0,0,247.52,125.94Z" style="fill:#4eafc6"/><path d="M238.12,354a18.68,18.68,0,1,0-6.6-12.68A18.59,18.59,0,0,0,238.12,354Z" style="fill:#4eafc6"/><path d="M292.74,654.67a12.1,12.1,0,1,0-4.27-8.22A12.09,12.09,0,0,0,292.74,654.67Z" style="fill:#4eafc6"/><path d="M130.13,473a19.4,19.4,0,1,0-6.86-13.18A19.34,19.34,0,0,0,130.13,473Z" style="fill:#4eafc6"/><path d="M116.86,669.16a12.15,12.15,0,1,0-4.3-8.26A12.09,12.09,0,0,0,116.86,669.16Z" style="fill:#4eafc6"/><path d="M149.55,571.22a9.89,9.89,0,1,0-3.48-6.7A9.86,9.86,0,0,0,149.55,571.22Z" style="fill:#4eafc6"/><path d="M193,835a14.26,14.26,0,1,0-5-9.68A14.14,14.14,0,0,0,193,835Z" style="fill:#4eafc6"/><path d="M122.33,123.47a11.3,11.3,0,0,0,18.52-9.63,11.3,11.3,0,1,0-18.52,9.63Z" style="fill:#4eafc6"/><path d="M36.3,373.94a11.95,11.95,0,1,0-4.21-8.11A11.9,11.9,0,0,0,36.3,373.94Z" style="fill:#4eafc6"/><path d="M163.11,456.3a20.58,20.58,0,0,0-41,3.58l.58-.05.58-.06A19.43,19.43,0,1,1,130.13,473a19.37,19.37,0,0,1-6.86-13.18l-.58.06-.58.05a20.58,20.58,0,1,0,41-3.58Z" style="fill:#4eafc6"/><path d="M180.27,401.64a7.85,7.85,0,1,0-8.51-7.14A7.86,7.86,0,0,0,180.27,401.64Z" style="fill:#4eafc6"/><path d="M152.48,71.87A11.8,11.8,0,1,0,139.7,61.14,11.8,11.8,0,0,0,152.48,71.87Z" style="fill:#4eafc6"/><path d="M352.56,300.77a5.62,5.62,0,1,0,6.09,5.11A5.62,5.62,0,0,0,352.56,300.77Z" style="fill:#4eafc6"/><path d="M67.24,313.84A5.75,5.75,0,1,0,61,308.61,5.75,5.75,0,0,0,67.24,313.84Z" style="fill:#4eafc6"/><path d="M295.94,415a16.16,16.16,0,1,0-14.69,17.49A16.15,16.15,0,0,0,295.94,415Z" style="fill:#4eafc6"/><path d="M123.52,646.57A13.32,13.32,0,0,0,111.4,661l.58,0,.58-.06a12.18,12.18,0,1,1,4.3,8.26,12.12,12.12,0,0,1-4.3-8.26L112,661l-.58,0a13.33,13.33,0,1,0,12.12-14.44Z" style="fill:#4eafc6"/><path d="M261.53,546.33A16.13,16.13,0,1,0,279,561,16.14,16.14,0,0,0,261.53,546.33Z" style="fill:#4eafc6"/><path d="M249.25,706.75a10.43,10.43,0,1,0,11.3,9.49A10.44,10.44,0,0,0,249.25,706.75Z" style="fill:#4eafc6"/><circle cx="350.03" cy="815.8" r="12.97" transform="translate(-516.19 621.58) rotate(-54.14)" style="fill:#4eafc6"/><path d="M281.77,207.15a5.75,5.75,0,1,0,5.23-6.23A5.75,5.75,0,0,0,281.77,207.15Z" style="fill:#4eafc6"/><path d="M115.59,522.85a10.06,10.06,0,1,0-9.15,10.9A10.07,10.07,0,0,0,115.59,522.85Z" style="fill:#4eafc6"/><path d="M6.33,578a5.46,5.46,0,1,0,5.9,5A5.45,5.45,0,0,0,6.33,578Z" style="fill:#4eafc6"/><path d="M333.58,359.21a8.59,8.59,0,1,0,7.81-9.3A8.59,8.59,0,0,0,333.58,359.21Z" style="fill:#4eafc6"/><path d="M366.31,170.78A11.19,11.19,0,0,0,344,172.73l1.16-.11,1.17-.1a8.84,8.84,0,1,1,3.12,6,8.81,8.81,0,0,1-3.12-6l-1.17.1-1.16.11a11.19,11.19,0,0,0,22.29-1.95Z" style="fill:#4eafc6"/><path d="M241.84,60.88a3.52,3.52,0,1,0,3.81,3.2A3.52,3.52,0,0,0,241.84,60.88Z" style="fill:#4eafc6"/><path d="M346.33,673.9a6.67,6.67,0,1,0-7.22-6.07A6.67,6.67,0,0,0,346.33,673.9Z" style="fill:#4eafc6"/><path d="M189.83,754.15a5.52,5.52,0,1,0-5,6A5.51,5.51,0,0,0,189.83,754.15Z" style="fill:#4eafc6"/><path d="M200.76,807.56a16.59,16.59,0,0,0-15.09,18l1.16-.1,1.17-.1a14.26,14.26,0,1,1,5,9.68,14.25,14.25,0,0,1-5-9.68l-1.17.1-1.16.1a16.6,16.6,0,1,0,15.09-18Z" style="fill:#4eafc6"/><circle cx="350.97" cy="498.03" r="12.67" transform="translate(-258.29 495.25) rotate(-54.57)" style="fill:#4eafc6"/><path d="M65.45,451.54A7.06,7.06,0,1,0,73.09,458,7.05,7.05,0,0,0,65.45,451.54Z" style="fill:#4eafc6"/><path d="M215.46,323.46a6.15,6.15,0,1,0,6.66,5.59A6.16,6.16,0,0,0,215.46,323.46Z" style="fill:#4eafc6"/><circle cx="169.94" cy="282.52" r="14.21" transform="translate(-158.87 258.43) rotate(-54.78)" style="fill:#4eafc6"/><path d="M79.76,698.58a5.26,5.26,0,1,0,5.7,4.79A5.27,5.27,0,0,0,79.76,698.58Z" style="fill:#4eafc6"/><path d="M149.88,616.73a6.67,6.67,0,1,0,7.22,6.06A6.68,6.68,0,0,0,149.88,616.73Z" style="fill:#4eafc6"/><path d="M154.94,552.66a11.06,11.06,0,0,0-10,12l.59,0,.58-.05a9.85,9.85,0,1,1,3.48,6.7,9.86,9.86,0,0,1-3.48-6.7l-.58.05-.59,0a11,11,0,1,0,10-12Z" style="fill:#4eafc6"/><path d="M42.84,351.74a13.1,13.1,0,0,0-11.92,14.19l.58-.05.59-.05a11.93,11.93,0,1,1,4.21,8.11,11.86,11.86,0,0,1-4.21-8.11l-.59.05-.58.05a13.1,13.1,0,1,0,11.92-14.19Z" style="fill:#4eafc6"/><circle cx="121.23" cy="364.95" r="15.76" transform="translate(-236.65 224.23) rotate(-50.16)" style="fill:#4eafc6"/><path d="M241.09,121.63l.59,0,.58-.06a4.85,4.85,0,1,1,1.71,3.3,4.83,4.83,0,0,1-1.71-3.3l-.58.06-.59,0a6,6,0,1,0,5.48-6.53A6,6,0,0,0,241.09,121.63Z" style="fill:#4eafc6"/><circle cx="214.23" cy="14.58" r="8.4" transform="translate(37.03 135.85) rotate(-38.28)" style="fill:#4eafc6"/><path d="M128.51,102.4a12.47,12.47,0,0,0-11.34,13.5l.58-.05.58,0a11.31,11.31,0,1,1,4,7.67,11.28,11.28,0,0,1-4-7.67l-.58,0-.58.05a12.47,12.47,0,1,0,11.34-13.5Z" style="fill:#4eafc6"/><path d="M200.77,137.69a5.44,5.44,0,1,0,6.48-4.13A5.43,5.43,0,0,0,200.77,137.69Z" style="fill:#4eafc6"/><path d="M193.35,180.12a9.95,9.95,0,1,0,10.78,9A9.94,9.94,0,0,0,193.35,180.12Z" style="fill:#4eafc6"/><path d="M267,282.56l1.16-.1,1.17-.1a12.9,12.9,0,1,1,4.56,8.77,12.86,12.86,0,0,1-4.56-8.77l-1.17.1-1.16.1A15.25,15.25,0,1,0,280.88,266,15.25,15.25,0,0,0,267,282.56Z" style="fill:#4eafc6"/><path d="M229.19,341.5l1.16-.1,1.17-.1a18.7,18.7,0,1,1,6.6,12.68,18.63,18.63,0,0,1-6.6-12.68l-1.17.1-1.16.1a21,21,0,1,0,19.12-22.77A21,21,0,0,0,229.19,341.5Z" style="fill:#4eafc6"/><path d="M244.32,488.2A19.73,19.73,0,1,0,205,491.63l1.16-.1,1.17-.1a17.39,17.39,0,1,1,6.14,11.81,17.3,17.3,0,0,1-6.14-11.81l-1.17.1-1.16.1a19.73,19.73,0,1,0,39.32-3.43Z" style="fill:#4eafc6"/><circle cx="322.58" cy="760.75" r="13.11" transform="matrix(0.06, -1, 1, 0.06, -456.89, 1035.02)" style="fill:#4eafc6"/><path d="M301.78,659.79a14.44,14.44,0,1,0-15.64-13.14l1.16-.1,1.17-.1a12.1,12.1,0,1,1,4.27,8.22,12,12,0,0,1-4.27-8.22l-1.17.1-1.16.1A14.44,14.44,0,0,0,301.78,659.79Z" style="fill:#4eafc6"/><path d="M278.74,12.94a8,8,0,1,0,9.44,6.23A8,8,0,0,0,278.74,12.94Z" style="fill:#4eafc6"/><circle cx="348.76" cy="101.07" r="12.67" transform="translate(116.96 380.57) rotate(-66.49)" style="fill:#4eafc6"/><path d="M329.54,190.43a10.22,10.22,0,0,1-3.38,1.36,2.65,2.65,0,0,0,2,.47C328.87,192.06,329.28,191.26,329.54,190.43Z" style="fill:#4eafc6"/></g></g></svg>