<svg xmlns="http://www.w3.org/2000/svg" viewBox="0 0 25 44.21"><g id="Layer_2" data-name="Layer 2"><g id="Layer_6" data-name="Layer 6"><path d="M22.16.44,12.5,9.3,2.84.44A1.7,1.7,0,1,0,.55,2.94l10.81,9.9h2.28l10.81-9.9A1.7,1.7,0,1,0,22.16.44Z" style="fill:#06446a"/><path d="M22.16,16.12,12.5,25,2.84,16.12a1.7,1.7,0,1,0-2.29,2.5l10.81,9.91h2.28l10.81-9.91a1.7,1.7,0,1,0-2.29-2.5Z" style="fill:#06446a"/><path d="M22.16,31.81,12.5,40.66,2.84,31.81A1.69,1.69,0,1,0,.55,34.3l10.81,9.91h2.28L24.45,34.3a1.69,1.69,0,1,0-2.29-2.49Z" style="fill:#06446a"/><path d="M13.64,12.84H11.36L.55,2.94A1.7,1.7,0,1,1,2.84.44L12.5,9.3,22.16.44a1.7,1.7,0,1,1,2.29,2.5Z" style="fill:#06446a"/><path d="M13.64,28.53H11.36L.55,18.62a1.7,1.7,0,1,1,2.29-2.5L12.5,25l9.66-8.86a1.7,1.7,0,1,1,2.29,2.5Z" style="fill:#06446a"/><path d="M13.64,44.21H11.36L.55,34.3a1.69,1.69,0,1,1,2.29-2.49l9.66,8.85,9.66-8.85a1.69,1.69,0,1,1,2.29,2.49Z" style="fill:#06446a"/></g></g></svg>