<svg id="Layer_1" data-name="Layer 1" xmlns="http://www.w3.org/2000/svg" viewBox="0 0 164.15 191.91"><rect width="164.15" height="191.91" style="fill:#900"/><polygon points="100.35 46.15 100.35 56.35 107.4 56.35 107.4 113.15 92.48 113.15 92.48 38.34 100.41 38.34 100.41 28.15 63.2 28.15 63.2 38.34 71.13 38.34 71.13 113.15 56.04 113.15 56.04 56.35 63.09 56.35 63.09 46.15 28.08 46.15 28.08 56.35 35.99 56.35 35.99 122.12 48.86 135.26 71.13 135.26 71.13 150.42 63.23 150.42 63.23 163.55 100.38 163.55 100.38 150.42 92.48 150.42 92.48 135.26 114.58 135.26 127.45 122.12 127.45 56.35 135.38 56.35 135.38 46.15 100.35 46.15" style="fill:#fff"/></svg>