<?xml version="1.0" encoding="utf-8"?>
<svg version="1.1" id="navlogo-icon" xmlns="http://www.w3.org/2000/svg" xmlns:xlink="http://www.w3.org/1999/xlink" x="0px" y="0px"
	 viewBox="0 0 140 140" style="enable-background:new 0 0 140 140;" xml:space="preserve">
<g id="Layer_2_1_">
	<g id="Layer_1-2">
		<path class="center" d="M83.9,76.8c0,7.7-6.3,14-14,14s-14-6.3-14-14s6.3-14,14-14S83.9,69,83.9,76.8"/>
		<path class="outer" d="M123.2,80.3c-1.9,0-3.5-1.5-3.5-3.5c0-1.9,1.5-3.5,3.5-3.5s3.5,1.5,3.5,3.5c0,0,0,0,0,0
			C126.7,78.7,125.2,80.3,123.2,80.3C123.3,80.3,123.2,80.3,123.2,80.3 M75,88.9h-0.3v0.2c-3.1,1.1-6.6,1.1-9.7,0v-0.2h-0.3
			c-6.7-2.9-9.8-10.6-7-17.3c2.9-6.7,10.6-9.8,17.3-7c4.9,2.1,8,6.9,8,12.1C83,82,79.8,86.8,75,88.9 M16.4,80.3
			c-1.9,0-3.5-1.6-3.5-3.5c0-1.9,1.6-3.5,3.5-3.5s3.5,1.6,3.5,3.5S18.4,80.3,16.4,80.3C16.4,80.3,16.4,80.3,16.4,80.3 M64.8,22.7
			c0-2.8,2.2-5,5-5c2.8,0,5,2.2,5,5s-2.2,5-5,5c0,0,0,0,0,0C67.1,27.7,64.8,25.4,64.8,22.7 M110.1,119.2c2.8,0,5,2.2,5,5s-2.2,5-5,5
			c-2.8,0-5-2.2-5-5C105.1,121.6,107.3,119.3,110.1,119.2 M29.6,129.3c-2.8,0-5-2.2-5.1-5c0-2.8,2.2-5,5-5.1c2.8,0,5,2.2,5.1,5
			c0,0,0,0.1,0,0.1C34.6,127.1,32.4,129.3,29.6,129.3 M15.2,10.7c2.2,0,4,1.8,4,4s-1.8,4-4,4s-4-1.8-4-4S13,10.7,15.2,10.7
			 M124.4,10.7c2.2,0,4,1.8,4,4s-1.8,4-4,4s-4-1.8-4-4C120.5,12.5,122.3,10.8,124.4,10.7 M123.2,67.1c-4.1,0.1-7.8,2.7-9.2,6.6H88.8
			c-0.5-3.4-1.9-6.5-4-9.2V52.7c0-3.9,3.2-7.1,7.1-7.1h22.6c7.3,0,13.3-5.9,13.3-13.3v-8c5.4-1.6,8.5-7.3,6.8-12.7
			c-1.3-4.3-5.4-7.3-9.9-7.3c-5.6,0-10.2,4.5-10.2,10.1c0,0.1,0,0.1,0,0.2c0,4.4,2.8,8.4,7.1,9.8v8c0,3.9-3.2,7.1-7.1,7.1H91.7
			c-7.4,0-13.3,6-13.3,13.4v6.8c-1.7-0.9-3.6-1.6-5.5-1.8v-24c6-1.7,9.4-8,7.7-13.9c-1.7-6-8-9.4-13.9-7.7s-9.4,8-7.7,13.9
			c1.1,3.7,4,6.6,7.7,7.7v24c-1.9,0.3-3.8,0.9-5.5,1.7v-6.8c0-7.4-6-13.3-13.3-13.4H25.3c-3.9,0-7.1-3.1-7.1-7v-8
			c5.4-1.7,8.4-7.5,6.6-12.9S17.3,3.1,12,4.8s-8.4,7.5-6.6,12.9c1,3.2,3.5,5.6,6.6,6.6v8c0,7.4,6,13.3,13.3,13.3l0,0H48
			c3.9,0,7.1,3.2,7.1,7.1v11.8c-2.2,2.6-3.6,5.8-4.2,9.2H25.6c-1.7-5.1-7.2-7.8-12.3-6s-7.8,7.2-6,12.3c1.3,3.9,5,6.6,9.2,6.6
			c4.1-0.1,7.8-2.7,9.2-6.6h25.2c0.8,5.1,3.7,9.7,8,12.7v20c0,4.8-3.9,8.6-8.7,8.7h-9.8c-1.4-4.8-5.8-8.1-10.8-8.1
			c-6.2,0.3-11.1,5.5-10.8,11.7c0.2,5.9,4.9,10.5,10.8,10.8c5-0.1,9.4-3.4,10.8-8.1h9.7c8.2,0,14.9-6.7,14.9-14.9l0,0V95.5
			c1.6,0.4,3.2,0.6,4.9,0.7c1.6,0,3.3-0.2,4.8-0.7v17c0,8.2,6.7,14.9,14.9,14.9h9.7c1.7,6,8,9.4,14,7.7c6-1.7,9.4-8,7.7-14
			s-8-9.4-14-7.7c-3.7,1.1-6.6,4-7.7,7.7h-9.7c-4.8,0-8.6-3.9-8.7-8.7V92.7c4.2-3,7.1-7.5,8-12.7h25.1c1.7,5.1,7.2,7.8,12.3,6.1
			c4-1.3,6.6-5.1,6.6-9.2C133,71.5,128.6,67.1,123.2,67.1z"/>
	</g>
</g>
</svg>
