<svg xmlns="http://www.w3.org/2000/svg" viewBox="0 0 133.51 167.28"><defs><style>.a{fill:#4eafc6;}.b{fill:#333;}.c{fill:#fff;}.d{fill:#e9523b;}.e{fill:#f5bb17;}.f{fill:#c40823;}.g{fill:#66445a;}.h{fill:#0c6396;}</style></defs><rect class="a" x="0.11" y="99.96" width="133.07" height="30.58"/><path class="b" d="M22,154.19v5.37H11.62v-5.37H13v-5.36a2.36,2.36,0,0,0-.45-1.59,1.77,1.77,0,0,0-1.38-.51c-1.31,0-2,.7-2,2.1v5.36h1.37v5.37H.23v-5.37H1.67V139.47H.23V134.1h9v9.82a8.43,8.43,0,0,1,2.62-2.26,6.8,6.8,0,0,1,3.27-.75,4.9,4.9,0,0,1,4.07,1.7,7.27,7.27,0,0,1,1.36,4.68v6.9Z"/><path class="b" d="M44.54,154.19v5.37h-9V157a7.21,7.21,0,0,1-5.89,3,4.9,4.9,0,0,1-4.07-1.7,7.3,7.3,0,0,1-1.36-4.68v-6.91H22.81v-5.37h9V152.1a2.21,2.21,0,0,0,.47,1.58,2.25,2.25,0,0,0,2.85,0,2.26,2.26,0,0,0,.47-1.58v-5.37H33.8v-5.37h9.3v12.83Z"/><path class="b" d="M56.53,159.2a8.39,8.39,0,0,1-2.11-1.87v2.23h-9v-5.37h1.44V139.47H45.45V134.1h9v9.49a8.17,8.17,0,0,1,2.11-1.86,5.38,5.38,0,0,1,3-.82,5.67,5.67,0,0,1,5,2.48q1.69,2.49,1.69,7.07c0,3.06-.56,5.41-1.69,7.07a5.65,5.65,0,0,1-5,2.49,5.46,5.46,0,0,1-3-.82m1.21-5.51a2.26,2.26,0,0,0,.48-1.59v-3.27a2.26,2.26,0,0,0-.48-1.59,2.25,2.25,0,0,0-2.85,0,2.31,2.31,0,0,0-.47,1.59v3.27a2.31,2.31,0,0,0,.47,1.59,2.28,2.28,0,0,0,2.85,0"/><rect class="b" x="67.84" y="154.19" width="5.1" height="5.37"/><path class="b" d="M77.59,157.58Q75,155.14,75,150.46t2.62-7.11a10.2,10.2,0,0,1,7.26-2.44q4.71,0,7.3,2.47t2.58,7.08q0,4.68-2.61,7.12A10.29,10.29,0,0,1,84.85,160a10.25,10.25,0,0,1-7.26-2.44m8.68-3.89a2.26,2.26,0,0,0,.48-1.59v-3.27a2.26,2.26,0,0,0-.48-1.59,2.23,2.23,0,0,0-2.84,0,2.26,2.26,0,0,0-.48,1.59v3.27a2.26,2.26,0,0,0,.48,1.59,2.27,2.27,0,0,0,2.84,0"/><path class="b" d="M111,141a4,4,0,0,1,1,.32v6.25a7.5,7.5,0,0,0-2.88-.55,4.37,4.37,0,0,0-3.18,1.08,4.28,4.28,0,0,0-1.11,3.21v2.84h3v5.37H95.85v-5.37h1.44v-7.46H95.85v-5.37h9v2.39a7,7,0,0,1,2.1-2.11,5.24,5.24,0,0,1,2.84-.73A5.64,5.64,0,0,1,111,141"/><path class="b" d="M118.11,167a18.16,18.16,0,0,1-3.32-.75v-5.36a36.07,36.07,0,0,0,6.22.62,4.83,4.83,0,0,0,2.7-.58,2.43,2.43,0,0,0,.83-2.14v-1.41a8.22,8.22,0,0,1-2.11,1.87,5.46,5.46,0,0,1-3,.82,5.66,5.66,0,0,1-5-2.49c-1.13-1.66-1.69-4-1.69-7.07s.56-5.41,1.69-7.07a5.68,5.68,0,0,1,5-2.48,5.38,5.38,0,0,1,3,.82,8,8,0,0,1,2.11,1.86v-2.22h9v5.36h-1.44v11.52q0,4.74-2.36,6.89c-1.57,1.43-3.93,2.14-7.1,2.14a29.58,29.58,0,0,1-4.5-.33m6-13.26a2.31,2.31,0,0,0,.47-1.59v-3.27a2.31,2.31,0,0,0-.47-1.59,2.25,2.25,0,0,0-2.85,0,2.26,2.26,0,0,0-.47,1.59v3.27a2.26,2.26,0,0,0,.47,1.59,2.28,2.28,0,0,0,2.85,0"/><path class="c" d="M6.43,122.83a7.89,7.89,0,0,1,0-10.25,7.39,7.39,0,0,1,5.23-1.76q3.33,0,4.8,1.73a6.44,6.44,0,0,1,1.47,4.31v1.69H10.3v.14a1.56,1.56,0,0,0,.51,1.29,2.84,2.84,0,0,0,1.72.41,17.21,17.21,0,0,0,2.74-.21,13.93,13.93,0,0,0,2.26-.54v3.77a9.68,9.68,0,0,1-2.41.81,15.17,15.17,0,0,1-3.46.37,7.39,7.39,0,0,1-5.23-1.76M13,116v-.28a1.63,1.63,0,0,0-.34-1.16,1.39,1.39,0,0,0-1-.35,1.33,1.33,0,0,0-1,.36,1.65,1.65,0,0,0-.34,1.15V116Z"/><path class="c" d="M19.66,122.8a11.33,11.33,0,0,1,0-10.19,4.1,4.1,0,0,1,3.62-1.79,4,4,0,0,1,2.14.59,5.67,5.67,0,0,1,1.51,1.35v-3H25.54v-3.86h6.82v14.47h1v3.87H26.93v-1.61A5.67,5.67,0,0,1,25.42,124a4,4,0,0,1-2.14.59,4.1,4.1,0,0,1-3.62-1.79M26.59,120a1.65,1.65,0,0,0,.34-1.15v-2.35a1.65,1.65,0,0,0-.34-1.15,1.33,1.33,0,0,0-1-.36,1.36,1.36,0,0,0-1,.36,1.7,1.7,0,0,0-.34,1.15v2.35a1.7,1.7,0,0,0,.34,1.15,1.36,1.36,0,0,0,1,.36,1.33,1.33,0,0,0,1-.36"/><path class="c" d="M49.66,120.39v3.87H43.2v-1.84A5.21,5.21,0,0,1,39,124.59,3.52,3.52,0,0,1,36,123.36,5.28,5.28,0,0,1,35,120v-5H34v-3.87h6.45v7.73a1.65,1.65,0,0,0,.35,1.15,1.33,1.33,0,0,0,1,.36,1.36,1.36,0,0,0,1-.36,1.7,1.7,0,0,0,.34-1.15V115H41.93v-3.87h6.69v9.24Z"/><path class="c" d="M52.11,122.83a7.89,7.89,0,0,1,0-10.25,7.39,7.39,0,0,1,5.23-1.76,10.63,10.63,0,0,1,3.11.45,8.75,8.75,0,0,1,2.31,1V117h-4v-.42a1.7,1.7,0,0,0-.33-1.15,1.35,1.35,0,0,0-1-.36c-.91,0-1.37.5-1.37,1.51v2c0,1.23.7,1.84,2.1,1.84a28.86,28.86,0,0,0,4.55-.42v3.7a10.75,10.75,0,0,1-2.25.63,15.6,15.6,0,0,1-3,.29,7.42,7.42,0,0,1-5.25-1.76"/><path class="c" d="M77.31,120.39v3.87H71.08v-1.61A4.74,4.74,0,0,1,69.63,124a4.19,4.19,0,0,1-2.27.59,3.91,3.91,0,0,1-2.78-1,3.42,3.42,0,0,1-1-2.66q0-4.45,7.57-4.57a1.28,1.28,0,0,0-.61-1.1,4.26,4.26,0,0,0-1.84-.29,12.53,12.53,0,0,0-2.28.22,13.26,13.26,0,0,0-2.22.6v-4.33a23.89,23.89,0,0,1,2.71-.5,23.25,23.25,0,0,1,2.85-.19q3.51,0,5,1.28A4.83,4.83,0,0,1,76.27,116v4.36Zm-6.23-1.65a4,4,0,0,0-1.64.28,1,1,0,0,0-.57,1,.92.92,0,0,0,.24.65,1,1,0,0,0,.7.24,1,1,0,0,0,.94-.52,2.7,2.7,0,0,0,.33-1.46Z"/><path class="c" d="M80.12,123.37c-.84-.81-1.26-2.17-1.26-4.09V115h-1v-3.87a1.8,1.8,0,0,0,1.35-.46,1.7,1.7,0,0,0,.44-1.26v-1.06h5v2.78h3.18V115H84.61v3.86A1.7,1.7,0,0,0,85,120a1.36,1.36,0,0,0,1,.36,10,10,0,0,0,2-.21v3.7a11,11,0,0,1-1.77.48,11.6,11.6,0,0,1-2.28.23,5.23,5.23,0,0,1-3.76-1.22"/><path class="c" d="M88.69,124.26v-3.87h1V115h-1v-3.87h6.46v9.24h1v3.87Zm1.13-18.34h4.81v3.94H89.82Z"/><path class="c" d="M98.64,122.83a7.89,7.89,0,0,1,0-10.25,8.64,8.64,0,0,1,10.48,0,7.9,7.9,0,0,1,0,10.23,8.65,8.65,0,0,1-10.46,0m6.25-2.8a1.65,1.65,0,0,0,.35-1.15v-2.35a1.65,1.65,0,0,0-.35-1.15,1.33,1.33,0,0,0-1-.36,1.36,1.36,0,0,0-1,.36,1.65,1.65,0,0,0-.34,1.15v2.35a1.65,1.65,0,0,0,.34,1.15,1.36,1.36,0,0,0,1,.36,1.33,1.33,0,0,0,1-.36"/><path class="c" d="M127.39,120.39v3.87h-7.45v-3.87h1v-3.86a1.7,1.7,0,0,0-.33-1.15,1.28,1.28,0,0,0-1-.36c-.94,0-1.41.5-1.41,1.51v3.86h1v3.87h-7.45v-3.87h1V115h-1v-3.87h6.46V113a5.17,5.17,0,0,1,4.24-2.17,3.52,3.52,0,0,1,2.93,1.23,5.2,5.2,0,0,1,1,3.37v5Z"/><path class="b" d="M2,86q-2-3-2-8.46t2-8.46a6.77,6.77,0,0,1,6-3,6.49,6.49,0,0,1,3.54,1A9.87,9.87,0,0,1,14.1,69.3V64.37H11.79V57.94H23.11V82h1.72v6.42H14.1V85.75A9.69,9.69,0,0,1,11.57,88,6.41,6.41,0,0,1,8,89a6.78,6.78,0,0,1-6-3m11.51-4.61a2.68,2.68,0,0,0,.57-1.9V75.57a2.7,2.7,0,0,0-.57-1.9,2.21,2.21,0,0,0-1.7-.61,2.22,2.22,0,0,0-1.71.61,2.7,2.7,0,0,0-.56,1.9v3.91a2.68,2.68,0,0,0,.56,1.9,2.22,2.22,0,0,0,1.71.61,2.21,2.21,0,0,0,1.7-.61"/><polygon class="b" points="26.08 88.41 26.08 81.99 27.81 81.99 27.81 73.06 26.08 73.06 26.08 66.64 36.81 66.64 36.81 81.99 38.54 81.99 38.54 88.41 26.08 88.41"/><path class="b" d="M45.72,97.26a21.89,21.89,0,0,1-4-.9V89.94a42.34,42.34,0,0,0,7.44.75A5.83,5.83,0,0,0,52.42,90a2.9,2.9,0,0,0,1-2.57V85.75A9.69,9.69,0,0,1,50.89,88a6.41,6.41,0,0,1-3.54,1,6.78,6.78,0,0,1-6-3q-2-3-2-8.46t2-8.46a6.77,6.77,0,0,1,6-3,6.49,6.49,0,0,1,3.54,1,9.87,9.87,0,0,1,2.53,2.23V66.64H64.15v6.42H62.43V86.85q0,5.67-2.82,8.24c-1.88,1.71-4.72,2.57-8.5,2.57a34.59,34.59,0,0,1-5.39-.4m7.13-15.88a2.68,2.68,0,0,0,.57-1.9V75.57a2.7,2.7,0,0,0-.57-1.9,2.69,2.69,0,0,0-3.41,0,2.7,2.7,0,0,0-.56,1.9v3.91a2.68,2.68,0,0,0,.56,1.9,2.69,2.69,0,0,0,3.41,0"/><polygon class="b" points="65.25 88.41 65.25 81.99 66.97 81.99 66.97 73.06 65.25 73.06 65.25 66.64 75.98 66.64 75.98 81.99 77.7 81.99 77.7 88.41 65.25 88.41"/><path class="b" d="M82.22,87c-1.39-1.35-2.09-3.61-2.09-6.8V73.06H78.41V66.64a3,3,0,0,0,2.23-.76,2.91,2.91,0,0,0,.74-2.1V62h8.3v4.62H95v6.42H89.68v6.42a2.68,2.68,0,0,0,.57,1.9A2.22,2.22,0,0,0,92,82a17.09,17.09,0,0,0,3.25-.35v6.15A20.65,20.65,0,0,1,88.47,89q-4.16,0-6.25-2"/><path class="b" d="M119.29,82v6.42H109V85.75A7.9,7.9,0,0,1,106.54,88a6.86,6.86,0,0,1-3.78,1,6.56,6.56,0,0,1-4.62-1.56A5.77,5.77,0,0,1,96.46,83q0-7.39,12.57-7.6a2.12,2.12,0,0,0-1-1.82,6.8,6.8,0,0,0-3.05-.49,21.55,21.55,0,0,0-3.78.37,21.86,21.86,0,0,0-3.7,1v-7.2a40.71,40.71,0,0,1,4.5-.83,36.84,36.84,0,0,1,4.74-.31c3.89,0,6.67.7,8.34,2.12s2.51,3.59,2.51,6.54V82ZM109,79.25a6.39,6.39,0,0,0-2.72.47,1.62,1.62,0,0,0-1,1.57,1.46,1.46,0,0,0,.41,1.07,1.55,1.55,0,0,0,1.16.41,1.72,1.72,0,0,0,1.56-.86,4.46,4.46,0,0,0,.55-2.43Z"/><polygon class="b" points="120.55 88.45 120.55 81.99 122.27 81.99 122.27 64.37 120.55 64.37 120.55 57.94 131.28 57.94 131.28 81.99 133 81.99 133 88.45 120.55 88.45"/><path class="a" d="M58.25,36.23a7,7,0,1,1-7-7,7,7,0,0,1,7,7"/><path class="d" d="M74.38,60a3,3,0,1,1-3-3,3.06,3.06,0,0,1,3,3"/><path class="d" d="M27,5.2a3,3,0,1,1-3-3,3,3,0,0,1,3,3"/><path class="e" d="M34.16,60a3,3,0,1,1-3-3,3,3,0,0,1,3,3"/><path class="e" d="M81.57,5.2a3,3,0,1,1-3-3,3,3,0,0,1,3,3"/><path class="f" d="M27,36.23a2.52,2.52,0,1,1-2.52-2.51A2.51,2.51,0,0,1,27,36.23"/><path class="g" d="M80.43,36.23a2.51,2.51,0,1,1-2.51-2.51,2.51,2.51,0,0,1,2.51,2.51"/><path class="h" d="M53.73,9.19a2.51,2.51,0,1,1-2.51-2.51,2.51,2.51,0,0,1,2.51,2.51"/><path class="b" d="M77.92,38a1.74,1.74,0,1,1,1.73-1.74A1.74,1.74,0,0,1,77.92,38M53.82,42.3h-.17v.09a7.05,7.05,0,0,1-4.85,0V42.3h-.18a6.6,6.6,0,1,1,9.19-6.07,6.68,6.68,0,0,1-4,6.07M24.52,38a1.74,1.74,0,1,1,1.74-1.74A1.74,1.74,0,0,1,24.52,38M48.71,9.19a2.51,2.51,0,1,1,2.51,2.51,2.51,2.51,0,0,1-2.51-2.51M71.33,57.47A2.51,2.51,0,1,1,68.82,60a2.57,2.57,0,0,1,2.51-2.51m-40.22,5A2.52,2.52,0,1,1,33.63,60a2.58,2.58,0,0,1-2.52,2.52M23.92,3.21a2,2,0,1,1-2,2,2,2,0,0,1,2-2m54.61,0a2,2,0,0,1,0,4,2,2,0,0,1-2-2,2.09,2.09,0,0,1,2-2m-.61,28.17a5,5,0,0,0-4.59,3.29H60.76a9.7,9.7,0,0,0-2.08-4.59V24.19a3.57,3.57,0,0,1,3.55-3.56H73.59A6.67,6.67,0,0,0,80.26,14V10A5.1,5.1,0,0,0,78.7,0a5.07,5.07,0,0,0-5.11,5.11A5.13,5.13,0,0,0,77.15,10v4a3.58,3.58,0,0,1-3.56,3.55H62.15a6.69,6.69,0,0,0-6.68,6.68v3.38a7.85,7.85,0,0,0-2.77-.87v-12a5.64,5.64,0,1,0-3.13,0v12a10,10,0,0,0-2.77.87V24.19a6.68,6.68,0,0,0-6.67-6.68H29A3.57,3.57,0,0,1,25.39,14V10a5.12,5.12,0,1,0-3.11,0v4A6.67,6.67,0,0,0,29,20.63H40.3a3.57,3.57,0,0,1,3.56,3.56v5.89a9.7,9.7,0,0,0-2.08,4.59H29.12a4.85,4.85,0,1,0-4.59,6.42,5,5,0,0,0,4.59-3.29H41.69a9.52,9.52,0,0,0,4,6.33v10a4.35,4.35,0,0,1-4.34,4.33H36.49a5.64,5.64,0,1,0,0,3.13h4.85a7.46,7.46,0,0,0,7.46-7.46V45.6a11.13,11.13,0,0,0,2.43.34,7.85,7.85,0,0,0,2.43-.34v8.49a7.46,7.46,0,0,0,7.45,7.46H66a5.64,5.64,0,1,0,0-3.13H61.1a4.34,4.34,0,0,1-4.33-4.33V44.21a9.71,9.71,0,0,0,4-6.33H73.33a4.85,4.85,0,0,0,9.45-1.56,4.93,4.93,0,0,0-4.86-4.94Z"/></svg>