<svg xmlns="http://www.w3.org/2000/svg" viewBox="0 0 52.22 52.64"><defs><style>.a{fill:#4eafc6;}.b{fill:#e9523b;}.c{fill:#f5bb17;}.d{fill:#c40823;}.e{fill:#66445a;}.f{fill:#0c6396;}.g{fill:#333;}</style></defs><path class="a" d="M31.71,29.07a5.64,5.64,0,1,1-5.64-5.64,5.63,5.63,0,0,1,5.64,5.64"/><path class="b" d="M44.65,48.12a2.45,2.45,0,1,1-2.45-2.44,2.45,2.45,0,0,1,2.45,2.44"/><path class="b" d="M6.61,4.17A2.44,2.44,0,1,1,4.17,1.73,2.45,2.45,0,0,1,6.61,4.17"/><path class="c" d="M12.38,48.12a2.44,2.44,0,1,1-2.44-2.44,2.44,2.44,0,0,1,2.44,2.44"/><path class="c" d="M50.42,4.17A2.45,2.45,0,1,1,48,1.73a2.45,2.45,0,0,1,2.44,2.44"/><path class="d" d="M6.67,29.07a2,2,0,1,1-2-2,2,2,0,0,1,2,2"/><path class="e" d="M49.51,29.07a2,2,0,1,1-2-2,2,2,0,0,1,2,2"/><path class="f" d="M28.09,7.37a2,2,0,1,1-2-2,2,2,0,0,1,2,2"/><path class="g" d="M47.49,30.46a1.4,1.4,0,1,1,1.39-1.39,1.39,1.39,0,0,1-1.39,1.39M28.16,33.93H28V34a6,6,0,0,1-1.95.35A6.06,6.06,0,0,1,24.12,34v-.07H24a5.29,5.29,0,1,1,7.37-4.86,5.35,5.35,0,0,1-3.2,4.86M4.65,30.46a1.4,1.4,0,1,1,1.4-1.39,1.4,1.4,0,0,1-1.4,1.39M24.06,7.37a2,2,0,1,1,2,2,2,2,0,0,1-2-2M42.2,46.1a2,2,0,1,1-2,2,2.07,2.07,0,0,1,2-2m-32.26,4a2,2,0,1,1,2-2,2.07,2.07,0,0,1-2,2M4.17,2.57a1.6,1.6,0,1,1-1.6,1.6,1.57,1.57,0,0,1,1.6-1.6M48,2.57a1.6,1.6,0,1,1,0,3.2,1.57,1.57,0,0,1-1.6-1.6A1.67,1.67,0,0,1,48,2.57m-.49,22.6a4,4,0,0,0-3.69,2.65H33.72a7.75,7.75,0,0,0-1.67-3.69V19.4a2.87,2.87,0,0,1,2.86-2.85H44a5.36,5.36,0,0,0,5.36-5.35V8a4.1,4.1,0,0,0-1.25-8A4.06,4.06,0,0,0,44,4.1,4.12,4.12,0,0,0,46.87,8v3.2A2.86,2.86,0,0,1,44,14.05H34.84a5.36,5.36,0,0,0-5.36,5.35v2.71a6.31,6.31,0,0,0-2.22-.69V11.75a4.53,4.53,0,1,0-2.51,0v9.67a8.07,8.07,0,0,0-2.22.69V19.4a5.36,5.36,0,0,0-5.36-5.35h-9A2.86,2.86,0,0,1,5.35,11.2V8a4.1,4.1,0,1,0-2.5,0v3.2a5.36,5.36,0,0,0,5.36,5.35h9.1a2.87,2.87,0,0,1,2.86,2.85v4.73a7.75,7.75,0,0,0-1.67,3.69H8.34A3.89,3.89,0,1,0,4.66,33a4,4,0,0,0,3.68-2.64H18.43a7.59,7.59,0,0,0,3.19,5.07v8a3.48,3.48,0,0,1-3.47,3.48h-3.9a4.52,4.52,0,1,0,0,2.5h3.9a6,6,0,0,0,6-6V36.58a8.66,8.66,0,0,0,1.95.27A6.19,6.19,0,0,0,28,36.58v6.81a6,6,0,0,0,6,6H37.9a4.52,4.52,0,1,0,0-2.5H34a3.49,3.49,0,0,1-3.48-3.48V35.47a7.76,7.76,0,0,0,3.2-5.08H43.81a3.89,3.89,0,0,0,7.58-1.25,4,4,0,0,0-3.9-4Z"/></svg>