<svg xmlns="http://www.w3.org/2000/svg" viewBox="0 0 416.26 500.11"><defs><style>.a{fill:#53666e;}.a,.b{stroke:#d1d3d4;stroke-miterlimit:10;}.b{fill:none;}</style></defs><path class="a" d="M117.08,290.62a3.48,3.48,0,1,0-.75,2.48l30.07,20.25a5.6,5.6,0,0,0-.62,3,5.54,5.54,0,0,0,1.32,3.12L137,330.62a4,4,0,1,0,.43.39l10.07-11.08a5.56,5.56,0,0,0,9.15-5.67l18.76-6.34A7.24,7.24,0,1,0,185.75,299l31.44-61a9,9,0,0,0,4.59.83,8.78,8.78,0,0,0,3.53-1.08l17.57,29.5a6.24,6.24,0,1,0,8.85,2l31-20.63a9.51,9.51,0,0,0,15.84-.48l18,10.45a8.23,8.23,0,1,0,13.17-1.81l7.6-7.84a4.12,4.12,0,0,0,5.84-.55l16.06,11.29a4.69,4.69,0,0,0-.7,2.91,4.75,4.75,0,0,0,3.57,4.2l-2.89,14.87a4.08,4.08,0,0,0-.7,0,3.72,3.72,0,1,0,1.28.13L362.65,267a5.15,5.15,0,0,0,1,0,4.79,4.79,0,0,0,4.35-4.61l15.35-.43v.09a6.36,6.36,0,1,0,0-.67L368,261.8a4.78,4.78,0,0,0-8.5-2.55L343.48,248a4.12,4.12,0,1,0-6.58.62l-7.61,7.85a8.21,8.21,0,0,0-12.46,1.72l-17.95-10.45a9.42,9.42,0,0,0,1.12-5.37,9.54,9.54,0,1,0-17.59,5.86l-31,20.64a6.18,6.18,0,0,0-8-1.87l-17.56-29.48a8.89,8.89,0,0,0-4.2-16.36l1.56-43.26c.2,0,.4,0,.6,0a7.24,7.24,0,0,0,4.14-1.77l4.79,5.08a3.48,3.48,0,0,0-.89,2.65A3.52,3.52,0,1,0,235,180a3.46,3.46,0,0,0-1.89.76l-4.79-5.08a7.26,7.26,0,1,0-12.45-5.06L183,172a3.55,3.55,0,1,0,0,.58l32.92-1.36v0a7.26,7.26,0,0,0,6.69,6.61L221,221.08l-.8,0a8.9,8.9,0,0,0-3.56,16.65l-31.44,61a7.12,7.12,0,0,0-3.68-.65A7.23,7.23,0,0,0,175,306a7.31,7.31,0,0,0,.26,1.41l-18.79,6.35a5.57,5.57,0,0,0-5.59-3.37,5.88,5.88,0,0,0-1.67.44l-12.5-34.94a3.48,3.48,0,1,0-1.15.32,4,4,0,0,0,.6-.12l12.52,35a5.58,5.58,0,0,0-2,1.82l-30-20.23A3.48,3.48,0,0,0,117.08,290.62Z"/><path class="a" d="M71.62,400.94A9.41,9.41,0,0,0,76.84,402"/><path class="a" d="M78.86,401.59a9.43,9.43,0,1,0-11.15-13.45L38.25,374.39a5.21,5.21,0,0,0-1.19-5.78l7.21-8.07a3.51,3.51,0,1,0,2.48-6.3L47.2,336h.16A4.12,4.12,0,0,0,51,332.69L82.39,337a4,4,0,0,0,0,.49,3.55,3.55,0,1,0,.08-1.07l-31.36-4.28c0-.21,0-.41,0-.62a4.14,4.14,0,0,0-4.47-3.76,5.4,5.4,0,0,0-.58.11L33.44,287.11a5.5,5.5,0,0,0,3.74-5.69,5.38,5.38,0,0,0-.87-2.48l23.83-16.57a6.84,6.84,0,1,0-.32-.49L36,278.45a5.5,5.5,0,1,0-7.37,8L18.24,304.8a3.51,3.51,0,1,0,2,2.87,3.5,3.5,0,0,0-1.53-2.59l10.37-18.32a5.56,5.56,0,0,0,3.06.63,4.46,4.46,0,0,0,.71-.14L45.51,328a4.12,4.12,0,0,0-2.62,4.18,4.86,4.86,0,0,0,.11.55l-33.19,10a3.47,3.47,0,1,0,.25,1,3,3,0,0,0-.08-.43l33.19-10A4.12,4.12,0,0,0,46.61,336l-.44,18.29h-.1a3.5,3.5,0,0,0-2.23,5.92l-7.2,8.06A5.36,5.36,0,1,0,38,374.92l29.43,13.75a9.39,9.39,0,0,0,3.66,12"/><path class="a" d="M332.85,355.36a3.52,3.52,0,1,0-3.78-4l-16.58-1c0-.22,0-.43,0-.65a6.33,6.33,0,1,0-10.61,5.18L281,379.42a7.52,7.52,0,0,0-12.26,6.46,1.92,1.92,0,0,0,0,.22l-26,3.87a6.22,6.22,0,0,0-3.21-4.29L252,366a3.56,3.56,0,0,0,2.65.07,3.52,3.52,0,1,0-4.54-2,3.46,3.46,0,0,0,1.38,1.69L239,385.44a6.24,6.24,0,1,0,3.88,5.23s0-.08,0-.13l26-3.87a7.5,7.5,0,0,0,3.94,5.23l-11.7,23.39a9.17,9.17,0,0,0-12.68,11l-45.92,15.35a8.9,8.9,0,0,0-15.07-2.75l-39.83-32.47a7.64,7.64,0,0,0,2-5.87,7.37,7.37,0,0,0-.31-1.58l14.89-4.68a5.5,5.5,0,1,0,7.13-7.05l8.41-25.74a3.53,3.53,0,1,0-1.24-.57,3.34,3.34,0,0,0,.69.38L170.76,387a5.37,5.37,0,0,0-5.27,1.4L143,367.87l.08-.09a3.53,3.53,0,1,0-.47.53l22.49,20.53a5.52,5.52,0,0,0-1.24,4,6.22,6.22,0,0,0,.17.88l-14.9,4.69a7.7,7.7,0,1,0-6.5,10.47,7.6,7.6,0,0,0,4.58-2.05l39.89,32.5a8.88,8.88,0,0,0-1.8,6.17c0,.13,0,.25.05.37l-52.91,8.59a4.86,4.86,0,1,0,.12.65s0,0,0-.07l52.88-8.59A8.92,8.92,0,0,0,203,443.94a8.63,8.63,0,0,0-.34-1.78l45.92-15.34a9.21,9.21,0,0,0,4.94,5.23l-12,30a5.32,5.32,0,0,0-2.11-.23,5.5,5.5,0,0,0,.65,11l1.67,19.95a3.43,3.43,0,0,0-2,1.33,3.51,3.51,0,1,0,4.9-.8,3.41,3.41,0,0,0-2.37-.63l-1.66-19.9a5.48,5.48,0,0,0,4.6-4.2l20.43,4.06a3.51,3.51,0,1,0,2.1-2.84,3.51,3.51,0,0,0-2,2.27l-20.43-4.06a4.91,4.91,0,0,0,0-1.15,5.47,5.47,0,0,0-3.32-4.56l12-30a9.16,9.16,0,0,0,11-4l17.16,9.45a8.62,8.62,0,0,0-.95,4.76,8.72,8.72,0,0,0,17.14,1.37l39.95,9a6.21,6.21,0,0,0-.09,1.78,6.76,6.76,0,0,0,13,2l11.47,4.1a4.38,4.38,0,0,0-.18,1.66,4.59,4.59,0,1,0,4.18-5h0l-3.94-24.74a3.48,3.48,0,1,0-.59.11h0l3.94,24.74a4.55,4.55,0,0,0-3.19,2.64l-11.47-4.1a6.76,6.76,0,1,0-13-3.77l-39.95-9a8.46,8.46,0,0,0,.12-2.31,8.72,8.72,0,0,0-16.14-3.76l-17.16-9.46a9.16,9.16,0,0,0-3.8-12.23l11.71-23.4a7.5,7.5,0,0,0,10.4-7.58,7.56,7.56,0,0,0-2.28-4.76l20.83-24.57a6.32,6.32,0,0,0,10.16-4.33l16.59,1a1.92,1.92,0,0,0,0,.24A3.51,3.51,0,0,0,332.85,355.36Z"/><path class="b" d="M306.44,65.84a6.72,6.72,0,0,1,2.83,2.78L366,38.36a6.44,6.44,0,0,1-.54-3.27l-55.9-6.15a6.27,6.27,0,0,1-4.59,4.95,6,6,0,0,1-1.38.19l-.1,31A6.63,6.63,0,0,1,306.44,65.84Z"/><path class="b" d="M309.34,74.93a6.73,6.73,0,0,1-3.76,3.26l12.95,36.47a8.19,8.19,0,0,1,6,.62l.11.07,43.71-74.26a6.33,6.33,0,0,1-2.07-2.21L309.53,69.14A6.73,6.73,0,0,1,309.34,74.93Z"/><path class="b" d="M267.71,68.51a4.42,4.42,0,0,1,.24-.6,5.1,5.1,0,0,1,2.44-2.31l-5.55-13.95A3.92,3.92,0,0,1,260,49.12l-27.63,6.76a5.6,5.6,0,0,1,0,1.78Z"/><path class="b" d="M302.79,78.56l-2.49,24.5a5.46,5.46,0,0,1,2.08.58,5.33,5.33,0,0,1,2.28,7.16c-.05.09-.12.17-.18.26l9.77,6.42a8.26,8.26,0,0,1,3.73-2.65L305,78.36A6.66,6.66,0,0,1,302.79,78.56Z"/><path class="a" d="M102.05,67a3.52,3.52,0,1,0,1.51,4.74,3.48,3.48,0,0,0,.29-2.4L142.27,57a4.57,4.57,0,0,0,2.18,2.45,4.66,4.66,0,0,0,6.27-2,4.55,4.55,0,0,0,.51-1.76L221.5,57a5.43,5.43,0,0,0,2.76,4.47L213.5,81.23a4.88,4.88,0,1,0,1.41.72,4.46,4.46,0,0,0-.86-.5l10.74-19.69a5.44,5.44,0,0,0,7-2.5,5,5,0,0,0,.41-1l35.33,10.82a5.2,5.2,0,0,0,9.66,3.64,5,5,0,0,0,.53-1.78l18.89,1.19a6.73,6.73,0,0,0,3.64,5.73,6.87,6.87,0,0,0,2,.66l-2.5,24.59a5.3,5.3,0,1,0,4.46,8.47L313.9,118c-.18.27-.36.56-.52.86a8.24,8.24,0,0,0,3.54,11.1,1.28,1.28,0,0,0,.24.11l-9.64,22a9.23,9.23,0,0,0-9.49,1.61L289.94,145a3.56,3.56,0,1,0-.42.41l8.08,8.72a9.06,9.06,0,0,0-1.71,2.32,9.8,9.8,0,0,0-.44,1l-42.76-14.5a3.88,3.88,0,0,0,.1-1.18,3.67,3.67,0,1,0-2,3.56,3.57,3.57,0,0,0,1.7-1.83L295.26,158a9.23,9.23,0,0,0,12.23,11.26L317,191a2.43,2.43,0,0,0-.35.2,3.69,3.69,0,1,0,.88-.43L308,169a9.1,9.1,0,0,0,4.27-4.1,9.23,9.23,0,0,0-4-12.44l-.28-.13,9.65-22a8.24,8.24,0,0,0,7.41-14.64l43.7-74.25.07,0a6.42,6.42,0,0,0,8.67-2.76c.06-.1.1-.21.15-.31L408.93,52a3.52,3.52,0,1,0,.23-.53l-31.25-13.7a6.41,6.41,0,0,0-.54-5.38L388,25.75a3.55,3.55,0,1,0-.33-.49l-10.61,6.68a6.56,6.56,0,0,0-2.27-2,6.44,6.44,0,0,0-7.58,1.24l-21-17.48c.06-.11.14-.2.2-.31a4.77,4.77,0,1,0-.52.8l21,17.43a6.37,6.37,0,0,0-1.31,2.85L309.6,28.36a6.37,6.37,0,0,0-.15-2.12,6.29,6.29,0,0,0-7.66-4.51,6.13,6.13,0,0,0-1.92.89L288.62,6.7a3.5,3.5,0,1,0-1.38.72,3.43,3.43,0,0,0,.9-.38L299.4,23a6.24,6.24,0,0,0,1.15,10.44L291.4,53.93a3.54,3.54,0,1,0,.54.24l9.14-20.52a6.37,6.37,0,0,0,1.9.4l-.1,31.06a6.74,6.74,0,0,0-5.53,3.63,6.62,6.62,0,0,0-.74,2.77l-18.86-1.18a5.16,5.16,0,0,0-6.83-5l-5.54-14a3.91,3.91,0,1,0-5.18-5.3,3.81,3.81,0,0,0-.37,2.44L232.2,55.32a5.41,5.41,0,0,0-1.93-2.88l9.38-13.6a3.59,3.59,0,1,0-.47-.36l-9.39,13.64c-.12-.08-.22-.16-.34-.23a5.47,5.47,0,0,0-5.67.42L206.89,31.75a3.87,3.87,0,1,0-2.82,1.07,3.79,3.79,0,0,0,2.36-.71l16.89,20.56a5.36,5.36,0,0,0-1.24,1.57,5.42,5.42,0,0,0-.6,2.22l-70.26-1.31a4.61,4.61,0,0,0-1.59-3.3l32.13-42a3.39,3.39,0,0,0,1.75.56,3.55,3.55,0,1,0-2.22-.92l-32.13,42a4.78,4.78,0,0,0-.44-.29,4.66,4.66,0,0,0-6.27,2,.06.06,0,0,0,0,0L123.31,45a3.46,3.46,0,1,0-.22.54l19.13,8.22a4.59,4.59,0,0,0-.13,2.69L103.67,68.77A3.44,3.44,0,0,0,102.05,67Zm212.2,50.5-9.77-6.42c.06-.09.13-.17.18-.26a5.33,5.33,0,0,0-2.28-7.16,5.46,5.46,0,0,0-2.08-.58l2.49-24.5a6.66,6.66,0,0,0,2.23-.2l13,36.47A8.26,8.26,0,0,0,314.25,117.48Zm54.06-76.39L324.6,115.35l-.11-.07a8.19,8.19,0,0,0-6-.62L305.58,78.19a6.73,6.73,0,0,0,3.95-9l56.71-30.26A6.33,6.33,0,0,0,368.31,41.09Zm-64.75-7a6,6,0,0,0,1.38-.19,6.27,6.27,0,0,0,4.59-4.95l55.9,6.15a6.44,6.44,0,0,0,.54,3.27l-56.7,30.26a6.72,6.72,0,0,0-2.83-2.78,6.63,6.63,0,0,0-3-.74ZM260,49.12a3.92,3.92,0,0,0,4.89,2.53l5.55,13.95A5.1,5.1,0,0,0,268,67.91a4.42,4.42,0,0,0-.24.6L232.3,57.66a5.6,5.6,0,0,0,0-1.78Z"/><path class="a" d="M30.33,153.94a6.37,6.37,0,0,0-3.26,5.76l-18,1.4a4.14,4.14,0,0,0-.52-1.72,4.33,4.33,0,1,0,.53,2.31l18-1.4a6.54,6.54,0,0,0,.77,2.36,6.4,6.4,0,0,0,8.71,2.45,6.51,6.51,0,0,0,1.58-1.25l14.18,11.89a3,3,0,1,0,1-.94,3.42,3.42,0,0,0-.63.49L38.55,163.4a6.41,6.41,0,0,0-3.37-10.05L41,127.83a5.13,5.13,0,0,0,3.45-.57,5.24,5.24,0,0,0,2-7.14,5.4,5.4,0,0,0-1-1.23L63.4,97.62a7.06,7.06,0,0,0,7.75.57A7.33,7.33,0,0,0,73,96.71l7.15,5.81a4.12,4.12,0,0,0,.29,3.4,4.17,4.17,0,0,0,4.15,2.1l6.86,15.42.53-.24-6.81-15.3a4.36,4.36,0,0,0,1-.38,4.18,4.18,0,0,0-4.09-7.3A4.27,4.27,0,0,0,80.34,102l-7-5.69a7,7,0,1,0-10.38,1L45.06,118.5a5.2,5.2,0,0,0-8.29,3.32L9.42,118.76a3.59,3.59,0,0,0-5.36-3.26,3.6,3.6,0,0,0,2.72,6.62l5.53,15.11-.17.08a3.07,3.07,0,1,0,.72-.28L7.33,121.92a2.06,2.06,0,0,0,.26-.12,3.56,3.56,0,0,0,1.76-2.46l27.34,3.06a5.2,5.2,0,0,0,3.77,5.32l-5.85,25.5A6.43,6.43,0,0,0,30.33,153.94Z"/><path class="a" d="M91.68,123.32a3.52,3.52,0,1,0,4.79,1.35A3.52,3.52,0,0,0,91.68,123.32Z"/></svg>